<?xml version="1.0" standalone="no"?>
<!DOCTYPE svg PUBLIC "-//W3C//DTD SVG 20010904//EN"
 "http://www.w3.org/TR/2001/REC-SVG-20010904/DTD/svg10.dtd">
<svg version="1.0" xmlns="http://www.w3.org/2000/svg"
 width="1008.000000pt" height="324.000000pt" viewBox="0 0 1008.000000 324.000000"
 preserveAspectRatio="xMidYMid meet">

<g transform="translate(0.000000,324.000000) scale(0.100000,-0.100000)"
fill="#000000" stroke="none">
<path d="M4720 1630 l0 -1500 40 0 40 0 0 1500 0 1500 -40 0 -40 0 0 -1500z"/>
<path d="M585 2323 c-373 -80 -618 -466 -539 -851 33 -163 140 -335 267 -429
250 -186 569 -189 822 -8 65 46 81 70 70 105 -10 32 -52 25 -109 -19 -154
-118 -356 -158 -529 -106 -182 55 -344 210 -408 390 -63 180 -43 380 53 544
71 120 219 235 355 276 170 51 386 9 527 -104 55 -44 90 -40 94 10 3 33 -1 38
-57 78 -163 114 -357 155 -546 114z"/>
<path d="M5530 2264 c-46 -20 -77 -50 -103 -99 -31 -57 -31 -183 0 -241 73
-138 255 -151 338 -26 31 47 45 112 23 112 -8 0 -19 -18 -25 -42 -15 -56 -70
-109 -120 -117 -144 -25 -245 106 -199 261 32 110 132 165 229 124 39 -16 87
-70 87 -97 0 -10 7 -19 15 -19 22 0 18 42 -8 81 -45 69 -156 98 -237 63z"/>
<path d="M6920 2230 c0 -29 4 -40 15 -40 11 0 15 11 15 40 0 29 -4 40 -15 40
-11 0 -15 -11 -15 -40z"/>
<path d="M7740 2034 l0 -226 103 4 c124 4 174 27 215 98 24 39 27 56 27 130 0
75 -3 91 -27 132 -41 69 -88 88 -216 88 l-102 0 0 -226z m247 169 c50 -36 68
-80 68 -163 0 -87 -20 -131 -75 -167 -28 -20 -46 -23 -121 -23 l-89 0 0 191 0
191 95 -4 c76 -3 100 -8 122 -25z"/>
<path d="M9690 2219 c0 -52 24 -48 28 4 2 28 -1 37 -12 37 -12 0 -16 -11 -16
-41z"/>
<path d="M6757 2244 c-4 -4 -7 -27 -7 -51 0 -39 -2 -43 -25 -43 -16 0 -25 -6
-25 -15 0 -9 9 -15 25 -15 l25 0 0 -117 c0 -75 5 -127 13 -143 14 -28 56 -46
82 -36 24 9 1 36 -31 36 l-24 0 0 129 0 130 33 3 c41 4 42 22 0 26 -30 3 -32
5 -35 49 -3 44 -15 62 -31 47z"/>
<path d="M5965 2153 c-11 -3 -30 -14 -42 -26 l-23 -20 0 21 c0 13 -6 22 -15
22 -13 0 -15 -22 -13 -162 3 -190 20 -218 28 -45 6 132 18 160 80 178 64 19
50 48 -15 32z"/>
<path d="M6130 2142 c-51 -28 -80 -84 -80 -155 0 -115 44 -167 143 -167 56 0
62 2 98 39 41 40 54 91 24 91 -9 0 -15 -9 -15 -21 0 -11 -13 -34 -29 -50 -51
-51 -146 -36 -176 26 -29 64 -28 64 113 67 l127 3 -2 38 c-3 49 -28 102 -59
122 -40 26 -104 29 -144 7z m105 -26 c33 -14 65 -59 65 -91 0 -13 -17 -15
-110 -15 -81 0 -110 3 -110 13 0 26 42 79 73 92 40 18 41 18 82 1z"/>
<path d="M6470 2143 c-42 -21 -75 -80 -58 -100 13 -17 19 -11 33 30 13 41 70
63 121 47 34 -12 44 -26 44 -65 0 -31 -6 -34 -96 -45 -96 -10 -127 -35 -127
-101 0 -34 6 -47 28 -67 25 -21 36 -24 91 -20 40 2 70 10 81 21 18 15 20 15
36 -3 19 -23 57 -27 57 -6 0 7 -9 16 -20 19 -19 5 -20 14 -20 126 0 110 -2
122 -23 146 -30 36 -97 44 -147 18z m140 -183 c0 -68 -45 -110 -117 -110 -46
0 -73 24 -73 65 0 44 20 57 98 65 37 4 73 8 80 9 7 0 12 -11 12 -29z"/>
<path d="M7394 2146 c-101 -46 -124 -215 -39 -293 30 -29 42 -33 87 -33 29 0
64 6 77 13 31 15 60 55 63 86 5 38 -19 35 -32 -4 -7 -22 -23 -41 -40 -50 -34
-17 -93 -20 -121 -5 -22 12 -49 61 -49 90 0 19 6 20 125 20 l125 0 0 38 c0 45
-26 99 -61 125 -34 24 -96 31 -135 13z m117 -37 c16 -8 49 -67 49 -88 0 -7
-37 -11 -110 -11 -99 0 -110 2 -110 18 0 21 27 63 49 77 37 24 81 25 122 4z"/>
<path d="M6922 1988 c4 -216 22 -214 26 2 2 139 0 160 -13 160 -13 0 -15 -21
-13 -162z"/>
<path d="M7001 2138 c2 -32 126 -313 139 -316 11 -2 31 41 73 151 61 164 64
177 44 177 -7 0 -34 -57 -62 -135 -28 -74 -52 -135 -55 -135 -3 0 -29 61 -58
135 -34 84 -59 135 -68 135 -8 0 -14 -6 -13 -12z"/>
<path d="M8548 2132 c-32 -17 -36 -17 -46 -3 -7 12 -13 13 -21 5 -8 -7 -11
-60 -9 -165 3 -129 5 -154 18 -154 12 0 16 22 20 122 5 116 6 124 32 149 34
35 99 37 131 5 20 -19 22 -34 25 -152 3 -94 7 -129 15 -126 19 6 21 228 3 272
-25 60 -101 81 -168 47z"/>
<path d="M8895 2137 c-38 -18 -53 -36 -61 -74 -9 -43 12 -51 29 -11 8 18 22
39 31 47 21 18 100 19 120 1 18 -14 22 -75 6 -85 -5 -3 -44 -10 -87 -15 -66
-7 -81 -12 -100 -35 -29 -33 -31 -93 -4 -126 17 -21 28 -24 89 -24 52 0 75 4
89 17 18 17 20 16 36 -2 18 -22 52 -27 62 -9 4 6 -2 13 -13 16 -19 5 -21 14
-24 129 -3 118 -4 125 -29 150 -32 31 -99 41 -144 21z m135 -198 c0 -33 -6
-47 -31 -70 -56 -52 -159 -33 -159 30 0 42 33 65 104 72 33 3 67 7 74 7 8 1
12 -12 12 -39z"/>
<path d="M9233 2131 c-27 -17 -33 -18 -33 -6 0 8 -7 15 -15 15 -13 0 -15 -22
-13 -162 4 -193 20 -221 28 -47 5 125 19 161 66 179 26 10 63 1 82 -22 7 -9
12 -63 14 -144 3 -107 6 -129 18 -129 12 0 15 22 18 125 2 110 5 127 23 146
29 30 64 37 98 20 35 -19 41 -45 41 -188 0 -83 3 -109 13 -105 9 3 12 40 12
140 0 134 -1 137 -26 163 -38 38 -94 42 -140 11 -37 -25 -37 -25 -56 -5 -30
29 -91 33 -130 9z"/>
<path d="M8140 2136 c0 -7 27 -73 83 -207 l45 -106 -18 -41 c-14 -32 -25 -41
-47 -44 -37 -4 -36 -22 3 -26 20 -2 36 3 47 16 24 27 166 395 156 406 -15 16
-26 -5 -74 -134 -26 -72 -50 -128 -52 -126 -2 2 -28 62 -58 132 -32 78 -60
130 -69 132 -9 2 -16 1 -16 -2z"/>
<path d="M9690 1974 c0 -128 3 -165 13 -162 9 4 13 48 15 166 2 140 0 162 -13
162 -13 0 -15 -24 -15 -166z"/>
<path d="M9790 2131 c0 -4 23 -38 50 -74 28 -36 50 -70 50 -75 0 -5 -25 -40
-55 -79 -30 -39 -55 -76 -55 -82 0 -28 30 -5 78 59 29 39 56 70 60 69 4 0 30
-30 57 -66 28 -37 56 -68 63 -71 26 -8 10 27 -44 96 -34 44 -52 77 -48 84 4 7
27 39 51 70 24 31 43 61 43 67 0 22 -26 10 -48 -22 -12 -17 -35 -47 -50 -65
l-27 -33 -48 65 c-43 58 -77 84 -77 57z"/>
<path d="M940 1873 c0 -127 -1 -136 -15 -115 -9 12 -37 34 -63 49 -39 24 -58
28 -118 28 -61 0 -77 -4 -120 -30 -30 -19 -60 -49 -79 -79 -26 -43 -30 -59
-30 -121 0 -62 4 -78 30 -121 19 -30 49 -60 79 -79 43 -26 59 -30 120 -30 60
0 79 4 118 28 26 15 54 37 63 49 14 21 15 20 15 -35 0 -50 2 -57 20 -57 20 0
20 7 20 325 0 318 0 325 -20 325 -19 0 -20 -7 -20 -137z m-122 -88 c103 -44
149 -160 103 -260 -70 -152 -282 -152 -352 0 -73 158 89 326 249 260z"/>
<path d="M3234 1955 c-4 -9 -2 -21 4 -27 15 -15 44 -1 40 19 -4 23 -36 29 -44
8z"/>
<path d="M1685 1881 c-48 -22 -79 -54 -100 -103 -12 -30 -15 -79 -15 -238 0
-193 1 -200 20 -200 19 0 20 7 20 201 0 223 6 250 64 292 23 16 45 22 86 22
41 0 63 -6 86 -22 56 -40 64 -72 64 -252 0 -154 1 -161 20 -161 19 0 20 7 20
163 0 136 -3 168 -19 202 -45 98 -152 140 -246 96z"/>
<path d="M3362 1877 c-9 -11 19 -50 128 -181 l140 -167 -123 -147 c-163 -197
-150 -177 -133 -191 12 -10 37 15 145 144 72 85 133 156 136 156 3 0 64 -71
136 -156 108 -129 133 -154 145 -144 17 14 30 -6 -133 191 l-123 147 128 153
c70 84 133 160 140 169 10 13 10 19 -2 28 -12 10 -37 -15 -142 -141 -70 -84
-132 -159 -138 -165 -9 -10 -41 22 -140 142 -149 180 -149 180 -164 162z"/>
<path d="M1336 1650 l-176 -211 0 200 c0 194 -1 201 -20 201 -19 0 -20 -7 -20
-226 l0 -226 -73 -86 c-105 -126 -100 -117 -83 -131 12 -11 59 41 283 311 147
178 274 331 281 339 10 13 10 19 -2 28 -12 10 -44 -23 -190 -199z"/>
<path d="M2306 1772 c-374 -441 -475 -566 -465 -579 6 -7 15 -10 20 -7 5 3
114 130 242 282 127 152 240 286 249 297 17 19 17 11 18 -162 l0 -183 -125 0
c-118 0 -125 -1 -125 -20 0 -19 7 -20 125 -20 l125 0 0 -95 c0 -88 1 -95 20
-95 20 0 20 7 20 329 0 283 -2 330 -15 335 -10 4 -39 -23 -89 -82z"/>
<path d="M2588 1829 c-69 -36 -78 -70 -78 -289 0 -183 1 -190 20 -190 19 0 20
7 20 188 0 169 2 190 20 220 35 57 120 68 166 20 43 -46 54 -97 54 -263 0
-148 1 -155 20 -155 19 0 20 7 20 150 0 225 20 283 101 296 47 8 85 -9 109
-48 18 -30 20 -51 20 -215 0 -176 1 -183 20 -183 19 0 20 7 20 185 0 166 -2
190 -20 225 -23 45 -80 80 -130 80 -44 0 -107 -35 -125 -70 -9 -17 -18 -30
-20 -30 -2 0 -11 13 -20 30 -18 36 -81 70 -127 70 -18 -1 -50 -10 -70 -21z"/>
<path d="M3230 1600 c0 -243 1 -250 20 -250 19 0 20 7 20 250 0 243 -1 250
-20 250 -19 0 -20 -7 -20 -250z"/>
<path d="M8032 1318 c2 -142 7 -222 13 -221 6 2 11 87 13 223 2 192 0 220 -13
220 -13 0 -15 -28 -13 -222z"/>
<path d="M5499 1507 c-43 -29 -63 -69 -55 -112 10 -51 51 -79 153 -104 48 -12
98 -28 109 -36 47 -30 37 -113 -17 -140 -41 -22 -137 -19 -176 5 -29 17 -53
65 -53 108 0 6 -7 12 -16 12 -14 0 -16 -8 -11 -42 11 -83 74 -130 176 -129 97
0 150 39 158 115 5 41 3 48 -28 79 -27 27 -52 38 -124 56 -118 29 -135 41
-135 91 0 68 46 97 141 88 59 -6 96 -35 105 -85 8 -42 30 -37 28 6 -4 72 -61
111 -162 111 -45 0 -67 -5 -93 -23z"/>
<path d="M6167 1513 c-4 -3 -7 -100 -7 -213 0 -162 3 -210 13 -219 8 -6 17 -8
20 -4 4 3 7 105 7 225 0 175 -3 218 -13 218 -8 0 -17 -3 -20 -7z"/>
<path d="M6754 1507 c-9 -25 0 -62 16 -62 10 0 15 10 15 34 0 36 -21 54 -31
28z"/>
<path d="M6610 1450 c0 -49 0 -50 -31 -50 -38 0 -35 -24 4 -28 l27 -3 0 -124
c0 -68 3 -131 6 -140 8 -21 46 -35 73 -28 30 8 21 27 -15 33 l-29 5 -3 127 -3
127 32 3 c46 4 50 28 5 28 l-36 0 0 50 c0 38 -4 50 -15 50 -11 0 -15 -12 -15
-50z"/>
<path d="M8220 1423 c-8 -3 -25 -15 -37 -26 l-23 -20 0 21 c0 13 -6 22 -15 22
-13 0 -15 -22 -13 -162 4 -193 20 -220 29 -48 6 127 18 159 69 180 33 14 83 6
102 -17 9 -11 15 -60 18 -147 4 -108 8 -131 20 -131 12 0 16 20 18 105 4 118
-7 166 -42 199 -25 23 -95 37 -126 24z"/>
<path d="M8535 1416 c-107 -49 -130 -214 -42 -295 35 -32 117 -41 162 -17 51
28 89 116 50 116 -9 0 -15 -9 -15 -21 0 -11 -13 -34 -29 -50 -54 -54 -145 -33
-175 41 -22 55 -20 87 7 140 18 36 30 48 64 60 38 13 46 12 76 -2 20 -10 39
-29 47 -47 7 -17 19 -31 27 -31 23 0 7 49 -26 84 -34 34 -99 44 -146 22z"/>
<path d="M5889 1387 c-46 -30 -69 -80 -69 -147 0 -67 23 -117 69 -147 69 -46
165 -19 203 57 24 47 23 135 -1 180 -40 77 -133 103 -202 57z m121 -20 c115
-58 80 -267 -45 -267 -74 0 -120 66 -113 158 4 48 10 60 41 89 39 36 74 42
117 20z"/>
<path d="M6920 1392 c-71 -35 -101 -151 -60 -239 27 -60 70 -85 139 -80 47 3
59 9 87 40 127 138 -5 360 -166 279z m120 -27 c40 -20 60 -63 60 -125 0 -62
-20 -105 -60 -125 -48 -25 -88 -19 -125 18 -107 107 -4 299 125 232z"/>
<path d="M7253 1391 c-27 -17 -33 -18 -33 -6 0 8 -7 15 -15 15 -13 0 -15 -22
-13 -162 4 -193 21 -221 28 -46 4 98 8 121 26 145 36 47 90 55 139 19 18 -13
21 -29 25 -148 7 -175 24 -176 28 -1 l3 132 -29 32 c-37 42 -110 51 -159 20z"/>
<path d="M7570 1403 c-62 -23 -82 -104 -35 -141 14 -11 41 -23 62 -27 111 -21
152 -66 99 -112 -52 -45 -142 -24 -162 37 -16 47 -34 50 -34 5 0 -67 67 -105
163 -92 52 7 87 44 87 91 0 45 -30 70 -116 95 -81 24 -99 39 -90 76 17 67 158
53 168 -17 5 -32 28 -35 28 -3 0 37 -16 62 -50 80 -28 15 -90 19 -120 8z"/>
<path d="M6263 1384 c-10 -26 3 -228 18 -257 26 -56 115 -75 176 -38 31 19 31
19 36 -1 3 -11 10 -17 16 -13 7 4 11 63 11 166 0 135 -2 159 -15 159 -12 0
-15 -18 -15 -100 0 -110 -13 -157 -51 -184 -35 -24 -85 -20 -114 9 -24 23 -25
30 -25 150 0 106 -2 125 -15 125 -9 0 -18 -7 -22 -16z"/>
<path d="M6755 1388 c-3 -8 -4 -79 -3 -158 3 -121 5 -145 18 -145 13 0 15 24
15 154 0 115 -3 155 -12 158 -7 3 -15 -2 -18 -9z"/>
<path d="M8822 1133 c2 -21 8 -38 13 -38 6 0 11 17 13 38 3 29 0 37 -13 37
-13 0 -16 -8 -13 -37z"/>
</g>
</svg>
