<?xml version="1.0" standalone="no"?>
<!DOCTYPE svg PUBLIC "-//W3C//DTD SVG 20010904//EN"
 "http://www.w3.org/TR/2001/REC-SVG-20010904/DTD/svg10.dtd">
<svg version="1.0" xmlns="http://www.w3.org/2000/svg"
 width="1008.000000pt" height="1008.000000pt" viewBox="0 0 1008.000000 1008.000000"
 preserveAspectRatio="xMidYMid meet">

<g transform="translate(0.000000,1008.000000) scale(0.100000,-0.100000)"
fill="#000000" stroke="none">
<path d="M4934 10065 c-176 -38 -321 -172 -374 -343 -20 -63 -20 -100 -20
-3025 l0 -2962 -862 861 c-908 905 -894 892 -1022 929 -82 24 -239 17 -316
-14 -149 -61 -265 -191 -306 -346 -18 -65 -17 -186 0 -251 37 -141 -22 -77
1390 -1490 1413 -1412 1349 -1353 1490 -1390 65 -18 187 -18 252 0 141 37 77
-22 1490 1390 1412 1413 1353 1349 1390 1490 17 65 18 186 0 251 -41 155 -157
285 -306 346 -77 31 -234 38 -316 14 -128 -37 -115 -25 -1014 -922 -471 -469
-859 -853 -863 -853 -4 0 -7 1329 -7 2954 0 2918 0 2955 -20 3018 -53 174
-199 305 -378 344 -81 17 -128 17 -208 -1z"/>
<path d="M1891 994 c-225 -60 -373 -254 -374 -489 0 -222 136 -408 353 -481
53 -18 158 -19 3170 -19 3012 0 3117 1 3170 19 112 37 218 120 279 215 99 155
99 380 1 535 -67 105 -182 189 -305 221 -53 13 -405 15 -3150 14 -2665 0
-3097 -2 -3144 -15z"/>
</g>
</svg>
