<?xml version="1.0" standalone="no"?>
<!DOCTYPE svg PUBLIC "-//W3C//DTD SVG 20010904//EN"
 "http://www.w3.org/TR/2001/REC-SVG-20010904/DTD/svg10.dtd">
<svg version="1.0" xmlns="http://www.w3.org/2000/svg"
 width="1008.000000pt" height="1008.000000pt" viewBox="0 0 1008.000000 1008.000000"
 preserveAspectRatio="xMidYMid meet">

<g transform="translate(0.000000,1008.000000) scale(0.100000,-0.100000)"
fill="#000000" stroke="none">
<path d="M2215 10064 c-201 -33 -420 -125 -589 -245 -513 -365 -723 -1031
-514 -1628 42 -121 128 -283 203 -383 77 -103 224 -245 327 -316 93 -64 248
-142 345 -173 l73 -24 0 -610 c0 -335 5 -671 10 -745 59 -767 592 -1376 1315
-1500 108 -18 162 -20 691 -20 l574 0 0 -815 c0 -768 -1 -816 -17 -822 -264
-91 -445 -202 -619 -380 -179 -184 -312 -435 -370 -703 -27 -121 -27 -439 0
-560 121 -557 518 -967 1071 -1107 103 -26 123 -28 325 -28 202 0 222 2 325
28 555 140 949 548 1071 1107 27 121 27 439 0 560 -58 268 -191 519 -370 703
-174 178 -355 289 -618 380 -17 6 -18 54 -18 821 l0 815 603 4 c578 3 606 4
700 25 326 74 578 212 808 441 281 282 434 610 468 1006 6 67 11 401 11 760
l0 640 71 23 c193 61 374 176 540 341 258 259 397 572 416 936 29 570 -283
1092 -802 1346 -202 99 -382 139 -621 139 -171 0 -290 -19 -445 -70 -205 -68
-374 -169 -530 -317 -450 -428 -571 -1088 -303 -1648 160 -335 447 -594 799
-721 l90 -32 0 -703 0 -704 -28 -88 c-49 -158 -117 -267 -235 -379 -127 -120
-289 -196 -462 -217 -114 -15 -2844 -15 -2956 -1 -310 39 -558 251 -663 565
-50 150 -52 196 -49 889 l3 638 90 32 c689 248 1076 978 896 1690 -100 394
-378 738 -744 923 -96 48 -284 108 -396 127 -116 20 -362 20 -476 0z m363
-769 c190 -38 366 -173 451 -345 94 -192 93 -386 -2 -580 -77 -159 -247 -294
-418 -335 -35 -8 -107 -15 -159 -15 -184 0 -321 58 -455 194 -91 92 -143 184
-171 301 -24 102 -15 267 18 357 116 311 420 486 736 423z m5249 -20 c194 -65
337 -206 411 -403 33 -90 42 -255 18 -357 -29 -120 -79 -209 -176 -306 -133
-134 -265 -189 -450 -189 -186 0 -330 60 -460 190 -198 197 -244 485 -119 740
83 169 258 304 444 345 99 21 233 13 332 -20z m-2632 -7230 c319 -83 528 -388
485 -708 -36 -258 -209 -461 -460 -538 -110 -34 -264 -32 -376 5 -186 60 -340
207 -408 387 -134 358 72 754 444 853 74 20 240 20 315 1z"/>
</g>
</svg>
