<?xml version="1.0" standalone="no"?>
<!DOCTYPE svg PUBLIC "-//W3C//DTD SVG 20010904//EN"
 "http://www.w3.org/TR/2001/REC-SVG-20010904/DTD/svg10.dtd">
<svg version="1.0" xmlns="http://www.w3.org/2000/svg"
 width="1008.000000pt" height="1008.000000pt" viewBox="0 0 1008.000000 1008.000000"
 preserveAspectRatio="xMidYMid meet">

<g transform="translate(0.000000,1008.000000) scale(0.100000,-0.100000)"
fill="#000000" stroke="none">
<path d="M3400 9424 c-70 -19 -148 -59 -335 -171 -82 -50 -172 -103 -200 -118
-27 -15 -171 -97 -320 -183 -251 -144 -436 -250 -511 -293 -41 -23 -267 -154
-419 -242 -255 -149 -365 -213 -502 -292 -136 -78 -156 -95 -110 -95 11 0 66
-16 123 -35 98 -34 171 -68 299 -143 93 -54 522 -301 595 -342 36 -20 124 -72
195 -115 72 -42 197 -115 278 -161 l148 -85 247 144 c136 80 389 226 562 325
676 387 671 383 773 491 87 93 144 195 182 326 47 164 31 391 -41 552 -83 189
-257 350 -460 425 -52 20 -81 23 -254 25 -149 2 -208 -1 -250 -13z"/>
<path d="M6213 9425 c-109 -30 -258 -121 -345 -213 -238 -249 -289 -609 -133
-927 19 -38 58 -99 86 -135 91 -114 120 -134 556 -390 70 -41 157 -91 193
-111 253 -140 247 -137 316 -183 33 -22 68 -40 79 -41 11 -1 32 -13 47 -28 26
-26 42 -31 81 -28 11 2 17 -5 17 -19 0 -11 8 -24 18 -27 9 -4 123 -68 252
-143 129 -76 316 -183 415 -240 99 -57 227 -131 285 -165 58 -34 152 -88 210
-120 126 -70 183 -102 450 -256 214 -124 268 -147 415 -174 187 -35 422 23
600 150 136 97 227 221 287 392 29 83 31 97 32 238 1 170 -13 233 -85 380 -85
172 -181 259 -484 432 -104 60 -287 165 -405 232 -118 68 -282 163 -365 211
-82 49 -168 98 -190 110 -22 12 -137 78 -255 147 -118 69 -262 152 -320 186
-58 33 -141 82 -185 108 -44 26 -251 145 -460 264 -209 120 -396 228 -415 240
-61 39 -143 77 -214 101 -63 22 -86 24 -250 23 -122 0 -198 -5 -233 -14z"/>
<path d="M623 7800 c-294 -67 -523 -292 -599 -590 -30 -118 -26 -307 10 -425
33 -110 71 -181 142 -271 101 -128 147 -158 819 -541 193 -110 390 -222 439
-249 49 -27 101 -56 115 -64 14 -8 58 -33 96 -54 107 -60 123 -70 223 -130 51
-31 94 -56 96 -56 2 0 66 -37 142 -81 77 -45 191 -112 254 -149 276 -161 420
-246 644 -380 261 -155 309 -180 424 -212 110 -31 285 -31 400 0 369 100 606
409 603 786 -2 213 -73 397 -210 549 -77 86 -103 102 -726 460 -181 104 -418
240 -525 302 -359 207 -784 451 -855 490 -38 21 -135 77 -215 125 -639 382
-788 461 -919 490 -109 25 -249 24 -358 0z"/>
<path d="M7270 6788 c-85 -50 -245 -142 -355 -206 -110 -63 -258 -149 -330
-190 -71 -41 -213 -123 -315 -181 -322 -185 -397 -244 -484 -375 -123 -186
-163 -364 -130 -576 32 -203 164 -417 329 -531 196 -136 425 -188 620 -139
140 34 234 83 645 330 80 48 179 105 220 127 41 22 99 55 128 72 29 17 55 31
57 31 9 0 186 106 230 138 28 21 70 48 95 61 25 13 64 37 87 52 22 16 103 61
180 100 76 40 167 89 203 109 36 21 121 69 190 108 69 38 181 103 250 144 69
41 147 88 175 103 l50 29 -35 8 c-80 20 -208 62 -245 81 -42 20 -319 180 -560
322 -77 45 -203 118 -280 162 -77 44 -231 133 -343 197 -112 64 -209 115 -215
115 -7 -1 -82 -42 -167 -91z"/>
<path d="M2846 2402 c-3 -3 -6 -396 -6 -874 l0 -868 105 0 105 0 0 355 0 355
193 0 c318 0 427 22 555 108 112 77 180 185 209 332 15 73 15 87 0 160 -29
149 -98 256 -215 333 -88 58 -162 85 -272 97 -93 11 -664 13 -674 2z m766
-225 c72 -35 140 -110 168 -185 55 -144 -20 -316 -168 -389 -55 -27 -62 -28
-297 -35 -132 -4 -246 -6 -252 -3 -10 3 -13 78 -13 325 l0 321 253 -3 252 -3
57 -28z"/>
<path d="M4407 2402 l-58 -3 3 -622 c3 -556 6 -628 21 -682 71 -243 227 -396
469 -457 122 -31 289 -23 411 19 48 17 112 46 143 64 115 69 209 205 256 369
21 72 22 97 25 693 l4 617 -28 1 c-45 2 -64 2 -125 1 l-58 -2 0 -573 c0 -575
-3 -645 -37 -737 -22 -60 -85 -153 -126 -184 -94 -72 -242 -107 -372 -87 -193
28 -328 161 -364 356 -7 38 -11 264 -11 646 l0 586 -47 0 c-27 -1 -74 -3 -106
-5z"/>
<path d="M6185 2401 l-90 -6 0 -868 0 -868 104 3 104 3 -2 353 -1 352 198 0
c313 0 422 21 550 108 112 77 180 185 209 332 15 72 15 86 0 161 -9 45 -27
105 -40 133 -76 163 -240 272 -444 296 -90 10 -428 11 -588 1z m677 -224 c210
-103 250 -366 78 -520 -87 -78 -122 -86 -397 -89 l-238 -3 -2 323 -3 323 253
-3 252 -3 57 -28z"/>
</g>
</svg>
