<?xml version="1.0" standalone="no"?>
<!DOCTYPE svg PUBLIC "-//W3C//DTD SVG 20010904//EN"
 "http://www.w3.org/TR/2001/REC-SVG-20010904/DTD/svg10.dtd">
<svg version="1.0" xmlns="http://www.w3.org/2000/svg"
 width="1008.000000pt" height="1008.000000pt" viewBox="0 0 1008.000000 1008.000000"
 preserveAspectRatio="xMidYMid meet">

<g transform="translate(0.000000,1008.000000) scale(0.100000,-0.100000)"
fill="#000000" stroke="none">
<path d="M7055 10048 c-80 -39 -147 -107 -182 -182 -24 -52 -28 -74 -28 -146
0 -76 4 -93 32 -151 39 -79 102 -140 181 -177 l57 -27 863 -3 c474 -1 862 -6
862 -11 0 -4 -917 -925 -2037 -2045 -2918 -2919 -3547 -3553 -3574 -3606 -19
-36 -24 -61 -24 -125 0 -70 4 -87 29 -132 35 -63 154 -181 216 -214 64 -34
185 -34 250 0 53 27 676 643 3611 3572 1123 1120 2043 2031 2045 2025 2 -6 5
-394 6 -861 l3 -850 32 -66 c39 -79 102 -140 181 -177 48 -23 71 -27 142 -27
71 0 94 4 142 27 79 37 141 97 182 180 l36 70 0 1339 c0 763 -4 1347 -9 1357
-5 9 -19 38 -32 65 -27 56 -109 137 -164 161 -22 10 -48 22 -57 27 -11 5 -565
9 -1360 8 l-1343 -1 -60 -30z"/>
<path d="M1070 8695 c-8 -2 -49 -9 -90 -15 -232 -38 -460 -158 -636 -334 -171
-172 -280 -373 -329 -606 -13 -63 -15 -474 -15 -3390 0 -3618 -4 -3360 55
-3536 98 -292 321 -546 603 -688 85 -43 216 -87 317 -107 105 -21 6315 -21
6420 0 245 48 458 162 631 335 139 140 235 296 293 474 59 181 56 91 56 1824
0 878 3 1594 8 1591 4 -2 7 43 7 101 0 65 -4 106 -10 106 -6 0 -8 11 -4 26 5
18 3 25 -3 21 -6 -4 -14 0 -17 9 -9 24 -7 31 4 14 7 -10 10 -11 10 -2 0 7 -7
15 -15 18 -9 4 -14 11 -13 18 2 6 -6 21 -17 32 -11 12 -33 38 -49 59 -16 20
-48 49 -72 65 -24 15 -40 30 -37 34 4 4 0 4 -10 0 -9 -3 -17 -2 -17 3 0 10
-11 11 -111 13 -61 2 -80 -3 -134 -29 -75 -37 -133 -98 -174 -183 -15 -32 -31
-55 -36 -51 -4 5 -5 -4 -1 -19 3 -16 3 -28 -1 -28 -5 0 -7 -739 -5 -1642 3
-1213 0 -1659 -8 -1703 -37 -191 -197 -354 -388 -394 -75 -16 -6119 -16 -6194
0 -187 39 -348 200 -387 387 -16 75 -16 6429 0 6504 40 191 204 352 394 387
69 13 2996 21 2988 9 -2 -5 44 -8 102 -8 77 0 104 3 99 11 -5 9 1 10 20 5 30
-7 69 1 62 13 -3 3 20 19 49 35 46 24 89 64 159 148 8 9 12 19 8 22 -3 4 3 12
13 20 36 26 30 232 -6 210 -7 -4 -9 0 -5 14 4 12 2 23 -5 28 -8 4 -9 3 -5 -4
4 -7 5 -12 2 -12 -3 0 -10 10 -17 21 -9 17 -8 20 3 13 7 -4 -11 15 -40 42 -58
53 -156 114 -185 114 -10 0 -16 4 -13 9 3 5 0 11 -8 14 -15 6 -3219 7 -3246 2z
m3237 -11 c-3 -3 -12 -4 -19 -1 -8 3 -5 6 6 6 11 1 17 -2 13 -5z m300 -316
c-3 -7 -5 -2 -5 12 0 14 2 19 5 13 2 -7 2 -19 0 -25z m0 -70 c-3 -7 -5 -2 -5
12 0 14 2 19 5 13 2 -7 2 -19 0 -25z"/>
</g>
</svg>
