<?xml version="1.0" standalone="no"?>
<!DOCTYPE svg PUBLIC "-//W3C//DTD SVG 20010904//EN"
 "http://www.w3.org/TR/2001/REC-SVG-20010904/DTD/svg10.dtd">
<svg version="1.0" xmlns="http://www.w3.org/2000/svg"
 width="1008.000000pt" height="1008.000000pt" viewBox="0 0 1008.000000 1008.000000"
 preserveAspectRatio="xMidYMid meet">

<g transform="translate(0.000000,1008.000000) scale(0.100000,-0.100000)"
fill="#000000" stroke="none">
<path d="M1590 10070 c-8 -5 -30 -10 -48 -10 -39 0 -225 -43 -307 -71 -170
-58 -324 -135 -455 -227 -418 -294 -668 -692 -763 -1217 -15 -83 -15 -6924 0
-7010 69 -392 230 -716 492 -988 94 -98 273 -240 371 -294 19 -11 55 -31 80
-45 143 -79 361 -151 570 -190 94 -17 6926 -17 7020 0 412 76 724 236 1000
512 276 276 436 589 512 1000 9 48 13 520 15 1825 l4 1760 -36 71 c-42 84
-102 144 -183 182 -48 23 -71 27 -142 27 -72 0 -94 -4 -146 -28 -77 -36 -145
-104 -181 -182 l-28 -60 -6 -1735 c-4 -1289 -8 -1750 -17 -1793 -94 -453 -454
-795 -910 -866 -52 -8 -986 -11 -3395 -11 -3474 0 -3358 -1 -3517 38 -233 58
-476 231 -612 438 -91 137 -136 247 -168 408 -20 97 -20 148 -20 3436 0 3288
0 3339 20 3436 32 161 77 271 168 408 143 217 386 385 642 444 25 6 56 14 70
19 14 4 808 10 1765 13 l1740 5 66 32 c79 39 140 102 177 181 23 48 27 71 27
142 0 71 -4 94 -27 142 -37 79 -97 141 -180 182 l-70 36 -1756 0 c-1117 0
-1762 -4 -1772 -10z"/>
<path d="M7055 10048 c-80 -39 -147 -107 -182 -182 -24 -52 -28 -74 -28 -146
0 -76 4 -93 32 -151 39 -79 102 -140 181 -177 l57 -27 863 -3 c474 -1 862 -6
862 -10 0 -5 -922 -929 -2049 -2054 -2275 -2273 -2103 -2089 -2109 -2239 -6
-109 19 -178 91 -256 79 -86 159 -123 267 -123 77 0 137 19 202 63 27 18 962
946 2079 2063 1117 1117 2033 2026 2035 2020 2 -6 5 -394 6 -861 l3 -850 32
-66 c39 -79 102 -140 181 -177 48 -23 71 -27 142 -27 71 0 94 4 142 27 79 37
141 97 182 180 l36 70 0 1339 c0 763 -4 1347 -9 1357 -5 9 -19 38 -32 65 -27
56 -109 137 -164 161 -22 10 -48 22 -57 27 -11 5 -565 9 -1360 8 l-1343 -1
-60 -30z"/>
</g>
</svg>
