<?xml version="1.0" standalone="no"?>
<!DOCTYPE svg PUBLIC "-//W3C//DTD SVG 20010904//EN"
 "http://www.w3.org/TR/2001/REC-SVG-20010904/DTD/svg10.dtd">
<svg version="1.0" xmlns="http://www.w3.org/2000/svg"
 width="1008.000000pt" height="1008.000000pt" viewBox="0 0 1008.000000 1008.000000"
 preserveAspectRatio="xMidYMid meet">

<g transform="translate(0.000000,1008.000000) scale(0.100000,-0.100000)"
fill="#000000" stroke="none">
<path d="M7595 9020 c-16 -5 -55 -14 -85 -20 -147 -33 -305 -150 -391 -290
-32 -52 -33 -52 -73 -47 -23 3 -95 18 -161 32 -66 15 -172 38 -235 51 -205 43
-264 56 -300 64 -19 4 -93 20 -165 35 -121 25 -214 45 -310 65 -371 80 -376
80 -435 50 -64 -33 -59 -17 -165 -525 -15 -71 -37 -179 -50 -240 -12 -60 -35
-168 -50 -240 -15 -71 -33 -159 -41 -195 -22 -102 -60 -283 -89 -425 -28 -135
-54 -258 -100 -480 -15 -71 -30 -146 -34 -165 -6 -32 -10 -35 -51 -42 -25 -3
-82 -7 -126 -7 -132 -1 -369 -28 -584 -66 -41 -7 -91 -16 -110 -19 -31 -5
-164 -35 -290 -66 -224 -54 -571 -182 -805 -295 -173 -84 -274 -141 -428 -242
l-129 -85 -47 40 c-168 142 -367 214 -591 214 -281 0 -532 -120 -706 -337
-117 -146 -177 -291 -204 -497 -17 -124 11 -288 75 -439 76 -180 241 -358 414
-446 l53 -27 -6 -51 c-77 -610 157 -1214 660 -1706 176 -172 333 -295 551
-432 292 -184 736 -377 1058 -462 28 -7 75 -20 105 -28 171 -45 482 -106 630
-122 30 -3 91 -10 135 -16 44 -5 180 -13 303 -18 522 -19 1030 31 1467 144 55
15 118 31 140 36 74 19 286 88 360 119 236 96 323 135 441 196 661 339 1157
843 1361 1384 65 172 98 306 119 490 16 139 16 205 -2 400 l-5 65 82 45 c101
55 239 182 305 282 113 170 178 417 154 590 -26 188 -79 326 -176 458 -259
353 -716 470 -1123 288 -57 -26 -110 -60 -187 -120 -34 -26 -65 -48 -68 -48
-4 0 -30 17 -59 38 -218 159 -603 353 -922 465 -192 67 -372 119 -525 152 -41
9 -93 20 -115 25 -22 5 -85 16 -140 25 -55 9 -125 20 -155 25 -82 14 -258 31
-408 39 -72 4 -135 10 -138 13 -6 6 1 46 41 233 14 66 37 172 50 235 14 63 36
169 50 235 14 66 33 154 42 195 8 41 19 91 23 110 9 41 30 140 64 300 13 63
36 171 51 240 55 258 76 356 82 393 3 21 9 39 13 42 6 4 61 -7 245 -46 28 -6
77 -17 110 -24 33 -7 116 -24 185 -39 69 -14 157 -33 195 -41 81 -18 103 -23
280 -60 130 -27 149 -31 280 -59 73 -16 95 -33 95 -73 0 -13 5 -45 11 -71 42
-181 174 -349 339 -429 141 -69 282 -88 423 -57 286 63 496 306 514 592 10
167 -30 299 -132 437 -81 109 -209 197 -333 229 -144 37 -197 42 -257 26z
m-3864 -3816 c136 -30 281 -117 362 -216 161 -196 204 -436 120 -663 -143
-385 -588 -550 -948 -351 -143 80 -273 245 -320 410 -39 137 -15 343 54 473
100 187 243 294 471 352 57 15 182 12 261 -5z m2896 0 c192 -43 365 -179 453
-354 177 -351 6 -781 -365 -921 -105 -39 -270 -50 -375 -25 -302 73 -520 345
-520 651 0 254 163 503 398 608 120 53 284 70 409 41z m-2920 -2132 c230 -198
438 -281 898 -361 135 -24 429 -34 623 -22 188 12 242 18 407 52 305 61 532
156 687 291 74 63 103 78 155 78 53 0 91 -14 126 -48 57 -54 72 -133 38 -201
-67 -131 -399 -329 -686 -411 -202 -57 -349 -85 -575 -109 -450 -49 -989 9
-1370 147 -198 71 -387 181 -504 291 -70 68 -86 96 -86 156 0 53 16 89 57 126
46 43 65 50 130 46 53 -2 68 -8 100 -35z"/>
</g>
</svg>
