<?xml version="1.0" standalone="no"?>
<!DOCTYPE svg PUBLIC "-//W3C//DTD SVG 20010904//EN"
 "http://www.w3.org/TR/2001/REC-SVG-20010904/DTD/svg10.dtd">
<svg version="1.0" xmlns="http://www.w3.org/2000/svg"
 width="1008.000000pt" height="1008.000000pt" viewBox="0 0 1008.000000 1008.000000"
 preserveAspectRatio="xMidYMid meet">

<g transform="translate(0.000000,1008.000000) scale(0.100000,-0.100000)"
fill="#000000" stroke="none">
<path d="M4955 9806 c-125 -40 -177 -94 -270 -283 -119 -241 -510 -1034 -707
-1433 -105 -212 -287 -579 -404 -817 -176 -357 -217 -433 -236 -438 -13 -2
-133 -20 -268 -40 -135 -19 -276 -39 -315 -45 -38 -6 -97 -15 -130 -20 -33 -5
-96 -14 -140 -20 -44 -6 -107 -15 -140 -20 -33 -5 -96 -14 -140 -20 -44 -6
-107 -15 -140 -21 -33 -5 -170 -25 -305 -44 -135 -20 -292 -43 -350 -51 -58
-9 -132 -20 -165 -24 -33 -5 -96 -14 -140 -20 -44 -6 -107 -15 -140 -20 -91
-13 -316 -46 -543 -79 -229 -34 -274 -51 -342 -128 -61 -70 -74 -106 -78 -216
-6 -160 -4 -163 365 -521 287 -278 463 -450 1428 -1392 204 -198 405 -394 448
-435 75 -70 79 -75 73 -109 -3 -19 -17 -100 -31 -180 -52 -299 -87 -497 -95
-550 -5 -30 -29 -174 -54 -320 -102 -585 -128 -737 -136 -790 -8 -52 -42 -250
-125 -725 -20 -116 -40 -235 -45 -265 -5 -30 -16 -97 -25 -149 -10 -52 -15
-118 -13 -145 9 -113 89 -224 197 -275 47 -22 70 -26 142 -26 94 0 110 6 379
150 52 28 172 91 265 140 94 48 175 91 180 95 6 4 91 49 190 100 99 51 203
105 230 120 61 33 199 106 360 190 66 35 152 80 190 100 39 20 133 70 210 110
77 40 154 80 170 90 17 10 104 56 195 103 91 47 215 112 275 144 61 32 145 76
188 98 l77 40 98 -50 c53 -27 135 -70 182 -96 47 -25 162 -85 255 -134 94 -48
193 -100 220 -115 28 -15 104 -55 170 -90 66 -34 152 -79 190 -100 39 -20 124
-65 190 -100 152 -79 288 -151 390 -205 44 -23 139 -73 210 -110 72 -37 153
-80 180 -95 28 -15 118 -62 200 -105 83 -43 204 -107 270 -142 257 -137 259
-138 354 -138 72 0 95 4 142 26 108 51 188 162 197 275 2 27 -3 93 -13 145 -9
52 -20 119 -25 149 -5 30 -25 149 -45 265 -83 475 -117 673 -125 725 -8 53
-34 205 -136 790 -25 146 -49 290 -54 320 -5 30 -18 107 -29 170 -27 154 -91
528 -98 565 -4 27 3 37 69 99 76 73 279 270 633 616 116 113 289 282 385 375
362 353 969 944 1068 1040 136 132 162 181 162 309 0 74 -4 100 -24 142 -43
92 -119 158 -211 183 -34 9 -316 53 -590 91 -33 5 -94 13 -135 19 -41 6 -136
20 -210 31 -74 11 -167 24 -206 30 -39 5 -133 18 -210 30 -150 22 -860 126
-959 140 -33 5 -94 13 -135 19 -41 6 -181 26 -310 45 -129 19 -255 38 -280 41
-25 3 -55 8 -68 11 -20 4 -55 70 -216 397 -107 216 -280 568 -386 782 -106
215 -290 588 -410 830 -435 883 -408 831 -465 884 -85 77 -211 109 -310 77z
m195 -1313 c57 -115 181 -365 275 -558 95 -192 293 -593 440 -890 146 -297
285 -578 308 -624 24 -49 60 -102 87 -129 79 -80 104 -87 495 -142 33 -5 96
-14 140 -20 44 -6 107 -15 140 -20 33 -4 170 -24 305 -44 389 -58 684 -101
855 -124 39 -6 214 -31 390 -57 176 -26 342 -50 369 -54 27 -3 51 -11 53 -16
2 -6 -52 -65 -119 -130 -68 -66 -211 -205 -318 -309 -107 -105 -290 -282 -405
-395 -116 -114 -291 -285 -390 -381 -509 -494 -657 -645 -681 -692 -36 -72
-40 -149 -14 -298 11 -69 25 -150 30 -180 11 -69 62 -367 89 -520 30 -170 91
-527 101 -590 5 -30 18 -107 29 -170 20 -116 50 -288 116 -675 50 -293 55
-320 55 -322 0 -10 -37 1 -82 26 -94 50 -239 126 -393 206 -82 43 -154 81
-160 85 -5 4 -95 51 -200 105 -104 54 -194 101 -200 105 -5 4 -82 44 -170 90
-88 45 -182 95 -210 110 -27 15 -108 58 -180 95 -71 37 -167 87 -212 111 -469
249 -537 282 -595 294 -83 16 -150 0 -283 -70 -60 -31 -173 -90 -250 -130 -77
-40 -153 -80 -170 -90 -16 -10 -111 -59 -210 -110 -99 -51 -184 -96 -190 -100
-5 -4 -91 -49 -190 -100 -99 -51 -184 -96 -190 -100 -5 -4 -91 -49 -190 -100
-99 -51 -193 -100 -210 -110 -16 -10 -97 -52 -180 -95 -82 -43 -177 -92 -210
-110 -191 -104 -245 -128 -245 -112 0 3 33 199 64 377 118 682 145 842 156
910 10 62 63 372 86 500 19 105 72 416 84 490 5 30 19 111 30 180 26 149 22
226 -14 298 -25 49 -172 199 -701 712 -99 96 -274 267 -390 381 -115 113 -293
286 -395 385 -394 382 -430 419 -427 429 2 5 26 13 53 16 27 4 193 28 369 54
176 26 347 51 380 55 90 13 213 30 280 40 33 5 94 13 135 19 41 6 134 19 205
30 148 23 460 69 550 81 33 5 96 14 140 20 44 6 107 15 140 20 33 4 112 16
175 25 137 19 193 32 241 56 63 31 122 100 171 200 72 145 498 1008 778 1574
138 281 272 552 297 603 24 50 48 92 52 92 5 0 55 -93 111 -207z"/>
</g>
</svg>
