<?xml version="1.0" standalone="no"?>
<!DOCTYPE svg PUBLIC "-//W3C//DTD SVG 20010904//EN"
 "http://www.w3.org/TR/2001/REC-SVG-20010904/DTD/svg10.dtd">
<svg version="1.0" xmlns="http://www.w3.org/2000/svg"
 width="1008.000000pt" height="1008.000000pt" viewBox="0 0 1008.000000 1008.000000"
 preserveAspectRatio="xMidYMid meet">

<g transform="translate(0.000000,1008.000000) scale(0.100000,-0.100000)"
fill="#000000" stroke="none">
<path d="M8 10063 c-2 -10 0 -173 3 -363 33 -1600 179 -2761 456 -3625 87
-270 245 -618 386 -848 167 -272 403 -547 470 -547 9 0 44 -20 79 -44 134 -93
353 -192 484 -218 30 -6 54 -15 54 -21 0 -5 9 -7 20 -4 11 3 20 1 20 -5 0 -6
11 -8 25 -6 14 3 25 1 25 -5 0 -5 11 -7 25 -5 14 3 25 1 25 -4 0 -6 16 -8 35
-6 19 2 35 0 35 -5 0 -5 20 -7 45 -5 25 2 45 0 45 -3 0 -20 540 -11 548 9 1 4
20 6 42 4 22 -2 40 0 40 5 0 5 16 7 35 5 19 -2 35 0 35 5 0 5 16 7 35 5 19 -2
35 0 35 6 0 5 11 7 25 4 14 -2 25 0 25 5 0 6 35 16 78 23 171 27 628 155 877
245 265 96 687 269 708 290 7 6 18 10 25 7 6 -2 12 1 12 8 0 6 4 9 8 6 5 -3 8
25 6 62 -3 86 -2 84 -13 78 -5 -4 -11 -2 -13 2 -3 7 -212 121 -320 174 -39 19
-219 126 -323 193 -260 166 -510 369 -751 609 -218 219 -322 351 -412 526 -80
154 -97 215 -97 350 0 107 2 120 28 170 l28 53 -33 36 c-18 19 -173 179 -343
356 -171 176 -784 809 -1364 1408 l-1053 1087 -48 0 c-37 0 -49 -4 -52 -17z"/>
<path d="M8655 10069 c-968 -67 -1629 -160 -2225 -315 -183 -48 -540 -163
-540 -174 0 -5 -6 -7 -14 -4 -7 3 -20 -1 -27 -9 -8 -7 -20 -12 -27 -9 -6 2
-12 -1 -12 -7 0 -6 -7 -8 -15 -5 -8 4 -15 1 -15 -6 0 -6 -4 -8 -10 -5 -5 3
-10 1 -10 -5 0 -6 -4 -8 -10 -5 -5 3 -10 1 -10 -5 0 -6 -5 -8 -10 -5 -11 7
-292 -131 -425 -208 -176 -101 -371 -243 -462 -335 -51 -52 -93 -90 -93 -86 0
3 -9 -5 -20 -19 -11 -14 -20 -29 -20 -35 0 -5 -9 -17 -20 -27 -11 -10 -20 -26
-20 -35 0 -9 -20 -48 -45 -86 -25 -38 -66 -110 -90 -159 -43 -89 -115 -287
-115 -319 0 -9 -4 -16 -9 -16 -11 0 -48 -195 -61 -329 -13 -129 -13 -290 0
-446 12 -145 50 -408 60 -415 4 -3 13 -36 19 -74 31 -177 145 -585 238 -851
60 -170 180 -477 251 -640 l56 -130 69 0 70 0 92 185 c179 361 400 701 649
1000 76 91 383 413 389 408 2 -2 16 12 31 30 15 17 32 32 37 32 5 0 41 25 81
56 272 210 555 292 723 209 29 -14 56 -25 61 -25 5 0 97 87 205 193 107 105
429 421 715 702 285 280 652 640 814 800 162 160 446 439 630 619 533 523 520
510 520 540 l0 26 -642 -1 c-354 -1 -697 -6 -763 -10z"/>
<path d="M4216 8360 c-36 -38 -67 -70 -69 -70 -1 0 -88 -84 -192 -188 -105
-103 -349 -344 -542 -535 -349 -344 -353 -348 -353 -388 0 -29 -7 -50 -25 -70
-27 -33 -45 -87 -45 -138 0 -84 87 -310 147 -382 13 -15 49 -64 81 -108 96
-134 280 -336 404 -443 65 -56 126 -106 135 -112 10 -5 61 -41 113 -81 52 -39
133 -97 180 -130 47 -32 87 -62 88 -67 2 -4 8 -6 13 -2 5 3 12 -2 15 -10 3 -9
10 -13 15 -10 5 3 12 -2 15 -10 3 -9 12 -16 20 -16 8 0 14 -4 14 -9 0 -5 10
-13 22 -17 12 -3 29 -14 39 -23 10 -9 39 -27 66 -41 26 -14 97 -53 158 -86
140 -78 276 -146 281 -141 2 2 -31 87 -75 188 -71 166 -248 646 -280 759 -7
25 -17 47 -21 50 -10 6 -79 260 -125 455 -132 563 -141 1193 -24 1587 16 54
29 100 29 103 0 16 -25 -3 -84 -65z"/>
<path d="M6887 7089 c-57 -13 -197 -71 -197 -80 0 -5 -7 -9 -15 -9 -8 0 -15
-5 -15 -11 0 -5 -4 -7 -10 -4 -5 3 -10 1 -10 -5 0 -6 -4 -9 -9 -6 -5 3 -12 -1
-15 -10 -3 -8 -10 -12 -16 -9 -5 3 -10 1 -10 -5 0 -6 -4 -9 -9 -6 -5 4 -11 2
-13 -3 -1 -4 -49 -44 -106 -87 -57 -44 -125 -95 -151 -115 -53 -42 -263 -258
-295 -305 -11 -18 -69 -95 -127 -171 -59 -77 -130 -176 -159 -219 -29 -43 -58
-84 -66 -90 -12 -10 -114 -169 -114 -178 0 -3 -36 -67 -79 -143 -94 -164 -187
-350 -180 -358 3 -3 71 23 150 58 152 67 167 73 404 162 83 32 151 61 153 66
2 4 10 5 18 2 8 -3 14 0 14 6 0 6 7 8 15 5 8 -4 15 -1 15 5 0 6 7 8 15 5 8 -4
15 -1 15 5 0 6 7 8 15 5 8 -4 15 -1 15 5 0 6 7 8 15 5 8 -4 15 -1 15 5 0 6 7
8 15 5 8 -4 15 -1 15 5 0 6 7 8 15 5 8 -4 15 -1 15 5 0 6 7 8 15 5 8 -4 15 -1
15 5 0 6 7 8 15 5 8 -4 15 -1 15 5 0 6 7 8 15 5 8 -4 15 -2 15 3 0 5 21 15 48
21 26 6 112 30 191 52 651 181 1334 205 1791 61 52 -17 96 -29 97 -27 5 5
-195 221 -235 253 -22 18 -142 141 -268 275 -126 134 -301 315 -390 403 -88
88 -198 199 -243 248 l-83 87 -54 0 c-30 0 -54 4 -54 9 0 5 -23 21 -52 35 -54
27 -95 31 -161 15z"/>
<path d="M7620 5740 c0 -3 -73 -6 -162 -6 -89 -1 -164 -6 -165 -11 -2 -5 -21
-7 -43 -5 -22 2 -40 0 -40 -5 0 -5 -16 -7 -35 -5 -19 2 -35 0 -35 -5 0 -5 -13
-8 -30 -5 -16 2 -30 0 -30 -5 0 -5 -13 -8 -30 -5 -16 2 -30 0 -30 -6 0 -5 -21
-13 -47 -17 -151 -21 -519 -120 -803 -214 -267 -89 -820 -313 -820 -332 0 -5
-7 -6 -15 -3 -8 4 -15 1 -15 -6 0 -6 -4 -8 -10 -5 -6 4 -10 -16 -10 -54 0 -65
7 -94 21 -85 5 3 9 1 9 -4 0 -5 19 -17 43 -28 23 -10 44 -21 47 -24 3 -4 73
-42 155 -85 441 -231 859 -537 1170 -856 248 -255 392 -462 461 -664 24 -69
28 -96 28 -195 1 -109 -1 -118 -28 -168 l-29 -52 24 -27 c26 -30 1609 -1665
2322 -2401 l449 -462 48 0 c37 0 49 4 52 18 5 25 -8 650 -22 962 -51 1208
-170 2088 -386 2852 -68 243 -178 544 -209 575 -8 8 -15 21 -15 29 0 23 -146
308 -217 423 -36 58 -98 149 -137 201 -39 52 -78 106 -87 120 -9 14 -64 73
-123 133 -94 94 -111 107 -141 107 -18 0 -37 5 -40 10 -3 6 -50 36 -103 67
-113 67 -276 135 -379 159 -40 10 -73 22 -73 27 0 5 -9 7 -20 4 -11 -3 -20 -1
-20 5 0 6 -11 8 -25 6 -14 -3 -25 -1 -25 5 0 5 -13 7 -30 5 -16 -3 -30 0 -30
5 0 5 -13 7 -30 5 -16 -3 -30 0 -30 5 0 5 -20 7 -45 5 -25 -2 -46 0 -47 4 -3
7 -218 16 -218 8z"/>
<path d="M5007 5193 c3 -8 -8 -10 -36 -6 -23 3 -41 1 -41 -4 0 -5 -8 -18 -18
-29 -27 -30 -45 -114 -32 -149 6 -16 8 -40 5 -53 -5 -19 -3 -23 9 -19 14 6 33
-9 36 -28 0 -5 9 -9 20 -7 10 2 42 -4 70 -12 29 -9 48 -11 44 -5 -4 7 8 10 32
8 22 -2 39 -1 39 2 0 3 14 19 30 35 23 22 30 38 30 66 0 21 4 38 9 38 4 0 5
12 1 28 -5 15 -9 37 -10 49 -1 12 -15 35 -31 50 -16 15 -28 30 -27 34 1 4 -12
3 -30 -2 -40 -11 -37 -11 -32 4 4 8 -7 12 -34 12 -25 0 -37 -4 -34 -12z"/>
<path d="M4760 4801 c-54 -29 -327 -141 -510 -211 -91 -34 -166 -66 -168 -71
-2 -4 -10 -5 -18 -2 -8 3 -14 0 -14 -6 0 -6 -7 -8 -15 -5 -8 4 -15 1 -15 -5 0
-6 -7 -8 -15 -5 -8 4 -15 1 -15 -5 0 -6 -7 -8 -15 -5 -8 4 -15 1 -15 -5 0 -6
-7 -8 -15 -5 -8 4 -15 1 -15 -5 0 -6 -7 -8 -15 -5 -8 4 -15 1 -15 -5 0 -6 -7
-8 -15 -5 -8 4 -15 1 -15 -5 0 -6 -7 -8 -15 -5 -8 4 -15 1 -15 -5 0 -6 -7 -8
-15 -5 -8 4 -15 1 -15 -6 0 -6 -5 -8 -10 -5 -6 4 -16 2 -23 -3 -7 -5 -68 -26
-137 -45 -571 -162 -1068 -217 -1515 -166 -120 14 -304 53 -395 84 -40 14 -75
25 -77 25 -15 0 111 -140 202 -226 61 -57 193 -193 295 -301 102 -109 257
-270 345 -358 88 -88 212 -213 274 -277 l114 -118 49 0 c26 0 48 -4 48 -10 0
-5 19 -20 43 -32 52 -27 129 -29 207 -4 77 25 190 77 190 88 0 5 5 6 10 3 6
-3 10 -1 10 5 0 6 4 9 9 6 5 -3 12 1 15 10 3 8 10 13 15 10 5 -3 12 1 15 10 3
8 10 13 15 10 5 -4 11 -2 13 2 1 5 30 28 63 52 135 99 259 206 360 313 59 61
115 123 123 137 9 14 55 75 103 136 47 61 121 162 164 225 44 63 84 119 90
124 14 12 88 130 124 199 15 28 61 112 103 186 75 134 158 295 158 305 0 9
-14 5 -50 -14z"/>
<path d="M5270 4796 c0 -2 20 -48 44 -102 98 -223 234 -584 310 -824 20 -63
43 -128 50 -145 38 -86 126 -459 161 -683 40 -258 48 -388 42 -674 -6 -319
-22 -428 -103 -705 -11 -39 11 -26 85 52 39 41 72 75 74 75 1 0 88 84 192 188
105 103 349 344 543 535 348 344 352 348 352 388 0 29 7 50 25 70 49 59 56
133 24 248 -21 75 -95 235 -121 262 -7 8 -35 46 -62 84 -141 201 -402 475
-551 578 -16 11 -79 57 -140 102 -60 45 -143 103 -182 130 -40 26 -73 52 -73
57 0 5 -4 7 -9 3 -6 -3 -14 3 -20 12 -6 10 -11 14 -11 9 0 -6 -9 0 -20 12 -12
12 -27 22 -35 22 -8 0 -15 5 -15 10 0 6 -6 10 -14 10 -8 0 -16 4 -18 8 -3 8
-104 72 -113 72 -3 0 -60 31 -128 69 -196 110 -287 153 -287 137z"/>
<path d="M4880 4607 c-237 -478 -529 -898 -875 -1256 -74 -77 -135 -138 -135
-135 0 3 -14 -11 -31 -31 -17 -19 -41 -40 -54 -47 -13 -7 -62 -42 -109 -78
-121 -91 -250 -162 -360 -199 -81 -26 -109 -31 -193 -31 -102 1 -159 14 -194
46 -20 18 -23 15 -167 -130 -81 -81 -148 -147 -150 -146 -1 0 -134 -129 -295
-287 -525 -518 -882 -870 -1527 -1502 -830 -815 -770 -754 -770 -785 l0 -26
613 0 c616 0 762 5 1247 45 845 70 1579 204 2143 391 92 31 167 60 167 65 0 4
6 6 14 3 7 -3 20 1 27 9 8 7 20 12 27 9 6 -2 12 1 12 7 0 6 7 8 15 5 8 -4 15
-1 15 6 0 6 5 8 10 5 6 -3 10 -1 10 5 0 6 5 8 10 5 6 -3 10 -1 10 5 0 6 5 8
10 5 11 -7 350 161 454 224 241 148 382 255 471 357 32 36 60 63 62 60 11 -10
73 73 73 98 0 15 17 53 39 84 85 126 183 352 211 487 7 33 16 62 21 65 5 3 18
64 31 135 32 186 31 528 -1 770 -12 93 -26 172 -30 175 -5 3 -18 59 -30 125
-40 217 -105 454 -215 785 -74 225 -257 693 -317 813 l-19 37 -68 -1 -67 0
-85 -172z"/>
</g>
</svg>
