<?xml version="1.0" standalone="no"?>
<!DOCTYPE svg PUBLIC "-//W3C//DTD SVG 20010904//EN"
 "http://www.w3.org/TR/2001/REC-SVG-20010904/DTD/svg10.dtd">
<svg version="1.0" xmlns="http://www.w3.org/2000/svg"
 width="1263.000000pt" height="470.000000pt" viewBox="0 0 1263.000000 470.000000"
 preserveAspectRatio="xMidYMid meet">

<g transform="translate(0.000000,470.000000) scale(0.100000,-0.100000)"
fill="#000000" stroke="none">
<path d="M430 4691 c-8 -5 -41 -21 -72 -36 -32 -15 -58 -31 -58 -36 0 -5 -6
-9 -14 -9 -19 0 -196 -179 -196 -200 0 -5 -3 -10 -7 -10 -5 0 -17 -20 -28 -45
-11 -25 -22 -45 -26 -45 -11 0 -29 -127 -29 -204 0 -81 16 -166 31 -166 5 0 9
-9 9 -20 0 -11 4 -20 9 -20 5 0 12 -13 16 -30 4 -16 11 -30 16 -30 5 0 9 -6 9
-14 0 -8 3 -16 8 -18 12 -5 42 -65 42 -83 0 -9 4 -13 10 -10 5 3 10 -1 10 -10
0 -9 9 -26 21 -38 11 -12 23 -34 26 -49 3 -16 9 -28 14 -28 5 0 9 -7 9 -15 0
-8 3 -15 8 -15 4 0 16 -20 27 -45 11 -25 23 -45 28 -45 4 0 7 -7 7 -15 0 -8 3
-15 8 -15 4 0 16 -20 27 -45 11 -25 23 -45 28 -45 4 0 7 -7 7 -15 0 -8 3 -15
8 -15 4 0 16 -20 27 -45 11 -25 22 -45 25 -45 3 0 14 -20 25 -45 11 -25 23
-45 28 -45 4 0 7 -7 7 -15 0 -8 5 -15 10 -15 6 0 10 -7 10 -15 0 -8 4 -15 9
-15 5 0 12 -13 16 -30 4 -16 11 -30 16 -30 5 0 9 -7 9 -15 0 -8 5 -15 10 -15
6 0 10 -7 10 -15 0 -8 4 -15 9 -15 5 0 12 -13 16 -30 4 -16 11 -30 16 -30 5 0
9 -7 9 -15 0 -8 5 -15 10 -15 6 0 10 -6 10 -14 0 -7 7 -19 15 -26 8 -7 15 -22
15 -33 0 -11 3 -17 6 -14 9 8 64 -99 64 -124 0 -10 5 -19 10 -19 6 0 10 -13
10 -30 0 -16 4 -30 9 -30 15 0 23 -79 23 -225 0 -146 -8 -225 -23 -225 -5 0
-9 -14 -9 -31 0 -17 -4 -28 -10 -24 -5 3 -10 -3 -10 -14 0 -25 -32 -101 -42
-101 -5 0 -8 -7 -8 -15 0 -8 -4 -15 -9 -15 -5 0 -12 -13 -16 -30 -4 -16 -11
-30 -16 -30 -5 0 -9 -7 -9 -15 0 -8 -4 -15 -10 -15 -5 0 -10 -7 -10 -16 0 -8
-4 -13 -9 -10 -5 3 -11 -7 -14 -22 -3 -15 -15 -37 -26 -49 -12 -12 -21 -29
-21 -38 0 -8 -4 -15 -9 -15 -5 0 -12 -11 -15 -25 -4 -14 -11 -25 -16 -25 -6 0
-10 -7 -10 -16 0 -9 -8 -24 -18 -33 -11 -9 -22 -28 -26 -43 -3 -16 -11 -28
-16 -28 -6 0 -10 -9 -10 -20 0 -11 -3 -20 -8 -20 -4 0 -12 -9 -17 -19 -6 -11
-18 -35 -29 -55 -10 -20 -22 -36 -27 -36 -5 0 -9 -8 -9 -19 0 -10 -7 -24 -15
-31 -8 -7 -15 -18 -15 -24 0 -7 -8 -21 -18 -32 -10 -11 -22 -32 -26 -47 -3
-15 -11 -27 -16 -27 -6 0 -10 -8 -10 -18 0 -10 -9 -24 -20 -32 -11 -8 -20 -21
-20 -28 0 -16 -31 -75 -43 -80 -4 -2 -7 -10 -7 -18 0 -9 -4 -12 -10 -9 -5 3
-10 -1 -10 -10 0 -18 -30 -78 -43 -83 -4 -2 -7 -10 -7 -18 0 -8 -4 -14 -10
-14 -5 0 -10 -5 -10 -11 0 -12 -31 -81 -40 -89 -16 -15 -30 -87 -30 -160 0
-87 18 -200 32 -200 4 0 8 -9 8 -20 0 -11 4 -20 9 -20 5 0 12 -13 16 -28 3
-15 15 -34 25 -42 11 -8 20 -18 20 -23 0 -25 179 -197 206 -197 6 0 17 -7 24
-15 7 -8 30 -20 51 -27 22 -6 44 -17 50 -25 16 -19 287 -19 295 0 2 7 27 21
54 32 28 11 50 23 50 27 0 4 7 8 15 8 8 0 15 5 15 10 0 6 9 10 19 10 11 0 26
7 35 15 8 8 19 15 25 15 6 0 11 5 11 10 0 6 9 10 20 10 11 0 20 4 20 9 0 5 16
15 36 21 19 7 38 18 41 26 3 8 13 14 23 14 10 0 25 6 32 13 7 7 24 18 38 25
32 15 60 34 78 49 7 7 20 13 28 13 8 0 14 5 14 10 0 6 9 10 20 10 11 0 20 5
20 10 0 6 7 10 15 10 8 0 15 5 15 10 0 6 8 10 19 10 10 0 24 7 31 15 7 8 19
15 26 15 8 0 14 4 14 8 0 4 20 16 45 26 25 11 45 23 45 28 0 4 7 8 15 8 8 0
15 4 15 10 0 5 11 12 25 16 14 3 25 10 25 15 0 5 9 9 19 9 11 0 21 4 23 9 5
13 86 61 103 61 8 0 15 4 15 9 0 5 19 19 43 31 23 12 62 34 87 50 25 16 55 29
68 29 20 1 22 5 16 24 -4 12 -15 29 -25 37 -83 70 -99 86 -99 98 0 7 -5 10
-10 7 -5 -3 -10 -1 -10 5 0 6 -10 22 -22 35 -37 40 -48 54 -48 64 0 5 -3 11
-7 13 -12 5 -43 64 -43 82 0 9 -4 16 -10 16 -5 0 -10 9 -10 20 0 11 -4 20 -9
20 -5 0 -12 18 -16 40 -4 22 -11 42 -16 46 -5 3 -9 21 -9 40 0 19 -4 34 -10
34 -5 0 -10 17 -9 38 0 20 3 31 6 25 2 -7 11 -13 19 -13 8 0 14 -4 14 -10 0
-5 7 -10 15 -10 8 0 15 -4 15 -10 0 -5 6 -10 14 -10 8 0 21 -6 28 -13 7 -7 32
-22 56 -32 23 -10 42 -22 42 -27 0 -4 7 -8 15 -8 8 0 15 -4 15 -10 0 -5 8 -10
18 -10 11 0 27 -9 37 -20 10 -11 21 -17 25 -15 5 3 10 1 12 -4 1 -4 59 -41
128 -80 68 -40 127 -76 130 -80 3 -4 24 -16 48 -26 23 -11 42 -22 42 -27 0 -4
7 -8 15 -8 8 0 15 -4 15 -10 0 -5 8 -10 19 -10 10 0 24 -7 31 -15 7 -8 19 -15
26 -15 8 0 14 -3 14 -8 0 -4 15 -13 33 -21 17 -8 46 -25 63 -38 17 -13 38 -23
47 -23 10 0 17 -5 17 -10 0 -6 17 -18 38 -28 20 -9 44 -25 53 -34 9 -10 21
-18 26 -18 18 0 193 -102 193 -112 0 -5 6 -8 14 -8 20 0 77 -31 97 -52 9 -10
23 -18 30 -19 8 0 34 -14 59 -29 25 -16 59 -36 75 -44 17 -8 62 -33 100 -56
39 -22 84 -47 102 -55 17 -8 34 -19 38 -25 3 -5 15 -10 26 -10 10 0 19 -4 19
-10 0 -5 6 -10 14 -10 8 0 16 -3 18 -7 2 -5 29 -21 61 -37 31 -15 57 -32 57
-37 0 -5 9 -9 20 -9 11 0 20 -3 20 -7 0 -5 21 -17 48 -27 26 -11 55 -28 65
-37 11 -10 31 -20 45 -24 15 -4 29 -10 32 -13 9 -12 109 -62 124 -62 8 0 16
-7 20 -15 8 -22 211 -22 220 0 3 8 14 15 25 15 24 0 101 29 101 39 0 3 14 12
31 20 34 15 64 40 140 116 78 79 89 92 117 148 15 28 30 54 33 57 4 3 10 26
14 53 4 26 11 50 16 53 16 9 10 153 -9 208 -9 28 -20 53 -25 54 -4 2 -7 10 -7
18 0 8 -4 14 -10 14 -5 0 -10 4 -10 10 0 17 -34 90 -42 90 -5 0 -8 7 -8 15 0
8 -4 15 -9 15 -5 0 -12 13 -16 30 -4 16 -11 30 -16 30 -5 0 -9 7 -9 15 0 8 -4
15 -10 15 -5 0 -10 7 -10 15 0 8 -4 15 -9 15 -5 0 -12 14 -16 30 -4 17 -11 30
-16 30 -5 0 -9 7 -9 15 0 9 -9 26 -20 38 -12 12 -23 32 -26 44 -4 13 -10 23
-15 23 -5 0 -9 5 -9 11 0 5 -11 27 -25 47 -14 20 -25 45 -25 55 0 10 -5 15
-10 12 -5 -3 -10 1 -10 10 0 9 -9 26 -20 38 -12 12 -24 33 -27 46 -3 14 -15
34 -25 45 -10 12 -21 31 -24 43 -4 13 -10 23 -15 23 -5 0 -9 10 -9 22 0 12 -3
18 -6 15 -8 -8 -44 57 -44 79 0 8 -4 12 -10 9 -5 -3 -10 1 -10 9 0 9 -3 16 -8
16 -4 0 -16 20 -27 45 -11 25 -23 45 -27 45 -5 0 -8 7 -8 15 0 8 -4 15 -10 15
-5 0 -10 5 -10 11 0 6 -7 17 -15 25 -8 9 -15 24 -15 35 0 11 -4 17 -10 14 -5
-3 -10 3 -10 14 0 10 -3 21 -7 23 -14 6 -43 65 -43 87 0 12 -4 21 -10 21 -5 0
-10 14 -10 30 0 17 -4 30 -10 30 -5 0 -10 15 -10 33 0 18 -5 38 -11 44 -6 6
-8 59 -6 149 6 153 14 224 28 224 5 0 9 14 9 31 0 17 4 28 10 24 5 -3 10 3 10
14 0 25 32 101 42 101 5 0 8 7 8 15 0 8 4 15 9 15 5 0 12 14 16 30 4 17 11 30
16 30 5 0 9 7 9 15 0 8 5 15 10 15 6 0 10 7 10 16 0 8 4 13 9 10 5 -3 11 7 14
22 3 15 15 37 26 49 12 12 21 29 21 38 0 8 4 15 9 15 5 0 12 11 15 25 4 14 11
25 16 25 6 0 10 9 10 21 0 11 4 18 8 15 5 -3 17 15 27 40 10 24 22 44 27 44 4
0 8 6 8 14 0 8 3 16 8 18 4 2 20 29 36 61 16 31 32 57 35 57 3 0 15 20 26 45
11 25 23 45 27 45 5 0 8 7 8 15 0 8 4 15 9 15 5 0 12 13 16 29 3 15 15 38 25
49 11 12 20 26 20 32 0 5 4 10 9 10 5 0 12 13 16 29 3 15 15 38 25 49 11 12
20 28 20 37 0 9 4 13 10 10 6 -3 10 -1 10 5 0 13 30 82 39 90 10 8 52 84 58
103 3 9 9 17 14 17 5 0 9 9 9 21 0 12 7 36 16 54 12 25 14 53 11 112 -5 85
-26 183 -39 183 -4 0 -8 9 -8 20 0 11 -4 20 -9 20 -5 0 -11 10 -15 23 -3 12
-14 32 -26 44 -11 12 -20 25 -20 28 0 17 -148 163 -172 171 -10 3 -18 9 -18
13 0 4 -16 13 -35 21 -19 8 -35 17 -35 22 0 4 -8 8 -17 8 -10 0 -31 7 -47 15
-21 11 -63 15 -167 15 -77 0 -139 -3 -139 -7 0 -5 -21 -17 -48 -27 -26 -11
-49 -22 -52 -26 -3 -3 -25 -16 -50 -28 -46 -22 -101 -53 -110 -62 -3 -3 -21
-13 -40 -22 -44 -23 -73 -41 -81 -51 -3 -5 -9 -8 -13 -8 -7 2 -69 -29 -76 -38
-3 -3 -30 -19 -60 -35 -30 -16 -57 -32 -60 -35 -3 -3 -27 -17 -54 -31 -27 -13
-54 -29 -60 -35 -6 -6 -29 -19 -51 -29 -22 -11 -42 -22 -45 -25 -8 -10 -44
-31 -62 -37 -10 -4 -18 -10 -18 -15 0 -5 -9 -9 -20 -9 -11 0 -20 -4 -20 -10 0
-5 -7 -10 -15 -10 -8 0 -15 -4 -15 -10 0 -5 -9 -10 -19 -10 -10 0 -21 -7 -25
-15 -3 -8 -15 -15 -26 -15 -11 0 -20 -4 -20 -8 0 -5 -19 -19 -42 -31 -24 -12
-63 -35 -88 -51 -25 -16 -55 -29 -68 -29 -19 -1 -22 -5 -16 -23 3 -13 18 -32
32 -43 53 -42 162 -165 162 -182 0 -7 5 -13 10 -13 6 0 10 -5 10 -10 0 -6 9
-20 20 -32 10 -11 22 -34 25 -49 4 -16 11 -29 16 -29 5 0 9 -9 9 -20 0 -11 4
-20 10 -20 5 0 12 -22 16 -50 4 -27 10 -50 15 -50 5 0 9 -18 9 -39 0 -22 5
-41 11 -43 6 -2 9 -14 7 -27 -3 -22 -3 -22 -23 -4 -11 10 -37 27 -57 36 -21
10 -38 22 -38 27 0 6 -9 10 -20 10 -11 0 -20 3 -20 8 0 4 -18 15 -40 25 -22 9
-40 21 -40 27 0 5 -9 10 -20 10 -11 0 -20 5 -20 10 0 6 -6 10 -14 10 -8 0 -21
6 -28 13 -7 7 -30 22 -51 32 -22 11 -47 24 -58 30 -10 5 -19 13 -19 17 0 5 -4
8 -10 8 -5 0 -33 15 -62 34 -29 18 -78 47 -108 63 -78 42 -150 86 -165 101 -8
6 -21 12 -29 12 -9 0 -16 4 -16 9 0 5 -11 12 -25 15 -14 4 -25 11 -25 16 0 6
-7 10 -15 10 -8 0 -15 3 -15 8 0 4 -19 16 -43 27 -23 11 -51 28 -61 37 -11 10
-28 18 -38 18 -10 0 -18 4 -18 9 0 5 -19 19 -42 31 -24 11 -78 43 -120 70 -42
26 -86 51 -97 55 -12 3 -21 11 -21 16 0 5 -7 9 -15 9 -8 0 -15 5 -15 10 0 6
-6 10 -14 10 -18 0 -76 32 -76 43 0 4 -7 7 -15 7 -8 0 -15 5 -15 10 0 6 -8 10
-19 10 -10 0 -24 7 -31 15 -7 8 -19 15 -26 15 -8 0 -14 3 -14 8 0 4 -15 13
-32 21 -18 8 -47 25 -64 38 -17 13 -38 23 -46 23 -9 0 -21 7 -28 15 -7 8 -19
15 -26 15 -8 0 -14 5 -14 10 0 6 -7 10 -15 10 -8 0 -15 5 -15 10 0 6 -9 10
-20 10 -11 0 -20 4 -20 10 0 5 -11 12 -25 16 -14 3 -25 9 -25 13 0 3 -15 13
-32 20 -18 8 -39 21 -46 28 -7 7 -20 13 -28 13 -8 0 -14 4 -14 8 0 4 -20 16
-45 26 -25 11 -45 23 -45 28 0 4 -9 8 -20 8 -11 0 -20 5 -20 10 0 6 -6 10 -14
10 -8 0 -16 4 -18 8 -2 4 -29 20 -61 35 -54 25 -66 27 -195 26 -75 0 -144 -4
-152 -8z m2082 -2160 c120 -120 138 -143 138 -171 0 -27 -18 -50 -132 -166
-128 -129 -134 -134 -175 -134 -40 0 -73 19 -73 42 0 6 -3 8 -6 5 -8 -8 -64
50 -64 66 0 6 -3 8 -6 4 -3 -3 -29 18 -58 47 -130 135 -130 137 0 272 29 29
55 50 58 47 3 -4 6 -2 6 4 0 14 56 74 63 67 3 -3 8 4 12 15 6 20 43 39 79 40
12 1 72 -52 158 -138z"/>
<path d="M7995 3985 c-22 -8 -48 -15 -57 -15 -10 0 -18 -4 -18 -9 0 -5 -20
-12 -45 -15 -24 -4 -47 -11 -50 -17 -4 -5 -17 -9 -30 -9 -13 0 -27 -4 -30 -10
-3 -5 -17 -10 -31 -10 -13 0 -24 -4 -24 -9 0 -5 -22 -12 -50 -16 -27 -4 -50
-11 -50 -16 0 -5 -11 -9 -24 -9 -14 0 -28 -4 -31 -10 -3 -5 -17 -10 -30 -10
-13 0 -27 -4 -30 -10 -3 -5 -17 -10 -30 -10 -14 0 -43 -7 -65 -16 l-40 -16 -1
-527 c-1 -289 -5 -515 -9 -501 -4 14 -8 21 -9 17 -1 -4 -16 9 -33 30 -18 21
-41 44 -50 51 -9 7 -24 19 -32 27 -8 8 -19 15 -25 15 -6 0 -11 4 -11 9 0 5
-26 21 -57 37 -32 16 -59 32 -61 37 -2 4 -12 7 -22 7 -10 0 -21 4 -24 9 -3 5
-23 12 -43 16 -21 4 -42 10 -48 15 -21 16 -106 24 -255 23 -151 0 -214 -6
-255 -22 -11 -5 -46 -16 -77 -26 -32 -10 -58 -22 -58 -27 0 -4 -7 -8 -15 -8
-20 0 -115 -51 -115 -62 0 -4 -5 -8 -11 -8 -6 0 -16 -6 -24 -12 -7 -7 -25 -22
-40 -33 -37 -29 -65 -56 -105 -104 -19 -23 -41 -48 -47 -56 -7 -7 -13 -18 -13
-24 0 -6 -4 -11 -8 -11 -5 0 -17 -18 -28 -40 -10 -22 -22 -40 -26 -40 -5 0 -8
-7 -8 -16 0 -8 -4 -13 -9 -10 -5 4 -12 -12 -16 -34 -4 -22 -11 -42 -16 -46 -5
-3 -9 -14 -9 -25 0 -10 -4 -19 -10 -19 -5 0 -10 -12 -10 -26 0 -14 -4 -23 -9
-20 -5 3 -12 -21 -16 -54 -4 -33 -11 -63 -16 -66 -5 -3 -9 -23 -9 -45 0 -21
-4 -39 -10 -39 -6 0 -10 -29 -10 -66 0 -41 -4 -63 -10 -59 -7 4 -10 -48 -10
-150 0 -102 3 -154 10 -150 6 4 10 -18 10 -59 0 -37 4 -66 10 -66 6 0 10 -18
10 -39 0 -22 4 -42 9 -45 5 -3 12 -33 16 -66 4 -33 11 -57 16 -54 5 3 9 -6 9
-20 0 -14 5 -26 10 -26 6 0 10 -6 10 -14 0 -7 7 -27 15 -42 8 -16 15 -37 15
-46 0 -10 3 -18 8 -18 4 0 12 -10 18 -23 24 -49 50 -92 69 -113 34 -39 45 -53
45 -58 0 -13 145 -146 159 -146 6 0 16 -8 23 -18 7 -10 27 -26 43 -35 99 -52
176 -87 193 -87 12 0 23 -4 26 -9 6 -9 31 -14 151 -31 76 -11 302 -3 311 11 3
5 20 9 39 9 19 0 37 4 40 10 3 5 16 10 28 10 12 0 35 7 51 15 15 8 32 15 36
15 10 0 128 69 154 90 48 39 123 118 136 144 14 27 15 20 18 -117 l3 -147 339
0 340 0 0 1615 c0 1286 -3 1615 -12 1615 -7 -1 -31 -7 -53 -15z m-968 -1483
c28 -15 66 -30 91 -37 12 -4 22 -11 22 -16 0 -5 5 -9 12 -9 18 0 127 -119 134
-146 4 -13 10 -24 15 -24 5 0 9 -9 9 -20 0 -11 5 -20 10 -20 6 0 10 -11 10
-24 0 -13 5 -26 11 -28 7 -2 13 -47 17 -113 3 -68 8 -102 13 -90 4 12 8 -18 8
-73 1 -51 -3 -91 -8 -88 -4 3 -11 -40 -14 -95 -3 -56 -10 -106 -16 -112 -6 -6
-11 -21 -11 -34 0 -13 -4 -23 -10 -23 -5 0 -10 -9 -10 -20 0 -11 -4 -20 -10
-20 -5 0 -10 -9 -10 -19 0 -11 -7 -26 -15 -35 -8 -8 -15 -17 -15 -21 0 -3 -11
-17 -24 -30 -13 -13 -26 -27 -27 -32 -6 -12 -84 -63 -97 -63 -7 0 -12 -4 -12
-10 0 -5 -8 -10 -18 -10 -10 0 -24 -6 -31 -12 -8 -9 -57 -13 -168 -13 -116 0
-157 3 -161 13 -2 6 -15 12 -28 12 -13 0 -24 5 -24 10 0 6 -6 10 -13 10 -31 0
-163 127 -173 166 -3 13 -10 24 -15 24 -5 0 -9 9 -9 20 0 11 -4 20 -10 20 -5
0 -10 8 -10 18 0 10 -5 23 -10 28 -6 6 -13 40 -17 77 -3 36 -10 64 -14 61 -5
-3 -9 74 -9 171 0 97 4 174 9 171 4 -3 11 23 14 57 5 57 40 147 60 155 4 2 7
11 7 21 0 15 68 92 114 129 33 26 141 76 180 83 52 10 229 3 253 -9z"/>
<path d="M9128 3993 c-16 -2 -28 -9 -28 -14 0 -5 -8 -9 -17 -9 -9 0 -33 -5
-52 -11 -123 -39 -155 -50 -193 -70 -10 -5 -27 -9 -38 -9 -17 0 -95 -27 -175
-60 -11 -5 -33 -11 -50 -15 -16 -3 -42 -11 -57 -17 l-28 -10 0 -1504 0 -1504
340 0 339 0 3 148 c2 101 6 141 12 127 6 -11 16 -26 23 -33 7 -7 18 -21 25
-30 38 -51 191 -162 224 -162 8 0 14 -4 14 -9 0 -4 26 -16 58 -25 31 -10 66
-21 77 -26 39 -17 92 -23 244 -27 100 -3 158 0 164 6 6 6 22 11 36 11 13 0 38
4 55 10 17 5 57 17 89 26 31 9 57 21 57 25 0 5 9 9 20 9 11 0 20 5 20 10 0 6
7 10 15 10 8 0 15 5 15 10 0 6 9 10 20 10 10 0 23 6 27 14 4 7 18 18 29 24 12
6 48 36 80 67 32 30 62 55 66 55 5 0 8 5 8 12 0 6 15 25 33 42 17 17 41 48 51
69 11 20 23 37 28 37 4 0 8 7 8 15 0 8 4 15 8 15 4 0 16 22 27 50 11 27 23 50
27 50 4 0 8 11 8 25 0 14 4 25 9 25 6 0 13 20 17 45 3 25 10 48 15 51 5 3 9
18 9 35 0 16 5 29 10 29 6 0 10 15 10 34 0 19 6 36 13 39 9 3 12 73 12 307 0
234 -3 304 -12 308 -7 2 -13 19 -13 38 0 19 -4 34 -10 34 -5 0 -10 13 -10 29
0 17 -4 33 -10 36 -5 3 -12 28 -16 55 -4 27 -10 47 -15 44 -5 -3 -9 6 -9 20 0
14 -3 26 -8 26 -8 0 -42 73 -42 90 0 6 -4 10 -10 10 -5 0 -10 7 -10 15 0 8 -4
15 -8 15 -5 0 -17 16 -28 35 -10 19 -22 35 -26 35 -5 0 -8 5 -8 10 0 19 -202
210 -222 210 -5 0 -16 7 -24 15 -9 8 -24 15 -35 15 -10 0 -19 5 -19 10 0 6 -7
10 -15 10 -8 0 -15 5 -15 10 0 6 -9 10 -19 10 -11 0 -22 4 -26 9 -3 6 -26 13
-50 17 -25 3 -45 10 -45 14 0 14 -80 22 -255 27 -95 2 -185 0 -205 -5 -19 -6
-62 -18 -95 -27 -51 -14 -173 -75 -239 -118 -40 -26 -136 -129 -152 -162 -6
-13 -10 214 -12 623 -1 353 -5 641 -10 641 -4 -1 -19 -4 -34 -6z m753 -1517
c41 -21 82 -45 91 -54 55 -52 68 -68 68 -78 0 -7 4 -14 8 -16 19 -8 52 -69 58
-107 4 -22 10 -41 15 -41 5 0 9 -15 9 -34 0 -19 5 -36 12 -38 16 -6 16 -404 0
-420 -7 -7 -12 -27 -12 -45 0 -18 -4 -33 -10 -33 -5 0 -10 -10 -10 -22 0 -13
-7 -36 -15 -52 -8 -15 -15 -34 -15 -40 0 -6 -9 -18 -20 -26 -11 -8 -20 -20
-20 -27 0 -21 -98 -111 -135 -124 -19 -7 -35 -17 -35 -21 0 -4 -9 -8 -19 -8
-11 0 -21 -6 -24 -12 -5 -18 -319 -18 -325 0 -2 6 -15 12 -28 12 -13 0 -24 4
-24 9 0 5 -11 12 -25 15 -14 4 -25 11 -25 16 0 6 -5 10 -12 10 -14 0 -108 96
-108 110 0 6 -9 20 -20 32 -11 12 -23 36 -26 55 -3 18 -10 33 -15 33 -5 0 -9
16 -9 35 0 19 -4 35 -10 35 -5 0 -10 20 -10 44 0 25 -4 48 -10 51 -6 4 -10 67
-10 155 0 88 4 151 10 155 6 3 10 26 10 51 0 24 5 44 10 44 6 0 10 13 10 29 0
17 4 32 9 35 5 3 12 22 15 41 4 19 11 35 16 35 6 0 10 9 10 21 0 11 5 17 10
14 6 -3 10 1 10 10 0 15 54 73 106 115 20 16 124 64 159 74 11 3 75 4 141 2
118 -3 124 -4 195 -40z"/>
<path d="M11700 3720 c0 -5 -13 -10 -30 -10 -16 0 -30 -4 -30 -9 0 -5 -15 -11
-32 -15 -18 -3 -37 -7 -43 -9 -5 -2 -17 -6 -25 -9 -8 -3 -35 -11 -60 -19 -25
-7 -49 -16 -54 -21 -6 -4 -19 -8 -31 -8 -12 0 -26 -5 -33 -12 -7 -7 -12 -9
-12 -5 0 4 -24 -2 -52 -13 -29 -11 -61 -20 -70 -20 -10 0 -18 -4 -18 -9 0 -5
-19 -11 -42 -15 -24 -4 -55 -12 -70 -19 l-28 -12 0 -1042 c0 -590 4 -1044 9
-1047 5 -3 12 -40 16 -81 4 -41 11 -75 16 -75 5 0 9 -11 9 -24 0 -14 5 -28 10
-31 6 -3 10 -15 10 -26 0 -10 4 -19 10 -19 5 0 12 -16 16 -35 3 -19 10 -32 15
-29 5 3 9 0 9 -7 0 -7 11 -27 25 -45 14 -18 25 -35 25 -38 0 -10 120 -126 130
-126 6 0 10 -4 10 -8 0 -5 16 -17 35 -28 19 -10 35 -22 35 -26 0 -5 9 -8 20
-8 11 0 20 -4 20 -10 0 -5 6 -10 14 -10 7 0 27 -7 42 -15 16 -8 41 -15 56 -15
15 0 29 -4 32 -9 3 -5 25 -12 48 -16 71 -11 430 -17 453 -7 11 5 56 18 100 29
l80 19 0 270 0 269 -25 -2 c-14 -1 -59 -8 -100 -14 -103 -17 -155 -16 -222 4
-66 19 -136 60 -145 85 -4 9 -15 25 -24 35 -18 19 -29 61 -29 108 0 15 -4 31
-10 34 -6 4 -10 166 -10 453 l0 447 285 -3 285 -3 -2 263 -3 263 -283 0 -282
0 0 368 0 367 -25 0 c-14 0 -25 -4 -25 -10z"/>
<path d="M12370 840 c0 -11 5 -20 10 -20 6 0 10 -20 10 -45 0 -41 2 -45 25
-45 23 0 25 4 25 45 0 25 5 45 10 45 6 0 10 -20 10 -44 l0 -43 55 -2 55 -1 0
65 c0 58 -2 65 -19 65 -11 0 -27 -7 -35 -16 -15 -14 -16 -14 -16 0 0 13 -13
16 -65 16 -58 0 -65 -2 -65 -20z"/>
</g>
</svg>
