<?xml version="1.0" standalone="no"?>
<!DOCTYPE svg PUBLIC "-//W3C//DTD SVG 20010904//EN"
 "http://www.w3.org/TR/2001/REC-SVG-20010904/DTD/svg10.dtd">
<svg version="1.0" xmlns="http://www.w3.org/2000/svg"
 width="1008.000000pt" height="1008.000000pt" viewBox="0 0 1008.000000 1008.000000"
 preserveAspectRatio="xMidYMid meet">

<g transform="translate(0.000000,1008.000000) scale(0.100000,-0.100000)"
fill="#000000" stroke="none">
<path d="M4983 9049 c-43 -13 -85 -57 -134 -142 -23 -40 -94 -162 -159 -272
-233 -397 -454 -772 -523 -890 -38 -66 -91 -156 -117 -200 -48 -80 -235 -398
-338 -575 -30 -52 -74 -126 -97 -165 -67 -113 -386 -655 -505 -860 -13 -22
-75 -128 -139 -235 -63 -107 -189 -323 -281 -480 -92 -157 -192 -328 -223
-381 -64 -108 -73 -154 -35 -189 27 -25 86 -27 130 -4 25 13 209 76 363 124
75 23 290 74 505 120 74 15 256 39 393 50 313 25 556 4 877 -76 206 -51 337
-98 530 -188 30 -14 68 -26 83 -26 41 0 77 40 77 87 0 33 -8 44 -72 106 -137
129 -326 269 -515 381 -187 111 -511 238 -711 279 -79 17 -102 29 -102 57 0
20 10 38 182 330 63 107 170 290 238 405 67 116 130 221 140 235 9 14 36 59
59 100 23 41 51 91 62 110 327 557 315 540 369 540 46 0 45 2 362 -540 116
-198 552 -941 790 -1345 212 -360 380 -647 478 -815 57 -96 147 -250 202 -342
122 -207 126 -217 103 -268 -22 -48 -42 -62 -126 -88 -240 -74 -522 -88 -774
-38 -169 33 -291 69 -449 131 -130 51 -320 143 -418 203 -263 161 -599 294
-883 351 -191 38 -270 44 -515 39 -206 -5 -251 -9 -360 -32 -278 -60 -557
-168 -759 -293 -247 -153 -581 -484 -788 -778 -92 -131 -96 -140 -83 -165 17
-32 50 -24 187 44 396 198 812 339 1193 405 537 93 910 49 1420 -169 41 -18
203 -93 360 -168 435 -205 444 -210 610 -279 369 -154 559 -196 900 -195 173
0 241 4 345 22 588 98 1142 372 1275 630 26 50 52 185 44 228 -14 83 -36 156
-58 191 -13 20 -48 79 -78 131 -31 52 -108 185 -173 295 -65 110 -148 252
-185 315 -37 63 -166 282 -285 485 -120 204 -226 384 -235 400 -9 17 -70 120
-135 230 -65 110 -126 214 -135 230 -9 17 -53 91 -97 165 -44 74 -151 257
-238 405 -87 149 -208 356 -270 460 -61 105 -151 258 -200 340 -48 83 -133
227 -188 320 -55 94 -138 235 -185 315 -47 80 -100 170 -118 200 -91 154 -274
467 -324 554 -72 124 -99 159 -143 179 -38 19 -75 20 -124 6z"/>
<path d="M60 2440 c0 -5 -6 -10 -14 -10 -8 0 -17 -7 -20 -16 -3 -9 -6 -264 -6
-569 0 -470 2 -554 14 -565 11 -9 90 -11 308 -8 270 4 298 6 351 26 181 67
298 192 353 378 26 86 24 277 -3 361 -47 142 -149 270 -264 328 -64 33 -178
65 -234 65 -30 0 -36 3 -25 10 10 6 -65 10 -222 10 -152 0 -238 -4 -238 -10z
m550 -322 c45 -19 91 -65 116 -115 15 -31 19 -60 19 -153 0 -100 -3 -121 -22
-156 -51 -96 -133 -134 -289 -134 -110 0 -105 -16 -102 298 3 247 4 267 20
266 10 -1 15 3 11 8 -9 17 205 4 247 -14z"/>
<path d="M1233 2427 l-23 -23 0 -555 c0 -418 3 -558 12 -567 17 -17 839 -17
856 0 8 8 12 52 12 133 0 81 -4 125 -12 133 -9 9 -82 12 -268 12 -236 0 -258
1 -273 18 -20 22 -23 92 -5 110 9 9 76 12 238 12 207 0 228 2 243 18 14 15 17
41 17 134 0 99 -3 117 -18 131 -16 15 -48 17 -245 17 -253 0 -247 -2 -247 74
0 66 2 66 289 66 186 0 260 3 269 12 8 8 12 53 12 134 0 111 -2 124 -20 137
-11 8 -17 17 -13 20 3 4 -176 7 -398 6 -404 0 -404 0 -426 -22z"/>
<path d="M2323 2427 l-23 -23 0 -555 c0 -418 3 -558 12 -567 9 -9 115 -12 414
-12 221 0 409 3 418 6 13 5 16 27 16 133 0 85 -4 131 -12 139 -9 9 -80 12
-258 12 -227 0 -248 2 -263 18 -15 17 -17 61 -17 423 l0 405 -25 22 c-23 20
-36 22 -133 21 -97 0 -109 -2 -129 -22z"/>
<path d="M3073 2443 c4 -3 -3 -11 -16 -17 -21 -11 -22 -18 -25 -137 -2 -103 0
-128 13 -139 10 -8 51 -12 134 -11 97 1 122 -1 135 -14 14 -15 16 -62 16 -416
0 -257 4 -407 10 -420 10 -17 22 -19 143 -19 90 0 137 4 145 12 9 9 12 114 12
413 0 346 2 404 16 423 14 21 22 22 138 22 103 0 126 3 137 17 10 11 14 48 14
127 0 95 -3 115 -20 138 l-20 27 -419 1 c-231 0 -416 -3 -413 -7z"/>
<path d="M5790 2440 c0 -5 -7 -10 -15 -10 -8 0 -19 -9 -25 -19 -6 -13 -10
-207 -10 -561 0 -354 4 -548 10 -561 10 -18 26 -19 425 -19 399 0 415 1 425
19 14 28 13 244 -2 259 -9 9 -80 12 -258 12 -197 0 -250 3 -266 14 -18 14 -19
32 -22 431 -3 404 -3 417 -22 422 -11 3 -17 9 -14 14 3 5 -46 9 -110 9 -71 0
-116 -4 -116 -10z"/>
<path d="M8043 2427 l-23 -23 0 -555 c0 -418 3 -558 12 -567 18 -18 272 -17
287 1 6 8 12 78 13 182 2 115 7 170 14 172 7 2 84 -77 173 -176 89 -98 169
-182 177 -185 9 -3 96 -6 194 -6 150 0 179 2 184 15 5 15 -119 157 -315 360
-110 114 -159 174 -159 193 0 9 95 135 211 280 155 194 210 268 207 285 -3 22
-6 22 -158 25 -100 2 -164 -2 -182 -9 -19 -8 -79 -79 -175 -206 -80 -106 -151
-192 -157 -190 -7 2 -12 68 -14 193 -2 186 -3 189 -27 211 -22 21 -33 23 -132
22 -98 0 -110 -2 -130 -22z"/>
<path d="M9203 2424 l-23 -26 0 -548 c0 -485 2 -550 16 -564 13 -14 66 -16
427 -16 242 0 418 4 427 10 12 7 15 34 15 135 0 101 -3 128 -15 135 -8 6 -125
10 -266 10 -187 0 -255 3 -268 13 -13 10 -17 24 -14 67 l3 55 237 5 c176 4
240 8 250 18 9 9 13 48 13 133 0 108 -2 122 -19 135 -16 11 -66 14 -241 14
-159 0 -224 3 -233 12 -7 7 -12 33 -12 58 0 25 5 51 12 58 9 9 82 12 268 12
143 0 262 4 270 10 11 7 16 35 18 117 4 113 -7 163 -33 163 -9 0 -13 5 -10 10
4 7 -131 10 -397 10 l-403 0 -22 -26z"/>
<path d="M4313 2412 c-13 -9 -47 -74 -78 -147 -31 -71 -62 -143 -69 -160 -124
-276 -337 -790 -334 -807 3 -23 5 -23 162 -26 113 -2 163 1 173 10 8 6 26 35
40 62 45 91 31 86 248 86 217 0 203 5 248 -86 14 -27 32 -56 40 -62 10 -9 60
-12 173 -10 157 3 159 3 162 26 2 12 -21 80 -51 150 -30 70 -134 312 -231 537
-100 232 -186 418 -197 428 -31 25 -253 25 -286 -1z m197 -582 c53 -126 50
-132 -58 -128 -102 4 -105 11 -57 124 21 49 40 92 42 97 14 24 36 -4 73 -93z"/>
<path d="M7137 2419 c-23 -14 -47 -64 -238 -509 -83 -195 -176 -411 -205 -479
-72 -168 -78 -161 126 -161 l159 0 20 28 c11 16 27 47 37 70 9 24 25 47 35 52
24 13 375 13 399 0 11 -6 29 -32 41 -59 38 -90 42 -92 225 -89 l159 3 4 25 c1
14 -4 38 -13 55 -8 16 -38 82 -65 145 -26 63 -82 194 -124 290 -42 96 -116
269 -165 383 -49 115 -100 219 -113 233 -21 23 -28 24 -143 24 -67 0 -129 -5
-139 -11z m187 -578 c20 -50 36 -100 34 -113 -3 -22 -7 -23 -82 -23 -106 0
-110 7 -66 116 56 139 63 140 114 20z"/>
</g>
</svg>
