<?xml version="1.0" standalone="no"?>
<!DOCTYPE svg PUBLIC "-//W3C//DTD SVG 20010904//EN"
 "http://www.w3.org/TR/2001/REC-SVG-20010904/DTD/svg10.dtd">
<svg version="1.0" xmlns="http://www.w3.org/2000/svg"
 width="1008.000000pt" height="1008.000000pt" viewBox="0 0 1008.000000 1008.000000"
 preserveAspectRatio="xMidYMid meet">

<g transform="translate(0.000000,1008.000000) scale(0.100000,-0.100000)"
fill="#000000" stroke="none">
<path d="M4910 10074 c-19 -2 -98 -9 -175 -15 -384 -29 -741 -115 -1110 -266
-123 -50 -336 -155 -429 -212 -34 -20 -69 -41 -76 -45 -49 -24 -277 -181 -365
-251 -285 -228 -528 -485 -736 -780 -90 -128 -107 -154 -138 -207 -10 -18 -35
-62 -56 -98 -50 -87 -165 -316 -165 -329 0 -5 -11 -32 -25 -59 -14 -28 -25
-56 -25 -64 0 -8 -4 -18 -9 -24 -6 -5 -23 -49 -40 -99 -16 -49 -35 -103 -40
-120 -19 -53 -58 -198 -71 -260 -7 -33 -18 -82 -25 -110 -7 -27 -18 -84 -24
-125 -6 -41 -16 -100 -21 -131 -12 -65 -28 -251 -37 -422 -10 -203 24 -550 83
-832 27 -124 35 -158 61 -250 50 -174 78 -255 163 -460 7 -16 39 -86 73 -155
177 -367 405 -687 696 -979 294 -294 593 -512 946 -691 168 -84 183 -91 345
-153 1133 -435 2380 -293 3400 386 310 207 658 538 885 842 31 41 35 47 122
175 104 153 229 383 308 567 25 60 50 117 56 128 24 52 116 338 134 420 7 33
18 80 25 105 6 25 18 81 25 125 8 44 21 118 29 165 47 268 47 794 0 1060 -9
47 -22 123 -29 170 -16 94 -58 276 -75 324 -7 17 -18 55 -26 85 -8 30 -21 68
-28 85 -8 17 -22 56 -31 86 -10 30 -21 60 -25 65 -4 6 -13 28 -20 50 -7 22
-18 51 -25 65 -7 14 -43 88 -80 165 -279 582 -713 1078 -1271 1453 -383 257
-848 450 -1304 541 -285 57 -686 92 -870 75z m-350 -2185 c499 -95 938 -452
1124 -914 16 -38 34 -83 41 -100 7 -16 18 -55 25 -85 6 -30 16 -68 20 -85 36
-120 39 -494 6 -625 -9 -36 -22 -85 -28 -110 -25 -105 -116 -304 -193 -425
-166 -259 -455 -489 -750 -598 -664 -246 -1398 -11 -1803 578 -49 71 -58 87
-106 185 -15 30 -31 63 -37 72 -11 22 -62 177 -77 238 -57 227 -57 505 -1 725
29 110 65 210 111 305 45 92 68 132 135 230 89 131 279 308 438 407 148 92
353 173 518 204 166 32 404 31 577 -2z m2595 -968 c172 -55 293 -158 368 -318
31 -67 32 -71 32 -213 0 -138 -1 -148 -28 -204 -83 -177 -207 -285 -382 -330
-49 -13 -130 -16 -457 -16 l-398 0 0 543 c0 299 3 547 8 551 13 13 812 1 857
-13z"/>
<path d="M8644 2071 c-2 -2 -4 -463 -4 -1023 l0 -1019 478 3 c462 3 479 4 543
26 147 49 288 172 355 309 85 175 86 368 2 543 -32 67 -57 102 -117 162 -70
70 -76 78 -63 95 34 44 91 183 102 251 43 264 -116 520 -392 629 -37 15 -98
18 -471 23 -236 3 -431 3 -433 1z m807 -343 c51 -15 114 -69 141 -122 29 -54
31 -155 4 -206 -25 -49 -74 -98 -121 -123 -37 -20 -57 -22 -272 -25 l-233 -4
0 246 0 246 221 0 c139 0 236 -4 260 -12z m134 -832 c59 -27 92 -57 131 -116
27 -40 29 -50 29 -141 0 -97 0 -97 -40 -155 -32 -46 -53 -65 -103 -91 l-64
-33 -284 0 -284 0 0 280 0 280 283 0 c275 0 283 -1 332 -24z"/>
<path d="M0 1050 l0 -1020 400 0 c326 0 415 3 477 16 423 87 723 506 723 1008
0 478 -290 894 -694 996 -73 18 -113 20 -493 20 l-413 0 0 -1020z m910 649
c233 -111 371 -372 357 -677 -9 -212 -68 -368 -190 -498 -55 -59 -86 -82 -155
-117 l-85 -42 -254 -3 -253 -4 0 692 0 692 253 -4 252 -3 75 -36z"/>
<path d="M5145 2058 c-3 -7 -4 -465 -3 -1018 l3 -1005 163 -3 162 -2 0 299 0
299 80 84 c64 66 82 80 89 68 10 -15 331 -475 456 -652 l69 -98 198 0 c109 0
198 2 198 5 0 4 -55 84 -122 180 -68 96 -159 227 -203 290 -180 259 -315 452
-345 493 -17 24 -30 47 -28 52 2 5 37 44 78 87 62 64 229 241 484 511 l40 42
-229 0 -230 0 -265 -287 -265 -286 -3 477 -2 476 -160 0 c-119 0 -162 -3 -165
-12z"/>
<path d="M6790 1051 l0 -1021 403 0 c423 0 463 4 591 49 188 66 377 245 485
459 83 165 116 310 115 517 0 161 -9 217 -55 358 -58 176 -128 288 -258 417
-106 105 -193 160 -326 207 l-80 28 -437 3 -438 3 0 -1020z m851 669 c199 -61
350 -251 404 -508 39 -191 -4 -434 -104 -590 -83 -127 -178 -205 -299 -242
-56 -18 -93 -20 -293 -20 l-229 0 0 690 0 690 229 0 c199 0 237 -3 292 -20z"/>
<path d="M4035 1630 c-270 -31 -482 -208 -571 -475 -21 -62 -32 -507 -15 -598
43 -234 215 -435 439 -512 151 -53 380 -53 540 1 237 79 413 272 458 502 10
52 13 87 7 93 -5 5 -79 8 -168 7 l-159 -3 -11 -51 c-23 -100 -100 -184 -208
-225 -54 -21 -79 -24 -197 -24 -127 0 -138 2 -190 27 -72 36 -133 96 -167 166
l-28 57 0 230 0 230 28 57 c34 67 109 141 175 171 41 19 64 22 182 22 128 0
138 -2 197 -29 102 -47 178 -141 192 -235 l6 -46 165 0 164 0 -3 54 c-8 164
-126 356 -282 463 -63 44 -160 86 -232 102 -82 19 -235 26 -322 16z"/>
<path d="M1852 1043 l4 -578 27 -70 c74 -190 218 -318 418 -372 89 -24 327
-24 423 0 187 47 336 175 404 347 49 123 52 160 52 723 l0 527 -165 0 -165 0
0 -499 c0 -470 -1 -503 -20 -563 -25 -80 -76 -149 -138 -185 -43 -26 -57 -28
-164 -32 -108 -3 -121 -1 -172 22 -68 31 -109 74 -145 147 l-26 55 -5 525 -5
525 -163 3 -163 3 3 -578z"/>
</g>
</svg>
