<?xml version="1.0" standalone="no"?>
<!DOCTYPE svg PUBLIC "-//W3C//DTD SVG 20010904//EN"
 "http://www.w3.org/TR/2001/REC-SVG-20010904/DTD/svg10.dtd">
<svg version="1.0" xmlns="http://www.w3.org/2000/svg"
 width="1008.000000pt" height="1008.000000pt" viewBox="0 0 1008.000000 1008.000000"
 preserveAspectRatio="xMidYMid meet">

<g transform="translate(0.000000,1008.000000) scale(0.100000,-0.100000)"
fill="#000000" stroke="none">
<path d="M3731 10054 c-216 -58 -382 -225 -448 -449 -15 -54 -17 -132 -21
-783 -3 -610 -5 -723 -17 -718 -8 3 -288 162 -623 354 -471 270 -625 353 -678
368 -52 14 -101 19 -199 18 -115 0 -138 -3 -197 -26 -205 -78 -351 -237 -403
-438 -24 -93 -17 -271 14 -360 32 -91 85 -175 157 -245 54 -53 186 -132 1168
-693 609 -349 1131 -644 1159 -657 82 -35 155 -49 257 -48 286 2 511 167 606
443 18 53 19 108 19 1410 l0 1355 -26 67 c-40 103 -87 173 -165 248 -77 73
-177 129 -274 155 -71 19 -257 18 -329 -1z"/>
<path d="M6003 10051 c-216 -62 -381 -231 -437 -448 -15 -56 -16 -199 -14
-1400 l3 -1338 23 -65 c84 -234 279 -389 525 -420 100 -12 209 0 301 34 34 12
561 307 1171 656 1107 633 1110 635 1190 715 126 126 185 265 185 439 0 176
-59 315 -184 441 -94 95 -180 143 -302 171 -102 22 -263 15 -352 -16 -34 -12
-340 -181 -680 -375 l-617 -354 -5 747 c-6 821 -2 769 -73 906 -76 148 -229
268 -393 310 -84 22 -259 20 -341 -3z"/>
<path d="M470 6884 c-218 -57 -399 -240 -455 -459 -19 -76 -19 -224 0 -300 29
-114 81 -203 169 -290 79 -78 99 -90 693 -429 336 -193 610 -353 608 -356 -2
-4 -280 -164 -617 -356 -585 -333 -616 -352 -688 -424 -84 -83 -136 -174 -165
-290 -25 -95 -17 -261 17 -357 54 -154 171 -285 313 -353 105 -50 169 -64 285
-64 99 0 173 13 250 46 25 11 542 304 1150 651 1101 630 1105 632 1185 712 91
90 133 164 165 291 54 208 -10 435 -164 588 -68 68 -121 100 -1177 703 -608
348 -1125 641 -1150 652 -116 51 -299 67 -419 35z"/>
<path d="M9288 6884 c-32 -7 -86 -28 -120 -45 -83 -42 -2125 -1210 -2206
-1262 -353 -226 -379 -745 -50 -1011 53 -43 2176 -1263 2281 -1311 82 -38 197
-58 294 -51 269 19 480 185 569 446 27 78 27 282 0 360 -51 149 -133 260 -249
336 -40 27 -330 195 -645 374 -314 179 -570 328 -569 332 1 4 268 160 593 346
325 187 612 353 637 370 68 48 151 145 191 225 89 181 89 383 -2 567 -74 151
-237 281 -408 324 -76 20 -237 20 -316 0z"/>
<path d="M4841 6209 c-36 -14 -940 -908 -962 -951 -16 -32 -19 -60 -19 -203 0
-118 4 -175 14 -198 21 -49 915 -933 968 -957 60 -27 333 -29 390 -2 54 25
946 905 969 957 15 33 19 67 19 198 0 112 -4 167 -14 191 -16 39 -910 932
-959 958 -27 14 -61 17 -207 17 -96 0 -186 -5 -199 -10z m261 -762 c34 -15
314 -291 334 -329 18 -35 18 -92 -2 -133 -8 -18 -81 -98 -162 -178 -165 -162
-193 -178 -274 -156 -35 9 -69 37 -191 157 -82 81 -155 159 -163 174 -19 36
-18 102 2 144 17 36 268 285 319 316 34 20 97 23 137 5z"/>
<path d="M3733 3711 c-39 -11 -91 -30 -115 -42 -23 -12 -536 -303 -1138 -647
-1074 -614 -1096 -627 -1171 -701 -83 -83 -136 -175 -164 -286 -19 -76 -19
-234 0 -310 43 -172 171 -329 326 -403 112 -53 174 -67 299 -66 166 1 189 12
880 408 l605 346 6 -728 c6 -810 3 -775 77 -917 102 -193 301 -319 526 -332
117 -6 215 14 321 66 144 71 257 198 313 351 l27 75 3 1328 c3 1475 6 1391
-64 1534 -70 141 -204 256 -361 310 -106 36 -265 42 -370 14z"/>
<path d="M6032 3715 c-174 -39 -344 -175 -420 -335 -22 -47 -45 -109 -51 -138
-8 -37 -11 -457 -11 -1365 0 -1140 2 -1321 15 -1372 68 -267 301 -456 580
-472 303 -17 576 181 650 472 13 50 15 169 15 782 0 398 3 723 6 723 4 0 283
-158 620 -351 338 -193 639 -359 668 -370 190 -66 404 -39 571 72 118 79 200
189 251 339 25 73 26 280 2 356 -39 125 -117 241 -208 313 -81 64 -2255 1302
-2335 1330 -88 30 -257 38 -353 16z"/>
</g>
</svg>
