<?xml version="1.0" standalone="no"?>
<!DOCTYPE svg PUBLIC "-//W3C//DTD SVG 20010904//EN"
 "http://www.w3.org/TR/2001/REC-SVG-20010904/DTD/svg10.dtd">
<svg version="1.0" xmlns="http://www.w3.org/2000/svg"
 width="1008.000000pt" height="1008.000000pt" viewBox="0 0 1008.000000 1008.000000"
 preserveAspectRatio="xMidYMid meet">

<g transform="translate(0.000000,1008.000000) scale(0.100000,-0.100000)"
fill="#000000" stroke="none">
<path d="M4666 10073 c-66 -2 -125 -8 -132 -14 -7 -5 -45 -10 -86 -10 -92 1
-476 -36 -503 -48 -11 -5 -78 -17 -150 -26 -71 -10 -134 -21 -140 -25 -5 -4
-57 -15 -115 -25 -58 -9 -112 -19 -120 -22 -8 -3 -22 -7 -30 -9 -62 -12 -188
-45 -201 -53 -8 -5 -42 -14 -75 -21 -32 -7 -72 -18 -89 -25 -16 -8 -66 -23
-110 -35 -44 -12 -82 -25 -85 -29 -3 -4 -32 -15 -65 -25 -33 -10 -64 -22 -70
-26 -5 -4 -35 -15 -65 -25 -30 -10 -69 -26 -86 -36 -17 -11 -37 -19 -44 -19
-13 0 -47 -17 -250 -122 -107 -55 -232 -130 -306 -184 -23 -16 -52 -36 -64
-44 -12 -8 -32 -23 -43 -33 -12 -10 -35 -28 -50 -40 -43 -33 -135 -117 -171
-156 -17 -19 -43 -47 -58 -62 -41 -43 -152 -217 -181 -284 -14 -33 -35 -96
-47 -140 -20 -79 -21 -95 -20 -1050 1 -819 4 -982 16 -1045 16 -77 73 -224
106 -272 10 -14 18 -29 18 -33 0 -33 212 -270 323 -361 61 -49 235 -174 243
-174 3 0 25 -13 49 -30 24 -16 48 -30 53 -30 6 0 12 -4 14 -9 3 -11 354 -191
370 -191 6 0 31 -11 57 -24 26 -12 65 -29 86 -36 22 -7 45 -16 50 -20 6 -5 44
-18 85 -30 41 -13 80 -26 85 -30 6 -5 37 -16 70 -25 33 -9 74 -23 90 -30 17
-7 57 -18 90 -25 33 -7 65 -16 71 -21 7 -6 16 -9 20 -8 5 1 16 -1 24 -4 20 -9
170 -44 310 -72 63 -13 117 -24 120 -25 3 -1 9 -2 13 -1 5 1 23 -3 40 -9 18
-6 95 -20 172 -30 77 -11 167 -24 200 -29 33 -6 139 -15 235 -21 96 -7 186
-17 199 -23 34 -17 1012 -17 1032 -1 8 6 73 15 144 18 72 4 180 14 240 21 171
21 387 54 415 62 14 4 34 8 45 10 65 8 425 87 455 100 8 3 20 7 25 8 6 0 17 4
25 8 8 3 47 14 85 23 39 9 75 20 80 24 6 4 39 15 74 24 36 9 69 20 75 25 6 5
38 16 71 26 33 9 66 22 73 27 6 6 12 7 12 4 0 -4 10 0 22 8 12 9 28 16 35 16
12 0 54 18 207 88 87 40 310 153 316 161 6 8 110 71 116 71 3 0 22 12 42 27
20 15 62 45 92 67 140 102 310 266 384 370 25 35 46 68 46 71 0 4 8 19 18 33
33 48 90 195 106 272 12 63 15 226 16 1045 1 954 0 971 -20 1050 -12 44 -32
103 -46 132 -13 28 -24 55 -24 59 0 4 -30 53 -67 108 -63 94 -238 283 -319
343 -16 12 -39 30 -51 40 -11 10 -31 25 -43 33 -12 8 -41 28 -64 44 -72 52
-198 127 -306 184 -195 101 -237 122 -250 122 -7 0 -27 8 -44 19 -17 10 -56
26 -86 36 -30 10 -59 21 -65 25 -5 4 -37 16 -70 26 -33 10 -62 21 -65 25 -3 4
-41 17 -85 29 -44 12 -93 27 -110 35 -16 7 -57 18 -89 25 -33 7 -67 16 -75 21
-13 8 -139 41 -201 53 -8 2 -22 6 -30 9 -8 3 -62 13 -120 23 -58 9 -112 20
-121 25 -8 4 -71 15 -140 24 -68 9 -133 21 -144 25 -11 5 -99 16 -195 25 -96
9 -188 18 -205 20 -16 3 -63 5 -103 4 -41 0 -80 5 -87 11 -13 11 -650 21 -879
13z m894 -264 c91 -5 174 -14 185 -18 11 -5 101 -17 200 -26 99 -9 183 -22
186 -27 4 -5 17 -9 30 -7 13 1 31 -1 39 -4 8 -3 65 -13 125 -22 61 -9 119 -20
130 -25 11 -4 60 -16 109 -25 49 -9 96 -20 105 -25 9 -5 61 -18 116 -30 55
-12 105 -26 110 -30 6 -4 41 -15 80 -24 38 -10 74 -21 80 -25 5 -4 40 -16 78
-27 37 -10 67 -23 67 -27 0 -5 7 -7 15 -4 8 4 17 2 20 -3 3 -5 30 -16 60 -24
30 -9 57 -21 60 -26 3 -6 13 -10 21 -10 8 0 39 -11 67 -24 29 -14 77 -34 107
-46 30 -12 62 -27 70 -34 8 -7 31 -19 50 -26 19 -7 41 -18 47 -23 7 -5 39 -23
70 -39 88 -46 96 -51 130 -75 17 -13 34 -23 38 -23 8 0 139 -91 198 -138 137
-108 288 -256 315 -309 71 -136 102 -217 102 -268 0 -31 -40 -155 -62 -190
-10 -16 -23 -41 -28 -55 -21 -47 -145 -180 -241 -258 -18 -15 -41 -35 -51 -44
-9 -10 -35 -28 -56 -42 -21 -13 -45 -30 -53 -38 -8 -7 -39 -29 -69 -48 -30
-19 -57 -37 -60 -41 -3 -3 -27 -19 -55 -33 -27 -15 -68 -38 -90 -51 -72 -42
-348 -175 -395 -190 -3 -1 -18 -7 -35 -14 -16 -7 -41 -18 -55 -24 -14 -6 -31
-9 -37 -8 -7 1 -13 -2 -13 -7 0 -5 -28 -17 -62 -27 -35 -9 -68 -21 -74 -26 -6
-5 -39 -16 -75 -25 -35 -9 -70 -21 -76 -26 -7 -6 -13 -7 -13 -3 0 4 -6 3 -12
-2 -7 -6 -49 -18 -93 -28 -44 -9 -84 -21 -90 -25 -5 -5 -50 -16 -100 -26 -49
-9 -93 -22 -96 -27 -4 -5 -16 -7 -28 -4 -12 3 -23 2 -26 -3 -3 -4 -43 -14 -90
-21 -47 -7 -88 -16 -90 -20 -3 -4 -14 -5 -25 -2 -11 3 -26 1 -33 -5 -6 -5 -75
-18 -152 -27 -77 -9 -149 -21 -160 -26 -22 -9 -344 -39 -423 -39 -27 0 -51 -3
-55 -6 -3 -4 -51 -6 -106 -5 -61 1 -102 -2 -106 -8 -9 -15 -481 -15 -490 0 -4
6 -45 9 -106 8 -55 -1 -103 1 -106 5 -4 3 -28 6 -55 6 -79 0 -401 30 -423 39
-11 5 -83 17 -160 26 -77 9 -145 21 -152 27 -6 5 -20 8 -30 7 -10 -1 -25 1
-33 4 -8 3 -62 13 -120 23 -58 9 -107 20 -110 24 -3 3 -45 15 -95 24 -49 10
-94 21 -100 26 -5 4 -46 16 -90 25 -44 10 -86 22 -92 28 -7 5 -13 6 -13 2 0
-4 -6 -3 -12 3 -7 5 -42 17 -77 26 -36 9 -69 20 -75 25 -6 5 -31 14 -55 21
-24 6 -55 16 -70 22 -14 6 -28 12 -31 13 -3 1 -18 7 -35 14 -56 24 -80 35 -85
36 -55 17 -368 169 -417 202 -19 13 -53 33 -76 44 -23 12 -44 25 -47 28 -3 4
-30 22 -60 41 -30 19 -61 41 -69 48 -8 8 -32 25 -53 38 -21 14 -47 32 -56 42
-10 9 -33 29 -51 44 -96 78 -220 211 -241 258 -5 14 -18 39 -28 55 -22 35 -62
159 -62 190 0 51 31 132 102 268 9 18 51 68 95 112 71 73 104 102 213 192 44
37 197 143 206 143 3 0 20 10 37 23 34 24 42 29 130 75 31 16 63 34 70 39 6 5
28 16 47 23 19 7 42 19 50 26 8 7 40 22 70 34 30 12 78 32 107 46 28 13 59 24
67 24 8 0 18 4 21 10 3 5 30 17 60 26 30 8 57 19 60 24 3 5 12 7 20 3 8 -3 15
-1 15 4 0 4 30 17 68 27 37 11 72 23 77 27 6 4 42 15 80 25 39 9 75 20 80 24
6 4 55 18 110 30 55 12 107 25 116 30 9 5 56 16 105 25 49 9 98 21 109 25 11
5 70 16 130 25 61 9 117 19 125 22 8 3 26 5 39 4 13 -2 26 2 30 7 3 5 87 17
186 27 99 9 187 20 196 25 13 7 158 17 479 34 106 6 572 -3 750 -15z"/>
<path d="M1310 5018 c2 -980 2 -990 50 -1115 61 -161 133 -271 261 -401 46
-47 135 -129 180 -167 36 -30 192 -141 209 -149 8 -4 42 -24 75 -46 61 -40 95
-59 220 -123 96 -49 242 -117 251 -117 4 0 25 -9 48 -19 52 -25 198 -81 209
-81 4 0 28 -9 52 -20 24 -11 67 -25 94 -31 28 -6 53 -15 57 -20 3 -5 10 -7 15
-3 5 3 15 1 22 -4 7 -5 46 -17 87 -27 41 -10 82 -22 90 -27 18 -10 200 -51
350 -78 58 -11 121 -24 140 -30 19 -6 98 -20 175 -30 77 -11 167 -24 201 -29
85 -14 465 -41 574 -41 71 0 92 -3 96 -15 9 -23 539 -23 548 0 4 12 24 15 91
15 102 0 473 26 565 40 36 5 130 18 210 29 80 11 161 25 180 31 19 6 80 19
135 30 172 33 339 70 355 79 8 4 49 16 90 26 41 10 80 22 87 27 7 5 17 7 22 4
5 -4 12 -2 15 3 3 5 30 14 58 21 29 7 67 18 83 26 17 7 56 22 88 33 140 51
172 63 191 77 11 8 26 14 34 14 19 0 206 89 372 176 25 13 72 42 105 64 33 22
67 42 75 46 21 10 96 61 112 77 7 7 26 20 41 30 42 27 67 49 178 152 84 79
198 212 215 252 7 17 18 34 23 37 10 7 45 77 77 160 52 131 52 133 54 1124 0
507 -2 922 -6 922 -5 0 -25 -19 -47 -42 -140 -152 -215 -223 -327 -309 -80
-62 -221 -162 -259 -184 -114 -67 -257 -146 -311 -171 -19 -8 -75 -35 -125
-59 -49 -23 -101 -46 -115 -50 -14 -4 -43 -16 -65 -26 -59 -27 -202 -78 -264
-95 -30 -8 -60 -18 -65 -23 -6 -5 -45 -16 -86 -26 -41 -10 -79 -21 -85 -25 -5
-4 -48 -16 -95 -25 -47 -10 -89 -21 -95 -25 -5 -4 -53 -15 -105 -24 -52 -10
-102 -21 -111 -26 -9 -5 -84 -18 -165 -30 -82 -11 -158 -25 -169 -30 -21 -9
-304 -40 -367 -40 -20 0 -38 -4 -40 -9 -6 -16 -447 -34 -828 -34 -381 0 -822
18 -828 34 -2 5 -20 9 -40 9 -63 0 -346 31 -367 40 -11 5 -87 19 -169 30 -81
12 -156 25 -165 30 -9 5 -59 16 -111 26 -52 9 -99 20 -105 24 -5 4 -48 15 -95
25 -47 9 -89 21 -95 25 -5 4 -44 15 -85 25 -41 10 -82 22 -90 26 -8 5 -71 27
-140 50 -69 23 -136 46 -150 52 -14 6 -27 11 -30 12 -3 1 -22 9 -42 18 -21 10
-40 17 -43 17 -8 0 -215 97 -235 110 -8 6 -38 21 -66 34 -71 33 -233 129 -329
195 -205 141 -331 250 -496 432 -19 21 -39 39 -43 39 -4 0 -6 -415 -6 -922z"/>
<path d="M1312 2558 c3 -935 4 -954 24 -1018 64 -199 195 -386 395 -566 51
-46 249 -195 268 -201 9 -3 30 -16 46 -28 64 -46 407 -225 432 -225 7 0 13 -4
13 -9 0 -4 25 -16 55 -26 30 -9 57 -21 60 -25 3 -4 31 -16 63 -26 31 -9 62
-21 67 -25 6 -4 44 -17 85 -29 41 -12 80 -26 85 -30 6 -5 39 -16 75 -25 36 -9
70 -20 75 -25 6 -4 17 -8 25 -8 8 0 58 -13 110 -27 52 -15 138 -37 190 -49 52
-12 102 -25 110 -29 17 -7 231 -47 271 -51 14 -2 30 -5 35 -8 5 -3 79 -13 164
-23 85 -9 164 -21 175 -26 25 -11 422 -39 555 -39 93 0 100 -1 100 -20 0 -19
7 -20 250 -20 243 0 250 1 250 20 0 19 7 20 100 20 131 0 529 28 555 39 11 5
102 18 203 30 100 12 192 26 205 31 12 5 67 16 122 25 55 9 107 19 115 22 8 4
58 17 110 29 52 12 138 34 190 49 52 14 102 27 110 27 8 0 20 4 25 8 6 5 39
16 75 25 36 9 70 20 75 25 6 4 44 18 85 30 41 12 80 25 85 29 6 4 35 15 65 26
30 10 64 24 75 30 11 7 39 18 63 25 23 7 42 17 42 22 0 4 6 8 13 8 26 0 373
182 433 227 17 13 34 23 37 23 13 0 191 132 271 201 193 166 344 382 403 575
16 54 18 134 20 1012 3 727 1 952 -8 952 -7 0 -62 -51 -123 -114 -120 -124
-274 -256 -364 -313 -32 -20 -59 -39 -62 -43 -3 -4 -21 -16 -40 -26 -19 -11
-49 -28 -65 -40 -17 -11 -37 -24 -45 -28 -8 -3 -37 -20 -65 -36 -27 -16 -72
-40 -100 -54 -27 -14 -57 -30 -65 -36 -8 -5 -46 -24 -85 -41 -38 -17 -88 -39
-110 -50 -34 -15 -149 -60 -165 -65 -3 0 -22 -8 -42 -17 -21 -10 -43 -17 -50
-17 -7 0 -25 -6 -40 -14 -15 -8 -53 -22 -85 -31 -32 -9 -62 -20 -68 -24 -5 -5
-44 -16 -85 -26 -41 -9 -79 -21 -85 -25 -5 -4 -59 -18 -120 -30 -60 -13 -114
-26 -120 -30 -5 -4 -55 -15 -110 -24 -55 -10 -107 -21 -116 -26 -8 -4 -76 -16
-150 -26 -74 -10 -135 -21 -137 -24 -1 -4 -16 -4 -33 -2 -17 2 -40 0 -52 -6
-22 -11 -323 -42 -408 -42 -25 0 -49 -4 -55 -10 -17 -17 -653 -30 -1006 -19
-183 5 -337 14 -342 19 -6 6 -33 10 -60 10 -86 0 -380 30 -403 42 -12 6 -35 8
-52 6 -17 -2 -32 -2 -33 2 -2 3 -63 14 -137 24 -74 10 -142 22 -150 26 -9 5
-61 16 -116 26 -55 9 -104 20 -110 24 -5 4 -59 17 -120 30 -60 12 -114 26
-120 30 -5 4 -44 16 -85 25 -41 10 -79 21 -85 26 -5 4 -36 15 -68 24 -32 9
-70 23 -85 31 -15 8 -33 14 -39 14 -12 0 -123 44 -288 113 -76 33 -146 65
-165 77 -8 6 -37 21 -65 35 -27 14 -72 39 -100 55 -27 16 -57 33 -65 36 -8 4
-28 17 -45 28 -16 12 -46 29 -65 40 -19 10 -42 24 -50 31 -8 7 -40 30 -69 50
-93 62 -264 211 -362 315 -52 55 -100 100 -107 100 -10 0 -12 -184 -10 -952z"/>
</g>
</svg>
