<?xml version="1.0" standalone="no"?>
<!DOCTYPE svg PUBLIC "-//W3C//DTD SVG 20010904//EN"
 "http://www.w3.org/TR/2001/REC-SVG-20010904/DTD/svg10.dtd">
<svg version="1.0" xmlns="http://www.w3.org/2000/svg"
 width="1008.000000pt" height="1008.000000pt" viewBox="0 0 1008.000000 1008.000000"
 preserveAspectRatio="xMidYMid meet">

<g transform="translate(0.000000,1008.000000) scale(0.100000,-0.100000)"
fill="#000000" stroke="none">
<path d="M120 10067 c0 -8 9 -22 20 -32 11 -10 18 -21 15 -25 -2 -4 7 -18 21
-31 15 -13 30 -33 35 -44 13 -28 32 -57 49 -75 18 -18 37 -47 49 -75 5 -12 16
-27 25 -34 9 -7 16 -19 16 -25 0 -7 11 -23 25 -36 14 -13 25 -28 25 -33 0 -5
8 -17 18 -26 19 -18 38 -46 51 -78 6 -11 15 -24 21 -28 6 -4 15 -17 21 -28 13
-32 32 -60 52 -78 9 -9 17 -21 17 -26 0 -5 11 -20 25 -33 14 -13 25 -29 25
-36 0 -6 7 -18 16 -25 9 -7 20 -22 25 -34 12 -28 31 -57 49 -75 18 -18 36 -47
49 -75 5 -11 18 -29 30 -39 11 -11 21 -24 21 -31 0 -7 9 -20 20 -30 11 -10 20
-24 20 -31 0 -7 3 -14 8 -16 11 -5 62 -75 62 -86 0 -5 9 -17 20 -27 11 -10 20
-23 20 -30 0 -6 11 -22 25 -35 14 -13 25 -28 25 -32 0 -8 44 -72 60 -88 8 -8
29 -44 39 -65 5 -12 16 -27 25 -34 9 -7 16 -19 16 -25 0 -7 11 -23 25 -36 14
-13 25 -28 25 -33 0 -5 8 -17 18 -26 19 -18 38 -46 51 -78 6 -11 15 -24 21
-28 6 -4 15 -17 21 -28 14 -33 31 -59 59 -87 28 -28 45 -54 59 -87 6 -11 15
-24 21 -28 6 -4 15 -17 21 -28 13 -32 32 -60 52 -78 9 -9 17 -21 17 -26 0 -5
11 -20 25 -33 14 -13 25 -29 25 -36 0 -6 7 -18 16 -25 9 -7 20 -22 25 -34 12
-28 31 -57 49 -75 18 -18 36 -47 49 -75 5 -11 18 -29 30 -39 11 -11 21 -24 21
-31 0 -7 9 -20 20 -30 11 -10 20 -22 20 -27 0 -11 51 -81 63 -86 4 -2 7 -9 7
-16 0 -7 9 -21 20 -31 11 -10 17 -21 15 -25 -2 -4 4 -15 15 -25 11 -10 20 -23
20 -30 0 -6 11 -22 25 -35 14 -13 25 -28 25 -33 0 -5 8 -17 18 -26 19 -18 38
-46 51 -78 6 -11 15 -24 21 -28 6 -4 15 -17 21 -28 14 -33 31 -59 59 -87 28
-28 45 -54 59 -87 6 -11 15 -24 21 -28 6 -4 15 -17 21 -28 13 -32 32 -60 52
-78 9 -9 17 -21 17 -26 0 -5 11 -20 25 -33 14 -13 25 -29 25 -36 0 -6 7 -18
16 -25 9 -7 20 -22 25 -34 12 -28 31 -57 49 -75 18 -18 36 -47 49 -75 5 -11
18 -29 30 -39 11 -11 21 -24 21 -31 0 -7 9 -20 20 -30 11 -10 20 -22 20 -27 0
-11 51 -81 63 -86 4 -2 7 -9 7 -16 0 -7 9 -21 20 -31 11 -10 20 -23 20 -30 0
-7 10 -20 21 -31 12 -10 25 -28 30 -39 13 -28 31 -57 49 -75 18 -18 37 -47 49
-77 6 -11 15 -24 21 -28 6 -4 15 -17 21 -28 14 -33 31 -59 59 -87 28 -28 45
-54 59 -87 6 -11 15 -24 21 -28 6 -4 15 -17 21 -28 13 -32 32 -60 52 -78 9 -9
17 -21 17 -26 0 -5 11 -20 25 -33 14 -13 25 -29 25 -36 0 -6 7 -18 16 -25 9
-7 20 -22 25 -34 12 -28 31 -57 49 -75 18 -18 36 -47 49 -75 5 -11 19 -29 31
-40 12 -11 26 -29 31 -40 5 -11 17 -31 27 -45 9 -14 26 -40 37 -58 11 -17 23
-32 28 -32 4 0 7 -6 7 -13 0 -8 9 -22 20 -32 11 -10 20 -23 20 -30 0 -7 10
-20 21 -31 12 -10 25 -28 30 -39 13 -28 31 -57 49 -75 18 -18 37 -47 49 -75 5
-12 16 -27 25 -34 9 -7 16 -19 16 -26 0 -6 9 -20 20 -30 11 -10 20 -23 20 -29
0 -6 10 -20 23 -31 23 -22 42 -47 56 -80 5 -12 16 -27 25 -34 9 -7 16 -19 16
-26 0 -7 7 -18 15 -25 25 -20 17 -54 -20 -90 -19 -19 -35 -39 -35 -45 0 -6
-22 -33 -50 -60 -27 -27 -50 -54 -50 -60 0 -6 -25 -35 -55 -65 -30 -30 -55
-58 -55 -62 0 -5 -22 -30 -50 -57 -28 -27 -50 -53 -50 -58 0 -5 -25 -33 -55
-63 -30 -30 -55 -59 -55 -65 0 -6 -25 -35 -55 -65 -30 -30 -55 -59 -55 -65 0
-6 -22 -33 -50 -60 -28 -27 -50 -53 -50 -58 0 -5 -25 -33 -55 -62 -30 -30 -55
-58 -55 -62 0 -5 -23 -31 -50 -58 -28 -27 -50 -54 -50 -60 0 -6 -25 -35 -55
-65 -30 -30 -55 -59 -55 -65 0 -6 -27 -37 -60 -70 -33 -33 -60 -63 -60 -68 0
-5 -25 -34 -55 -63 -30 -30 -55 -58 -55 -62 0 -4 -22 -30 -50 -57 -28 -27 -50
-54 -50 -60 0 -6 -25 -35 -55 -65 -30 -30 -55 -59 -55 -65 0 -6 -23 -33 -50
-60 -28 -27 -50 -54 -50 -60 0 -6 -25 -35 -55 -65 -30 -30 -55 -58 -55 -62 0
-3 -27 -33 -60 -65 -33 -32 -60 -62 -60 -68 0 -6 -25 -35 -55 -65 -30 -30 -55
-59 -55 -65 0 -6 -25 -35 -55 -65 -30 -29 -52 -56 -50 -60 2 -4 -20 -31 -50
-60 -30 -30 -55 -58 -55 -62 0 -5 -25 -33 -55 -63 -30 -29 -55 -58 -55 -62 0
-5 -23 -31 -50 -58 -28 -27 -50 -54 -50 -60 0 -6 -25 -35 -55 -65 -30 -30 -55
-59 -55 -65 0 -6 -27 -37 -60 -70 -33 -33 -60 -63 -60 -68 0 -5 -25 -33 -55
-62 -30 -30 -55 -58 -55 -62 0 -5 -23 -31 -50 -58 -28 -27 -50 -54 -50 -60 0
-6 -25 -35 -55 -65 -30 -30 -55 -59 -55 -65 0 -6 -23 -33 -50 -60 -28 -27 -50
-53 -50 -58 0 -4 -25 -33 -55 -63 -30 -31 -55 -59 -55 -63 0 -4 -27 -33 -60
-66 -33 -33 -60 -64 -60 -70 0 -6 -25 -35 -55 -65 -30 -30 -55 -59 -55 -65 0
-6 -23 -33 -50 -60 -28 -27 -50 -53 -50 -58 0 -5 -22 -32 -48 -60 -144 -153
-172 -185 -172 -193 0 -5 -27 -36 -60 -69 -33 -33 -60 -64 -60 -70 0 -6 -16
-26 -35 -45 -19 -19 -35 -40 -35 -47 0 -10 83 -13 428 -13 l428 0 32 33 c18
18 32 37 32 43 0 5 23 32 50 59 28 27 50 54 50 59 0 9 56 72 166 187 24 25 44
50 44 55 0 5 25 34 55 64 30 30 55 59 55 65 0 6 23 33 50 60 28 27 50 54 50
60 0 6 29 40 65 75 36 35 65 68 65 73 0 4 23 29 50 56 28 27 50 53 50 58 0 5
25 33 55 63 30 30 55 59 55 65 0 6 25 35 55 65 30 29 52 56 50 60 -2 4 20 31
50 60 30 30 55 58 55 63 0 5 25 33 55 62 30 30 55 58 55 62 0 5 23 31 50 58
28 27 50 54 50 60 0 6 29 40 65 75 36 35 65 69 65 75 0 6 23 33 50 60 28 27
50 53 50 58 0 5 25 34 55 63 30 30 55 58 55 62 0 4 23 30 50 57 28 27 50 54
50 60 0 6 25 35 55 65 30 30 55 59 55 65 0 6 27 37 60 70 33 33 60 65 60 71 0
7 3 14 7 16 14 6 193 205 193 215 0 5 27 35 60 68 33 33 60 64 60 70 0 6 20
31 45 55 25 24 45 49 45 55 0 6 27 37 60 70 33 33 60 62 60 66 0 4 25 32 55
63 30 30 55 59 55 63 0 5 22 31 50 58 28 27 50 54 50 60 0 6 25 35 55 65 30
30 55 59 55 65 0 6 23 33 50 60 28 27 50 53 50 58 0 4 25 32 55 62 30 29 55
57 55 62 0 5 25 33 55 63 30 29 52 56 50 60 -2 4 25 35 60 70 36 36 65 69 65
75 0 6 13 24 30 40 24 23 32 26 45 15 8 -7 15 -18 15 -24 0 -7 11 -23 25 -36
14 -13 25 -28 25 -32 0 -11 51 -81 63 -86 4 -2 7 -9 7 -17 0 -7 7 -19 16 -26
9 -7 20 -22 25 -34 16 -34 35 -64 52 -83 10 -10 17 -23 17 -27 0 -5 10 -19 23
-30 24 -22 42 -47 56 -82 6 -11 15 -24 21 -28 6 -4 16 -17 21 -28 20 -44 38
-70 61 -91 14 -12 28 -28 32 -36 12 -27 31 -57 46 -75 17 -20 35 -51 49 -83 6
-12 18 -25 26 -28 8 -4 15 -11 15 -18 0 -6 10 -22 23 -36 12 -14 30 -41 39
-61 10 -19 26 -43 38 -54 11 -10 20 -22 20 -27 0 -5 16 -29 35 -52 19 -24 35
-47 35 -53 0 -5 13 -22 30 -38 16 -15 27 -31 25 -35 -3 -4 4 -15 15 -25 11
-10 20 -22 20 -28 0 -8 14 -28 60 -84 6 -7 10 -16 10 -21 0 -5 7 -16 16 -23 9
-7 20 -22 25 -34 18 -37 36 -66 58 -89 11 -12 21 -26 21 -30 0 -5 8 -16 18
-25 19 -18 38 -46 51 -76 5 -12 16 -27 25 -34 9 -7 16 -17 16 -22 0 -12 46
-78 68 -98 10 -9 22 -23 26 -31 12 -27 31 -57 46 -75 17 -20 35 -51 49 -83 6
-12 18 -25 26 -28 8 -4 15 -12 15 -18 0 -7 11 -23 25 -36 14 -13 25 -29 25
-36 0 -6 7 -18 16 -25 9 -7 20 -22 25 -34 16 -34 33 -59 67 -102 17 -22 32
-45 32 -50 0 -6 9 -18 20 -28 11 -10 20 -23 20 -30 0 -6 11 -22 25 -35 14 -13
25 -29 25 -35 0 -7 9 -20 20 -30 11 -10 20 -24 20 -32 0 -7 7 -16 15 -19 8 -4
15 -12 15 -19 0 -7 7 -19 16 -26 9 -7 20 -22 25 -34 18 -37 36 -66 58 -89 11
-12 21 -28 21 -34 0 -7 9 -17 20 -24 11 -7 20 -18 20 -24 0 -6 7 -18 16 -25 9
-7 20 -22 25 -34 16 -34 35 -64 52 -83 10 -10 17 -24 17 -30 0 -6 10 -19 23
-29 13 -10 26 -25 30 -33 14 -28 33 -58 47 -75 17 -20 35 -51 49 -83 6 -12 18
-25 26 -28 8 -4 15 -14 15 -23 0 -9 9 -22 21 -29 12 -7 18 -16 15 -19 -4 -4 6
-19 20 -34 26 -27 44 -55 63 -94 5 -12 16 -27 25 -34 9 -7 16 -19 16 -26 0 -7
7 -15 15 -19 8 -3 15 -12 15 -19 0 -8 9 -22 20 -32 11 -10 20 -23 20 -30 0 -6
11 -22 25 -35 14 -13 25 -29 25 -35 0 -7 9 -20 20 -30 11 -10 20 -24 20 -32 0
-7 7 -16 15 -19 8 -4 15 -12 15 -19 0 -6 9 -20 20 -30 11 -10 20 -23 20 -28 0
-6 10 -21 21 -33 12 -13 27 -34 33 -46 l12 -23 1462 -3 c1269 -2 1462 0 1462
12 0 8 -5 18 -10 21 -6 4 -8 10 -5 14 2 5 -7 19 -21 32 -15 13 -30 33 -35 44
-19 38 -38 70 -51 80 -15 12 -34 41 -47 70 -5 12 -16 27 -25 34 -9 7 -16 19
-16 25 0 7 -11 23 -25 36 -14 13 -25 28 -25 33 0 5 -16 28 -35 51 -19 24 -35
48 -35 53 0 6 -7 17 -16 24 -9 7 -20 22 -25 34 -16 34 -35 64 -52 83 -10 10
-17 23 -17 29 0 6 -11 19 -25 29 -14 10 -25 24 -25 30 0 6 -7 18 -16 25 -9 7
-20 22 -25 34 -15 32 -34 63 -51 82 -8 10 -18 26 -21 36 -4 9 -11 17 -17 17
-5 0 -10 6 -10 13 0 8 -9 22 -20 32 -11 10 -20 23 -20 28 0 6 -10 21 -21 33
-23 24 -41 53 -58 92 -6 12 -18 25 -26 28 -8 4 -15 12 -15 19 0 6 -9 20 -20
30 -11 10 -20 23 -20 28 0 6 -10 21 -21 33 -22 23 -40 52 -58 89 -5 12 -16 27
-25 34 -9 7 -16 19 -16 26 0 7 -7 15 -15 19 -8 3 -15 12 -15 19 0 8 -7 21 -16
28 -9 7 -20 22 -25 34 -19 39 -37 67 -63 94 -14 15 -26 32 -26 38 0 6 -7 13
-15 17 -8 3 -15 12 -15 19 0 8 -7 21 -16 28 -9 7 -20 22 -25 34 -16 34 -35 64
-52 83 -10 10 -17 22 -17 27 0 4 -11 18 -25 31 -14 13 -25 27 -25 32 0 5 -7
16 -16 23 -9 7 -20 22 -25 34 -16 34 -35 64 -52 83 -10 10 -17 24 -17 30 0 6
-10 19 -23 29 -12 10 -30 34 -39 54 -10 19 -26 43 -38 54 -11 10 -20 24 -20
30 0 7 -7 19 -16 26 -9 7 -20 22 -25 34 -15 33 -33 59 -51 73 -10 7 -18 18
-18 24 0 7 -10 22 -21 34 -22 23 -40 52 -58 89 -5 12 -16 27 -25 34 -9 7 -16
19 -16 26 0 7 -7 15 -15 19 -8 3 -15 12 -15 19 0 8 -9 22 -20 32 -11 10 -20
23 -20 30 0 7 -9 20 -20 30 -11 10 -20 23 -20 30 0 6 -11 22 -25 35 -14 13
-25 29 -25 36 0 6 -7 14 -15 18 -8 3 -15 12 -15 19 0 8 -7 21 -16 28 -9 7 -20
22 -25 34 -18 38 -37 66 -61 93 -14 15 -28 35 -31 45 -4 9 -11 17 -17 17 -5 0
-10 5 -10 12 0 6 -7 20 -17 30 -17 19 -36 49 -52 83 -5 12 -16 27 -25 34 -9 7
-16 18 -16 24 0 5 -17 30 -37 54 -43 51 -68 88 -82 120 -5 11 -15 24 -21 28
-6 4 -15 17 -21 28 -15 35 -32 60 -56 80 -13 10 -23 24 -23 32 0 7 -7 19 -16
26 -9 7 -20 22 -25 34 -16 34 -35 64 -52 83 -10 10 -17 23 -17 29 0 6 -7 13
-15 17 -8 3 -20 16 -26 28 -17 39 -35 68 -58 92 -11 12 -21 27 -21 33 0 5 -9
18 -20 28 -11 10 -20 24 -20 30 0 7 -7 15 -15 19 -8 3 -15 12 -15 19 0 8 -7
21 -16 28 -9 7 -20 22 -25 34 -16 34 -35 64 -52 83 -10 10 -17 22 -17 27 0 4
-11 18 -25 31 -14 13 -25 27 -25 32 0 5 -7 16 -16 23 -9 7 -20 22 -25 34 -16
34 -35 64 -52 83 -10 10 -17 22 -17 27 0 4 -17 28 -37 52 -43 51 -68 88 -82
120 -5 11 -15 24 -21 28 -6 4 -15 17 -21 28 -14 35 -33 61 -51 75 -10 7 -18
19 -18 26 0 7 -11 23 -25 36 -14 13 -25 29 -25 36 0 6 -7 18 -16 25 -9 7 -20
22 -25 34 -12 28 -31 57 -49 75 -18 18 -37 47 -49 75 -5 12 -16 27 -25 34 -9
7 -16 19 -16 25 0 7 -11 23 -25 36 -14 13 -25 27 -25 32 0 5 -4 14 -10 21 -46
56 -60 76 -60 84 0 6 -9 18 -20 28 -11 10 -18 21 -15 25 2 4 -9 20 -25 35 -17
16 -30 33 -30 38 0 5 -15 28 -32 50 -34 43 -51 68 -67 102 -5 12 -16 27 -25
34 -9 7 -16 19 -16 25 0 6 -20 34 -45 63 -25 28 -45 56 -45 61 0 5 -7 15 -15
22 -32 26 -10 82 60 150 25 24 45 48 45 54 0 9 66 84 165 188 25 25 45 50 45
55 0 5 25 33 55 63 30 30 55 59 55 65 0 6 23 33 50 60 28 27 50 54 50 60 0 6
29 40 65 75 36 35 65 69 65 74 0 5 20 30 44 55 110 115 166 178 166 187 0 5
23 32 50 59 28 27 50 54 50 60 0 6 25 35 55 65 30 30 55 58 55 63 0 5 22 32
49 60 133 140 181 194 181 203 0 5 25 34 55 64 30 30 55 59 55 65 0 6 23 33
50 60 28 27 50 53 50 58 0 5 22 32 49 60 27 29 60 65 73 82 13 16 38 43 56 58
17 16 32 34 32 41 0 6 25 36 55 66 30 30 55 59 55 65 0 6 27 37 60 70 33 33
60 64 60 69 0 9 56 72 166 187 24 25 44 50 44 55 0 5 25 34 55 64 30 30 55 59
55 65 0 6 23 33 50 60 28 27 50 54 50 60 0 6 25 35 55 65 30 30 55 58 55 62 0
5 25 33 55 63 30 29 55 58 55 62 0 5 23 31 50 58 28 27 50 54 50 60 0 6 25 35
55 65 30 30 55 59 55 65 0 6 22 33 50 60 27 27 50 53 50 58 0 4 29 37 65 72
36 36 65 68 65 73 0 4 22 30 50 57 27 27 50 54 50 60 0 6 25 35 55 65 30 30
55 59 55 65 0 6 23 33 50 60 28 27 50 54 50 59 0 5 25 34 55 63 30 30 55 57
55 61 0 4 25 32 55 62 30 30 55 59 55 65 0 6 14 24 30 40 17 16 30 32 30 37 0
5 -197 7 -437 6 l-437 -3 -12 -24 c-7 -13 -35 -47 -63 -75 -28 -28 -51 -55
-51 -58 0 -4 -22 -29 -50 -56 -28 -27 -50 -53 -50 -59 0 -5 -25 -33 -55 -63
-30 -30 -55 -59 -55 -65 0 -6 -25 -35 -55 -65 -30 -30 -55 -59 -55 -65 0 -6
-22 -33 -50 -60 -27 -27 -50 -53 -50 -57 0 -4 -26 -35 -57 -67 -84 -87 -153
-168 -153 -178 0 -5 -29 -38 -65 -73 -36 -35 -65 -69 -65 -75 0 -6 -22 -33
-50 -60 -27 -27 -50 -53 -50 -58 0 -5 -25 -33 -55 -62 -30 -30 -55 -58 -55
-62 0 -5 -22 -31 -50 -58 -27 -27 -50 -54 -50 -60 0 -6 -25 -35 -55 -65 -30
-30 -55 -59 -55 -65 0 -6 -25 -35 -54 -64 -30 -30 -54 -57 -53 -61 1 -4 -22
-31 -50 -59 -29 -29 -53 -55 -53 -59 0 -4 -25 -32 -55 -62 -30 -30 -55 -59
-55 -65 0 -6 -27 -37 -60 -70 -33 -33 -60 -64 -60 -70 0 -6 -25 -35 -55 -65
-30 -30 -55 -59 -55 -65 0 -6 -23 -33 -50 -60 -28 -27 -50 -52 -50 -56 0 -4
-25 -32 -55 -61 -30 -29 -55 -58 -55 -63 0 -6 -22 -33 -50 -60 -27 -27 -50
-54 -50 -60 0 -6 -25 -35 -55 -65 -30 -30 -55 -59 -55 -65 0 -6 -22 -33 -50
-60 -27 -27 -50 -53 -50 -57 0 -5 -29 -37 -65 -72 -36 -35 -65 -68 -65 -73 0
-5 -23 -31 -50 -58 -27 -27 -50 -54 -50 -60 0 -6 -25 -35 -55 -65 -30 -30 -55
-59 -55 -65 0 -6 -22 -33 -50 -60 -27 -27 -50 -53 -50 -58 0 -4 -25 -32 -55
-62 -30 -29 -55 -57 -55 -62 0 -5 -27 -35 -60 -68 -33 -33 -60 -64 -60 -70 0
-6 -20 -31 -45 -55 -25 -24 -45 -49 -45 -56 0 -6 -7 -17 -15 -24 -11 -9 -17
-9 -27 2 -17 18 -36 48 -47 73 -5 12 -16 27 -25 34 -9 7 -16 19 -16 25 0 7
-11 23 -25 36 -14 13 -25 29 -25 37 0 7 -3 13 -7 13 -5 0 -17 15 -28 32 -11
18 -28 44 -37 58 -10 14 -22 34 -27 45 -5 12 -16 27 -25 34 -9 7 -16 19 -16
26 0 8 -3 15 -8 17 -17 8 -90 108 -111 155 -5 11 -15 24 -21 28 -6 4 -15 17
-21 28 -15 35 -32 60 -57 83 -23 21 -42 48 -61 91 -5 11 -15 24 -21 28 -6 4
-15 17 -21 28 -12 30 -31 59 -49 77 -18 18 -36 47 -49 75 -5 11 -19 29 -31 40
-12 11 -26 29 -31 40 -13 28 -31 57 -49 75 -18 18 -37 47 -49 75 -5 12 -16 27
-25 34 -9 7 -16 19 -16 25 0 7 -11 23 -25 36 -14 13 -25 29 -25 37 0 7 -3 13
-7 13 -5 0 -17 15 -28 32 -11 18 -28 44 -37 58 -10 14 -22 34 -27 45 -5 12
-16 27 -25 34 -9 7 -16 20 -16 27 0 8 -3 14 -7 14 -5 0 -19 17 -33 37 -14 20
-29 42 -35 48 -14 16 -34 47 -44 70 -5 12 -16 27 -25 34 -9 7 -16 18 -16 23 0
10 -45 73 -70 98 -18 18 -37 47 -49 77 -6 11 -15 24 -21 28 -6 4 -15 17 -21
28 -12 30 -31 59 -49 77 -18 18 -36 47 -49 75 -5 11 -19 29 -31 40 -12 11 -26
29 -31 40 -13 28 -31 57 -49 75 -18 18 -37 47 -49 75 -5 12 -16 27 -25 34 -9
7 -16 19 -16 25 0 7 -11 23 -25 36 -14 13 -25 27 -25 32 0 5 -4 14 -10 21 -46
57 -60 76 -60 85 0 5 -7 16 -16 23 -9 7 -20 22 -25 34 -10 22 -31 57 -40 65
-3 3 -18 23 -34 45 -17 22 -32 42 -35 45 -8 8 -29 44 -39 65 -5 12 -16 27 -25
34 -9 7 -16 18 -16 23 0 10 -45 73 -70 98 -18 18 -37 47 -49 77 -6 11 -15 24
-21 28 -6 4 -15 17 -21 28 -13 32 -32 60 -51 78 -10 9 -18 21 -18 26 0 5 -11
20 -25 33 -14 13 -25 29 -25 36 0 6 -7 18 -16 25 -9 7 -20 22 -25 34 -13 29
-32 57 -50 75 -8 8 -19 22 -23 30 -17 37 -35 63 -62 91 l-28 29 -1458 0
c-1215 0 -1458 -2 -1458 -13z m2517 -659 c13 -12 23 -27 23 -33 0 -6 11 -22
25 -35 14 -13 25 -29 25 -35 0 -7 9 -20 20 -30 11 -10 20 -23 20 -28 0 -6 18
-32 40 -58 22 -26 40 -52 40 -57 0 -5 7 -16 16 -23 9 -7 20 -22 25 -34 14 -30
40 -68 82 -118 20 -24 37 -49 37 -54 0 -5 9 -18 20 -28 11 -10 20 -23 20 -30
0 -6 11 -22 25 -35 14 -13 25 -28 25 -33 0 -8 14 -28 60 -84 6 -7 10 -16 10
-21 0 -5 9 -17 20 -27 11 -10 20 -23 20 -30 0 -7 10 -20 21 -31 12 -10 25 -28
30 -39 14 -31 32 -58 52 -76 9 -9 17 -21 17 -26 0 -5 11 -20 25 -33 14 -13 25
-29 25 -36 0 -6 7 -18 16 -25 9 -7 20 -22 25 -34 14 -31 32 -57 59 -85 27 -28
45 -54 59 -85 5 -12 16 -27 25 -34 9 -7 16 -19 16 -25 0 -7 11 -23 25 -36 14
-13 25 -28 25 -32 0 -11 51 -81 63 -86 4 -2 7 -9 7 -16 0 -7 11 -23 25 -36 14
-13 25 -29 25 -35 0 -7 9 -20 20 -30 11 -10 20 -22 20 -27 0 -11 49 -79 68
-93 13 -10 33 -42 51 -80 5 -12 16 -27 25 -34 9 -7 16 -19 16 -25 0 -7 11 -23
25 -36 14 -13 25 -29 25 -36 0 -6 7 -14 15 -18 8 -3 15 -12 15 -19 0 -8 7 -21
16 -28 9 -7 20 -22 25 -34 19 -39 37 -67 63 -94 14 -15 26 -31 26 -36 0 -4 16
-27 35 -51 19 -23 35 -46 35 -51 0 -5 11 -20 25 -33 14 -13 25 -29 25 -35 0
-7 9 -20 20 -30 11 -10 20 -23 20 -28 0 -6 18 -32 40 -58 22 -26 40 -52 40
-57 0 -5 9 -17 20 -27 11 -10 20 -22 20 -26 0 -11 59 -97 73 -106 13 -9 32
-37 46 -68 5 -11 19 -29 31 -40 12 -11 26 -29 31 -40 5 -11 17 -31 27 -45 9
-14 26 -40 37 -58 11 -17 23 -32 28 -32 4 0 7 -6 7 -13 0 -8 11 -24 25 -37 14
-13 25 -29 25 -35 0 -7 9 -20 20 -30 11 -10 20 -22 20 -27 0 -10 45 -73 70
-98 18 -18 36 -47 49 -75 5 -12 16 -27 25 -34 9 -7 16 -19 16 -25 0 -7 11 -23
25 -36 14 -13 25 -28 25 -33 0 -5 8 -17 18 -26 19 -18 37 -45 51 -76 5 -11 18
-29 30 -39 11 -11 21 -24 21 -31 0 -7 9 -20 20 -30 11 -10 20 -22 20 -27 0
-10 2 -13 52 -73 37 -44 54 -70 67 -100 5 -12 16 -27 25 -34 9 -7 16 -18 16
-23 0 -11 49 -78 68 -93 13 -10 33 -42 51 -80 5 -12 16 -27 25 -34 9 -7 16
-19 16 -25 0 -7 11 -23 25 -36 14 -13 25 -28 25 -34 0 -6 9 -17 20 -24 12 -7
18 -16 16 -21 -3 -5 3 -16 14 -26 11 -10 20 -23 20 -30 0 -6 11 -22 25 -35 14
-13 25 -29 25 -35 0 -7 9 -20 20 -30 11 -10 20 -24 20 -32 0 -7 5 -13 10 -13
6 0 13 -8 17 -17 3 -10 17 -30 31 -45 24 -27 43 -55 61 -93 5 -12 16 -27 25
-34 9 -7 16 -19 16 -26 0 -7 11 -21 25 -31 14 -10 25 -23 25 -28 0 -5 7 -18
17 -28 17 -19 36 -49 52 -83 5 -12 16 -27 25 -34 9 -7 16 -18 16 -24 0 -6 10
-21 23 -32 23 -22 42 -47 56 -80 5 -12 16 -27 25 -34 9 -7 16 -19 16 -25 0 -7
11 -23 25 -36 14 -13 25 -28 25 -33 0 -5 16 -28 35 -51 19 -24 35 -47 35 -53
0 -5 12 -20 26 -34 14 -13 30 -33 35 -44 15 -32 77 -123 99 -145 18 -18 36
-47 49 -75 5 -12 16 -27 25 -34 9 -7 16 -19 16 -25 0 -7 11 -23 25 -36 14 -13
25 -28 25 -33 0 -5 8 -17 18 -26 19 -18 37 -45 51 -76 5 -11 19 -29 31 -40 12
-11 26 -29 31 -40 14 -31 32 -58 52 -76 9 -9 17 -20 17 -25 0 -4 10 -18 21
-30 22 -23 40 -52 58 -89 5 -12 16 -27 25 -34 9 -7 16 -18 16 -23 0 -10 2 -13
52 -73 36 -44 54 -70 67 -100 5 -11 19 -29 31 -40 12 -11 26 -29 31 -40 13
-30 32 -58 47 -70 13 -10 33 -42 50 -80 6 -11 19 -29 31 -39 11 -11 21 -24 21
-31 0 -7 9 -20 20 -30 11 -10 20 -24 20 -32 0 -7 5 -13 10 -13 6 0 13 -8 17
-17 3 -10 17 -30 31 -45 24 -27 43 -55 61 -93 5 -12 16 -27 25 -34 9 -7 16
-18 16 -23 0 -5 11 -19 25 -32 14 -13 25 -28 25 -33 0 -6 7 -17 16 -24 9 -7
20 -22 25 -34 18 -37 36 -66 58 -89 11 -12 21 -26 21 -30 0 -5 8 -16 18 -25
19 -18 37 -45 51 -76 5 -11 19 -29 31 -40 12 -11 26 -29 31 -40 14 -31 32 -58
52 -76 9 -9 17 -20 17 -25 0 -5 11 -21 25 -36 14 -15 25 -31 25 -36 0 -5 7
-16 16 -23 9 -7 20 -22 25 -34 14 -31 83 -130 109 -155 8 -8 29 -44 39 -65 5
-12 16 -27 25 -34 9 -7 16 -19 16 -25 0 -7 11 -23 25 -36 14 -13 25 -28 25
-33 0 -5 8 -17 18 -26 19 -18 37 -45 51 -76 5 -11 19 -29 31 -40 12 -11 26
-29 31 -40 14 -31 32 -58 52 -76 9 -9 17 -20 17 -25 0 -4 10 -18 21 -30 22
-23 40 -52 58 -89 5 -12 16 -27 25 -34 9 -7 16 -19 16 -26 0 -8 3 -15 8 -17
11 -5 82 -95 82 -105 0 -5 11 -20 25 -33 14 -13 25 -29 25 -35 0 -7 9 -20 20
-30 11 -10 20 -23 20 -28 0 -5 16 -29 35 -53 19 -23 35 -46 35 -51 0 -5 11
-20 25 -33 14 -13 25 -28 25 -34 0 -5 10 -20 22 -33 14 -15 18 -27 12 -33 -7
-7 -241 -9 -664 -8 l-654 3 -12 22 c-6 13 -18 31 -27 41 -10 10 -17 23 -17 28
0 5 -9 16 -20 24 -11 8 -20 19 -20 24 0 5 -10 20 -21 32 -22 23 -40 52 -58 89
-5 12 -16 27 -25 34 -9 7 -16 19 -16 25 0 7 -11 23 -25 36 -14 13 -25 29 -25
36 0 6 -7 14 -15 18 -8 3 -20 16 -26 28 -17 39 -35 68 -58 92 -11 12 -21 27
-21 33 0 5 -9 18 -20 28 -11 10 -20 23 -20 29 0 6 -9 17 -20 24 -11 7 -20 17
-20 24 0 6 -10 22 -21 34 -22 23 -40 52 -58 89 -5 12 -16 27 -25 34 -9 7 -16
18 -16 23 0 5 -11 19 -25 32 -14 13 -25 28 -25 33 0 6 -7 17 -16 24 -9 7 -20
22 -25 34 -17 38 -96 146 -111 153 -5 2 -8 9 -8 16 0 7 -9 21 -20 31 -11 10
-20 23 -20 28 0 6 -10 21 -21 33 -23 24 -41 53 -58 92 -6 12 -18 25 -26 28 -8
4 -15 12 -15 18 0 7 -11 23 -25 36 -14 13 -25 29 -25 36 0 6 -7 18 -16 25 -9
7 -20 22 -25 34 -13 30 -31 56 -62 90 -15 16 -30 38 -33 48 -3 9 -10 17 -15
17 -5 0 -9 6 -9 14 0 7 -7 20 -16 27 -9 7 -20 22 -25 34 -18 37 -36 66 -58 89
-11 12 -21 26 -21 30 0 5 -8 16 -17 25 -20 18 -38 45 -52 76 -5 11 -19 29 -31
40 -12 11 -26 29 -31 40 -14 31 -32 58 -51 76 -10 9 -18 21 -18 26 0 5 -11 20
-25 33 -14 13 -25 29 -25 36 0 6 -7 18 -16 25 -9 7 -20 22 -25 34 -13 28 -31
57 -49 75 -22 22 -84 113 -99 145 -5 11 -21 31 -35 44 -14 14 -26 29 -26 34 0
6 -16 29 -35 53 -19 23 -35 46 -35 51 0 5 -11 20 -25 33 -14 13 -25 29 -25 35
0 7 -9 20 -20 30 -11 10 -20 23 -20 28 0 6 -18 32 -40 58 -22 26 -40 51 -40
55 0 4 -7 16 -17 26 -17 19 -36 49 -52 83 -5 12 -16 27 -25 34 -9 7 -16 18
-16 23 0 6 -11 19 -25 30 -14 11 -25 25 -25 33 0 7 -7 19 -16 26 -9 7 -20 22
-25 34 -13 30 -30 56 -67 100 -50 60 -52 63 -52 73 0 5 -9 17 -20 27 -11 10
-20 23 -20 30 0 7 -10 20 -21 31 -12 10 -25 28 -30 39 -14 31 -32 58 -51 76
-10 9 -18 21 -18 26 0 5 -11 20 -25 33 -14 13 -25 29 -25 36 0 6 -7 18 -16 25
-9 7 -20 22 -25 34 -13 28 -31 57 -49 75 -25 25 -70 88 -70 98 0 5 -9 17 -20
27 -11 10 -20 23 -20 30 0 6 -11 22 -25 35 -14 13 -25 28 -25 32 0 11 -51 81
-62 86 -5 2 -8 9 -8 16 0 7 -11 23 -25 36 -14 13 -25 29 -25 36 0 6 -7 18 -16
25 -9 7 -20 22 -25 34 -13 30 -32 58 -51 76 -10 9 -18 21 -18 26 0 5 -11 20
-25 33 -14 13 -25 29 -25 36 0 6 -7 18 -16 25 -9 7 -20 22 -25 34 -11 25 -29
53 -52 79 -42 51 -67 85 -67 93 0 6 -9 18 -20 28 -11 10 -18 21 -15 25 2 4 -9
20 -25 35 -17 16 -30 33 -30 38 0 6 -16 29 -35 53 -19 23 -35 46 -35 51 0 5
-11 20 -25 33 -14 13 -25 29 -25 35 0 7 -9 20 -20 30 -11 10 -20 23 -20 28 0
6 -18 32 -40 58 -22 26 -40 52 -40 57 0 5 -7 16 -16 23 -9 7 -20 22 -25 34
-14 30 -40 68 -81 118 -21 24 -38 49 -38 54 0 5 -9 18 -20 28 -11 10 -20 23
-20 30 0 6 -11 22 -25 35 -14 13 -25 28 -25 33 0 8 -14 28 -60 84 -6 7 -10 16
-10 21 0 5 -9 17 -20 27 -11 10 -20 23 -20 30 0 6 -11 22 -25 35 -14 13 -25
28 -25 33 0 8 -25 43 -67 93 -23 26 -41 54 -52 81 -6 11 -15 24 -21 28 -6 4
-15 17 -21 28 -14 33 -31 59 -59 87 -27 28 -45 54 -59 85 -5 12 -16 27 -25 34
-9 7 -16 19 -16 25 0 7 -11 23 -25 36 -14 13 -25 29 -25 37 0 7 -4 13 -8 13
-5 0 -17 16 -28 35 -10 19 -22 35 -26 35 -5 0 -8 6 -8 13 0 8 -11 24 -25 37
-14 13 -25 29 -25 35 0 7 -9 20 -20 30 -11 10 -20 22 -20 27 0 10 -45 73 -70
98 -18 18 -36 47 -49 75 -5 12 -16 27 -25 34 -9 7 -16 19 -16 25 0 7 -11 23
-25 36 -14 13 -25 28 -25 33 0 5 -8 17 -17 26 -20 18 -38 45 -52 76 -5 11 -18
29 -30 39 -11 11 -21 24 -21 31 0 7 -9 20 -20 30 -11 10 -20 22 -20 27 0 10
-2 13 -52 73 -37 44 -54 70 -67 100 -5 12 -16 27 -25 34 -9 7 -16 18 -16 24 0
5 -17 30 -37 54 -42 50 -68 88 -82 118 -5 12 -16 27 -25 34 -9 7 -16 19 -16
26 0 8 -10 22 -22 32 -24 20 -42 45 -57 78 -5 12 -16 27 -25 34 -9 7 -16 19
-16 25 0 7 -11 23 -25 36 -14 13 -25 28 -25 33 0 5 -16 28 -35 51 -19 24 -35
47 -35 53 0 5 -12 20 -26 34 -14 13 -30 33 -35 44 -15 32 -77 123 -99 145 -18
18 -36 47 -49 75 -5 12 -16 27 -25 34 -9 7 -16 19 -16 25 0 7 -11 23 -25 36
-14 13 -25 28 -25 33 0 5 -8 17 -17 26 -20 18 -39 46 -52 76 -5 12 -16 27 -25
34 -9 7 -16 19 -16 25 0 7 -11 23 -25 36 -14 13 -25 28 -25 33 0 5 -8 17 -17
26 -20 18 -38 45 -52 76 -5 11 -18 29 -30 39 -11 11 -21 24 -21 31 0 7 -9 20
-20 30 -11 10 -20 23 -20 28 0 5 -16 29 -35 53 -19 23 -35 45 -35 48 0 3 296
6 657 6 l657 0 23 -22z"/>
</g>
</svg>
