<?xml version="1.0" standalone="no"?>
<!DOCTYPE svg PUBLIC "-//W3C//DTD SVG 20010904//EN"
 "http://www.w3.org/TR/2001/REC-SVG-20010904/DTD/svg10.dtd">
<svg version="1.0" xmlns="http://www.w3.org/2000/svg"
 width="1008.000000pt" height="1008.000000pt" viewBox="0 0 1008.000000 1008.000000"
 preserveAspectRatio="xMidYMid meet">

<g transform="translate(0.000000,1008.000000) scale(0.100000,-0.100000)"
fill="#000000" stroke="none">
<path d="M5804 10058 c-64 -35 -108 -79 -153 -154 -34 -56 -41 -76 -41 -120 0
-29 -4 -56 -10 -59 -7 -4 -10 -353 -10 -1016 l0 -1009 441 0 c489 0 503 -2
634 -65 88 -43 173 -127 223 -221 l37 -69 8 -1025 c9 -1195 9 -2166 2 -4573
l-5 -1748 862 3 863 3 55 30 c58 32 140 110 160 153 7 15 19 39 26 54 8 14 14
38 14 51 0 14 5 29 10 32 14 9 14 9441 0 9450 -5 3 -10 15 -10 27 0 18 -11 48
-44 118 -15 32 -113 130 -130 130 -7 0 -19 7 -26 15 -11 13 -183 15 -1439 15
l-1426 0 -41 -22z"/>
<path d="M5619 7540 c-8 -5 -37 -9 -65 -9 -27 1 -422 3 -878 6 -579 3 -836 1
-850 -6 -37 -19 -104 -40 -110 -34 -3 3 -12 0 -21 -7 -8 -7 -15 -10 -15 -7 0
12 -140 -138 -140 -150 0 -7 -5 -13 -11 -13 -5 0 -7 -4 -4 -10 3 -5 3 -10 -2
-10 -14 0 -16 -50 -14 -380 1 -208 5 -326 12 -330 6 -4 4 -12 -6 -20 -13 -11
-15 -96 -15 -741 0 -404 4 -730 9 -733 5 -3 220 -6 479 -6 392 -1 476 -3 499
-15 15 -8 33 -15 40 -15 11 0 164 -146 193 -185 9 -11 28 -59 43 -106 l27 -86
-5 -629 c-3 -346 -7 -1400 -10 -2341 l-5 -1713 1005 0 1005 0 5 1777 c7 2457
7 3296 -2 4483 l-8 1025 -22 32 c-13 17 -23 37 -23 45 0 23 -81 95 -142 127
-111 58 -141 61 -566 61 -214 0 -394 -5 -403 -10z"/>
<path d="M1655 5000 c-3 -5 -17 -10 -30 -10 -34 0 -125 -60 -168 -111 -20 -22
-48 -66 -64 -97 l-28 -55 0 -2222 0 -2222 28 -55 c16 -31 37 -64 48 -74 10 -9
19 -22 19 -29 0 -18 29 -40 105 -82 l70 -38 1493 -3 1492 -2 0 1736 c0 956 2
1739 4 1742 3 2 2 10 0 17 -3 7 -1 16 5 20 15 9 15 1101 1 1110 -6 4 -9 12 -8
18 1 7 -3 22 -10 34 -7 12 -11 26 -10 30 1 4 -3 18 -10 31 -7 12 -10 26 -8 31
3 5 -1 11 -9 15 -8 3 -15 11 -15 19 0 20 -70 82 -115 101 -22 9 -48 21 -57 26
-9 5 -224 9 -490 10 l-473 0 -35 35 -36 35 -846 0 c-554 0 -849 -3 -853 -10z"/>
</g>
</svg>
