<?xml version="1.0" standalone="no"?>
<!DOCTYPE svg PUBLIC "-//W3C//DTD SVG 20010904//EN"
 "http://www.w3.org/TR/2001/REC-SVG-20010904/DTD/svg10.dtd">
<svg version="1.0" xmlns="http://www.w3.org/2000/svg"
 width="360.000000pt" height="360.000000pt" viewBox="0 0 360.000000 360.000000"
 preserveAspectRatio="xMidYMid meet">

<g transform="translate(0.000000,360.000000) scale(0.100000,-0.100000)"
fill="#000000" stroke="none">
<path d="M1050 3353 c-115 -30 -260 -77 -260 -85 0 -4 -7 -8 -15 -8 -8 0 -15
-3 -15 -7 0 -5 -28 -21 -62 -38 -50 -24 -65 -37 -77 -67 -13 -30 -21 -38 -43
-38 -29 0 -72 -45 -64 -67 3 -7 -7 -19 -23 -27 -15 -8 -39 -30 -54 -49 -17
-23 -37 -36 -59 -40 -101 -17 -144 -64 -113 -124 10 -17 14 -36 11 -42 -4 -5
-2 -41 4 -78 6 -37 14 -88 16 -113 3 -25 12 -65 19 -90 18 -57 21 -120 12
-240 -16 -212 -21 -397 -23 -858 -1 -347 -5 -486 -13 -496 -7 -8 -15 -30 -18
-49 -4 -29 0 -40 23 -64 40 -41 91 -48 174 -23 106 31 288 63 385 66 176 5
501 25 580 34 44 5 106 11 137 13 51 3 57 1 62 -18 3 -12 18 -34 32 -48 39
-39 92 -37 133 4 17 17 31 37 31 45 0 10 16 14 63 14 34 1 291 3 571 6 l509 4
209 -41 c202 -41 210 -42 244 -26 39 19 74 70 74 108 0 14 -11 41 -25 60 -34
47 -47 80 -41 104 7 25 31 973 31 1230 0 158 -2 399 -4 517 0 18 7 32 20 39
27 14 59 68 59 99 0 35 -34 86 -69 104 -42 22 -181 36 -362 36 -86 0 -158 3
-162 6 -3 3 3 20 14 37 23 39 24 68 4 107 -22 43 -63 60 -145 60 -56 0 -81 -5
-120 -25 -27 -14 -57 -25 -67 -25 -10 0 -33 -9 -51 -20 -18 -11 -38 -20 -45
-20 -6 0 -24 -6 -38 -14 -14 -7 -38 -16 -54 -20 -42 -11 -169 -124 -194 -174
-40 -81 -128 -123 -255 -121 -39 0 -53 5 -68 24 -10 13 -46 34 -80 47 -45 17
-81 41 -133 89 -69 64 -202 159 -224 159 -6 0 -11 5 -11 10 0 6 -7 10 -15 10
-8 0 -15 5 -15 10 0 6 -5 10 -11 10 -6 0 -53 21 -106 46 -92 45 -181 75 -213
73 -8 -1 -40 -8 -70 -16z m226 -233 c107 -53 131 -70 200 -140 43 -44 84 -90
90 -103 7 -12 36 -40 65 -62 l52 -41 -2 -239 c-1 -131 -5 -244 -9 -249 -4 -6
-9 -255 -12 -553 -3 -298 -8 -545 -11 -548 -8 -7 -109 36 -151 64 -19 13 -45
38 -56 56 -12 17 -35 45 -51 61 -27 27 -69 107 -85 161 -10 32 -87 102 -137
125 -39 18 -58 19 -154 14 -67 -3 -132 -13 -167 -24 -40 -13 -58 -16 -58 -8 0
7 5 17 10 22 11 11 15 675 4 736 -3 18 -12 51 -19 73 -8 22 -19 74 -26 115 -6
41 -24 125 -40 186 -19 73 -26 123 -22 147 4 26 0 45 -14 69 -11 18 -22 42
-25 53 -4 18 0 20 37 21 23 0 53 8 66 17 13 10 30 17 37 17 8 0 27 9 43 20 30
22 119 56 184 70 71 16 124 3 251 -60z m1542 -59 c-28 -25 -33 -35 -35 -87 -1
-33 -7 -102 -12 -154 -5 -52 -10 -162 -11 -245 -1 -82 -5 -175 -10 -205 -5
-30 -15 -100 -24 -155 -10 -62 -16 -169 -17 -281 l0 -182 -47 -7 c-52 -7 -159
-42 -181 -59 -16 -12 -50 -32 -71 -42 -42 -20 -115 -120 -170 -236 -41 -85
-168 -207 -233 -223 -15 -4 -27 -11 -27 -15 0 -4 -24 -13 -52 -20 -29 -6 -60
-14 -69 -16 -13 -4 -15 77 -17 778 -1 431 2 789 6 795 6 10 29 10 102 2 114
-13 216 -7 262 17 80 42 218 152 218 175 0 5 18 28 39 50 42 45 74 60 187 89
39 10 84 25 100 33 16 9 44 16 62 17 l32 0 -32 -29z m436 -211 c6 -6 5 -24 -1
-47 -6 -21 -12 -72 -12 -113 -1 -41 -6 -210 -11 -375 -16 -472 -31 -1226 -24
-1236 8 -13 -22 -11 -96 8 -52 13 -144 17 -454 22 l-390 6 38 35 c73 67 88 85
121 150 49 97 109 184 136 197 44 21 92 33 134 33 41 0 43 -2 49 -35 8 -43 39
-65 89 -65 27 0 45 7 64 26 24 24 25 30 20 97 -4 40 -11 95 -16 122 -14 70
-13 397 1 475 7 39 12 194 12 390 l1 325 165 -3 c91 -2 169 -8 174 -12z
m-2694 -109 c0 -16 5 -42 11 -58 6 -15 19 -75 29 -133 10 -58 24 -118 32 -135
10 -23 13 -111 14 -376 1 -209 5 -353 12 -365 5 -10 10 -51 10 -91 0 -102 9
-131 42 -148 40 -21 106 -19 138 4 29 20 53 26 149 43 91 15 111 2 139 -88 19
-64 49 -120 80 -149 5 -5 23 -28 39 -50 15 -22 45 -56 65 -76 l37 -36 -236
-12 c-130 -7 -254 -16 -276 -21 -126 -28 -316 -63 -320 -58 -4 4 -5 653 0 948
2 202 -24 482 -53 575 -6 17 -20 64 -33 105 -12 41 -26 79 -31 85 -4 5 -8 17
-8 27 0 15 9 18 48 19 26 0 56 4 67 9 35 15 45 11 45 -19z"/>
</g>
</svg>
