<?xml version="1.0" standalone="no"?>
<!DOCTYPE svg PUBLIC "-//W3C//DTD SVG 20010904//EN"
 "http://www.w3.org/TR/2001/REC-SVG-20010904/DTD/svg10.dtd">
<svg version="1.0" xmlns="http://www.w3.org/2000/svg"
 width="360.000000pt" height="360.000000pt" viewBox="0 0 360.000000 360.000000"
 preserveAspectRatio="xMidYMid meet">

<g transform="translate(0.000000,360.000000) scale(0.100000,-0.100000)"
fill="#000000" stroke="none">
<path d="M1035 2544 c-52 -11 -139 -49 -340 -149 -393 -196 -478 -261 -461
-349 4 -17 6 -42 6 -56 -1 -42 21 -83 79 -146 66 -72 199 -227 254 -296 69
-88 238 -256 282 -283 89 -52 165 -20 165 69 0 25 -5 48 -10 51 -6 4 -20 25
-32 48 -11 23 -60 83 -107 132 -47 50 -104 113 -126 140 -22 28 -71 86 -110
129 -43 49 -62 77 -50 73 11 -3 65 -11 120 -17 55 -6 120 -14 145 -17 25 -4
63 -8 85 -9 22 -1 76 -5 120 -8 44 -4 249 -11 455 -16 206 -5 526 -15 710 -21
339 -11 557 -8 619 10 43 13 60 37 61 83 0 78 -33 86 -390 98 -157 5 -418 14
-580 20 -162 6 -450 13 -639 15 -312 5 -430 11 -618 31 -35 4 -63 10 -63 14 0
5 377 193 530 264 68 32 120 92 120 138 0 21 -8 33 -32 48 -39 24 -93 25 -193
4z"/>
</g>
</svg>
