<?xml version="1.0" encoding="UTF-8"?>
<svg version="1.1" xmlns="http://www.w3.org/2000/svg" width="1008" height="1008">
<path d="M0 0 C0 217.8 0 435.6 0 660 C-2.75252457 661.37626228 -4.53012899 660.85867557 -7.5856781 660.50178528 C-8.77472748 660.36589996 -9.96377686 660.23001465 -11.18885803 660.0900116 C-12.51450902 659.93227009 -13.84014638 659.774414 -15.16577148 659.61645508 C-16.55747531 659.45508452 -17.94924133 659.29424956 -19.34106445 659.13391113 C-23.13927693 658.69481273 -26.93657305 658.24819706 -30.73375964 657.80032563 C-34.73809766 657.32934186 -38.74324193 656.8653178 -42.74830627 656.40055847 C-50.3782119 655.51410243 -58.00738636 654.62150796 -65.63631445 653.72668236 C-75.01281039 652.62715666 -84.3901795 651.53515494 -93.76757812 650.44335938 C-111.93551076 648.32774462 -111.93551076 648.32774462 -120.41515142 647.33510679 C-121.91720585 647.15927913 -123.41927143 646.98354659 -124.92134827 646.8079105 C-128.57451095 646.38074007 -132.2275436 645.95252024 -135.88031673 645.52203083 C-142.72277344 644.71776425 -149.56645827 643.93223446 -156.4163186 643.19332653 C-159.68830945 642.84019523 -162.95965097 642.48122453 -166.23100865 642.12228143 C-167.79539079 641.95259184 -169.36012201 641.78608756 -170.92519653 641.62290728 C-173.08325139 641.39784645 -175.23993039 641.16232675 -177.3966217 640.92460632 C-179.24141412 640.72851792 -179.24141412 640.72851792 -181.12347507 640.52846813 C-184 640 -184 640 -186 638 C-187.77746253 632.28400812 -188.27577436 627.17138271 -188.20776367 621.21655273 C-188.20656525 620.37806793 -188.20536682 619.53958313 -188.20413208 618.6756897 C-188.20100035 616.86913875 -188.19373126 615.06259107 -188.1826992 613.25607109 C-188.16775554 610.39274139 -188.16947208 607.52987529 -188.17634583 604.66651917 C-188.19511179 596.53053971 -188.20153953 588.39492726 -188.15454102 580.2590332 C-188.12691928 575.26983295 -188.13329066 570.28165035 -188.16155434 565.29246712 C-188.16580603 563.39750797 -188.15737752 561.50247493 -188.1358242 559.60763359 C-187.63863467 549.60500499 -187.63863467 549.60500499 -190.5897522 540.3742981 C-192.4192386 538.49685751 -192.4192386 538.49685751 -194.43086243 537.20814514 C-196 536 -196 536 -196.6875 532.3125 C-196.790625 531.219375 -196.89375 530.12625 -197 529 C-199.52898574 525.25710111 -202.38975016 524.29089295 -206.7421875 523.359375 C-209.07811414 522.98756661 -211.39315246 522.75953549 -213.75 522.5625 C-218.68012412 522.13905376 -223.27615106 521.01440413 -228.0546875 519.76171875 C-233.95520405 518.23572309 -239.79753323 517.05605224 -245.875 516.5625 C-250.77294292 516.14026354 -255.32064845 514.94554225 -260.0625 513.6875 C-262.74612442 513.05941769 -265.25731517 512.71097576 -268 512.5 C-272.84994822 512.11915471 -277.35702661 510.99320274 -282.0546875 509.76171875 C-287.95520405 508.23572309 -293.79753323 507.05605224 -299.875 506.5625 C-304.7699829 506.14051872 -309.31507962 504.94600834 -314.0546875 503.69140625 C-317.57105086 502.86594695 -320.9992476 502.52300018 -324.59375 502.25 C-327.0150186 501.99843963 -329.25974381 501.50516149 -331.625 500.9375 C-338.65454077 499.41668589 -345.84991107 499.84032059 -353 500 C-353 499.34 -353 498.68 -353 498 C-351.68 498 -350.36 498 -349 498 C-348.96241577 496.59923218 -348.96241577 496.59923218 -348.92407227 495.17016602 C-348.82913072 491.71674811 -348.72988742 488.2635104 -348.62768555 484.81030273 C-348.58428187 483.31360731 -348.54261087 481.81686061 -348.50268555 480.32006836 C-348.44511384 478.17285688 -348.38138284 476.02590479 -348.31640625 473.87890625 C-348.26141968 471.93866577 -348.26141968 471.93866577 -348.20532227 469.95922852 C-348 467 -348 467 -347 466 C-344.35015201 465.78871644 -341.71660103 465.62387334 -339.0625 465.5 C-333.87297382 465.45708764 -333.87297382 465.45708764 -329 464 C-325.58832652 463.7353012 -322.18314504 463.55584776 -318.765625 463.39453125 C-314.75248397 463.26312046 -314.75248397 463.26312046 -311 462 C-307.39875155 461.68224278 -303.79668305 461.48833427 -300.1875 461.28125 C-297.10577487 461.20574918 -297.10577487 461.20574918 -295 460 C-291.58832652 459.7353012 -288.18314504 459.55584776 -284.765625 459.39453125 C-280.75248397 459.26312046 -280.75248397 459.26312046 -277 458 C-273.58832652 457.7353012 -270.18314504 457.55584776 -266.765625 457.39453125 C-262.75248397 457.26312046 -262.75248397 457.26312046 -259 456 C-255.58832652 455.7353012 -252.18314504 455.55584776 -248.765625 455.39453125 C-244.75248397 455.26312046 -244.75248397 455.26312046 -241 454 C-237.39875155 453.68224278 -233.79668305 453.48833427 -230.1875 453.28125 C-227.10577487 453.20574918 -227.10577487 453.20574918 -225 452 C-221.58832652 451.7353012 -218.18314504 451.55584776 -214.765625 451.39453125 C-210.75248397 451.26312046 -210.75248397 451.26312046 -207 450 C-203.46165718 449.80046939 -199.92510711 449.68144896 -196.3828125 449.57421875 C-192.31816171 448.88426071 -191.38489015 448.32545004 -189 445 C-188.40441618 441.94091673 -188.46056753 438.92252022 -188.49206543 435.81420898 C-188.48582547 434.87439651 -188.4795855 433.93458403 -188.47315645 432.96629238 C-188.45716998 429.80930618 -188.46985302 426.65308602 -188.48242188 423.49609375 C-188.47700328 421.23600818 -188.46988211 418.97592615 -188.46118164 416.71585083 C-188.44291424 410.57129924 -188.45003005 404.42701566 -188.46269798 398.28245926 C-188.4728079 391.85944127 -188.4634379 385.4364466 -188.45715332 379.01342773 C-188.44940428 367.53457165 -188.46185392 356.05586434 -188.48219067 344.5770334 C-188.50006194 334.16750599 -188.49695791 323.758157 -188.47851562 313.34863281 C-188.45711352 301.262803 -188.44913933 289.17710799 -188.46096468 277.09125233 C-188.46720867 270.69269844 -188.46801029 264.29426748 -188.45481873 257.89572144 C-188.44328498 251.88088591 -188.45124096 245.86638814 -188.47439575 239.8515892 C-188.47969605 237.64084306 -188.47814663 235.43006862 -188.46934509 233.21933365 C-188.45845842 230.2077658 -188.47207034 227.19728884 -188.49206543 224.18579102 C-188.48314254 223.30525275 -188.47421966 222.42471449 -188.46502638 221.51749325 C-188.509496 216.65969299 -188.509496 216.65969299 -190.86084747 212.5018158 C-195.93767379 208.93757348 -201.26412294 208.66224447 -207.25 208.4375 C-214.75733855 208.12133072 -214.75733855 208.12133072 -217 207 C-219.67021407 206.79282822 -222.32595835 206.62622225 -225 206.5 C-232.72972973 206.13513514 -232.72972973 206.13513514 -235 205 C-236.35032798 204.86154142 -237.70625639 204.77496115 -239.0625 204.71875 C-239.85914063 204.68136719 -240.65578125 204.64398438 -241.4765625 204.60546875 C-242.30929687 204.57066406 -243.14203125 204.53585937 -244 204.5 C-245.64601072 204.43120389 -247.29186307 204.35847244 -248.9375 204.28125 C-249.66839844 204.25095703 -250.39929688 204.22066406 -251.15234375 204.18945312 C-253 204 -253 204 -255 203 C-257.67021407 202.79282822 -260.32595835 202.62622225 -263 202.5 C-270.72972973 202.13513514 -270.72972973 202.13513514 -273 201 C-275.67021407 200.79282822 -278.32595835 200.62622225 -281 200.5 C-288.72972973 200.13513514 -288.72972973 200.13513514 -291 199 C-293.67021407 198.79282822 -296.32595835 198.62622225 -299 198.5 C-306.72972973 198.13513514 -306.72972973 198.13513514 -309 197 C-311.67021407 196.79282822 -314.32595835 196.62622225 -317 196.5 C-324.72972973 196.13513514 -324.72972973 196.13513514 -327 195 C-328.50817808 194.86042383 -330.02156316 194.77459447 -331.53515625 194.71875 C-332.42654297 194.68136719 -333.31792969 194.64398438 -334.23632812 194.60546875 C-336.12434353 194.53501068 -338.0123644 194.46469878 -339.90039062 194.39453125 C-340.79048828 194.35714844 -341.68058594 194.31976563 -342.59765625 194.28125 C-343.41758057 194.25095703 -344.23750488 194.22066406 -345.08227539 194.18945312 C-347 194 -347 194 -348 193 C-348.1007812 190.63601532 -348.13973215 188.30188689 -348.1328125 185.9375 C-348.13376923 185.23101318 -348.13472595 184.52452637 -348.13571167 183.79663086 C-348.13639333 182.30029207 -348.13454005 180.80395033 -348.13037109 179.30761719 C-348.12502257 177.00969843 -348.13031651 174.71197514 -348.13671875 172.4140625 C-348.13605797 170.96354123 -348.1347768 169.51302009 -348.1328125 168.0625 C-348.13483673 167.3708374 -348.13686096 166.6791748 -348.13894653 165.96655273 C-348.11495224 161.11495224 -348.11495224 161.11495224 -347 160 C-345.35892758 159.79160985 -343.71143707 159.63248275 -342.0625 159.5 C-338.39442535 159.24785057 -338.39442535 159.24785057 -335 158 C-332.44122107 157.68879716 -329.88148388 157.49035334 -327.3125 157.28125 C-324.97731545 157.12863953 -324.97731545 157.12863953 -323 156 C-320.44122107 155.68879716 -317.88148388 155.49035334 -315.3125 155.28125 C-312.97731545 155.12863953 -312.97731545 155.12863953 -311 154 C-308.44122107 153.68879716 -305.88148388 153.49035334 -303.3125 153.28125 C-300.97731545 153.12863953 -300.97731545 153.12863953 -299 152 C-296.44122107 151.68879716 -293.88148388 151.49035334 -291.3125 151.28125 C-288.97731545 151.12863953 -288.97731545 151.12863953 -287 150 C-284.44122107 149.68879716 -281.88148388 149.49035334 -279.3125 149.28125 C-276.97731545 149.12863953 -276.97731545 149.12863953 -275 148 C-271.91994088 147.68499395 -268.83900088 147.48916352 -265.75 147.28125 C-263.04134007 147.16812508 -263.04134007 147.16812508 -261 146 C-258.44122107 145.68879716 -255.88148388 145.49035334 -253.3125 145.28125 C-250.97731545 145.12863953 -250.97731545 145.12863953 -249 144 C-246.44122107 143.68879716 -243.88148388 143.49035334 -241.3125 143.28125 C-238.97731545 143.12863953 -238.97731545 143.12863953 -237 142 C-234.44122107 141.68879716 -231.88148388 141.49035334 -229.3125 141.28125 C-226.97731545 141.12863953 -226.97731545 141.12863953 -225 140 C-222.44122107 139.68879716 -219.88148388 139.49035334 -217.3125 139.28125 C-214.97731545 139.12863953 -214.97731545 139.12863953 -213 138 C-211.58454858 137.8980875 -210.16750929 137.81750044 -208.75 137.75 C-203.82226085 137.21127611 -201.33475171 135.81114481 -198 132 C-197.15089949 129.80446868 -196.5252549 127.68014575 -196.03125 125.37890625 C-195 123 -195 123 -191.98187256 120.39083862 C-188.83977365 117.29681082 -188.29323677 115.0933724 -188.2122345 110.75775146 C-188.2275975 109.96902649 -188.24296051 109.18030151 -188.25878906 108.36767578 C-188.25137192 107.52133575 -188.24395477 106.67499573 -188.23631287 105.80300903 C-188.21846601 103.01643707 -188.24223488 100.23181668 -188.265625 97.4453125 C-188.2594478 95.50005995 -188.25034963 93.55481467 -188.23846436 91.60958862 C-188.21374306 86.49313172 -188.22295939 81.37732816 -188.24102783 76.26086426 C-188.2644354 68.07968035 -188.23715633 59.89853961 -188.20830536 51.71740341 C-188.20321021 48.86796302 -188.21301216 46.01887694 -188.22515869 43.16946411 C-188.22496998 41.41001377 -188.22447723 39.65056343 -188.22363281 37.89111328 C-188.2308989 37.10643677 -188.23816498 36.32176025 -188.24565125 35.51330566 C-188.22838273 30.36728927 -187.41740645 25.95118366 -186 21 C-176.90775014 19.16847892 -167.75658901 18.06833924 -158.5480957 17.02880859 C-156.91411944 16.84162573 -155.28017874 16.65413224 -153.64627075 16.46635437 C-149.23989173 15.96095261 -144.83299693 15.46019473 -140.42596078 14.96055937 C-136.73775955 14.54198006 -133.04982407 14.1210851 -129.36188573 13.70019686 C-120.6614738 12.70728832 -111.96064036 11.71813811 -103.25952148 10.73144531 C-94.29695594 9.71504621 -85.33508536 8.69268113 -76.37354022 7.66732728 C-68.66067789 6.78503437 -60.94742239 5.90624134 -53.23383778 5.03028548 C-48.6347816 4.50799337 -44.0358786 3.9844383 -39.43734169 3.45759201 C-35.11623774 2.96270166 -30.79465681 2.47220585 -26.47267532 1.98504066 C-24.89070454 1.80599792 -23.30890461 1.62543784 -21.72729683 1.44321632 C-19.56130758 1.19391828 -17.39475604 0.95021991 -15.22798157 0.70785522 C-14.01812749 0.57034033 -12.80827341 0.43282543 -11.56175709 0.29114342 C-7.71943156 -0.02293409 -3.85514074 0 0 0 Z " fill="#000000" transform="translate(848,176)"/>
<path d="M0 0 C17.35799069 4.62879752 34.70382163 9.25714005 52.00390625 14.08984375 C53.97158244 14.63809788 55.93930124 15.18619907 57.90705872 15.73416138 C63.06853713 17.17193326 68.22945489 18.61170617 73.39019012 20.0521431 C79.83706563 21.85139536 86.28437367 23.6490972 92.73160553 25.44707203 C93.80008476 25.74504531 94.868564 26.04301859 95.96942139 26.35002136 C97.03513115 26.64721762 98.10084091 26.94441387 99.19884491 27.25061607 C102.40469133 28.1447344 105.61045962 29.03913248 108.81622314 29.93354797 C120.71747132 33.25330283 132.6220355 36.56067069 144.53180504 39.84972191 C148.84317973 41.04080741 153.15383481 42.23449518 157.46450901 43.42811298 C160.72377591 44.33026235 163.98357694 45.23038003 167.24465942 46.12594604 C170.75558052 47.09095119 174.26468889 48.06228727 177.7734375 49.03515625 C178.78420853 49.31094513 179.79497955 49.58673401 180.83638 49.87088013 C181.74808456 50.1249765 182.65978912 50.37907288 183.59912109 50.64086914 C184.38354584 50.85699356 185.16797058 51.07311798 185.97616577 51.29579163 C188 52 188 52 191 54 C193.7506605 61.2997739 193.265156 69.60178325 193.23828125 77.26953125 C193.25368451 79.8118544 193.2699869 82.35417223 193.28710938 84.89648438 C193.30362469 88.8707602 193.31389906 92.84480054 193.30541992 96.8190918 C193.30280821 100.67801762 193.33083902 104.53576297 193.36328125 108.39453125 C193.34797112 110.17897392 193.34797112 110.17897392 193.33235168 111.99946594 C193.34120021 118.56356187 193.34120021 118.56356187 196.34448242 124.2331543 C198.9383895 126.15627182 198.9383895 126.15627182 202.125 126.875 C205 128 205 128 206.625 131.4375 C207.07875 132.613125 207.5325 133.78875 208 135 C211.61608678 138.99975647 216.75918518 138.90949225 221.8125 139.5 C223.72569485 139.74665336 225.63845911 139.99666928 227.55078125 140.25 C228.48615723 140.37375 229.4215332 140.4975 230.38525391 140.625 C233.7960522 141.11416771 237.12968215 141.78179686 240.5 142.5 C247.36992273 143.94629952 254.26575527 144.92312121 261.22021484 145.87060547 C267.79424576 146.78269982 274.23126288 148.01612256 280.7265625 149.3828125 C283.67192824 149.93814399 286.51404594 150.28108841 289.5 150.5 C293.72212132 150.80953969 297.73169791 151.50319891 301.875 152.375 C308.14249287 153.68873828 314.40715771 154.68569203 320.75 155.5625 C341.4281984 158.4281984 341.4281984 158.4281984 343 160 C343.10095564 162.65456193 343.13970998 165.28255176 343.1328125 167.9375 C343.13424759 169.13040649 343.13424759 169.13040649 343.13571167 170.34741211 C343.13639343 172.0320646 343.13453943 173.71671971 343.13037109 175.40136719 C343.12502275 177.98899197 343.13031619 180.57644316 343.13671875 183.1640625 C343.13605797 184.79687539 343.1347768 186.42968816 343.1328125 188.0625 C343.13483673 188.84165771 343.13686096 189.62081543 343.13894653 190.42358398 C343.11495105 195.88504895 343.11495105 195.88504895 342 197 C340.25615899 197.14560153 338.50688794 197.22724669 336.7578125 197.28125 C335.69175781 197.31863281 334.62570312 197.35601562 333.52734375 197.39453125 C332.40457031 197.42933594 331.28179687 197.46414063 330.125 197.5 C327.91914026 197.56885343 325.71339746 197.64159443 323.5078125 197.71875 C322.52441895 197.74904297 321.54102539 197.77933594 320.52783203 197.81054688 C317.87523402 197.90578791 317.87523402 197.90578791 315 199 C311.8162202 199.25814431 308.63862297 199.44144225 305.44921875 199.60546875 C302.41878033 199.77880744 299.89654151 200.03448616 297 201 C293.38653692 201.26016934 289.77875197 201.44236009 286.16015625 201.60546875 C282.90275738 201.7691855 280.11052906 201.96315698 277 203 C273.8162202 203.25814431 270.63862297 203.44144225 267.44921875 203.60546875 C264.41878033 203.77880744 261.89654151 204.03448616 259 205 C255.8162202 205.25814431 252.63862297 205.44144225 249.44921875 205.60546875 C246.41878033 205.77880744 243.89654151 206.03448616 241 207 C237.8162202 207.25814431 234.63862297 207.44144225 231.44921875 207.60546875 C228.41878033 207.77880744 225.89654151 208.03448616 223 209 C221.04976765 209.11132405 219.09906033 209.21849903 217.14697266 209.2902832 C205.43561417 209.41561551 205.43561417 209.41561551 195.29808807 214.53652287 C193.30821076 218.31285929 193.57988451 221.89552875 193.60559082 226.10313416 C193.59949972 227.03407396 193.59340861 227.96501377 193.58713293 228.92416388 C193.57045209 232.05104686 193.57528603 235.17752489 193.58007812 238.30444336 C193.57274078 240.54320195 193.56415554 242.78195676 193.55441284 245.02070618 C193.53215362 251.10742114 193.52926835 257.19400091 193.53116035 263.28075099 C193.53127985 268.35801831 193.52272451 273.43525677 193.51438284 278.51251608 C193.49403179 291.17324505 193.49300453 303.83388985 193.50018996 316.49462295 C193.50576614 327.49064812 193.48493715 338.48644035 193.45182949 349.48241108 C193.41809994 360.77253124 193.40339795 372.06254296 193.40754652 383.35272509 C193.40961752 389.69155479 193.4040804 396.03015251 193.37965393 402.36894035 C193.35744708 408.32882359 193.35921443 414.28822086 193.37958145 420.248106 C193.38300216 422.43747838 193.37785709 424.62688309 193.36359787 426.8162117 C193.34549465 429.80134047 193.35808843 432.78480496 193.37854004 435.7698822 C193.36602219 436.63972573 193.35350434 437.50956925 193.34060717 438.40577167 C193.40443173 442.74010898 193.60614115 444.48555471 196.32350922 448.03489017 C199.72945638 450.53557513 201.93242313 450.66098563 206.125 450.75 C212.84686775 450.94895592 212.84686775 450.94895592 216 452 C218.50326538 452.20296746 220.99306611 452.37107197 223.5 452.5 C230.59459459 452.86486486 230.59459459 452.86486486 234 454 C236.50326538 454.20296746 238.99306611 454.37107197 241.5 454.5 C248.59459459 454.86486486 248.59459459 454.86486486 252 456 C254.1637737 456.20076251 256.33124078 456.3632314 258.5 456.5 C261.93803558 456.71681305 264.72826805 456.90942268 268 458 C270.50326538 458.20296746 272.99306611 458.37107197 275.5 458.5 C282.59459459 458.86486486 282.59459459 458.86486486 286 460 C288.50326538 460.20296746 290.99306611 460.37107197 293.5 460.5 C300.59459459 460.86486486 300.59459459 460.86486486 304 462 C306.50326538 462.20296746 308.99306611 462.37107197 311.5 462.5 C318.59459459 462.86486486 318.59459459 462.86486486 322 464 C323.62567079 464.14715199 325.25586857 464.24721867 326.88671875 464.31640625 C327.82451172 464.35830078 328.76230469 464.40019531 329.72851562 464.44335938 C331.19321289 464.50233398 331.19321289 464.50233398 332.6875 464.5625 C333.67556641 464.60568359 334.66363281 464.64886719 335.68164062 464.69335938 C338.12095546 464.79941654 340.56037113 464.90147714 343 465 C343.14584726 468.87460078 343.23425444 472.74849117 343.3125 476.625 C343.35439453 477.71941406 343.39628906 478.81382812 343.43945312 479.94140625 C343.57752045 489.05384998 343.57752045 489.05384998 340.5625 492.53125 C339.716875 493.3459375 338.87125 494.160625 338 495 C337.03678495 497.01590512 337.03678495 497.01590512 336.6875 498.875 C336.3471875 500.421875 336.3471875 500.421875 336 502 C328.57912422 503.87853408 321.18815571 505.35130103 313.625 506.5 C305.36087266 507.75747823 297.18446201 509.29695462 289 511 C278.30030675 513.21680623 267.61561834 515.28165464 256.81152344 516.92358398 C250.6206999 517.87347469 244.50317932 519.03976933 238.37109375 520.3203125 C235.27540197 520.94447284 232.18186572 521.44969795 229.0625 521.9375 C225.68705951 522.51896274 223.28375171 523.27743825 220.375 525.0625 C215.63844042 527.77193074 210.40119444 527.47765235 205.07763672 527.40844727 C201.32251146 527.45232949 199.31371001 527.76181493 196.2928772 530.0553894 C193.48620953 533.65983161 193.30540229 536.2945481 193.38818359 540.68017578 C193.38251877 541.43686554 193.37685394 542.1935553 193.37101746 542.97317505 C193.35755574 545.46439738 193.37842726 547.95415463 193.3984375 550.4453125 C193.39293674 552.17976884 193.3848116 553.91421867 193.37417603 555.64865112 C193.35130467 560.20801659 193.35550724 564.76690227 193.36798096 569.32629395 C193.3863007 576.63093285 193.37639449 583.93529261 193.34212112 591.23986435 C193.33600503 593.79213341 193.34928956 596.34380453 193.36410522 598.89602661 C193.36115814 600.45689042 193.357504 602.01775311 193.35302734 603.57861328 C193.36231766 604.28932983 193.37160797 605.00004639 193.38117981 605.7322998 C193.35868372 608.49840217 193.31809458 610.50869502 191.79145813 612.86662292 C189.55781632 614.27975024 187.54892059 614.9030451 184.98364258 615.55541992 C183.42805885 615.95907272 183.42805885 615.95907272 181.84104919 616.37088013 C180.13502281 616.7963765 180.13502281 616.7963765 178.39453125 617.23046875 C177.1975209 617.53765839 176.00051056 617.84484802 174.76722717 618.16134644 C171.47561111 619.00359902 168.18185395 619.83629515 164.88674164 620.66469193 C161.38830372 621.54646556 157.89287568 622.44002799 154.39697266 623.33178711 C146.3227192 625.3884223 138.24347716 627.42500871 130.16280365 629.45625305 C128.05223045 629.98686883 125.9417757 630.51795305 123.83135986 631.04919434 C108.5807098 634.88765507 93.3239305 638.70109899 78.06223106 642.49537468 C68.34444422 644.91172566 58.6318795 647.34819724 48.92244339 649.79788017 C44.72004677 650.85769388 40.51703107 651.91505043 36.31403923 652.9725008 C32.96864829 653.81445407 29.62370639 654.65811358 26.27972412 655.50564575 C22.60940881 656.43507848 18.93769791 657.35879 15.265625 658.28125 C13.6329921 658.69714638 13.6329921 658.69714638 11.96737671 659.1214447 C10.47193832 659.49542137 10.47193832 659.49542137 8.94628906 659.87695312 C8.08231506 660.09516724 7.21834106 660.31338135 6.32818604 660.53820801 C4 661 4 661 0 661 C0 442.87 0 224.74 0 0 Z " fill="#000000" transform="translate(147,175)"/>
<path d="M0 0 C3.38278456 1.35311382 6.33742351 2.63864527 9.4921875 4.36328125 C10.35102539 4.83169434 11.20986328 5.30010742 12.09472656 5.78271484 C13.0122168 6.28754395 13.92970703 6.79237305 14.875 7.3125 C16.31311035 8.10068115 16.31311035 8.10068115 17.78027344 8.90478516 C24.96106538 12.85177352 32.11333183 16.84884192 39.25 20.875 C40.64001221 21.65870972 40.64001221 21.65870972 42.05810547 22.45825195 C42.95158691 22.96445068 43.84506836 23.47064941 44.765625 23.9921875 C45.53680664 24.42901855 46.30798828 24.86584961 47.10253906 25.31591797 C48.05870117 25.87166504 49.01486328 26.42741211 50 27 C51.20077718 27.33473784 51.20077718 27.33473784 52.42581248 27.67623806 C55.90082181 28.98201784 57.61349917 30.11839538 60 33 C62.10820653 40.23762155 61.34684211 48.32331871 61.26983643 55.77612305 C61.28135396 58.17768311 61.29723293 60.57922558 61.31710887 62.98073101 C61.35022067 68.20979001 61.35212357 73.4379111 61.32663727 78.66697311 C61.28884214 86.44254762 61.3081326 94.21724991 61.33872034 101.99281839 C61.39141117 115.87886 61.38680109 129.76444191 61.35793122 143.65052739 C61.33279072 155.80225435 61.3262015 167.95381267 61.33815765 180.1055603 C61.3389215 180.91113094 61.33968536 181.71670158 61.34047235 182.54668345 C61.34358566 185.81663154 61.34676965 189.08657955 61.35006999 192.35652746 C61.38067063 223.04083492 61.35290878 253.72484931 61.29910102 284.40911154 C61.25164355 311.67947355 61.25588978 338.94936863 61.30371094 366.21972656 C61.35723961 396.84732766 61.37850059 427.47466976 61.3475883 458.10231113 C61.34438105 461.36635393 61.34125266 464.63039679 61.33815765 467.8944397 C61.33736688 468.69814974 61.33657611 469.50185978 61.33576137 470.32992467 C61.32437924 482.47501546 61.33770298 494.61991923 61.36295319 506.76498413 C61.39151628 520.57248547 61.38446181 534.37945457 61.33014575 548.18688941 C61.30073793 555.91786401 61.29892707 563.64768662 61.33660749 571.3786318 C61.36161314 577.14417274 61.3345784 582.90851635 61.28686175 588.67387068 C61.27565041 591.01158376 61.28146635 593.3494503 61.30561963 595.68706548 C61.47292887 613.21852151 61.47292887 613.21852151 57.79696703 617.66452503 C55.19265711 619.26409593 52.93010246 620.17976428 50 621 C48.98848877 621.58080322 47.97697754 622.16160645 46.93481445 622.76000977 C45.66190552 623.46855103 45.66190552 623.46855103 44.36328125 624.19140625 C43.38431885 624.73780762 42.40535645 625.28420898 41.39672852 625.84716797 C39.8700354 626.69625732 39.8700354 626.69625732 38.3125 627.5625 C31.63620182 631.28299105 24.96528076 635.01078106 18.328125 638.80078125 C16.74777466 639.70171509 16.74777466 639.70171509 15.13549805 640.62084961 C13.11677699 641.77319018 11.09994769 642.92885236 9.08520508 644.08813477 C8.18181396 644.60303467 7.27842285 645.11793457 6.34765625 645.6484375 C5.55367432 646.10395996 4.75969238 646.55948242 3.94165039 647.02880859 C2 648 2 648 0 648 C0 434.16 0 220.32 0 0 Z " fill="#000000" transform="translate(858,182)"/>
<path d="M0 0 C13 0 13 0 17 1 C19.33089156 1.19790589 21.66482711 1.36147279 24 1.5 C27.82544026 1.7269329 31.29783328 2.07445832 35 3 C37.33089156 3.19790589 39.66482711 3.36147279 42 3.5 C45.82544026 3.7269329 49.29783328 4.07445832 53 5 C55.33089156 5.19790589 57.66482711 5.36147279 60 5.5 C63.82544026 5.7269329 67.29783328 6.07445832 71 7 C73.33089156 7.19790589 75.66482711 7.36147279 78 7.5 C84.5735901 7.88995873 84.5735901 7.88995873 86.9375 8.5 C90.24123562 9.3009056 93.61616325 9.33448625 97 9.5 C101.11008867 9.70103695 105.0059871 9.96928699 109 11 C111.33089156 11.19790589 113.66482711 11.36147279 116 11.5 C122.55891136 11.88908796 122.55891136 11.88908796 125.01953125 12.5078125 C128.9708688 13.48980171 133.14474261 13.35205809 137.19921875 13.5234375 C141 14 141 14 150 17 C150 88.94 150 160.88 150 235 C147.22578182 236.38710909 144.71496369 236.30557532 141.625 236.5 C137.93144192 236.73345288 134.57627173 237.10237004 131 238 C129.00196674 238.15325823 127.00135403 238.27397011 125 238.375 C118.93122045 238.76694201 113.00461392 239.54699499 107 240.5 C99.90431583 241.62617109 92.93043043 242.42658885 85.75 242.7890625 C83.11333163 242.91230233 83.11333163 242.91230233 81.0625 243.4921875 C76.91470765 244.51342425 72.56415271 244.46653331 68.3125 244.71875 C65.68662657 244.94170152 63.52404339 245.35881156 61 246 C59.00196674 246.15325823 57.00135403 246.27397011 55 246.375 C48.93122045 246.76694201 43.00461392 247.54699499 37 248.5 C29.90431583 249.62617109 22.93043043 250.42658885 15.75 250.7890625 C12.7607832 250.94106708 12.7607832 250.94106708 9 252 C6.03 252 3.06 252 0 252 C0 168.84 0 85.68 0 0 Z " fill="#000000" transform="translate(500,380)"/>
<path d="M0 0 C0.02278979 31.44931715 0.04049788 62.89863196 0.05106533 94.34795543 C0.05231611 98.05692147 0.05361042 101.7658875 0.05493164 105.47485352 C0.05532511 106.58248282 0.05532511 106.58248282 0.05572652 107.71248848 C0.06008334 119.68458919 0.06797095 131.65668511 0.0771528 143.62878298 C0.08648901 155.90411221 0.09205554 168.17943894 0.09408849 180.45477158 C0.09546379 188.03540608 0.09981473 195.61602708 0.10791647 203.19665743 C0.11380422 208.99968485 0.11445905 214.80270527 0.11310768 220.60573578 C0.11338421 222.99351396 0.11539188 225.38129262 0.11920547 227.76906776 C0.12413597 231.01362125 0.12300068 234.25811561 0.12025452 237.50267029 C0.12462378 238.93989737 0.12462378 238.93989737 0.12908131 240.40615934 C0.11412121 246.88587879 0.11412121 246.88587879 -1 248 C-2.68598758 248.10975688 -4.37414209 248.18637413 -6.0625 248.25 C-12.83011137 248.74892022 -18.73649357 250.62155934 -25.125 252.7421875 C-28.38597913 253.8233422 -31.65482893 254.70915793 -35 255.5 C-39.65327159 256.61301226 -44.19670634 257.97554366 -48.75 259.4375 C-54.08752258 261.14510066 -59.42955322 262.67579706 -64.875 264 C-77.17409051 266.991507 -89.32417225 270.41934324 -101.3828125 274.26538086 C-106.16770802 275.77800596 -110.97602516 277.01823307 -115.85546875 278.1796875 C-120.39739 279.36453652 -124.85252938 280.80822229 -129.30664062 282.28710938 C-132.48665216 283.31924659 -135.44282234 284.05741991 -138.765625 284.48828125 C-141.95273444 284.99252199 -143.15885117 285.39500477 -145.4375 287.5625 C-146.7059375 288.7690625 -146.7059375 288.7690625 -148 290 C-148.66 289.67 -149.32 289.34 -150 289 C-150.828476 248.48207034 -151.35443666 207.96368496 -151.49651527 167.43745232 C-151.52730449 158.85974044 -151.57439708 150.28269312 -151.65844727 141.70532227 C-151.73346572 134.04870232 -151.780673 126.39252622 -151.79337829 118.73553926 C-151.80089355 114.73001036 -151.82173084 110.72563564 -151.87640572 106.72044945 C-151.92666956 103.00351634 -151.9395031 99.2883595 -151.92315483 95.57114029 C-151.92404609 93.56739145 -151.96466001 91.56378337 -152.00646973 89.56047058 C-151.91712774 80.99000363 -151.91712774 80.99000363 -149.25084686 78.11185741 C-147.2035229 76.80823245 -145.25972269 75.87182844 -143 75 C-141.67814697 74.26801392 -141.67814697 74.26801392 -140.32958984 73.52124023 C-139.54793457 73.12106689 -138.7662793 72.72089355 -137.9609375 72.30859375 C-137.06310547 71.84549805 -136.16527344 71.38240234 -135.24023438 70.90527344 C-134.29470703 70.4209082 -133.34917969 69.93654297 -132.375 69.4375 C-124.69486924 65.47000424 -117.06874853 61.42586126 -109.5 57.25 C-99.87611133 51.95050183 -90.12826976 46.91235974 -80.35275269 41.90075684 C-71.37367042 37.29495228 -62.47772959 32.57525254 -53.66186523 27.66210938 C-48.18293914 24.61896919 -42.63696142 21.75951059 -37.01513672 18.99072266 C-25.46540193 13.29300877 -14.08696195 7.22689266 -2.8359375 0.9609375 C-1 0 -1 0 0 0 Z " fill="#000000" transform="translate(500,2)"/>
<path d="M0 0 C2.875 0.0625 2.875 0.0625 6 1 C7.07401615 2.96124688 8.06057514 4.97084231 9 7 C15.80688101 15.6549858 24.6825378 17.32124436 35 19.5 C40.85241046 20.73586324 46.4018072 22.06140778 51.96191406 24.27246094 C55.99129949 25.71083762 60.19697628 26.4868749 64.375 27.375 C71.31250973 28.89662713 78.17598954 30.53013461 85 32.5 C92.54371802 34.67159922 100.1437587 36.43527163 107.81054688 38.11621094 C113.78424347 39.44300039 119.63496378 41.01005403 125.5 42.75 C132.22640928 44.73226885 138.4379181 45.63374766 145.47265625 45.859375 C148 46 148 46 149 47 C149.09806502 50.13501696 149.12990394 53.24802117 149.12025452 56.38343811 C149.12153615 57.87929991 149.12153615 57.87929991 149.12284368 59.40538114 C149.1245015 62.77425954 149.1189722 66.14308902 149.11352539 69.51196289 C149.11324356 71.9160207 149.11340118 74.32007859 149.1139679 76.72413635 C149.11419621 81.91394086 149.11134488 87.10373415 149.10573006 92.29353523 C149.09761714 99.79719789 149.09500005 107.30085445 149.09374207 114.80452102 C149.09155122 126.97751289 149.08489024 139.15049808 149.07543945 151.32348633 C149.06626618 163.15128547 149.05918494 174.97908279 149.05493164 186.80688477 C149.05466892 187.53544896 149.05440619 188.26401316 149.05413551 189.01465506 C149.05283051 192.6694978 149.05156679 196.32434055 149.05032361 199.97918332 C149.03994997 230.31946033 149.02225664 260.65972924 149 291 C145.77941813 292.03802165 145.15266694 292.06181412 141.81811523 290.71166992 C140.55847149 290.06369542 139.30566362 289.40232442 138.05859375 288.73046875 C137.3832811 288.37883667 136.70796844 288.02720459 136.01219177 287.66491699 C133.81447726 286.51709876 131.62613304 285.35252703 129.4375 284.1875 C127.92325483 283.39255694 126.40844107 282.59869603 124.89306641 281.8059082 C121.22366808 279.88306223 117.56118054 277.94750628 113.90118408 276.00683594 C111.40524443 274.68502719 108.90427697 273.37292275 106.40234375 272.0625 C103.43964094 270.50963721 100.48005814 268.95112974 97.5234375 267.38671875 C92.19366322 264.56934813 86.84645636 261.785545 81.5 259 C73.72467297 254.94791523 65.95908007 250.87808643 58.203125 246.7890625 C51.97753206 243.50913602 45.73998196 240.25245439 39.5 237 C36.60228622 235.4881283 33.704693 233.97602574 30.80712891 232.46386719 C28.96877551 231.50519899 27.12992659 230.54748029 25.29052734 229.59082031 C22.75471051 228.27168565 20.2209193 226.94873195 17.6875 225.625 C16.95402344 225.24472656 16.22054688 224.86445312 15.46484375 224.47265625 C14.08088727 223.74784693 12.70898876 222.99931227 11.35321522 222.22306347 C9.02148712 220.92811015 9.02148712 220.92811015 6.43068218 220.17187214 C3.13262149 218.85530597 1.33358792 217.70752254 -1 215 C-3.00176303 208.56732932 -2.26967559 201.33755071 -2.15112305 194.69018555 C-2.14993913 192.58257354 -2.15314625 190.47495515 -2.16041565 188.36735535 C-2.16755777 182.64798247 -2.11286561 176.93067671 -2.04687095 171.21174216 C-1.98808559 165.23319568 -1.98513832 159.2546243 -1.97602844 153.27583313 C-1.95304857 143.24073143 -1.89409668 133.20639367 -1.80932617 123.17163086 C-1.68963369 109.00018764 -1.63219946 94.82900803 -1.58846223 80.65715349 C-1.52700459 61.69575135 -1.4465768 42.73417834 -1.29604149 23.7732563 C-1.28027173 21.7144478 -1.26616282 19.65562584 -1.25378799 17.59679413 C-1.23649732 14.79918196 -1.21296658 12.00169574 -1.18754578 9.20414734 C-1.18363742 8.37848996 -1.17972906 7.55283259 -1.17570227 6.70215529 C-1.11441045 1.11441045 -1.11441045 1.11441045 0 0 Z " fill="#000000" transform="translate(351,712)"/>
<path d="M0 0 C1.27423828 -0.00193359 1.27423828 -0.00193359 2.57421875 -0.00390625 C3.91419922 0.00189453 3.91419922 0.00189453 5.28125 0.0078125 C6.62123047 0.00201172 6.62123047 0.00201172 7.98828125 -0.00390625 C8.83777344 -0.00261719 9.68726563 -0.00132812 10.5625 0 C11.34689453 0.00112793 12.13128906 0.00225586 12.93945312 0.00341797 C14.78125 0.1328125 14.78125 0.1328125 15.78125 1.1328125 C15.88155071 4.2907959 15.91562228 7.42699073 15.90823364 10.58544922 C15.90979363 11.59015196 15.91135362 12.5948547 15.91296089 13.63000298 C15.9169756 17.02418321 15.91377943 20.41831937 15.91064453 23.8125 C15.91199836 26.23463975 15.91377819 28.6567793 15.91595459 31.07891846 C15.92005497 36.99138133 15.91943563 42.90383259 15.91654195 48.81629515 C15.91428809 53.61937279 15.91397532 58.42244688 15.91506577 63.2255249 C15.915219 63.90783955 15.91537223 64.59015421 15.91553011 65.29314506 C15.91584982 66.6790398 15.91617403 68.06493453 15.9165027 69.45082927 C15.91935762 82.46146165 15.91607028 95.472087 15.91070233 108.48271823 C15.90623428 119.65840422 15.90701021 130.83407982 15.91162109 142.00976562 C15.91696664 154.97227461 15.91908293 167.93477743 15.91600883 180.89728737 C15.91569026 182.27822494 15.91537589 183.65916252 15.91506577 185.0401001 C15.91491149 185.71963552 15.91475721 186.39917095 15.91459826 187.09929836 C15.91373305 191.89935063 15.91519608 196.69939901 15.91754532 201.49945068 C15.92063474 207.95405376 15.9184508 214.40864178 15.91265106 220.8632431 C15.91132275 223.23973304 15.91171878 225.61622463 15.91391373 227.99271393 C15.91662243 231.22189069 15.91324754 234.45100318 15.90823364 237.68017578 C15.91046436 238.6337541 15.91269509 239.58733242 15.91499341 240.56980705 C15.8953998 247.0186627 15.8953998 247.0186627 14.78125 248.1328125 C12.26988896 248.23256282 9.79221585 248.27163433 7.28125 248.2578125 C6.22744141 248.26361328 6.22744141 248.26361328 5.15234375 248.26953125 C-0.09213622 248.25942628 -0.09213622 248.25942628 -1.21875 247.1328125 C-4.05582088 246.9217907 -6.87772646 246.75673437 -9.71875 246.6328125 C-18.08361486 246.26794764 -18.08361486 246.26794764 -19.21875 245.1328125 C-22.05582088 244.9217907 -24.87772646 244.75673437 -27.71875 244.6328125 C-36.08361486 244.26794764 -36.08361486 244.26794764 -37.21875 243.1328125 C-40.05582088 242.9217907 -42.87772646 242.75673437 -45.71875 242.6328125 C-54.08361486 242.26794764 -54.08361486 242.26794764 -55.21875 241.1328125 C-57.72291935 240.92218143 -60.21015081 240.75709173 -62.71875 240.6328125 C-70.08361486 240.26794764 -70.08361486 240.26794764 -71.21875 239.1328125 C-74.05582088 238.9217907 -76.87772646 238.75673437 -79.71875 238.6328125 C-88.08361486 238.26794764 -88.08361486 238.26794764 -89.21875 237.1328125 C-92.05582088 236.9217907 -94.87772646 236.75673437 -97.71875 236.6328125 C-106.08361486 236.26794764 -106.08361486 236.26794764 -107.21875 235.1328125 C-115.63375 234.6378125 -115.63375 234.6378125 -124.21875 234.1328125 C-124.21875 161.8628125 -124.21875 89.5928125 -124.21875 15.1328125 C-115.22412198 11.75982699 -115.22412198 11.75982699 -111.31640625 11.65625 C-110.07600586 11.60984375 -110.07600586 11.60984375 -108.81054688 11.5625 C-107.97587891 11.54445313 -107.14121094 11.52640625 -106.28125 11.5078125 C-100.82121715 11.84866808 -100.82121715 11.84866808 -96.21875 10.1328125 C-92.57921804 9.86210351 -88.94631476 9.68635733 -85.30078125 9.52734375 C-81.44401907 9.70582155 -81.44401907 9.70582155 -78.21875 8.1328125 C-74.57921804 7.86210351 -70.94631476 7.68635733 -67.30078125 7.52734375 C-63.44401907 7.70582155 -63.44401907 7.70582155 -60.21875 6.1328125 C-56.57921804 5.86210351 -52.94631476 5.68635733 -49.30078125 5.52734375 C-45.44401907 5.70582155 -45.44401907 5.70582155 -42.21875 4.1328125 C-40.81677598 3.98860096 -39.40832169 3.90595126 -38 3.8515625 C-37.15050781 3.81417969 -36.30101562 3.77679688 -35.42578125 3.73828125 C-32.71875 3.6328125 -32.71875 3.6328125 -30.01171875 3.52734375 C-29.16222656 3.48996094 -28.31273437 3.45257813 -27.4375 3.4140625 C-26.2609082 3.36862305 -26.2609082 3.36862305 -25.06054688 3.32226562 C-23.20248804 3.32689782 -23.20248804 3.32689782 -22.21875 2.1328125 C-18.57921804 1.86210351 -14.94631476 1.68635733 -11.30078125 1.52734375 C-7.09303632 1.32017125 -4.07064637 0.00585344 0 0 Z " fill="#000000" transform="translate(474.21875,381.8671875)"/>
<path d="M0 0 C4.16401424 1.35103402 7.9430027 2.87443387 11.82421875 4.90625 C12.92499756 5.47980225 14.02577637 6.05335449 15.15991211 6.64428711 C16.32401611 7.25667236 17.48812012 7.86905762 18.6875 8.5 C19.91200761 9.14040564 21.13670037 9.78045739 22.36157227 10.42016602 C24.79909831 11.69427103 27.23519837 12.97103605 29.66992188 14.25048828 C32.44993714 15.71101536 35.23203313 17.16740165 38.015625 18.62109375 C46.64737391 23.1376519 55.23601304 27.73269401 63.81842041 32.34222412 C64.41459167 32.66241516 65.01076294 32.9826062 65.625 33.3125 C66.22020447 33.63220764 66.81540894 33.95191528 67.4286499 34.28131104 C78.95461022 40.46925179 90.55215015 46.51420576 102.16796875 52.53173828 C112.5461254 57.9122757 122.90240465 63.32806387 133.125 69 C133.80699463 69.37415039 134.48898926 69.74830078 135.19165039 70.13378906 C139.88236805 72.76473609 139.88236805 72.76473609 141 75 C141.09900343 77.88052152 141.13624794 80.73684451 141.12939453 83.61767578 C141.13112136 84.51902158 141.13284819 85.42036737 141.13462734 86.34902668 C141.13901248 89.38113991 141.13601057 92.41319842 141.1328125 95.4453125 C141.13387111 97.60360227 141.13525672 99.76189191 141.13694763 101.92018127 C141.13977384 107.77102538 141.13532562 113.62184257 141.12877274 119.47268295 C141.12501338 123.11204818 141.1229379 126.75141084 141.12130737 130.39077759 C141.10298905 165.10039865 140.94098707 199.80785881 140.59383392 234.51576996 C140.56242739 237.69484952 140.53268915 240.87394136 140.50323486 244.05303955 C140.45658825 249.01858567 140.40433421 253.98404012 140.34718513 258.94947624 C140.32683647 260.76739769 140.30804517 262.5853373 140.29089165 264.4032917 C140.26711814 266.86489188 140.23714963 269.32633451 140.20532227 271.7878418 C140.19669002 272.87480945 140.19669002 272.87480945 140.18788338 273.98373604 C140.11437578 278.88562422 140.11437578 278.88562422 139 280 C132.47918035 280.58062093 126.83857411 278.77564412 120.625 276.9375 C118.38157356 276.29144737 116.13808212 275.64562038 113.89453125 275 C112.75064941 274.66742188 111.60676758 274.33484375 110.42822266 273.9921875 C105.06574294 272.44019223 99.68934292 270.93882627 94.3125 269.4375 C93.27496582 269.14673584 92.23743164 268.85597168 91.16845703 268.55639648 C84.45309062 266.67640941 77.72978284 264.82764683 71 263 C63.21979752 260.88708451 55.45020683 258.73883031 47.6875 256.5625 C46.65625 256.2735083 45.625 255.9845166 44.5625 255.68676758 C39.09852301 254.15405416 33.63640335 252.61493513 28.17578125 251.0703125 C27.05792236 250.75505615 25.94006348 250.4397998 24.78833008 250.11499023 C22.66127097 249.51504239 20.53476628 248.91312387 18.40893555 248.30883789 C13.90574665 247.04010751 9.41956042 245.84213659 4.84375 244.86328125 C1 244 1 244 0 243 C-0.09805942 239.87760807 -0.12990476 236.77731859 -0.12025452 233.65452576 C-0.12153615 232.16478928 -0.12153615 232.16478928 -0.12284368 230.64495713 C-0.12450149 227.28989819 -0.11897221 223.93488837 -0.11352539 220.57983398 C-0.11324356 218.18562827 -0.11340118 215.79142246 -0.1139679 213.3972168 C-0.11419621 208.22869319 -0.11134489 203.06018086 -0.10573006 197.89166069 C-0.09761712 190.41876712 -0.09500005 182.94587967 -0.09374207 175.47298218 C-0.09155122 163.34990459 -0.08489025 151.22683371 -0.07543945 139.10375977 C-0.06626618 127.32446323 -0.05918493 115.54516852 -0.05493164 103.76586914 C-0.05466892 103.04029194 -0.05440619 102.31471474 -0.05413551 101.56715035 C-0.05283051 97.92729168 -0.05156679 94.287433 -0.05032361 90.64757431 C-0.03994998 60.4317114 -0.02225666 30.21585663 0 0 Z " fill="#000000" transform="translate(510,8)"/>
<path d="M0 0 C1.67542976 0.28604898 3.34385343 0.61781233 5 1 C5.38239927 26.47397012 5.66444212 51.94834247 5.89771748 77.42409134 C5.96601919 84.75356305 6.04548592 92.08284431 6.13076973 99.41213703 C6.28386471 112.583488 6.40731026 125.75455973 6.483675 138.92659473 C6.52218167 145.42751851 6.57476975 151.92764589 6.66064453 158.4281311 C6.74157844 164.60185039 6.78439816 170.77468168 6.79846001 176.94890404 C6.81032775 179.24039302 6.83603497 181.53185635 6.87626839 183.82302284 C6.92930257 186.9685751 6.93286748 190.11044862 6.92407227 193.25634766 C6.95126595 194.17720815 6.97845963 195.09806864 7.00647736 196.04683399 C6.96897935 198.60371806 6.85766109 200.58921741 6 203 C3.59661556 205.299286 1.00735948 206.63092071 -2 208 C-3.21512059 208.65069152 -4.42768066 209.3062216 -5.63598633 209.96948242 C-6.86618191 210.6016974 -8.09826245 211.23025559 -9.33203125 211.85546875 C-10.33651054 212.37018234 -10.33651054 212.37018234 -11.36128235 212.89529419 C-12.78005092 213.62188018 -14.1996164 214.34691197 -15.61993408 215.07046509 C-19.33746648 216.96441657 -23.04907491 218.86992658 -26.76171875 220.7734375 C-27.48746094 221.14509537 -28.21320313 221.51675323 -28.9609375 221.89967346 C-34.36719391 224.66967512 -39.75533854 227.47212643 -45.125 230.3125 C-51.82298705 233.85338827 -58.53185187 237.37248591 -65.25 240.875 C-66.21212402 241.37668701 -67.17424805 241.87837402 -68.16552734 242.39526367 C-72.09579946 244.44428748 -76.02642414 246.49263451 -79.95703125 248.54101562 C-90.01963761 253.78556609 -100.08073931 259.0328765 -110.125 264.3125 C-110.8974707 264.71791016 -111.66994141 265.12332031 -112.46582031 265.54101562 C-115.98074851 267.39033854 -119.4837182 269.25637726 -122.9609375 271.17578125 C-123.86561768 271.67307739 -123.86561768 271.67307739 -124.78857422 272.18041992 C-126.3726193 273.0546953 -127.95214176 273.93715145 -129.53125 274.8203125 C-132 276 -132 276 -135 276 C-135 196.47 -135 116.94 -135 35 C-130.53780647 32.76890324 -127.4671859 31.43578855 -122.79418945 30.30517578 C-121.57607574 30.00656647 -120.35796204 29.70795715 -119.10293579 29.40029907 C-117.77306875 29.08189585 -116.44318334 28.76356933 -115.11328125 28.4453125 C-113.71275129 28.1043244 -112.31239491 27.76262269 -110.91220093 27.42025757 C-107.9304824 26.69246414 -104.94778698 25.96888643 -101.96420288 25.2487793 C-94.93113701 23.55113593 -87.90284033 21.83393267 -80.87445259 20.11704254 C-79.29331632 19.73089798 -77.71211252 19.34502979 -76.13084221 18.95943451 C-65.52734656 16.37335115 -54.93877838 13.73721268 -44.3671875 11.0234375 C-43.18458847 10.71987335 -42.00198944 10.4163092 -40.78355408 10.10354614 C-35.29996117 8.69312206 -29.81869336 7.27406364 -24.33911133 5.84814453 C-22.3966615 5.34662405 -20.45419815 4.84515594 -18.51171875 4.34375 C-17.65645599 4.11851654 -16.80119324 3.89328308 -15.92001343 3.66122437 C-12.10367924 2.67908272 -8.38605309 1.86652807 -4.46801758 1.41601562 C-1.17761544 1.38356687 -1.17761544 1.38356687 0 0 Z " fill="#000000" transform="translate(645,724)"/>
<path d="M0 0 C1.18249737 2.36499475 1.12470676 3.77189116 1.1241985 6.40980399 C1.12644579 7.34458634 1.12869308 8.27936869 1.13100848 9.24247777 C1.12706796 10.79642702 1.12706796 10.79642702 1.12304783 12.38176918 C1.12420167 13.47983139 1.12535552 14.5778936 1.12654433 15.70923042 C1.12921623 19.43252135 1.12468412 23.15577006 1.12025452 26.87905884 C1.1206901 29.55778151 1.12152241 32.23650137 1.12284368 34.91522348 C1.12492211 40.76183721 1.12326568 46.60844078 1.11920547 52.45505333 C1.11318476 61.14883074 1.11286834 69.8426017 1.11374746 78.53638081 C1.11506321 93.15879383 1.11171297 107.78120234 1.10573006 122.40361404 C1.0998189 136.8877019 1.0959653 151.37178787 1.09487724 165.85587692 C1.0948085 166.7554785 1.09473976 167.65508008 1.09466894 168.58194232 C1.09433062 173.15031355 1.09402923 177.71868478 1.09374207 182.28705601 C1.09164003 214.66923654 1.08489816 247.05141461 1.07543945 279.43359375 C1.06625938 310.89811185 1.05917363 342.36262927 1.05493164 373.82714844 C1.05473435 375.28121729 1.05473435 375.28121729 1.05453308 376.76466127 C1.05321459 386.49930858 1.05193877 396.23395589 1.05069422 405.9686032 C1.04815781 425.80030704 1.04533655 445.63201083 1.04234314 465.4637146 C1.0421372 466.8315462 1.0421372 466.8315462 1.04192711 468.22701075 C1.03272194 529.15134153 1.01687622 590.07567093 1 651 C-2.29424975 650.37380261 -5.15100633 649.63644678 -8.20776367 648.25 C-9.39875923 647.71439453 -9.39875923 647.71439453 -10.61381531 647.16796875 C-11.45668594 646.78253906 -12.29955658 646.39710938 -13.16796875 646 C-14.04399246 645.60425781 -14.92001617 645.20851563 -15.82258606 644.80078125 C-18.61312489 643.53872085 -21.40030309 642.26942118 -24.1875 641 C-26.07465765 640.14536475 -27.9620252 639.2911928 -29.84960938 638.4375 C-43.34970915 632.32514543 -43.34970915 632.32514543 -46 631 C-46 429.04 -46 227.08 -46 19 C-3.77777778 0 -3.77777778 0 0 0 Z " fill="#000000" transform="translate(135,181)"/>
<path d="M0 0 C3.31187707 1.58194233 3.31187707 1.58194233 6.875 1.9375 C10.14396289 2.4044947 12.48514455 3.36960378 15.47070312 4.69335938 C18.52385927 5.88643885 21.65392905 6.37847116 24.875 6.9375 C28.84240557 7.62605799 32.45010444 8.37060186 36.125 10 C39.32756168 11.59209554 39.32756168 11.59209554 42.875 11.9375 C46.14396289 12.4044947 48.48514455 13.36960378 51.47070312 14.69335938 C54.52385927 15.88643885 57.65392905 16.37847116 60.875 16.9375 C64.84240557 17.62605799 68.45010444 18.37060186 72.125 20 C75.32756168 21.59209554 75.32756168 21.59209554 78.875 21.9375 C82.14396289 22.4044947 84.48514455 23.36960378 87.47070312 24.69335938 C90.52385927 25.88643885 93.65392905 26.37847116 96.875 26.9375 C100.83361909 27.62453306 104.43551183 28.3644571 108.1015625 29.9921875 C111.57436071 31.52552322 114.62642586 31.9876711 118.375 32.4375 C118.705 32.7675 119.035 33.0975 119.375 33.4375 C121.70317964 33.80510731 124.0368385 34.13991581 126.375 34.4375 C124.5 38.3125 124.5 38.3125 123.375 39.4375 C121.6831708 39.79406883 119.97985549 40.09649509 118.2734375 40.375 C117.22542969 40.54773438 116.17742187 40.72046875 115.09765625 40.8984375 C113.99292969 41.07632813 112.88820313 41.25421875 111.75 41.4375 C110.66847656 41.61539063 109.58695313 41.79328125 108.47265625 41.9765625 C104.10150176 42.69174529 99.73252553 43.40126484 95.34375 44 C92.97858997 44.3485499 90.79209153 44.7855273 88.5 45.4375 C84.1588974 46.57105677 79.83082358 47.00160422 75.375 47.4375 C71.67353409 47.89206599 68.23162529 48.47573326 64.625 49.4375 C61.63905694 50.21497197 58.82693135 50.60606052 55.75 50.8125 C47.46762135 51.51855692 39.31121447 53.03245271 31.125 54.4375 C28.70323877 54.8495089 26.28128026 55.26032897 23.85919189 55.67041016 C22.36412644 55.92392211 20.86927775 56.17871719 19.37469482 56.43505859 C15.04990567 57.17292525 10.71804003 57.81793915 6.375 58.4375 C5.07672861 58.74410284 3.78308727 59.07253295 2.5 59.4375 C-1.13901787 60.3877271 -4.71204847 60.86263037 -8.453125 61.2109375 C-10.46016105 61.42030457 -12.45160379 61.76688757 -14.4375 62.125 C-17.96069447 62.47041122 -18.61670754 61.98657226 -21.625 60.4375 C-23.18987072 60.05890362 -24.77062166 59.74275845 -26.35839844 59.47607422 C-27.29327087 59.31605927 -28.22814331 59.15604431 -29.19134521 58.99118042 C-30.19554504 58.82651276 -31.19974487 58.66184509 -32.234375 58.4921875 C-33.27515198 58.31744904 -34.31592896 58.14271057 -35.38824463 57.962677 C-37.59000456 57.59481018 -39.79231334 57.23021557 -41.99511719 56.86865234 C-45.34999569 56.3166144 -48.7023542 55.75085862 -52.0546875 55.18359375 C-54.19777859 54.82729349 -56.34100377 54.47179863 -58.484375 54.1171875 C-59.97852936 53.86411331 -59.97852936 53.86411331 -61.50286865 53.60592651 C-66.97237014 52.7186048 -72.09092876 52.3703127 -77.625 52.4375 C-79.6328864 51.79497635 -81.63382592 51.13008229 -83.625 50.4375 C-84.615 50.4375 -85.605 50.4375 -86.625 50.4375 C-90.03182167 50.4375 -92.41892053 49.54981329 -95.625 48.4375 C-97.24288399 48.19370203 -98.86149684 47.95390489 -100.48318481 47.73684692 C-104.9391149 47.11407192 -109.37148318 46.33312704 -113.80859375 45.58984375 C-114.86409927 45.41369034 -115.9196048 45.23753693 -117.00709534 45.05604553 C-120.35902518 44.49646198 -123.7107647 43.93574751 -127.0625 43.375 C-129.34308646 42.99406581 -131.62368529 42.61320563 -133.90429688 42.23242188 C-139.47800802 41.30163816 -145.05156358 40.36992728 -150.625 39.4375 C-150.955 37.7875 -151.285 36.1375 -151.625 34.4375 C-139.94808599 30.87571506 -128.23958656 27.4573711 -116.47753906 24.1875 C-108.45289234 21.95531768 -100.44330403 19.67377197 -92.4375 17.375 C-83.3113725 14.7573996 -74.1730619 12.19821058 -65.00463867 9.73291016 C-59.85359043 8.34088779 -54.72290012 6.89246369 -49.6015625 5.39453125 C-12.59163744 -5.42742993 -12.59163744 -5.42742993 0 0 Z " fill="#000000" transform="translate(514.625,263.5625)"/>
<path d="M0 0 C19.69100082 -0.3638994 19.69100082 -0.3638994 29 2 C30.155 2.165 31.31 2.33 32.5 2.5 C35.2981033 2.89972904 37.99029613 3.40987464 40.75 4 C44.42298087 4.76147164 48.01016657 5.21544746 51.75 5.5 C55.81816278 5.82431507 59.14878775 6.60700834 63 8 C66.31739278 8.74946352 69.65905318 9.36526931 73 10 C74.72938608 10.35309373 76.45855805 10.70723796 78.1875 11.0625 C80.96090754 11.6189068 83.69731771 12.09961682 86.5 12.5 C89.2981033 12.89972904 91.99029613 13.40987464 94.75 14 C98.42298087 14.76147164 102.01016657 15.21544746 105.75 15.5 C109.81816278 15.82431507 113.14878775 16.60700834 117 18 C123.48435239 19.53764974 130.07430409 20.50548432 136.66015625 21.4921875 C141.7829591 22.2710932 146.89118684 23.13472354 152 24 C152.33 24.99 152.66 25.98 153 27 C152.34 27.99 151.68 28.98 151 30 C148.43359375 30.4765625 148.43359375 30.4765625 145.4375 30.625 C141.9063166 30.5198555 141.9063166 30.5198555 139 32 C136.66666667 32.33333333 134.33333333 32.66666667 132 33 C131.67 33.33 131.34 33.66 131 34 C128.66666667 34.33333333 126.33333333 34.66666667 124 35 C123.67 35.33 123.34 35.66 123 36 C120.66666667 36.33333333 118.33333333 36.66666667 116 37 C115.67 37.33 115.34 37.66 115 38 C112.66842508 38.34541851 110.33491639 38.67794257 108 39 C107.01 39.33 106.02 39.66 105 40 C102.33554478 40.67740387 99.66955186 41.34339568 97 42 C95.66651508 42.33272641 94.33317851 42.66604799 93 43 C37 57 37 57 34.99609375 57.5 C33.67516396 57.83087869 32.35483758 58.16417652 31.03515625 58.5 C29.70290611 58.83767924 28.36814404 59.16557719 27.03125 59.484375 C25.00621657 59.97120052 25.00621657 59.97120052 23.09375 60.640625 C7.11939482 65.43293156 -13.4808857 57.32858979 -28.91772461 52.92651367 C-34.90280946 51.24402914 -40.93048798 49.84235156 -47 48.5 C-55.96489815 46.51175763 -64.78558852 44.20291815 -73.61181641 41.67675781 C-78.12787242 40.39700855 -82.65860426 39.17086025 -87.1875 37.9375 C-88.11546387 37.68250732 -89.04342773 37.42751465 -89.99951172 37.16479492 C-94.18558391 36.01791058 -98.3717888 34.89474933 -102.58984375 33.87109375 C-103.27860596 33.70037354 -103.96736816 33.52965332 -104.67700195 33.35375977 C-106.48258445 32.91000149 -108.29194109 32.48167682 -110.1015625 32.0546875 C-113.28491237 30.89632569 -114.82491462 29.55705159 -117 27 C-116 24 -116 24 -114.125 22.8125 C-112 22 -112 22 -109 22 C-109 21.34 -109 20.68 -109 20 C-105.37 20 -101.74 20 -98 20 C-98 19.34 -98 18.68 -98 18 C-97.01 18.04125 -96.02 18.0825 -95 18.125 C-92.15489117 18.13647221 -89.73899782 17.75964393 -87 17 C-83.20846563 15.94844164 -79.92341204 15.8365245 -76 16 C-76 15.34 -76 14.68 -76 14 C-74.515 14.061875 -74.515 14.061875 -73 14.125 C-69.45327889 14.13215065 -66.38547373 13.4430363 -62.98046875 12.5078125 C-60.0228385 11.74944577 -57.02389576 11.39938246 -54 11 C-53.13375 10.814375 -52.2675 10.62875 -51.375 10.4375 C-48.86804081 9.97569173 -46.54338772 9.92733178 -44 10 C-44 9.34 -44 8.68 -44 8 C-43.01 8.04125 -42.02 8.0825 -41 8.125 C-38.15489117 8.13647221 -35.73899782 7.75964393 -33 7 C-29.20846563 5.94844164 -25.92341204 5.8365245 -22 6 C-22 5.34 -22 4.68 -22 4 C-21.01 4.04125 -20.02 4.0825 -19 4.125 C-16.15489117 4.13647221 -13.73899782 3.75964393 -11 3 C-7.20846563 1.94844164 -3.92341204 1.8365245 0 2 C0 1.34 0 0.68 0 0 Z " fill="#000000" transform="translate(488,686)"/>
</svg>
