<?xml version="1.0" encoding="UTF-8"?>
<!DOCTYPE svg PUBLIC "-//W3C//DTD SVG 1.1//EN" "http://www.w3.org/Graphics/SVG/1.1/DTD/svg11.dtd">
<svg xmlns="http://www.w3.org/2000/svg" version="1.1" width="1008px" height="1008px" style="shape-rendering:geometricPrecision; text-rendering:geometricPrecision; image-rendering:optimizeQuality; fill-rule:evenodd; clip-rule:evenodd" xmlns:xlink="http://www.w3.org/1999/xlink">
<g><path style="opacity:1" fill="#000000" d="M 498.5,1.5 C 499.666,83.6657 499.832,165.999 499,248.5C 492.089,249.092 485.256,250.258 478.5,252C 438.318,263.864 397.985,275.197 357.5,286C 355.627,288.209 353.46,290.042 351,291.5C 349.679,271.983 349.012,252.316 349,232.5C 348.333,182.167 348.333,131.833 349,81.5C 398.816,54.6774 448.649,28.0107 498.5,1.5 Z"/></g>
<g><path style="opacity:1" fill="#000000" d="M 509.5,7.5 C 556.095,31.1309 602.428,55.2976 648.5,80C 649.126,80.7504 649.626,81.5838 650,82.5C 650.57,150.74 650.07,218.907 648.5,287C 643.386,287.412 638.386,286.745 633.5,285C 592.299,273.487 551.132,261.987 510,250.5C 509.5,169.501 509.333,88.5007 509.5,7.5 Z"/></g>
<g><path style="opacity:1" fill="#000000" d="M 146.5,174.5 C 209.898,192.02 273.231,209.854 336.5,228C 337.239,231.487 338.073,234.987 339,238.5C 339.333,257.5 339.667,276.5 340,295.5C 342.126,299.816 345.626,301.983 350.5,302C 351.228,307.064 353.895,310.73 358.5,313C 402.083,319.951 445.583,327.118 489,334.5C 489.821,346.742 489.654,358.909 488.5,371C 480.5,371.333 472.5,371.667 464.5,372C 427.167,376 389.833,380 352.5,384C 348.016,384.571 344.182,386.404 341,389.5C 339.839,428.084 339.339,466.75 339.5,505.5C 339.667,543.5 339.833,581.5 340,619.5C 340.785,621.286 341.951,622.786 343.5,624C 385.133,629.101 426.8,634.101 468.5,639C 475.492,639.5 482.492,639.666 489.5,639.5C 489.666,647.507 489.5,655.507 489,663.5C 485.166,666.167 483.166,669.834 483,674.5C 482.612,675.428 481.945,676.095 481,676.5C 445.206,683.209 409.372,689.709 373.5,696C 369.462,696.899 365.795,698.566 362.5,701C 356.058,701.083 349.725,701.749 343.5,703C 341.951,704.214 340.785,705.714 340,707.5C 339.667,733.5 339.333,759.5 339,785.5C 338.692,786.308 338.192,786.975 337.5,787.5C 274.035,804.283 210.368,820.283 146.5,835.5C 146.5,615.167 146.5,394.833 146.5,174.5 Z"/></g>
<g><path style="opacity:1" fill="#000000" d="M 839.5,175.5 C 842.167,175.5 844.833,175.5 847.5,175.5C 847.667,395.5 847.5,615.5 847,835.5C 786.01,829.15 724.844,822.317 663.5,815C 661.966,812.034 660.8,808.867 660,805.5C 659.667,776.5 659.333,747.5 659,718.5C 656.667,716.167 654.333,713.833 652,711.5C 652.576,706.486 650.743,702.653 646.5,700C 603.875,691.738 561.209,683.738 518.5,676C 511.345,674.5 504.179,674.333 497,675.5C 496.167,675.167 495.333,674.833 494.5,674.5C 495.689,673.571 497.022,673.238 498.5,673.5C 499.108,662.956 499.774,652.456 500.5,642C 551.841,636.416 603.174,630.749 654.5,625C 656,623.5 657.5,622 659,620.5C 659.667,543.833 659.667,467.167 659,390.5C 656.512,386.675 653.012,384.508 648.5,384C 605.717,379.995 563.051,375.328 520.5,370C 513.833,369.667 507.167,369.333 500.5,369C 499.347,358.243 499.18,347.41 500,336.5C 548.399,327.977 596.899,319.811 645.5,312C 649.916,309.002 652.082,304.835 652,299.5C 654.333,297.167 656.667,294.833 659,292.5C 659.333,263.167 659.667,233.833 660,204.5C 660.333,202.5 660.667,200.5 661,198.5C 661.388,197.572 662.055,196.905 663,196.5C 721.988,189.654 780.821,182.654 839.5,175.5 Z"/></g>
<g><path style="opacity:1" fill="#000000" d="M 131.5,180.5 C 133.124,180.36 134.29,181.027 135,182.5C 135.5,398.833 135.667,615.166 135.5,831.5C 119.965,825.402 104.632,818.735 89.5,811.5C 88.1667,607.5 88.1667,403.5 89.5,199.5C 103.602,193.144 117.602,186.81 131.5,180.5 Z"/></g>
<g><path style="opacity:1" fill="#000000" d="M 857.5,181.5 C 877.36,192.349 897.193,203.349 917,214.5C 917.667,408.5 917.667,602.5 917,796.5C 897.743,807.88 878.243,818.88 858.5,829.5C 857.5,613.501 857.167,397.501 857.5,181.5 Z"/></g>
<g><path style="opacity:1" fill="#000000" d="M 501.5,259.5 C 547.51,273.375 593.843,286.375 640.5,298.5C 639.687,299.814 638.687,300.981 637.5,302C 628.451,303.098 619.618,304.932 611,307.5C 606.824,306.599 602.824,307.266 599,309.5C 594.824,308.599 590.824,309.266 587,311.5C 582.824,310.599 578.824,311.266 575,313.5C 573.938,312.903 572.772,312.57 571.5,312.5C 546.745,316.376 522.579,320.709 499,325.5C 496.851,324.701 494.684,323.867 492.5,323C 470.93,319.511 449.597,316.011 428.5,312.5C 427.446,312.68 426.446,313.013 425.5,313.5C 421.887,311.209 418.053,310.542 414,311.5C 411.734,310.044 409.234,309.21 406.5,309C 391.914,306.748 377.414,304.248 363,301.5C 362.217,299.567 362.717,298.067 364.5,297C 410.073,283.693 455.739,271.193 501.5,259.5 Z"/></g>
<g><path style="opacity:1" fill="#000000" d="M 499.5,379.5 C 534.466,383.155 569.466,386.655 604.5,390C 619.167,392 633.833,394 648.5,396C 649.831,468.765 649.831,541.599 648.5,614.5C 598.896,620.591 549.23,626.258 499.5,631.5C 499.5,547.5 499.5,463.5 499.5,379.5 Z"/></g>
<g><path style="opacity:1" fill="#000000" d="M 469.5,381.5 C 476.09,381.189 482.59,381.522 489,382.5C 489.667,464.5 489.667,546.5 489,628.5C 483.918,629.637 478.751,629.804 473.5,629C 437.65,625.368 401.984,621.034 366.5,616C 360.843,615.501 355.176,615.334 349.5,615.5C 349.333,542.499 349.5,469.499 350,396.5C 352.611,395.929 355.111,395.096 357.5,394C 394.5,390.333 431.5,386.667 468.5,383C 469.056,382.617 469.389,382.117 469.5,381.5 Z"/></g>
<g><path style="opacity:1" fill="#000000" d="M 487.5,685.5 C 492.139,686.62 496.805,686.62 501.5,685.5C 507.232,686.113 512.899,687.113 518.5,688.5C 519.442,688.392 520.275,688.059 521,687.5C 527.349,689.14 533.683,690.807 540,692.5C 541,692.167 542,691.833 543,691.5C 552.366,694.352 562.2,696.686 572.5,698.5C 573.442,698.392 574.275,698.059 575,697.5C 581.349,699.14 587.683,700.807 594,702.5C 595,702.167 596,701.833 597,701.5C 606.216,704.29 615.882,706.623 626,708.5C 627,708.167 628,707.833 629,707.5C 632.192,709.472 635.525,710.139 639,709.5C 640.703,711.347 640.536,713.181 638.5,715C 634.833,715.333 631.167,715.667 627.5,716C 614.081,719.894 600.747,723.228 587.5,726C 586.747,727.487 585.914,727.654 585,726.5C 582.43,727.009 580.097,728.009 578,729.5C 577.667,729.167 577.333,728.833 577,728.5C 574.43,729.009 572.097,730.009 570,731.5C 569.667,731.167 569.333,730.833 569,730.5C 566.43,731.009 564.097,732.009 562,733.5C 561.667,733.167 561.333,732.833 561,732.5C 558.43,733.009 556.097,734.009 554,735.5C 553.667,735.167 553.333,734.833 553,734.5C 550.43,735.009 548.097,736.009 546,737.5C 545.667,737.167 545.333,736.833 545,736.5C 542.43,737.009 540.097,738.009 538,739.5C 537.667,739.167 537.333,738.833 537,738.5C 534.43,739.009 532.097,740.009 530,741.5C 529.667,741.167 529.333,740.833 529,740.5C 526.43,741.009 524.097,742.009 522,743.5C 521.667,743.167 521.333,742.833 521,742.5C 518.43,743.009 516.097,744.009 514,745.5C 513.667,745.167 513.333,744.833 513,744.5C 510.182,745.128 507.515,746.128 505,747.5C 500.539,746.753 496.039,746.253 491.5,746C 452.34,736.748 413.34,726.748 374.5,716C 372.981,714.649 371.648,713.149 370.5,711.5C 373.475,709.008 376.808,707.008 380.5,705.5C 384.343,706.4 388.009,705.734 391.5,703.5C 392.689,703.756 393.856,704.089 395,704.5C 401.125,702.652 407.292,700.985 413.5,699.5C 414.689,699.756 415.856,700.089 417,700.5C 423.18,698.707 429.346,697.04 435.5,695.5C 438.984,696.27 442.317,695.604 445.5,693.5C 449.759,694.515 453.759,693.849 457.5,691.5C 460.984,692.27 464.317,691.604 467.5,689.5C 471.759,690.515 475.759,689.849 479.5,687.5C 481.256,688.407 483.089,688.407 485,687.5C 486.376,687.316 487.209,686.649 487.5,685.5 Z"/></g>
<g><path style="opacity:1" fill="#000000" d="M 350.5,711.5 C 352.435,712.15 354.435,712.483 356.5,712.5C 356.491,714.308 356.991,715.975 358,717.5C 362.17,723.351 367.67,727.185 374.5,729C 411.117,738.547 447.784,747.88 484.5,757C 489.418,757.195 494.251,757.695 499,758.5C 499.667,839.833 499.667,921.167 499,1002.5C 498.439,1003.02 497.772,1003.36 497,1003.5C 447.763,978.381 398.763,952.714 350,926.5C 349.587,854.754 349.754,783.087 350.5,711.5 Z"/></g>
<g><path style="opacity:1" fill="#000000" d="M 644.5,723.5 C 646.144,723.286 647.644,723.62 649,724.5C 650.162,791.83 650.496,859.164 650,926.5C 603.652,951.757 556.819,976.091 509.5,999.5C 509.333,919.166 509.5,838.833 510,758.5C 511.648,757.283 513.481,756.45 515.5,756C 558.754,745.326 601.754,734.493 644.5,723.5 Z"/></g>
</svg>
