<?xml version="1.0" standalone="no"?>
<!DOCTYPE svg PUBLIC "-//W3C//DTD SVG 20010904//EN"
 "http://www.w3.org/TR/2001/REC-SVG-20010904/DTD/svg10.dtd">
<svg version="1.0" xmlns="http://www.w3.org/2000/svg"
 width="1008.000000pt" height="1008.000000pt" viewBox="0 0 1008.000000 1008.000000"
 preserveAspectRatio="xMidYMid meet">

<g transform="translate(0.000000,1008.000000) scale(0.100000,-0.100000)"
fill="#000000" stroke="none">
<path d="M4840 9976 c-85 -45 -218 -115 -295 -155 -77 -41 -171 -91 -210 -111
-78 -42 -347 -184 -562 -297 -77 -40 -172 -90 -210 -111 l-68 -38 2 -1043 c1
-641 5 -1047 11 -1053 6 -6 23 2 45 21 19 17 45 31 57 31 12 0 50 9 84 19 33
11 93 28 131 39 39 11 103 30 143 41 39 12 105 30 145 42 128 37 201 57 247
69 44 11 105 28 245 68 133 38 220 63 251 73 17 5 54 9 83 9 32 0 53 5 56 13
3 6 4 564 3 1238 l-3 1227 -155 -82z"/>
<path d="M5100 8785 c0 -964 3 -1216 13 -1219 6 -2 32 -8 57 -15 25 -6 77 -20
115 -31 39 -11 120 -34 180 -50 61 -16 142 -39 180 -50 39 -11 120 -34 180
-50 61 -16 142 -39 180 -50 39 -11 120 -34 180 -50 61 -16 143 -39 184 -50 41
-12 86 -20 100 -18 l26 3 6 545 c11 1013 10 1495 -3 1512 -7 9 -103 63 -213
121 -110 57 -360 189 -555 292 -580 306 -616 325 -623 325 -4 0 -7 -547 -7
-1215z"/>
<path d="M1470 5025 c0 -2512 3 -3305 12 -3305 6 0 431 106 944 235 514 129
935 235 938 235 3 0 12 7 20 16 14 13 16 64 16 405 l0 391 29 29 c28 27 34 29
110 29 68 0 90 4 131 26 27 14 75 30 107 35 108 17 178 29 228 39 28 6 77 15
110 20 33 5 80 14 105 19 113 23 159 32 215 41 33 5 83 14 110 20 28 6 77 15
110 20 181 30 185 31 185 77 0 12 14 38 30 56 30 34 30 36 30 150 l0 115 -112
6 c-62 3 -151 10 -198 15 -106 12 -260 29 -365 41 -44 5 -120 14 -170 20 -49
6 -126 15 -170 20 -44 5 -125 14 -180 20 -55 6 -135 14 -178 18 -69 6 -82 10
-103 35 l-24 28 0 1138 c0 1132 0 1138 20 1164 27 34 72 47 200 59 58 5 141
13 185 18 44 5 125 14 180 20 55 6 136 15 180 20 44 5 130 14 190 20 61 6 148
15 195 21 47 5 144 13 215 17 l130 7 0 185 0 185 -45 7 c-42 6 -111 17 -235
38 -160 27 -196 33 -250 40 -54 7 -90 13 -250 40 -27 5 -81 14 -120 20 -38 6
-92 15 -120 20 -134 22 -194 32 -242 39 -60 8 -99 38 -111 85 -6 24 -15 32
-41 37 -18 4 -43 17 -55 28 -20 21 -21 33 -28 319 -7 341 -11 379 -42 393 -11
5 -435 124 -941 264 -506 141 -926 257 -932 260 -10 3 -13 -661 -13 -3300z"/>
<path d="M8255 8300 c-193 -23 -485 -57 -1215 -140 -102 -12 -236 -27 -298
-34 -62 -7 -115 -16 -119 -19 -17 -18 -22 -133 -23 -522 l0 -431 -40 -39 c-28
-27 -40 -48 -40 -67 0 -18 -12 -42 -34 -65 -28 -31 -42 -38 -92 -45 -32 -5
-85 -13 -116 -18 -32 -6 -85 -14 -118 -20 -33 -5 -87 -14 -120 -20 -154 -26
-189 -31 -250 -40 -61 -9 -96 -14 -250 -40 -33 -5 -87 -14 -120 -20 -33 -5
-87 -14 -120 -20 -158 -26 -189 -31 -240 -38 l-55 -7 0 -165 0 -165 105 -7
c58 -4 147 -12 198 -18 50 -5 131 -14 180 -20 48 -5 130 -14 182 -20 52 -6
136 -15 185 -20 50 -6 133 -15 185 -20 52 -5 137 -14 188 -20 50 -5 131 -14
180 -19 108 -10 130 -17 165 -49 l27 -26 0 -1146 0 -1146 -27 -26 c-23 -22
-41 -27 -98 -32 -75 -6 -197 -19 -335 -36 -80 -10 -130 -16 -350 -40 -220 -24
-270 -30 -350 -40 -134 -17 -258 -30 -350 -38 l-85 -7 -6 -155 c-3 -85 -7
-156 -7 -157 -1 -2 -11 -3 -22 -3 -11 0 -20 -5 -20 -10 0 -7 23 -8 63 -5 34 4
91 1 127 -5 36 -6 90 -15 120 -20 30 -5 80 -14 110 -20 30 -6 80 -15 110 -20
30 -5 78 -14 105 -19 101 -21 161 -32 215 -41 30 -5 80 -14 110 -20 30 -6 80
-15 110 -20 30 -5 79 -14 108 -20 28 -5 76 -15 105 -20 28 -6 77 -15 107 -20
111 -18 126 -23 153 -48 18 -17 27 -36 27 -57 0 -23 10 -41 40 -70 l40 -39 3
-435 c4 -431 8 -502 31 -519 6 -5 99 -19 206 -31 107 -12 312 -35 455 -52 354
-41 987 -113 1160 -132 20 -2 20 5 23 3301 l2 3302 -37 -1 c-21 -1 -105 -9
-188 -19z"/>
<path d="M1108 8173 l-218 -97 0 -3057 0 -3056 228 -102 c125 -56 230 -101
235 -101 8 0 10 6471 1 6494 -3 9 -11 16 -18 16 -6 0 -109 -44 -228 -97z"/>
<path d="M8580 5020 c0 -1782 3 -3240 8 -3240 4 1 138 74 297 164 l290 163 0
2912 0 2913 -294 164 c-162 90 -296 164 -298 164 -2 0 -3 -1458 -3 -3240z"/>
<path d="M4966 7469 c-33 -5 -89 -18 -125 -29 -138 -41 -277 -80 -411 -116
-52 -13 -108 -29 -125 -34 -16 -5 -61 -18 -100 -29 -38 -11 -101 -29 -140 -40
-38 -11 -101 -29 -140 -40 -38 -11 -101 -29 -140 -40 -38 -11 -89 -25 -113
-31 -36 -9 -43 -15 -40 -32 3 -20 22 -25 253 -64 138 -24 272 -46 298 -48 27
-3 53 -9 60 -13 6 -3 33 -8 60 -9 26 -1 54 -7 61 -13 6 -6 21 -8 32 -5 26 7
548 -82 573 -98 16 -10 27 -10 56 1 19 7 56 14 80 16 25 2 49 6 54 10 5 3 31
8 58 11 26 2 149 22 273 44 124 22 234 39 245 38 11 -1 30 2 43 6 12 4 41 9
65 12 23 2 62 8 86 14 24 6 49 9 55 7 6 -2 19 0 28 5 10 4 39 11 65 14 108 11
301 50 316 63 26 21 20 31 -16 31 -19 0 -37 3 -41 7 -3 4 -17 8 -29 10 -33 4
-101 25 -112 35 -5 4 -21 8 -36 8 -14 0 -39 4 -55 9 -16 5 -49 14 -74 22 -25
7 -49 15 -55 18 -5 3 -19 7 -30 8 -31 4 -99 26 -110 35 -5 4 -21 8 -36 8 -14
0 -39 4 -55 9 -16 5 -49 14 -74 22 -25 7 -49 15 -55 18 -5 3 -19 7 -30 8 -31
4 -99 26 -109 35 -6 4 -22 8 -37 8 -14 0 -39 4 -55 9 -16 5 -49 14 -74 22 -25
7 -49 15 -55 18 -5 3 -19 7 -30 8 -31 4 -99 26 -109 35 -6 4 -22 8 -37 8 -15
0 -31 5 -34 10 -3 6 -9 9 -13 9 -4 -1 -34 -5 -66 -10z"/>
<path d="M5000 5020 l0 -1262 58 6 c31 4 95 11 142 16 47 5 123 14 170 20 47
6 124 15 173 20 48 6 128 15 177 20 50 6 129 14 178 20 48 5 125 14 172 20
121 15 244 29 320 35 36 3 75 8 88 11 l22 4 -2 1092 -3 1092 -30 8 c-16 5 -73
14 -125 19 -52 5 -135 14 -185 20 -49 5 -133 14 -185 19 -52 5 -137 14 -187
20 -51 5 -133 15 -183 20 -49 6 -130 15 -180 20 -49 6 -132 15 -182 20 -51 6
-126 13 -165 17 l-73 5 0 -1262z"/>
<path d="M4695 6250 c-3 -5 -43 -10 -90 -10 -46 0 -87 -4 -90 -10 -3 -6 -48
-10 -100 -10 -52 0 -97 -4 -100 -10 -3 -5 -44 -10 -90 -10 -46 0 -87 -4 -90
-10 -3 -5 -44 -10 -90 -10 -46 0 -87 -4 -90 -10 -3 -5 -44 -10 -90 -10 -46 0
-87 -4 -90 -10 -3 -5 -48 -10 -99 -10 -50 0 -96 -4 -101 -9 -6 -5 -23 -11 -40
-13 l-30 -3 -3 -1097 -2 -1098 84 0 c47 0 88 -4 91 -10 3 -5 44 -10 90 -10 46
0 87 -4 90 -10 3 -5 44 -10 90 -10 46 0 87 -4 90 -10 3 -5 39 -10 80 -10 41 0
77 -4 80 -10 3 -5 44 -10 90 -10 46 0 87 -4 90 -10 3 -5 44 -10 90 -10 46 0
87 -4 90 -10 3 -5 43 -10 89 -10 45 0 87 -5 92 -10 6 -6 43 -10 85 -8 l74 3 0
1235 0 1235 -97 3 c-59 2 -99 -1 -103 -8z"/>
<path d="M4878 3208 c-2 -5 -21 -9 -43 -11 -22 -1 -46 -6 -53 -11 -8 -5 -37
-9 -65 -9 -29 0 -55 -4 -58 -9 -3 -4 -23 -9 -45 -11 -21 -1 -45 -6 -52 -11 -8
-5 -37 -9 -65 -9 -29 0 -55 -4 -58 -9 -3 -4 -23 -10 -45 -11 -21 -2 -46 -7
-55 -11 -9 -4 -31 -8 -50 -9 -19 -1 -40 -6 -47 -11 -8 -5 -37 -9 -65 -9 -29 0
-55 -4 -58 -9 -3 -4 -23 -9 -45 -11 -21 -1 -45 -6 -52 -11 -8 -5 -37 -9 -65
-9 -29 0 -55 -5 -58 -10 -4 -5 -28 -9 -55 -9 -27 -1 -51 -4 -54 -7 -3 -3 -22
-14 -42 -23 -21 -10 -38 -21 -38 -26 0 -29 55 -54 200 -91 85 -22 180 -47 210
-56 30 -9 71 -20 90 -25 19 -5 54 -13 78 -19 23 -6 59 -15 80 -20 20 -5 56
-14 80 -20 23 -6 59 -15 80 -20 20 -5 56 -14 80 -20 52 -14 93 -24 202 -51 97
-25 250 -42 265 -30 6 5 24 10 40 13 17 2 37 7 45 10 8 4 26 8 40 10 14 2 32
7 40 10 8 4 26 8 40 10 14 2 32 7 40 10 8 4 26 8 40 10 14 2 32 7 40 10 8 4
26 8 40 10 14 2 32 7 40 10 8 4 26 8 40 10 14 2 32 7 40 10 8 4 26 8 40 10 14
2 32 7 40 10 8 4 26 8 40 10 14 2 32 7 40 10 8 4 26 8 40 10 14 2 32 7 40 10
8 4 26 8 40 9 14 2 30 7 36 10 6 4 26 9 43 10 18 1 35 6 37 10 3 4 20 8 39 8
19 0 37 5 40 10 3 6 21 10 40 10 19 0 37 5 40 10 3 6 21 10 40 10 19 0 37 5
40 10 3 6 21 10 40 10 19 0 37 5 40 10 3 6 31 10 60 10 45 0 56 4 65 21 15 26
9 31 -37 36 -20 2 -43 9 -50 15 -7 5 -20 8 -28 4 -8 -3 -57 4 -108 14 -50 11
-110 23 -132 26 -22 3 -45 10 -52 16 -7 5 -20 7 -30 4 -10 -3 -36 -1 -58 5
-22 5 -58 12 -79 15 -22 3 -47 9 -55 13 -9 5 -21 7 -26 4 -6 -2 -54 6 -105 17
-52 11 -113 23 -135 26 -22 3 -45 10 -52 16 -7 5 -20 7 -30 4 -10 -3 -36 -1
-58 5 -22 5 -58 12 -79 15 -22 3 -47 9 -57 14 -9 5 -19 7 -22 4 -3 -3 -41 1
-84 10 -78 15 -241 18 -245 4z"/>
<path d="M3506 2949 c-3 -8 -4 -493 -3 -1079 l2 -1065 145 -75 c80 -42 264
-138 410 -214 256 -134 352 -185 545 -286 312 -164 367 -191 380 -186 13 5 15
161 13 1228 l-3 1223 -75 6 c-41 4 -95 12 -120 18 -25 7 -61 16 -80 21 -19 5
-55 14 -80 20 -25 6 -62 15 -82 20 -21 6 -57 15 -80 20 -55 14 -113 28 -160
40 -21 6 -56 15 -78 20 -22 6 -58 15 -80 20 -22 6 -57 14 -77 19 -21 5 -63 16
-93 26 -30 9 -72 21 -92 26 -216 53 -221 55 -277 114 -28 30 -51 61 -51 69 0
9 -6 16 -14 16 -8 0 -21 3 -30 6 -9 3 -18 0 -20 -7z"/>
<path d="M6445 2831 c-3 -6 -18 -11 -33 -11 -30 0 -1267 -307 -1294 -321 -17
-9 -18 -77 -18 -1214 0 -825 3 -1205 10 -1205 9 0 317 159 745 385 55 29 177
92 270 141 94 49 217 114 275 144 l105 55 2 400 c2 220 -1 677 -5 1015 l-7
615 -22 3 c-11 2 -24 -2 -28 -7z"/>
</g>
</svg>
