<?xml version="1.0" standalone="no"?>
<!DOCTYPE svg PUBLIC "-//W3C//DTD SVG 20010904//EN"
 "http://www.w3.org/TR/2001/REC-SVG-20010904/DTD/svg10.dtd">
<svg version="1.0" xmlns="http://www.w3.org/2000/svg"
 width="1008.000000pt" height="1008.000000pt" viewBox="0 0 1008.000000 1008.000000"
 preserveAspectRatio="xMidYMid meet">

<g transform="translate(0.000000,1008.000000) scale(0.100000,-0.100000)"
fill="#000000" stroke="none">
<path d="M4930 9500 c0 -5 -6 -10 -14 -10 -8 0 -17 -7 -20 -16 -3 -8 -10 -13
-15 -9 -5 3 -11 -5 -13 -17 -2 -13 -9 -22 -16 -20 -7 1 -12 -10 -12 -28 0 -20
-5 -30 -15 -30 -10 0 -15 -10 -15 -29 0 -16 -6 -31 -15 -35 -8 -3 -15 -15 -15
-26 0 -11 -4 -20 -10 -20 -5 0 -10 -9 -10 -19 0 -11 -7 -26 -15 -35 -8 -8 -15
-24 -15 -35 0 -11 -6 -24 -14 -28 -8 -4 -16 -18 -18 -31 -1 -12 -7 -22 -13
-22 -5 0 -12 -14 -15 -32 -3 -19 -11 -32 -18 -30 -7 1 -12 -10 -12 -28 0 -20
-5 -30 -15 -30 -10 0 -15 -10 -15 -31 0 -23 -4 -30 -14 -26 -11 4 -16 -3 -18
-26 -2 -18 -7 -31 -13 -29 -5 1 -12 -12 -15 -30 -3 -19 -11 -32 -18 -30 -7 1
-12 -10 -12 -28 0 -16 -4 -30 -10 -30 -5 0 -10 -9 -10 -19 0 -11 -7 -26 -15
-35 -8 -8 -15 -22 -15 -31 0 -8 -7 -18 -15 -21 -8 -4 -15 -17 -15 -30 0 -12
-6 -27 -14 -31 -8 -4 -16 -19 -18 -33 -1 -14 -7 -24 -13 -22 -5 1 -12 -12 -15
-30 -3 -19 -11 -32 -18 -31 -7 2 -12 -9 -12 -27 0 -20 -5 -30 -15 -30 -10 0
-15 -10 -15 -31 0 -24 -4 -30 -15 -25 -12 4 -15 -3 -15 -30 0 -28 -3 -35 -15
-30 -10 4 -15 -1 -15 -16 0 -26 -31 -98 -42 -98 -4 0 -8 -9 -8 -19 0 -11 -7
-26 -15 -35 -8 -8 -15 -24 -15 -36 0 -11 -7 -23 -15 -26 -8 -4 -15 -17 -15
-30 0 -14 -7 -27 -15 -30 -8 -4 -15 -14 -15 -25 0 -10 -6 -22 -14 -26 -8 -4
-16 -19 -18 -33 -2 -14 -9 -24 -16 -22 -7 1 -12 -10 -12 -28 0 -20 -5 -30 -15
-30 -10 0 -15 -10 -15 -30 0 -20 -5 -30 -15 -30 -10 0 -15 -10 -15 -30 0 -20
-5 -30 -15 -30 -10 0 -15 -10 -15 -30 0 -16 -4 -30 -10 -30 -5 0 -10 -9 -10
-20 0 -11 -7 -23 -15 -26 -8 -4 -15 -17 -15 -30 0 -14 -7 -27 -15 -30 -8 -4
-15 -17 -15 -30 0 -14 -7 -27 -15 -30 -8 -4 -15 -17 -15 -30 0 -12 -6 -27 -14
-31 -8 -4 -16 -19 -18 -33 -1 -14 -7 -23 -13 -20 -5 3 -12 -8 -15 -24 -3 -17
-9 -29 -15 -28 -5 2 -12 -12 -15 -30 -3 -19 -11 -32 -18 -30 -7 1 -12 -10 -12
-28 0 -20 -5 -30 -15 -30 -10 0 -15 -10 -15 -30 0 -16 -4 -30 -10 -30 -5 0
-10 -9 -10 -19 0 -11 -7 -26 -15 -35 -8 -8 -15 -21 -15 -30 0 -8 -6 -21 -14
-29 -8 -7 -16 -25 -18 -38 -2 -13 -9 -23 -16 -21 -7 1 -12 -10 -12 -28 0 -20
-5 -30 -15 -30 -10 0 -15 -10 -15 -30 0 -20 -5 -30 -15 -30 -9 0 -15 -9 -15
-25 0 -13 -6 -28 -14 -32 -8 -4 -16 -19 -18 -33 -2 -14 -9 -24 -16 -22 -7 1
-12 -10 -12 -28 0 -20 -5 -30 -15 -30 -9 0 -15 -9 -15 -24 0 -13 -7 -29 -15
-36 -8 -7 -15 -21 -15 -31 0 -11 -4 -19 -10 -19 -5 0 -10 -11 -10 -25 0 -14
-7 -28 -15 -31 -8 -4 -15 -17 -15 -30 0 -14 -7 -27 -15 -30 -8 -4 -15 -17 -15
-30 0 -12 -6 -27 -14 -31 -8 -4 -16 -19 -18 -33 -2 -14 -9 -24 -16 -22 -7 1
-12 -10 -12 -28 0 -20 -5 -30 -15 -30 -10 0 -15 -10 -15 -30 0 -20 -5 -30 -15
-30 -10 0 -15 -10 -15 -31 0 -23 -4 -30 -14 -26 -11 4 -16 -3 -18 -26 -2 -19
-8 -31 -15 -30 -8 2 -13 -8 -13 -27 0 -17 -4 -30 -9 -30 -5 0 -12 -11 -15 -25
-4 -14 -11 -25 -16 -25 -6 0 -10 -11 -10 -25 0 -14 -7 -28 -15 -31 -8 -4 -15
-17 -15 -30 0 -14 -7 -27 -15 -30 -8 -4 -15 -17 -15 -30 0 -12 -6 -27 -14 -31
-8 -4 -16 -19 -18 -33 -2 -14 -9 -24 -16 -23 -7 2 -12 -9 -12 -27 0 -20 -5
-30 -15 -30 -10 0 -15 -10 -15 -30 0 -20 -5 -30 -15 -30 -10 0 -15 -10 -15
-31 0 -24 -4 -30 -15 -25 -12 4 -15 -3 -15 -29 0 -19 -4 -35 -9 -35 -5 0 -12
-11 -15 -25 -4 -14 -11 -25 -16 -25 -6 0 -10 -11 -10 -25 0 -14 -7 -28 -15
-31 -8 -4 -15 -17 -15 -30 0 -14 -7 -27 -15 -30 -8 -4 -15 -15 -15 -25 0 -11
-7 -22 -15 -25 -8 -4 -15 -17 -15 -30 0 -12 -6 -27 -14 -31 -8 -4 -16 -18 -18
-31 -1 -12 -7 -22 -13 -22 -5 0 -12 -14 -15 -32 -3 -19 -11 -32 -18 -31 -7 2
-12 -9 -12 -27 0 -20 -5 -30 -15 -30 -10 0 -15 -10 -15 -30 0 -20 -5 -30 -15
-30 -10 0 -15 -10 -15 -30 0 -16 -4 -30 -10 -30 -5 0 -10 -9 -10 -19 0 -11 -7
-26 -15 -35 -8 -8 -15 -22 -15 -31 0 -8 -7 -18 -15 -21 -8 -4 -15 -17 -15 -30
0 -14 -7 -27 -15 -30 -8 -4 -15 -17 -15 -30 0 -14 -7 -27 -15 -30 -22 -9 -22
-154 0 -154 8 0 15 -9 15 -20 0 -11 7 -20 15 -20 8 0 15 -7 15 -15 0 -14 115
-15 1025 -13 993 3 1025 2 1025 -16 0 -12 -5 -16 -14 -13 -10 4 -16 -2 -18
-21 -2 -15 -9 -26 -15 -25 -8 2 -13 -8 -13 -27 0 -17 -4 -30 -10 -30 -5 0 -10
-9 -10 -19 0 -11 -7 -26 -15 -35 -8 -8 -15 -22 -15 -31 0 -8 -7 -18 -15 -21
-8 -4 -15 -17 -15 -30 0 -14 -7 -27 -15 -30 -8 -4 -15 -17 -15 -30 0 -14 -7
-27 -15 -30 -8 -4 -15 -14 -15 -25 0 -10 -6 -22 -14 -26 -8 -4 -16 -19 -18
-33 -2 -14 -9 -24 -16 -23 -7 2 -12 -9 -12 -27 0 -19 -5 -30 -14 -30 -9 0 -16
-12 -18 -27 -2 -16 -8 -27 -15 -26 -8 2 -13 -8 -13 -26 0 -17 -4 -33 -10 -36
-5 -3 -10 -15 -10 -26 0 -11 -7 -22 -15 -25 -8 -4 -15 -15 -15 -25 0 -11 -7
-22 -15 -25 -8 -4 -15 -17 -15 -30 0 -14 -7 -27 -15 -30 -8 -4 -15 -17 -15
-30 0 -15 -6 -24 -15 -24 -9 0 -15 -9 -15 -25 0 -13 -6 -28 -14 -32 -8 -4 -16
-19 -18 -33 -2 -14 -9 -24 -16 -23 -7 2 -12 -9 -12 -28 0 -23 -4 -30 -14 -26
-11 4 -16 -3 -18 -26 -2 -19 -8 -31 -15 -30 -8 2 -13 -8 -13 -26 0 -16 -6 -31
-15 -35 -8 -3 -15 -15 -15 -26 0 -11 -4 -20 -10 -20 -5 0 -10 -9 -10 -19 0
-11 -7 -26 -15 -35 -8 -8 -15 -24 -15 -36 0 -11 -7 -23 -15 -26 -8 -4 -15 -14
-15 -25 0 -10 -6 -22 -14 -26 -8 -4 -16 -19 -18 -33 -1 -14 -7 -24 -13 -22 -5
1 -12 -11 -15 -28 -3 -17 -9 -29 -15 -28 -5 2 -12 -10 -15 -27 -4 -16 -11 -29
-18 -27 -7 1 -12 -10 -12 -28 0 -20 -5 -30 -15 -30 -10 0 -15 -10 -15 -30 0
-20 -5 -30 -15 -30 -9 0 -15 -9 -15 -25 0 -14 -4 -25 -10 -25 -5 0 -10 -9 -10
-19 0 -11 -7 -26 -15 -35 -8 -8 -15 -24 -15 -36 0 -11 -7 -23 -15 -26 -8 -4
-15 -15 -15 -25 0 -11 -7 -22 -15 -25 -8 -4 -15 -17 -15 -30 0 -14 -7 -27 -15
-30 -8 -4 -15 -17 -15 -30 0 -14 -6 -24 -14 -24 -9 0 -16 -12 -18 -27 -2 -16
-8 -27 -15 -25 -8 1 -13 -9 -13 -28 0 -19 -5 -30 -14 -30 -9 0 -16 -12 -18
-27 -2 -16 -8 -27 -15 -25 -8 1 -13 -9 -13 -27 0 -16 -6 -31 -15 -35 -8 -3
-15 -17 -15 -31 0 -14 -4 -25 -10 -25 -5 0 -10 -9 -10 -20 0 -11 -7 -23 -15
-26 -8 -4 -15 -17 -15 -30 0 -14 -7 -27 -15 -30 -8 -4 -15 -17 -15 -30 0 -12
-6 -27 -14 -31 -8 -4 -15 -16 -17 -26 -2 -10 -8 -18 -14 -17 -5 0 -12 -14 -15
-32 -3 -19 -11 -32 -18 -30 -7 1 -12 -10 -12 -28 0 -20 -5 -30 -15 -30 -9 0
-15 -9 -15 -25 0 -16 -6 -25 -15 -25 -10 0 -15 -10 -15 -30 0 -20 -5 -30 -15
-30 -10 0 -15 -10 -15 -30 0 -16 -4 -30 -9 -30 -5 0 -12 -11 -15 -25 -4 -14
-11 -25 -16 -25 -6 0 -10 -9 -10 -19 0 -11 -6 -26 -14 -34 -8 -7 -16 -24 -18
-36 -1 -12 -7 -21 -13 -19 -5 1 -12 -11 -15 -28 -3 -16 -10 -28 -15 -26 -6 1
-12 -12 -15 -30 -3 -19 -11 -32 -18 -30 -7 1 -12 -10 -12 -28 0 -20 -5 -30
-15 -30 -9 0 -15 -9 -15 -25 0 -16 -6 -25 -15 -25 -10 0 -15 -10 -15 -30 0
-20 -5 -30 -15 -30 -10 0 -15 -10 -15 -30 0 -16 -4 -30 -9 -30 -5 0 -12 -11
-15 -25 -4 -14 -11 -25 -16 -25 -6 0 -10 -9 -10 -19 0 -11 -7 -26 -15 -35 -8
-8 -15 -21 -15 -30 0 -8 -6 -19 -14 -23 -8 -4 -16 -19 -18 -33 -2 -14 -9 -24
-16 -22 -7 1 -12 -10 -12 -28 0 -19 -5 -30 -14 -30 -9 0 -16 -12 -18 -27 -2
-16 -8 -27 -15 -25 -8 1 -13 -9 -13 -28 0 -20 -5 -30 -15 -30 -10 0 -15 -10
-15 -31 0 -24 -4 -30 -15 -25 -12 4 -15 -3 -15 -29 0 -24 -5 -35 -15 -35 -12
0 -15 -18 -15 -101 l0 -100 90 2 c66 1 90 5 90 15 0 7 13 15 30 19 17 4 30 13
30 21 0 8 10 14 25 14 16 0 25 6 25 15 0 8 7 15 15 15 8 0 15 7 15 15 0 8 7
15 15 15 8 0 15 7 15 15 0 8 7 15 15 15 8 0 15 7 15 15 0 8 7 15 15 15 8 0 15
7 15 15 0 8 7 15 15 15 8 0 15 7 15 15 0 8 7 15 15 15 8 0 15 7 15 15 0 8 7
15 15 15 8 0 15 5 15 10 0 6 38 49 85 96 47 47 85 90 85 95 0 5 6 9 14 9 7 0
16 9 19 21 3 12 10 18 16 14 6 -3 11 1 11 9 0 9 7 16 15 16 8 0 15 7 15 15 0
8 7 15 15 15 8 0 15 8 15 18 0 10 11 25 25 32 14 7 25 19 25 27 0 7 6 13 14
13 7 0 16 9 19 21 3 12 10 18 15 15 5 -3 12 4 15 15 3 12 10 18 16 14 6 -3 11
1 11 9 0 9 7 16 15 16 8 0 15 7 15 15 0 8 6 15 14 15 7 0 16 9 19 21 3 12 10
18 16 14 6 -3 11 1 11 9 0 9 7 16 15 16 8 0 15 5 15 10 0 6 18 28 40 50 22 22
40 45 40 50 0 6 7 10 15 10 8 0 15 7 15 15 0 8 7 15 15 15 8 0 15 7 15 15 0 8
7 15 15 15 8 0 15 7 15 15 0 8 7 15 15 15 8 0 15 7 15 15 0 8 7 15 15 15 8 0
15 7 15 15 0 8 7 15 15 15 8 0 15 5 15 10 0 6 38 48 84 95 46 46 86 91 90 100
3 9 10 13 16 10 5 -3 10 1 10 9 0 9 7 16 15 16 8 0 15 7 15 15 0 8 7 15 15 15
9 0 15 9 15 21 0 15 5 19 15 15 9 -3 15 0 15 8 0 7 18 29 40 49 22 19 40 39
40 44 0 11 37 43 50 43 6 0 10 7 10 15 0 8 6 15 14 15 7 0 16 9 19 21 3 12 10
18 16 14 6 -3 11 1 11 9 0 9 7 16 15 16 8 0 15 7 15 15 0 8 7 15 15 15 8 0 15
4 15 10 0 5 25 35 55 65 30 31 55 60 55 65 0 6 7 10 15 10 8 0 15 7 15 15 0 8
7 15 15 15 8 0 15 7 15 15 0 8 7 15 15 15 8 0 15 7 15 15 0 8 7 15 15 15 8 0
15 7 15 15 0 8 7 15 15 15 8 0 15 7 15 15 0 8 7 15 15 15 8 0 15 5 15 11 0 6
24 35 53 64 30 29 57 60 60 69 4 10 11 15 16 12 5 -3 11 4 14 15 3 12 10 18
16 14 6 -3 11 1 11 9 0 9 6 16 14 16 7 0 16 9 19 21 3 12 10 18 15 15 5 -3 12
4 15 15 3 12 10 18 16 14 6 -3 11 -1 11 5 0 6 11 21 25 34 14 13 25 27 25 32
0 12 37 44 50 44 6 0 10 7 10 15 0 8 6 15 14 15 7 0 16 9 19 21 3 12 10 18 16
14 6 -3 11 1 11 9 0 9 7 16 15 16 8 0 15 7 15 15 0 8 7 15 15 15 8 0 15 7 15
15 0 8 7 15 15 15 8 0 15 5 15 10 0 6 38 49 85 96 47 47 85 90 85 95 0 5 7 9
15 9 8 0 15 7 15 15 0 8 7 15 15 15 8 0 15 7 15 15 0 8 7 15 15 15 8 0 15 7
15 15 0 8 7 15 15 15 8 0 15 5 15 11 0 6 24 35 53 64 30 29 57 60 60 69 4 10
11 14 17 11 5 -3 10 1 10 9 0 9 7 16 15 16 8 0 15 7 15 15 0 8 6 15 14 15 7 0
16 9 19 21 3 12 10 18 16 14 6 -3 11 1 11 9 0 9 7 16 15 16 8 0 15 7 15 15 0
8 5 15 10 15 6 0 14 8 17 18 9 22 29 42 42 42 6 0 11 7 11 15 0 8 7 15 15 15
8 0 15 7 15 15 0 8 7 15 15 15 8 0 15 7 15 15 0 8 7 15 15 15 8 0 15 7 15 15
0 8 7 15 15 15 8 0 15 7 15 15 0 8 7 15 15 15 8 0 15 7 15 15 0 8 7 15 15 15
8 0 15 7 15 15 0 8 7 15 15 15 8 0 15 5 15 11 0 6 25 36 55 65 30 30 55 59 55
64 0 6 7 10 15 10 8 0 15 7 15 15 0 8 7 15 15 15 8 0 15 7 15 15 0 8 7 15 15
15 8 0 15 7 15 15 0 8 7 15 15 15 8 0 15 7 15 15 0 8 7 15 15 15 8 0 15 5 15
11 0 6 17 28 38 48 21 21 42 45 45 55 4 9 11 14 17 11 5 -3 10 1 10 9 0 9 7
16 15 16 8 0 15 7 15 15 0 8 6 15 14 15 7 0 16 9 19 21 3 12 10 18 15 15 5 -3
12 4 15 15 3 12 10 18 16 14 6 -3 11 1 11 9 0 9 7 16 15 16 8 0 15 6 15 13 0
6 12 23 25 36 14 13 25 27 25 32 0 5 7 9 15 9 8 0 15 7 15 15 0 8 7 15 15 15
8 0 15 7 15 15 0 8 7 15 15 15 8 0 15 7 15 15 0 8 7 15 15 15 8 0 15 7 15 15
0 8 7 15 15 15 8 0 15 7 15 15 0 8 7 15 15 15 8 0 15 7 15 15 0 8 7 15 15 15
8 0 15 7 15 15 0 8 7 15 15 15 8 0 15 5 15 11 0 6 25 36 55 65 30 30 55 59 55
64 0 6 5 10 10 10 13 0 50 37 50 50 0 6 7 10 15 10 8 0 15 7 15 15 0 8 7 15
15 15 8 0 15 7 15 15 0 8 7 15 15 15 8 0 15 4 15 10 0 5 14 23 30 40 17 17 30
34 30 39 0 4 11 14 25 21 14 7 25 19 25 27 0 7 6 13 14 13 7 0 16 9 19 21 3
12 10 18 15 15 5 -3 12 4 15 15 3 12 10 18 16 14 6 -3 11 1 11 9 0 9 7 16 15
16 8 0 15 7 15 15 0 8 7 15 15 15 8 0 15 7 15 15 0 17 30 35 59 35 19 0 21 6
21 74 0 56 -4 75 -15 80 -8 3 -15 11 -15 18 0 7 -18 21 -39 31 -36 16 -118 17
-1384 15 -1277 -3 -1347 -2 -1347 15 0 9 7 17 15 17 8 0 15 6 15 14 0 7 11 24
24 38 12 14 26 33 29 42 4 9 11 16 17 16 5 0 10 7 10 15 0 9 7 18 15 21 8 4
15 13 15 20 0 8 7 17 15 20 8 4 15 13 15 20 0 8 6 17 14 20 8 3 16 15 19 26 3
11 10 17 16 13 7 -4 11 4 11 20 0 20 4 26 15 21 11 -4 15 2 15 20 0 19 4 25
15 20 10 -3 15 1 15 13 0 11 4 21 8 23 4 2 18 20 31 41 12 20 27 37 32 37 5 0
9 7 9 15 0 9 7 18 15 21 8 4 15 13 15 20 0 8 7 17 15 20 8 4 15 13 15 20 0 8
6 17 14 20 8 3 16 15 19 26 3 11 10 17 16 14 5 -4 11 4 13 16 2 13 8 22 13 20
6 -2 13 7 16 20 3 13 11 22 17 20 7 -1 12 7 12 18 0 11 7 20 15 20 8 0 15 9
15 20 0 11 5 20 10 20 6 0 10 7 10 15 0 9 7 18 15 21 8 4 15 13 15 20 0 8 7
17 15 20 8 4 15 13 15 20 0 8 7 17 15 20 8 4 15 12 15 20 0 7 6 17 13 21 8 4
17 16 20 26 4 10 11 16 16 12 5 -3 11 5 13 17 2 13 9 22 16 20 6 -1 12 7 12
18 0 11 7 20 15 20 8 0 15 9 15 20 0 11 7 20 15 20 8 0 15 9 15 20 0 11 5 20
10 20 6 0 10 6 10 13 0 7 8 20 18 29 27 26 42 46 42 58 0 6 7 13 15 16 8 4 15
13 15 20 0 8 6 17 14 20 8 3 16 15 19 26 3 11 10 17 16 14 5 -4 11 4 13 16 2
13 9 22 16 20 6 -1 12 7 12 18 0 11 7 20 15 20 8 0 15 9 15 20 0 11 7 20 15
20 8 0 15 9 15 19 0 10 7 21 15 25 8 3 15 10 15 16 0 6 6 18 13 25 29 34 37
45 37 55 0 6 6 13 14 16 8 3 16 15 19 26 3 11 10 17 16 13 7 -3 11 2 11 14 0
12 6 21 14 21 8 0 16 10 18 23 2 12 9 21 16 19 6 -1 12 7 12 18 0 11 7 20 15
20 8 0 15 9 15 20 0 11 7 20 15 20 8 0 15 9 15 20 0 11 7 20 15 20 8 0 15 7
15 16 0 8 6 22 13 29 29 34 37 45 37 55 0 6 7 13 15 16 8 4 15 12 15 20 0 8 7
14 15 14 8 0 15 9 15 20 0 11 7 20 15 20 8 0 15 9 15 20 0 11 7 20 15 20 8 0
15 9 15 20 0 11 7 20 15 20 9 0 15 9 15 21 0 15 5 19 15 15 11 -4 15 1 15 19
0 16 6 25 15 25 8 0 15 7 15 16 0 8 6 22 13 29 28 32 37 45 37 53 0 4 13 19
30 32 16 14 29 33 30 43 0 9 7 17 15 17 8 0 15 9 15 20 0 11 7 20 15 20 8 0
15 7 15 15 0 9 7 18 15 21 8 4 15 15 15 25 0 10 7 19 15 19 9 0 15 9 15 21 0
15 5 19 15 15 10 -4 15 1 15 14 0 11 4 20 10 20 5 0 17 16 26 36 9 20 23 38
31 41 7 3 13 12 13 19 0 8 7 17 15 20 8 4 15 15 15 25 0 10 7 19 15 19 8 0 15
7 15 15 0 9 7 18 15 21 8 4 15 13 15 20 0 8 7 17 15 20 8 4 15 15 15 25 0 10
6 19 14 19 7 0 16 9 19 21 3 12 10 18 16 15 5 -4 11 4 13 16 2 13 9 22 16 20
6 -1 12 6 12 17 0 10 11 29 24 43 12 14 26 33 29 42 4 9 11 16 17 16 5 0 10 7
10 15 0 9 7 18 15 21 8 4 15 13 15 20 0 8 7 17 15 20 8 4 15 13 15 20 0 8 7
17 15 20 8 4 15 12 15 20 0 7 6 17 13 21 8 4 17 16 20 26 4 10 11 16 16 12 5
-3 11 5 13 17 2 13 9 22 16 20 6 -1 12 7 12 17 0 10 7 21 15 25 8 3 15 12 15
21 0 8 5 15 10 15 6 0 10 7 10 15 0 9 7 18 15 21 8 4 15 13 15 20 0 8 7 17 15
20 8 4 15 12 15 20 0 7 6 17 13 21 8 4 17 16 20 26 4 10 11 16 16 12 5 -3 11
5 13 17 2 13 8 22 13 20 6 -2 13 7 16 20 3 13 11 22 17 20 7 -1 12 7 12 18 0
11 7 20 15 20 8 0 15 9 15 20 0 11 7 20 15 20 12 0 15 16 15 85 0 69 -3 85
-15 85 -9 0 -15 9 -15 25 l0 25 -1260 0 c-833 0 -1260 -3 -1260 -10z"/>
<path d="M7338 7772 c-21 -9 -38 -22 -38 -29 0 -7 -5 -13 -10 -13 -6 0 -62
-52 -125 -117 -63 -64 -115 -112 -116 -107 0 5 -4 -1 -10 -14 -5 -13 -13 -21
-18 -18 -5 3 -11 -4 -14 -15 -3 -12 -10 -18 -16 -14 -6 3 -11 1 -11 -5 0 -6
-9 -21 -21 -33 -12 -12 -26 -34 -31 -49 -6 -16 -14 -28 -19 -28 -5 0 -9 -31
-9 -69 0 -52 4 -70 15 -75 8 -3 15 -11 15 -18 0 -7 11 -25 25 -40 14 -15 25
-32 25 -38 0 -6 5 -8 11 -5 6 4 13 -2 16 -14 3 -11 9 -18 14 -15 5 3 13 -5 18
-18 6 -13 10 -19 10 -14 1 12 191 -180 191 -193 0 -6 7 -11 15 -11 8 0 15 -7
15 -16 0 -8 5 -12 10 -9 6 3 14 -4 19 -17 6 -13 10 -19 10 -14 1 12 221 -211
221 -225 0 -5 5 -7 11 -4 6 4 13 -2 16 -14 3 -11 9 -18 14 -15 5 3 13 -5 18
-18 6 -13 10 -19 10 -14 1 12 191 -180 191 -194 0 -6 5 -8 11 -5 6 4 13 -2 16
-14 3 -11 9 -18 14 -15 5 3 13 -5 18 -18 6 -13 10 -19 10 -14 1 12 191 -180
191 -193 0 -6 7 -11 15 -11 8 0 15 -7 15 -16 0 -8 5 -12 11 -9 6 4 13 -2 16
-14 3 -11 9 -18 14 -15 5 3 13 -5 18 -18 6 -13 10 -19 10 -14 1 12 191 -180
191 -194 0 -6 5 -8 11 -5 6 4 13 -2 16 -14 3 -11 9 -18 14 -15 5 3 13 -5 18
-18 6 -13 10 -19 10 -14 1 12 191 -180 191 -193 0 -6 7 -11 15 -11 8 0 15 -7
15 -16 0 -8 5 -12 10 -9 6 3 14 -4 19 -17 6 -13 10 -19 10 -14 1 12 221 -211
221 -225 0 -5 5 -7 11 -4 6 4 13 -2 16 -14 3 -11 9 -18 14 -15 5 3 13 -5 18
-18 6 -13 10 -19 10 -14 1 15 81 -71 81 -88 0 -10 8 -16 23 -16 16 0 92 -70
267 -245 135 -135 252 -245 260 -245 9 0 95 80 191 178 215 216 234 248 234
387 0 85 -2 94 -42 178 -24 48 -47 87 -53 87 -5 0 -10 7 -10 15 0 8 -7 15 -15
15 -8 0 -15 7 -15 15 0 8 -7 15 -15 15 -8 0 -15 7 -15 15 0 8 -7 15 -15 15 -8
0 -15 7 -15 15 0 8 -7 15 -15 15 -8 0 -15 7 -15 15 0 8 -7 15 -15 15 -8 0 -15
7 -15 15 0 8 -4 14 -8 12 -11 -3 -102 88 -102 102 0 6 -7 11 -15 11 -8 0 -15
7 -15 15 0 8 -7 15 -15 15 -8 0 -15 7 -15 15 0 8 -7 15 -15 15 -8 0 -15 7 -15
16 0 8 -5 12 -10 9 -6 -3 -14 4 -19 17 -6 13 -10 19 -10 14 -1 -12 -131 120
-131 133 0 6 -7 11 -15 11 -8 0 -15 7 -15 15 0 8 -7 15 -15 15 -8 0 -15 7 -15
15 0 8 -7 15 -15 15 -8 0 -15 7 -15 15 0 8 -7 15 -15 15 -8 0 -15 7 -15 15 0
8 -4 14 -8 13 -11 -4 -162 147 -162 161 0 6 -7 11 -15 11 -8 0 -15 7 -15 15 0
8 -7 15 -15 15 -8 0 -15 7 -15 15 0 8 -7 15 -15 15 -8 0 -15 7 -15 15 0 8 -7
15 -15 15 -8 0 -15 7 -15 15 0 8 -4 14 -8 13 -11 -4 -132 117 -132 131 0 6 -7
11 -15 11 -8 0 -15 7 -15 15 0 8 -7 15 -15 15 -8 0 -15 7 -15 15 0 8 -7 15
-15 15 -8 0 -15 7 -15 15 0 8 -7 15 -15 15 -8 0 -15 7 -15 15 0 8 -4 14 -8 13
-11 -4 -162 149 -162 162 0 6 -7 10 -15 10 -8 0 -15 7 -15 15 0 8 -7 15 -15
15 -8 0 -15 7 -15 15 0 8 -7 15 -15 15 -8 0 -15 7 -15 16 0 8 -5 12 -10 9 -6
-3 -14 4 -19 17 -6 13 -10 19 -10 14 -1 -12 -131 120 -131 133 0 6 -7 11 -15
11 -8 0 -15 7 -15 15 0 8 -7 15 -15 15 -8 0 -15 7 -15 15 0 8 -7 15 -15 15 -8
0 -15 7 -15 16 0 8 -5 12 -10 9 -6 -3 -14 4 -19 17 -6 13 -10 19 -10 14 -1
-12 -131 120 -131 133 0 6 -7 11 -15 11 -8 0 -15 7 -15 15 0 8 -7 15 -15 15
-8 0 -15 7 -15 15 0 8 -7 15 -15 15 -8 0 -15 7 -15 15 0 8 -7 15 -15 15 -8 0
-15 7 -15 15 0 8 -4 14 -8 13 -11 -4 -162 147 -162 161 0 6 -7 11 -15 11 -8 0
-15 7 -15 15 0 8 -7 15 -15 15 -8 0 -15 7 -15 15 0 8 -7 15 -15 15 -8 0 -15 7
-15 15 0 8 -7 15 -15 15 -8 0 -15 7 -15 15 0 8 -3 14 -7 13 -12 -4 -53 35 -53
50 0 7 -4 11 -9 7 -6 -3 -13 1 -18 9 -11 19 -97 56 -130 55 -15 0 -45 -8 -65
-17z"/>
<path d="M2453 7723 c-7 -2 -13 -11 -13 -19 0 -8 -7 -14 -15 -14 -8 0 -15 -7
-15 -15 0 -8 -7 -15 -15 -15 -8 0 -15 -7 -15 -15 0 -8 -7 -15 -15 -15 -8 0
-15 -5 -15 -11 0 -14 -121 -135 -132 -131 -4 1 -8 -5 -8 -13 0 -8 -7 -15 -15
-15 -8 0 -15 -7 -15 -15 0 -8 -7 -15 -15 -15 -8 0 -15 -7 -15 -15 0 -8 -7 -15
-15 -15 -8 0 -15 -7 -15 -15 0 -8 -7 -15 -15 -15 -8 0 -15 -4 -15 -10 0 -12
-130 -146 -131 -134 0 5 -4 -1 -10 -14 -5 -13 -13 -20 -19 -17 -5 3 -10 -1
-10 -9 0 -9 -7 -16 -15 -16 -8 0 -15 -7 -15 -15 0 -8 -7 -15 -15 -15 -8 0 -15
-7 -15 -15 0 -8 -7 -15 -15 -15 -8 0 -15 -7 -15 -15 0 -8 -7 -15 -15 -15 -8 0
-15 -5 -15 -11 0 -14 -121 -135 -132 -132 -4 2 -8 -4 -8 -12 0 -8 -7 -15 -15
-15 -8 0 -15 -7 -15 -15 0 -8 -7 -15 -15 -15 -8 0 -15 -7 -15 -15 0 -8 -7 -15
-15 -15 -8 0 -15 -7 -15 -15 0 -8 -7 -15 -15 -15 -8 0 -15 -5 -15 -11 0 -13
-130 -145 -131 -133 0 5 -4 -1 -10 -14 -5 -13 -13 -20 -19 -17 -5 3 -10 -1
-10 -9 0 -9 -7 -16 -15 -16 -8 0 -15 -7 -15 -15 0 -8 -7 -15 -15 -15 -8 0 -15
-7 -15 -15 0 -8 -7 -15 -15 -15 -8 0 -15 -4 -15 -10 0 -12 -130 -146 -131
-134 0 5 -4 -1 -10 -14 -5 -13 -13 -20 -19 -17 -5 3 -10 -1 -10 -9 0 -9 -7
-16 -15 -16 -8 0 -15 -7 -15 -15 0 -8 -7 -15 -15 -15 -8 0 -15 -7 -15 -15 0
-8 -7 -15 -15 -15 -8 0 -15 -7 -15 -15 0 -8 -7 -15 -15 -15 -8 0 -15 -5 -15
-11 0 -14 -121 -135 -132 -131 -4 1 -8 -5 -8 -13 0 -8 -7 -15 -15 -15 -8 0
-15 -7 -15 -15 0 -8 -7 -15 -15 -15 -8 0 -15 -7 -15 -15 0 -8 -7 -15 -15 -15
-8 0 -15 -7 -15 -15 0 -8 -7 -15 -15 -15 -8 0 -15 -4 -15 -10 0 -12 -130 -146
-131 -134 0 5 -4 -1 -10 -14 -5 -13 -13 -20 -19 -17 -5 3 -10 -1 -10 -9 0 -9
-7 -16 -15 -16 -8 0 -15 -7 -15 -15 0 -8 -7 -15 -15 -15 -8 0 -15 -7 -15 -15
0 -8 -7 -15 -15 -15 -8 0 -15 -7 -15 -15 0 -8 -7 -15 -15 -15 -8 0 -15 -5 -15
-11 0 -14 -85 -99 -99 -99 -6 0 -11 -7 -11 -15 0 -8 -7 -15 -15 -15 -8 0 -15
-7 -15 -15 0 -8 -7 -15 -15 -15 -8 0 -15 -7 -15 -15 0 -8 -7 -15 -15 -15 -8 0
-15 -7 -15 -15 0 -8 -7 -15 -15 -15 -8 0 -15 -7 -15 -15 0 -8 -7 -15 -15 -15
-8 0 -15 -5 -15 -11 0 -6 -25 -36 -55 -65 -30 -30 -55 -59 -55 -64 0 -5 -6
-13 -14 -17 -8 -4 -16 -17 -18 -28 -2 -11 -10 -19 -16 -18 -9 2 -12 -36 -12
-148 0 -145 1 -152 27 -197 31 -55 360 -392 383 -392 8 0 125 110 260 245 135
135 250 245 257 245 6 0 15 9 18 20 3 11 10 20 15 20 5 0 43 34 85 76 41 42
75 73 76 68 0 -5 4 1 10 14 5 13 13 21 18 18 5 -3 11 4 14 15 3 12 10 18 16
14 6 -3 11 -1 11 5 0 14 220 236 221 224 0 -5 4 1 10 14 5 13 13 21 18 18 5
-3 11 4 14 15 3 12 10 18 16 14 6 -3 11 -1 11 5 0 14 190 206 191 194 0 -5 4
1 10 14 5 13 13 21 18 18 5 -3 11 4 14 15 3 12 10 18 16 14 6 -3 11 -1 11 4 0
13 190 207 191 195 0 -5 4 1 10 14 5 13 13 21 18 18 5 -3 11 4 14 15 3 12 10
18 15 15 5 -3 12 4 15 15 3 12 10 18 16 14 6 -3 11 -1 11 5 0 14 190 206 191
194 0 -5 4 1 10 14 5 13 13 21 18 18 5 -3 11 4 14 15 3 12 10 18 16 14 6 -3
11 -1 11 5 0 14 190 206 191 194 0 -5 4 1 10 14 5 13 13 21 18 18 5 -3 11 4
14 15 3 12 10 18 16 14 6 -3 11 -1 11 5 0 14 220 236 221 224 0 -5 4 1 10 14
5 13 13 21 18 18 5 -3 11 4 14 15 3 12 10 18 16 14 6 -3 11 -1 11 5 0 7 38 50
85 96 47 47 85 91 85 99 0 8 7 15 15 15 12 0 15 17 15 90 0 73 -3 90 -15 90
-8 0 -15 7 -15 15 0 8 -38 52 -85 99 -47 46 -85 89 -85 95 0 6 -7 11 -15 11
-8 0 -15 7 -15 15 0 8 -7 15 -15 15 -8 0 -15 7 -15 15 0 8 -7 15 -15 15 -8 0
-15 7 -15 16 0 8 -5 12 -11 9 -6 -4 -13 2 -16 14 -3 11 -10 18 -15 15 -5 -3
-12 3 -15 15 -3 11 -9 18 -14 15 -5 -3 -12 1 -15 10 -3 8 -19 19 -35 25 -16 5
-29 15 -29 20 0 11 -133 14 -157 4z"/>
<path d="M1015 4930 c-10 -11 -23 -20 -29 -20 -6 0 -121 -110 -256 -245 -175
-175 -251 -245 -267 -245 -13 0 -23 -4 -23 -10 0 -5 7 -10 15 -10 8 0 15 -7
15 -15 0 -8 7 -15 15 -15 8 0 15 -7 15 -15 0 -8 7 -15 15 -15 8 0 15 -7 15
-16 0 -8 5 -12 10 -9 6 3 14 -4 19 -17 6 -13 10 -19 10 -14 1 12 161 -152 161
-164 0 -6 7 -10 15 -10 8 0 15 -7 15 -15 0 -8 7 -15 15 -15 8 0 15 -7 15 -15
0 -8 7 -15 15 -15 8 0 15 -7 15 -15 0 -8 4 -14 8 -12 11 3 162 -148 162 -162
0 -6 7 -11 15 -11 8 0 15 -7 15 -15 0 -8 7 -15 15 -15 8 0 15 -7 15 -15 0 -8
7 -15 15 -15 8 0 15 -7 15 -16 0 -8 5 -12 10 -9 6 3 14 -4 19 -17 6 -13 10
-19 10 -14 1 12 131 -120 131 -133 0 -6 7 -11 15 -11 8 0 15 -7 15 -15 0 -8 7
-15 15 -15 8 0 15 -7 15 -15 0 -8 7 -15 15 -15 8 0 15 -7 15 -16 0 -8 5 -12
10 -9 6 3 14 -4 19 -17 6 -13 10 -19 10 -14 1 12 161 -150 161 -163 0 -6 7
-11 15 -11 8 0 15 -7 15 -15 0 -8 7 -15 15 -15 8 0 15 -7 15 -15 0 -8 7 -15
15 -15 8 0 15 -7 15 -15 0 -8 4 -14 8 -13 11 4 162 -147 162 -161 0 -6 7 -11
15 -11 8 0 15 -7 15 -15 0 -8 7 -15 15 -15 8 0 15 -7 15 -15 0 -8 7 -15 15
-15 8 0 15 -7 15 -16 0 -8 5 -12 10 -9 6 3 14 -4 19 -17 6 -13 10 -19 10 -14
1 12 161 -152 161 -164 0 -6 7 -10 15 -10 8 0 15 -7 15 -15 0 -8 7 -15 15 -15
8 0 15 -7 15 -15 0 -8 7 -15 15 -15 8 0 15 -7 15 -15 0 -8 4 -14 8 -13 11 4
162 -147 162 -161 0 -6 7 -11 15 -11 8 0 15 -7 15 -15 0 -8 7 -15 15 -15 8 0
15 -7 15 -15 0 -8 7 -15 15 -15 8 0 15 -7 15 -15 0 -8 5 -15 11 -15 6 0 24
-13 41 -30 28 -28 34 -30 111 -30 79 0 83 1 107 30 14 17 30 30 37 30 7 0 13
7 13 15 0 8 7 15 15 15 8 0 15 7 15 15 0 8 7 15 15 15 8 0 15 7 15 15 0 8 7
15 15 15 8 0 15 4 15 10 0 13 57 70 70 70 5 0 10 7 10 15 0 8 7 15 15 15 8 0
15 7 15 15 0 8 7 15 15 15 8 0 15 7 15 15 0 8 7 15 15 15 8 0 15 7 15 15 0 8
7 15 15 15 8 0 15 7 15 15 0 8 7 15 15 15 9 0 15 10 15 26 0 19 4 25 15 20 12
-4 15 3 15 29 0 23 -4 34 -12 33 -9 -2 -14 13 -16 45 -2 33 -7 47 -18 47 -7 0
-14 7 -14 15 0 8 -7 15 -15 15 -8 0 -15 7 -15 15 0 8 -7 15 -15 15 -8 0 -15 7
-15 15 0 8 -7 15 -15 15 -8 0 -15 7 -15 15 0 8 -7 15 -15 15 -8 0 -15 7 -15
15 0 8 -4 15 -10 15 -13 0 -70 57 -70 70 0 5 -7 10 -15 10 -8 0 -15 7 -15 15
0 8 -7 15 -15 15 -8 0 -15 7 -15 15 0 8 -7 15 -15 15 -8 0 -15 7 -15 15 0 8
-7 15 -15 15 -8 0 -15 7 -15 15 0 8 -7 15 -15 15 -8 0 -15 7 -15 15 0 8 -7 15
-15 15 -8 0 -15 7 -15 15 0 8 -7 15 -15 15 -8 0 -15 7 -15 15 0 8 -5 15 -11
15 -6 0 -17 6 -25 14 -8 8 -14 19 -14 25 0 6 -7 11 -15 11 -8 0 -15 7 -15 15
0 8 -7 15 -15 15 -8 0 -15 7 -15 15 0 8 -7 15 -15 15 -8 0 -15 7 -15 15 0 8
-7 15 -15 15 -8 0 -15 7 -15 15 0 8 -7 15 -15 15 -8 0 -15 7 -15 15 0 8 -7 15
-15 15 -8 0 -15 7 -15 15 0 8 -7 15 -15 15 -8 0 -15 7 -15 15 0 8 -4 15 -9 15
-12 0 -71 59 -71 71 0 5 -7 9 -15 9 -8 0 -15 7 -15 15 0 8 -7 15 -15 15 -8 0
-15 7 -15 15 0 8 -7 15 -15 15 -8 0 -15 7 -15 15 0 8 -7 15 -15 15 -8 0 -15 7
-15 15 0 8 -7 15 -15 15 -8 0 -15 7 -15 15 0 8 -7 15 -15 15 -8 0 -15 7 -15
15 0 8 -4 15 -10 15 -13 0 -70 57 -70 70 0 5 -7 10 -15 10 -8 0 -15 7 -15 15
0 8 -7 15 -15 15 -8 0 -15 7 -15 15 0 8 -7 15 -15 15 -8 0 -15 7 -15 15 0 8
-7 15 -15 15 -8 0 -15 7 -15 15 0 8 -7 15 -15 15 -8 0 -15 7 -15 15 0 8 -7 15
-15 15 -8 0 -15 7 -15 15 0 8 -7 15 -15 15 -8 0 -15 7 -15 15 0 8 -5 15 -11
15 -14 0 -39 25 -39 39 0 6 -7 11 -15 11 -8 0 -15 7 -15 15 0 8 -7 15 -15 15
-8 0 -15 7 -15 15 0 8 -7 15 -15 15 -8 0 -15 7 -15 15 0 8 -7 15 -15 15 -8 0
-15 7 -15 15 0 8 -7 15 -15 15 -8 0 -15 7 -15 15 0 8 -7 15 -15 15 -8 0 -15 7
-15 15 0 8 -7 15 -15 15 -8 0 -15 7 -15 15 0 8 -4 15 -10 15 -13 0 -70 57 -70
70 0 5 -7 10 -15 10 -8 0 -15 7 -15 15 0 8 -7 15 -15 15 -8 0 -15 7 -15 15 0
8 -7 15 -15 15 -8 0 -15 7 -15 15 0 8 -7 15 -15 15 -8 0 -15 7 -15 15 0 8 -7
15 -15 15 -8 0 -15 7 -15 15 0 8 -7 15 -15 15 -8 0 -15 7 -15 15 0 8 -7 15
-15 15 -8 0 -15 7 -15 15 0 8 -5 15 -11 15 -14 0 -39 25 -39 39 0 6 -7 11 -15
11 -8 0 -15 7 -15 15 0 8 -7 15 -15 15 -8 0 -15 7 -15 15 0 8 -7 15 -15 15 -8
0 -15 7 -15 15 0 8 -7 15 -15 15 -8 0 -15 7 -15 15 0 8 -7 15 -15 15 -8 0 -15
7 -15 15 0 8 -7 15 -15 15 -8 0 -15 7 -15 15 0 21 -13 19 -35 -5z"/>
<path d="M8947 4930 c-3 -12 -10 -19 -16 -15 -6 3 -11 -1 -11 -9 0 -9 -7 -16
-15 -16 -8 0 -15 -4 -15 -10 0 -13 -190 -206 -191 -194 0 5 -4 -1 -10 -14 -5
-13 -13 -20 -19 -17 -5 3 -10 -1 -10 -9 0 -9 -7 -16 -15 -16 -8 0 -15 -7 -15
-15 0 -8 -7 -15 -15 -15 -8 0 -15 -5 -15 -11 0 -13 -190 -205 -191 -193 0 5
-4 -1 -10 -14 -5 -13 -13 -20 -19 -17 -5 3 -10 -1 -10 -9 0 -9 -7 -16 -15 -16
-8 0 -15 -4 -15 -10 0 -13 -190 -206 -191 -194 0 5 -4 -1 -10 -14 -5 -13 -13
-20 -19 -17 -5 3 -10 -1 -10 -9 0 -9 -7 -16 -15 -16 -8 0 -15 -7 -15 -15 0 -8
-7 -15 -15 -15 -8 0 -15 -5 -15 -11 0 -13 -160 -175 -161 -163 0 5 -4 -1 -10
-14 -5 -13 -13 -20 -19 -17 -5 3 -10 -1 -10 -9 0 -9 -7 -16 -15 -16 -8 0 -15
-7 -15 -15 0 -8 -7 -15 -15 -15 -8 0 -15 -5 -15 -11 0 -13 -190 -205 -191
-193 0 5 -4 -1 -10 -14 -5 -13 -13 -20 -19 -17 -5 3 -10 -1 -10 -9 0 -9 -7
-16 -15 -16 -8 0 -15 -4 -15 -10 0 -13 -190 -206 -191 -194 0 5 -4 -1 -10 -14
-5 -13 -13 -20 -19 -17 -5 3 -10 -1 -10 -9 0 -9 -7 -16 -15 -16 -8 0 -15 -7
-15 -15 0 -8 -7 -15 -15 -15 -8 0 -15 -5 -15 -11 0 -13 -190 -205 -191 -193 0
5 -4 -1 -10 -14 -5 -13 -13 -20 -19 -17 -5 3 -10 -1 -10 -9 0 -9 -7 -16 -15
-16 -8 0 -15 -6 -15 -14 0 -8 -7 -16 -15 -20 -8 -3 -15 -12 -15 -21 0 -8 -4
-15 -9 -15 -5 0 -12 -11 -15 -25 -4 -14 -11 -25 -16 -25 -6 0 -10 -31 -10 -70
0 -38 4 -70 9 -70 5 0 13 -10 17 -22 4 -13 17 -33 30 -45 13 -12 24 -27 24
-33 0 -5 7 -10 15 -10 8 0 15 -7 15 -15 0 -8 7 -15 15 -15 8 0 15 -7 15 -15 0
-8 7 -15 15 -15 8 0 15 -7 15 -15 0 -8 4 -14 8 -13 11 4 162 -147 162 -161 0
-6 7 -11 15 -11 8 0 15 -7 15 -15 0 -8 7 -15 15 -15 8 0 15 -4 15 -8 0 -18 79
-35 133 -29 57 6 71 14 158 101 27 27 49 45 50 40 0 -5 4 1 10 14 5 13 13 20
19 17 5 -3 10 1 10 9 0 9 7 16 15 16 8 0 15 7 15 15 0 8 7 15 15 15 8 0 15 5
15 11 0 13 160 175 161 163 0 -5 4 1 10 14 5 13 13 21 18 18 5 -3 11 4 14 15
3 12 10 18 16 14 6 -3 11 1 11 9 0 9 7 16 15 16 8 0 15 4 15 10 0 12 160 176
161 164 0 -5 4 1 10 14 5 13 13 21 18 18 5 -3 11 4 14 15 3 12 10 18 16 14 6
-3 11 1 11 9 0 9 7 16 15 16 8 0 15 7 15 15 0 8 7 15 15 15 8 0 15 5 15 11 0
13 160 175 161 163 0 -5 4 1 10 14 5 13 13 20 19 17 5 -3 10 1 10 9 0 9 7 16
15 16 8 0 15 7 15 15 0 8 7 15 15 15 8 0 15 4 15 10 0 12 160 176 161 164 0
-5 4 1 10 14 5 13 13 21 18 18 5 -3 11 4 14 15 3 12 10 18 16 14 6 -3 11 1 11
9 0 9 7 16 15 16 8 0 15 7 15 15 0 8 7 15 15 15 8 0 15 5 15 11 0 13 160 175
161 163 0 -5 4 1 10 14 5 13 13 20 19 17 5 -3 10 1 10 9 0 9 7 16 15 16 8 0
15 7 15 15 0 8 7 15 15 15 8 0 15 5 15 11 0 13 160 175 161 163 0 -5 4 1 10
14 5 13 13 21 18 18 5 -3 11 4 14 15 3 12 10 18 16 14 6 -3 11 1 11 9 0 9 7
16 15 16 8 0 15 4 15 10 0 12 160 176 161 164 0 -5 4 1 10 14 5 13 13 21 18
18 5 -3 11 4 14 15 3 12 10 18 16 14 6 -3 11 1 11 9 0 9 7 16 15 16 8 0 15 7
15 15 0 11 -12 15 -48 15 l-47 0 -245 245 c-152 152 -252 245 -264 245 -11 0
-30 9 -42 21 l-21 20 -6 -21z"/>
</g>
</svg>
