<?xml version="1.0" standalone="no"?>
<!DOCTYPE svg PUBLIC "-//W3C//DTD SVG 20010904//EN"
 "http://www.w3.org/TR/2001/REC-SVG-20010904/DTD/svg10.dtd">
<svg version="1.0" xmlns="http://www.w3.org/2000/svg"
 width="1008.000000pt" height="1008.000000pt" viewBox="0 0 1008.000000 1008.000000"
 preserveAspectRatio="xMidYMid meet">

<g transform="translate(0.000000,1008.000000) scale(0.100000,-0.100000)"
fill="#000000" stroke="none">
<path d="M1620 10071 c0 -19 -82 -41 -158 -41 -48 -1 -86 -6 -102 -15 -14 -8
-52 -14 -88 -15 -42 0 -74 -6 -99 -20 -21 -11 -57 -20 -81 -20 -29 0 -53 -7
-69 -20 -18 -14 -41 -20 -73 -20 -30 0 -52 -6 -60 -15 -7 -8 -28 -15 -48 -15
-19 0 -43 -7 -53 -16 -10 -9 -36 -18 -58 -21 -22 -3 -46 -12 -52 -19 -6 -8
-26 -14 -44 -14 -18 0 -38 -7 -45 -15 -7 -8 -22 -15 -35 -15 -12 0 -32 -9 -45
-20 -13 -11 -31 -20 -40 -20 -10 0 -23 -7 -30 -15 -7 -8 -20 -15 -30 -15 -9 0
-25 -9 -34 -19 -10 -11 -28 -22 -42 -25 -13 -4 -24 -11 -24 -16 0 -6 -10 -15
-22 -20 -68 -29 -238 -188 -238 -221 0 -11 -10 -21 -25 -25 l-25 -6 0 -144 c0
-131 2 -146 20 -164 11 -11 20 -27 20 -35 0 -19 59 -114 99 -158 74 -83 82
-91 76 -77 -4 8 6 2 20 -15 15 -16 24 -23 20 -15 -3 8 5 2 19 -15 14 -16 26
-27 26 -22 0 4 9 -2 20 -13 11 -11 27 -20 35 -20 8 0 15 -4 15 -9 0 -5 11 -12
25 -15 14 -4 25 -11 25 -17 0 -6 5 -7 10 -4 6 3 13 -1 16 -9 3 -9 10 -14 14
-11 5 3 11 1 15 -5 4 -6 11 -8 16 -5 5 4 12 -1 15 -9 3 -9 10 -14 14 -11 5 3
11 1 15 -5 4 -6 11 -8 16 -5 5 4 9 1 9 -5 0 -6 4 -8 10 -5 6 3 10 1 10 -5 0
-6 4 -9 9 -5 5 3 12 1 16 -4 3 -6 12 -8 19 -5 7 3 19 -2 26 -10 7 -9 16 -13
21 -10 5 3 9 0 9 -6 0 -7 7 -10 15 -7 8 4 17 2 20 -4 4 -5 10 -7 15 -4 5 3 14
0 22 -7 15 -15 31 -20 70 -23 14 -1 38 -9 53 -19 14 -9 30 -14 36 -11 5 4 30
-3 54 -15 24 -12 49 -19 54 -16 5 4 12 2 16 -4 3 -5 18 -10 33 -10 15 -1 38
-7 52 -15 14 -8 42 -14 62 -15 21 0 55 -6 75 -14 21 -8 67 -17 103 -20 36 -3
83 -12 105 -20 22 -8 72 -15 110 -16 39 0 92 -7 119 -15 29 -9 89 -15 145 -15
53 0 137 -7 186 -15 69 -11 185 -15 495 -15 310 0 426 4 495 15 50 8 136 15
191 15 65 0 117 5 144 15 23 8 73 15 110 15 40 0 93 8 130 20 34 11 86 20 114
20 28 1 62 7 76 15 14 8 44 14 68 15 24 0 57 8 75 17 18 9 44 16 59 14 14 -1
29 2 32 8 4 6 13 8 21 4 8 -3 15 -1 15 4 0 11 59 33 91 33 13 0 33 7 43 15 11
8 32 15 46 15 14 0 35 7 46 15 10 8 26 15 34 15 8 0 33 9 55 20 22 11 47 19
56 20 25 0 200 93 297 157 121 80 238 200 280 285 17 37 32 74 32 82 0 8 10
22 22 30 20 14 21 20 14 101 -3 47 -11 91 -16 98 -6 7 -24 33 -40 58 -17 26
-65 79 -108 118 -97 91 -104 96 -122 104 -8 4 -28 16 -45 27 -16 11 -44 27
-61 35 -17 8 -34 21 -37 30 -4 8 -17 15 -30 15 -14 0 -30 7 -37 15 -7 8 -20
15 -30 15 -9 0 -29 9 -43 20 -14 11 -36 20 -50 20 -14 0 -32 7 -41 15 -8 8
-28 15 -44 15 -16 0 -35 7 -42 15 -7 8 -24 15 -39 15 -14 0 -39 9 -56 20 -16
11 -46 20 -66 20 -20 0 -42 7 -49 15 -8 9 -30 15 -60 15 -32 0 -55 6 -73 20
-16 13 -41 20 -69 20 -23 0 -63 9 -87 20 -26 12 -65 20 -100 20 -31 1 -67 7
-81 15 -15 9 -53 14 -96 15 -70 0 -164 24 -164 41 0 5 -361 9 -880 9 -509 0
-880 -4 -880 -9z m1280 -277 c136 -5 343 -26 485 -49 50 -8 113 -18 140 -21
28 -3 64 -12 80 -18 38 -16 203 -56 230 -56 11 0 33 -7 49 -15 16 -9 46 -20
65 -24 54 -14 98 -30 181 -69 124 -58 152 -73 163 -90 5 -7 12 -10 18 -7 5 4
9 1 9 -5 0 -6 18 -29 40 -50 22 -21 40 -43 40 -49 0 -6 5 -11 10 -11 18 0 37
-59 33 -101 -5 -47 -29 -109 -43 -109 -6 0 -9 -4 -8 -8 3 -10 -71 -82 -84 -82
-5 0 -11 -7 -14 -15 -4 -8 -12 -15 -20 -15 -8 0 -14 -4 -14 -8 0 -4 -12 -13
-27 -20 -35 -16 -93 -48 -114 -63 -10 -7 -21 -12 -25 -11 -5 0 -23 -10 -41
-24 -17 -13 -38 -24 -45 -24 -7 0 -38 -9 -67 -20 -30 -11 -58 -17 -62 -14 -5
3 -15 2 -21 -3 -7 -4 -17 -8 -23 -9 -5 -1 -58 -13 -116 -28 -59 -14 -118 -26
-131 -26 -14 0 -28 -3 -32 -7 -4 -5 -11 -8 -14 -9 -64 -5 -220 -32 -242 -41
-8 -4 -69 -12 -135 -20 -66 -7 -145 -16 -175 -20 -69 -9 -889 -9 -950 0 -25 4
-97 12 -160 18 -63 6 -122 14 -130 17 -8 3 -19 4 -23 3 -4 0 -16 3 -26 8 -10
6 -40 12 -67 14 -46 4 -103 15 -279 54 -38 9 -77 17 -85 18 -14 2 -41 9 -205
58 -38 12 -76 27 -83 34 -7 7 -18 14 -23 14 -19 3 -25 6 -74 32 -92 51 -109
62 -140 89 -16 16 -35 28 -41 28 -7 0 -34 32 -60 72 -46 68 -49 75 -48 133 1
46 7 69 26 95 36 52 81 100 93 100 7 0 22 11 35 25 13 14 29 25 37 25 7 0 13
4 13 10 0 5 12 13 28 16 15 4 56 20 92 36 90 41 228 89 270 94 19 3 54 11 78
19 23 8 61 18 85 21 23 4 47 10 52 14 15 12 47 18 225 44 206 31 382 46 587
52 114 4 210 9 213 11 5 5 146 1 470 -13z"/>
<path d="M2475 9700 c-3 -6 -51 -10 -108 -10 -128 -1 -387 -16 -486 -30 -42
-5 -110 -14 -151 -19 -319 -40 -624 -123 -814 -220 -114 -58 -191 -122 -202
-168 -14 -54 58 -139 161 -191 73 -37 214 -102 222 -102 4 0 26 -9 50 -21 40
-19 45 -20 74 -5 18 9 40 16 49 16 9 0 52 9 96 19 330 79 614 111 1044 118
517 8 886 -26 1274 -118 44 -10 90 -19 102 -19 13 0 26 -4 29 -10 9 -15 58
-12 81 5 10 8 25 15 33 15 23 0 263 121 313 157 28 20 55 51 68 79 l22 45 -26
39 c-30 45 -106 98 -226 156 -109 53 -159 70 -340 117 -184 48 -314 72 -585
107 -115 15 -351 29 -482 30 -57 0 -105 4 -108 10 -3 6 -24 10 -45 10 -21 0
-42 -4 -45 -10z"/>
<path d="M2230 8984 c-192 -15 -307 -28 -315 -34 -5 -4 -37 -10 -70 -13 -75
-8 -213 -31 -330 -55 -82 -17 -87 -19 -55 -26 19 -4 64 -13 100 -20 316 -66
894 -101 1265 -77 280 19 491 44 645 77 36 7 85 17 110 21 l45 7 -40 8 c-22 4
-71 14 -110 22 -97 21 -264 46 -301 46 -17 0 -34 3 -38 8 -17 17 -233 31 -536
36 -179 2 -345 2 -370 0z"/>
<path d="M4971 8788 c-87 -91 -201 -177 -296 -225 -89 -45 -196 -93 -208 -93
-6 0 -23 -9 -37 -20 -14 -11 -33 -20 -43 -20 -9 0 -34 -9 -54 -20 -21 -11 -47
-20 -58 -20 -11 0 -29 -7 -39 -15 -11 -8 -36 -15 -55 -15 -20 -1 -47 -7 -61
-15 -14 -8 -39 -14 -56 -15 -18 0 -51 -9 -75 -20 -24 -11 -64 -20 -89 -20 -25
0 -56 -7 -70 -15 -14 -8 -51 -14 -83 -15 -32 0 -70 -6 -85 -14 -15 -7 -70 -16
-122 -19 -87 -5 -136 -15 -182 -38 -10 -5 -68 -9 -130 -9 -62 0 -145 -7 -183
-15 -56 -12 -159 -15 -520 -14 -274 0 -470 4 -500 11 -27 5 -111 12 -185 14
-74 3 -144 9 -155 13 -50 23 -96 32 -175 38 -47 3 -104 11 -128 19 -23 8 -63
14 -88 14 -24 0 -61 7 -81 15 -19 8 -51 15 -69 15 -19 0 -60 9 -91 20 -32 11
-68 20 -81 20 -13 0 -33 5 -45 12 -12 6 -40 15 -62 19 -44 8 -122 33 -172 55
-17 8 -37 14 -45 14 -7 0 -24 9 -38 20 -14 11 -31 20 -37 20 -12 0 -121 49
-208 93 -87 44 -184 116 -272 201 l-93 89 0 -4347 0 -4347 30 -26 c16 -13 30
-31 30 -39 0 -8 6 -14 13 -14 8 0 33 -18 57 -40 l43 -40 4867 0 4867 0 43 40
c24 22 49 40 57 40 7 0 13 6 13 14 0 8 14 26 30 39 l30 26 0 3205 c0 2717 -2
3206 -14 3206 -7 0 -19 7 -26 15 -8 9 -29 15 -55 15 l-43 0 -1181 -1181 -1181
-1180 0 1160 c0 966 -2 1161 -13 1161 -8 0 -22 9 -32 20 -24 27 -88 27 -123 0
-15 -12 -549 -543 -1187 -1180 l-1160 -1160 3 1783 c1 980 1 2025 0 2322 l-3
540 -94 -97z m-1011 -6125 c20 -12 44 -37 55 -55 19 -32 20 -56 23 -558 2
-289 0 -544 -3 -567 -8 -53 -42 -95 -99 -123 -43 -20 -54 -21 -571 -20 -587 0
-574 -1 -640 69 l-30 32 -3 562 c-3 633 -6 603 74 659 l39 27 545 3 c300 2
552 1 560 -1 8 -3 31 -15 50 -28z m2322 5 c15 -10 39 -34 55 -55 l28 -36 3
-541 c3 -585 2 -594 -51 -644 -56 -52 -57 -52 -628 -52 -573 1 -558 -1 -617
54 -52 47 -52 49 -52 622 0 352 4 542 11 561 14 39 57 82 99 102 32 14 92 15
581 11 494 -5 547 -7 571 -22z m2350 -10 c70 -53 69 -48 66 -658 -3 -625 1
-593 -91 -636 l-52 -24 -531 0 c-513 0 -532 1 -572 20 -23 11 -56 39 -72 62
l-30 41 0 550 c0 545 0 550 22 588 21 39 78 84 113 90 10 2 264 2 565 -1 l547
-5 35 -27z"/>
</g>
</svg>
