<?xml version="1.0" standalone="no"?>
<!DOCTYPE svg PUBLIC "-//W3C//DTD SVG 20010904//EN"
 "http://www.w3.org/TR/2001/REC-SVG-20010904/DTD/svg10.dtd">
<svg version="1.0" xmlns="http://www.w3.org/2000/svg"
 width="1008.000000pt" height="1008.000000pt" viewBox="0 0 1008.000000 1008.000000"
 preserveAspectRatio="xMidYMid meet">

<g transform="translate(0.000000,1008.000000) scale(0.100000,-0.100000)"
fill="#000000" stroke="none">
<path d="M4970 10041 c-112 -66 -212 -123 -287 -162 -39 -21 -88 -50 -108 -63
-21 -14 -60 -37 -89 -51 -28 -14 -87 -48 -131 -75 -44 -27 -100 -59 -125 -71
-25 -12 -79 -44 -122 -70 -42 -26 -91 -54 -110 -62 -18 -8 -67 -35 -108 -61
-41 -25 -77 -46 -81 -46 -4 0 -58 -32 -121 -70 -62 -39 -133 -80 -158 -92 -25
-11 -76 -40 -115 -63 -38 -23 -95 -55 -125 -70 -30 -15 -62 -33 -70 -40 -8 -8
-44 -29 -80 -48 -36 -19 -103 -58 -150 -86 -47 -28 -110 -63 -140 -79 -30 -16
-89 -50 -130 -75 -41 -26 -79 -47 -85 -47 -6 0 -35 -16 -65 -36 -30 -20 -89
-54 -130 -76 -41 -21 -104 -57 -140 -78 -36 -22 -71 -40 -77 -40 -7 0 -13 -4
-13 -10 0 -5 -30 -24 -67 -43 -38 -19 -94 -50 -125 -70 -31 -21 -61 -37 -66
-37 -4 0 -30 -14 -58 -32 -27 -17 -74 -44 -104 -60 -30 -16 -100 -56 -155 -89
-55 -32 -104 -58 -109 -58 -5 0 -12 -4 -15 -9 -3 -5 -37 -27 -76 -47 -38 -21
-77 -43 -85 -50 -8 -7 -37 -24 -65 -37 -27 -13 -88 -46 -135 -74 -47 -27 -97
-56 -112 -64 -14 -8 -64 -37 -110 -64 -46 -27 -117 -68 -158 -91 -198 -111
-213 -127 -147 -153 18 -7 41 -18 52 -25 11 -6 38 -20 60 -31 22 -12 61 -36
87 -54 26 -17 51 -32 57 -32 12 0 80 -37 101 -55 22 -19 89 -55 102 -55 6 0
26 -12 45 -26 29 -22 79 -51 176 -101 15 -8 27 -19 27 -24 0 -5 7 -9 15 -9 16
0 73 -30 120 -64 37 -26 74 -46 87 -46 5 0 30 -15 56 -32 26 -18 49 -33 52
-33 3 0 12 -5 20 -10 27 -18 74 -44 115 -65 43 -22 58 -31 122 -72 23 -16 48
-28 56 -28 8 0 20 -7 27 -15 7 -8 17 -15 22 -15 5 0 28 -13 51 -28 23 -15 56
-34 72 -42 17 -8 44 -24 60 -35 17 -12 53 -32 80 -45 28 -14 71 -39 96 -57 26
-18 51 -33 57 -33 13 0 50 -19 87 -46 47 -34 104 -64 120 -64 8 0 15 -4 15
-10 0 -5 6 -10 14 -10 7 0 19 -6 25 -13 6 -8 41 -29 78 -48 38 -18 82 -43 98
-54 17 -12 44 -27 60 -35 17 -8 50 -28 75 -45 43 -29 132 -75 146 -75 4 0 21
-11 39 -24 39 -30 114 -75 138 -83 9 -3 17 -9 17 -14 0 -5 8 -9 19 -9 10 0 24
-7 31 -15 7 -8 17 -15 22 -15 5 0 28 -12 51 -27 68 -45 81 -53 97 -59 40 -15
69 -31 110 -59 25 -16 72 -44 105 -61 86 -45 107 -56 140 -80 41 -29 103 -64
115 -64 6 0 31 -15 57 -33 27 -19 64 -41 83 -51 19 -9 60 -31 90 -48 30 -17
73 -40 95 -52 22 -12 61 -36 87 -54 26 -17 51 -32 56 -32 13 0 50 -20 87 -46
42 -30 104 -64 116 -64 6 0 32 -15 58 -33 25 -18 60 -39 76 -47 17 -8 44 -24
61 -36 17 -13 52 -34 77 -48 l46 -26 58 31 c67 35 82 44 140 82 23 15 46 27
51 27 5 0 15 7 22 15 7 8 21 15 31 15 11 0 19 3 19 8 0 4 10 12 23 18 65 33
115 61 142 81 17 12 55 33 85 47 58 28 69 34 137 79 23 15 47 27 53 27 7 0 33
15 59 33 25 18 60 39 76 47 17 8 51 29 76 47 26 18 52 33 58 33 12 0 79 36
101 55 22 19 89 55 102 55 6 0 31 15 57 33 25 18 69 43 96 57 28 13 64 33 80
45 17 11 44 27 60 35 17 8 50 28 75 45 25 16 48 29 52 28 3 -1 12 4 18 12 7 8
19 15 27 15 8 0 33 13 56 28 23 16 49 32 57 35 8 4 31 17 50 28 19 12 53 31
75 42 22 12 54 32 70 43 41 30 103 64 116 64 6 0 32 15 58 33 25 18 60 39 76
47 17 8 51 29 76 47 26 18 51 33 56 33 15 0 94 42 145 78 26 17 52 32 59 32 6
0 32 15 58 33 25 18 62 41 81 50 19 9 53 28 75 42 22 13 56 32 75 41 19 10 54
30 77 46 23 15 46 28 51 28 5 0 15 7 22 15 7 8 19 15 27 15 8 0 33 13 56 28
23 16 49 32 57 35 8 4 33 18 55 32 22 14 56 32 75 42 19 9 43 23 53 31 9 8 17
12 17 8 0 -4 15 4 33 17 39 30 104 67 117 67 6 0 31 15 57 33 27 18 62 39 78
47 17 8 44 24 60 35 17 12 53 32 80 45 28 13 71 39 96 57 26 18 51 33 57 33 5
0 32 15 59 33 26 17 80 48 118 67 39 18 83 43 100 55 16 11 48 29 70 41 22 11
57 30 78 42 21 12 44 22 52 22 8 0 15 8 15 18 -1 19 -63 64 -162 115 -36 19
-104 58 -151 86 -47 28 -90 51 -96 51 -6 0 -11 5 -11 10 0 6 -7 10 -15 10 -8
0 -15 5 -15 10 0 6 -6 10 -13 10 -7 0 -45 20 -84 44 -40 24 -100 59 -135 76
-35 18 -70 38 -78 45 -8 7 -40 25 -70 41 -30 15 -98 54 -151 86 -53 32 -101
58 -107 58 -7 0 -12 5 -12 10 0 6 -7 10 -15 10 -8 0 -15 4 -15 8 0 4 -15 13
-32 20 -18 6 -56 27 -85 46 -29 19 -80 49 -115 66 -35 18 -70 38 -78 45 -8 7
-49 31 -90 52 -41 22 -110 61 -153 86 -43 26 -82 47 -87 47 -6 0 -10 4 -10 9
0 5 -10 13 -22 17 -13 4 -67 33 -120 65 -54 33 -100 59 -103 59 -3 0 -46 24
-95 54 -49 30 -108 64 -132 75 -24 11 -82 45 -130 75 -48 29 -90 51 -93 48 -3
-3 -5 0 -5 6 0 6 -10 14 -22 18 -13 4 -61 30 -108 59 -47 28 -108 63 -136 78
-28 14 -68 37 -89 51 -20 14 -60 37 -89 51 -28 14 -87 48 -131 75 -44 27 -107
63 -139 80 -33 17 -91 51 -131 75 -39 25 -76 45 -81 45 -5 0 -40 21 -79 45
-38 25 -97 59 -130 76 -33 16 -96 52 -140 79 -44 28 -91 55 -105 62 -14 7 -69
38 -123 70 -53 32 -100 58 -104 58 -3 0 -38 20 -77 44 -39 24 -94 55 -122 70
-29 14 -72 39 -97 56 -25 16 -46 30 -48 30 -2 0 -33 -17 -69 -39z"/>
<path d="M550 6631 c0 -475 3 -731 10 -731 5 0 55 -27 111 -60 55 -33 103 -60
106 -60 3 0 42 -22 87 -50 46 -27 91 -52 102 -56 10 -4 62 -33 114 -65 52 -31
105 -60 118 -64 12 -3 22 -11 22 -16 0 -5 4 -9 10 -9 5 0 49 -23 97 -51 48
-29 104 -60 124 -70 20 -10 74 -41 119 -69 46 -27 87 -50 92 -50 5 0 34 -16
65 -36 77 -49 224 -128 318 -170 22 -10 45 -23 50 -30 6 -6 26 -17 45 -24 19
-8 55 -27 80 -44 25 -17 72 -45 105 -62 80 -41 99 -53 174 -102 35 -23 72 -42
81 -42 10 0 23 -7 30 -15 7 -8 17 -15 22 -15 5 0 29 -13 53 -30 24 -16 47 -30
51 -30 4 0 15 -6 23 -13 9 -8 32 -20 51 -27 19 -8 53 -25 75 -39 68 -44 79
-50 120 -71 22 -11 58 -31 80 -45 22 -14 47 -28 55 -32 8 -3 34 -19 57 -35 23
-15 46 -28 51 -28 13 0 50 -20 87 -46 47 -34 104 -64 120 -64 8 0 15 -4 15 -9
0 -5 10 -13 23 -17 12 -4 40 -18 62 -33 67 -43 76 -49 215 -122 25 -13 66 -39
92 -57 26 -17 51 -32 56 -32 13 0 45 -18 121 -68 35 -23 72 -42 83 -42 10 0
18 -4 18 -10 0 -5 7 -10 15 -10 8 0 36 -15 62 -33 27 -19 64 -41 83 -51 37
-18 72 -38 80 -46 3 -3 28 -16 55 -30 28 -14 70 -39 95 -56 25 -17 61 -37 80
-44 19 -7 50 -24 68 -37 39 -29 140 -83 155 -83 6 0 18 -6 26 -14 9 -7 26 -17
39 -20 l22 -7 0 704 c0 669 -1 705 -18 720 -10 10 -22 17 -27 17 -4 0 -22 10
-39 23 -17 12 -44 29 -61 37 -16 8 -50 28 -75 45 -54 36 -89 55 -102 55 -5 0
-28 12 -51 28 -65 42 -79 50 -122 72 -22 11 -58 31 -80 45 -22 14 -47 28 -55
32 -8 3 -34 19 -57 35 -23 15 -48 28 -55 29 -7 0 -26 9 -43 20 -16 10 -37 22
-45 26 -8 3 -34 19 -57 35 -23 15 -46 28 -51 28 -5 0 -15 7 -22 15 -7 8 -19
15 -27 15 -8 0 -34 14 -58 30 -24 17 -46 30 -49 30 -3 0 -28 16 -55 35 -26 19
-53 35 -59 35 -14 0 -74 33 -116 64 -17 12 -43 27 -58 34 -68 30 -86 39 -128
68 -25 16 -67 41 -95 54 -27 14 -64 35 -81 47 -17 13 -34 23 -39 23 -4 0 -28
15 -54 33 -43 30 -60 39 -128 69 -16 7 -42 22 -59 34 -33 24 -81 53 -154 91
-25 14 -72 40 -105 59 -33 19 -68 37 -77 40 -9 3 -19 12 -22 20 -3 8 -12 14
-20 14 -18 0 -78 32 -123 67 -18 13 -33 21 -33 17 0 -3 -7 -1 -15 6 -9 7 -37
24 -63 38 -55 29 -83 44 -137 78 -22 13 -58 33 -80 44 -41 21 -52 27 -120 71
-22 14 -58 34 -80 44 -22 10 -58 30 -80 44 -22 15 -53 33 -70 41 -16 8 -43 24
-60 36 -16 12 -52 32 -80 45 -27 12 -64 32 -81 45 -41 30 -102 64 -115 64 -6
0 -32 15 -58 33 -25 18 -68 44 -96 57 -27 14 -52 28 -55 31 -3 4 -36 23 -74
43 -38 20 -83 47 -100 59 -38 27 -75 47 -88 47 -6 0 -31 15 -57 33 -25 18 -68
43 -96 57 -27 13 -63 33 -80 45 -16 11 -43 27 -60 35 -16 8 -41 22 -55 31 -14
9 -35 20 -47 23 l-23 7 0 -730z"/>
<path d="M9435 7332 c-27 -15 -63 -36 -80 -48 -16 -11 -61 -35 -100 -54 -38
-19 -83 -44 -100 -55 -16 -12 -43 -27 -60 -35 -16 -8 -50 -28 -75 -45 -25 -17
-67 -42 -95 -55 -27 -13 -63 -33 -80 -45 -16 -11 -43 -27 -60 -35 -16 -8 -50
-28 -75 -45 -54 -36 -89 -55 -102 -55 -5 0 -28 -13 -51 -29 -23 -16 -46 -29
-52 -30 -5 -2 -17 -8 -25 -15 -8 -7 -31 -20 -50 -29 -19 -10 -53 -28 -75 -42
-22 -14 -47 -28 -55 -32 -8 -3 -34 -19 -57 -35 -23 -15 -48 -28 -56 -28 -8 0
-20 -7 -27 -15 -7 -8 -17 -15 -22 -15 -5 0 -28 -13 -51 -28 -23 -16 -58 -36
-77 -46 -19 -9 -53 -28 -75 -41 -22 -14 -56 -33 -75 -42 -19 -9 -56 -32 -81
-50 -26 -18 -52 -33 -58 -33 -7 0 -33 -15 -59 -32 -51 -36 -130 -78 -145 -78
-5 0 -30 -15 -56 -33 -25 -18 -59 -39 -76 -47 -16 -8 -51 -29 -76 -47 -26 -18
-52 -33 -58 -33 -13 0 -76 -35 -116 -64 -16 -12 -46 -30 -65 -39 -19 -10 -53
-28 -75 -42 -22 -14 -47 -28 -55 -32 -8 -3 -34 -19 -57 -35 -23 -15 -48 -28
-56 -28 -8 0 -20 -7 -27 -15 -7 -8 -17 -15 -22 -15 -5 0 -28 -13 -51 -28 -23
-15 -55 -34 -72 -42 -16 -8 -37 -19 -45 -26 -8 -7 -44 -27 -80 -46 -36 -18
-86 -48 -112 -66 -26 -17 -51 -32 -57 -32 -12 0 -80 -37 -101 -55 -24 -21 -89
-55 -105 -55 -8 0 -15 -4 -15 -10 0 -5 -6 -10 -14 -10 -7 0 -19 -6 -25 -13 -6
-8 -32 -24 -58 -37 -27 -13 -69 -39 -94 -57 -26 -18 -52 -33 -59 -33 -6 0 -30
-12 -53 -27 -68 -45 -79 -51 -137 -79 -30 -14 -68 -35 -85 -47 -27 -20 -77
-48 -142 -81 -13 -6 -23 -14 -23 -18 0 -5 -8 -8 -19 -8 -10 0 -24 -7 -31 -15
-7 -8 -17 -15 -22 -15 -5 0 -28 -12 -51 -27 -66 -44 -79 -51 -123 -72 -22 -11
-47 -27 -54 -36 -8 -9 -29 -15 -56 -15 l-44 0 0 -730 c0 -414 4 -730 9 -730
10 0 148 71 206 106 22 13 56 32 75 41 19 9 56 32 81 50 26 18 52 33 58 33 12
0 47 18 71 37 8 6 17 11 20 10 3 -1 26 13 52 31 26 18 52 32 59 32 7 0 27 12
46 26 42 32 140 84 159 84 8 0 14 4 14 9 0 5 12 16 28 24 96 50 146 79 175
101 19 14 39 26 45 26 13 0 80 36 102 55 22 19 89 55 102 55 6 0 31 15 57 33
25 17 60 39 76 47 17 8 51 29 78 47 26 18 51 33 57 33 12 0 76 35 115 64 28
20 42 27 113 58 15 7 47 26 72 43 25 16 68 41 95 55 28 13 64 33 80 45 17 11
44 27 60 35 17 8 48 26 70 40 22 14 58 34 80 45 22 10 58 31 80 45 72 45 79
49 120 70 22 11 58 31 80 45 22 13 67 38 100 55 79 40 111 59 165 96 25 17 60
37 78 45 17 8 32 17 32 21 0 4 17 14 38 23 89 39 295 148 323 171 8 6 46 27
84 46 39 19 87 47 109 61 21 15 61 38 90 52 28 14 89 50 136 80 47 30 110 66
140 81 30 14 92 48 136 75 45 27 85 49 89 49 4 0 46 23 93 52 47 28 106 62
131 75 25 13 75 41 111 62 l65 38 3 727 c2 578 0 726 -10 725 -7 0 -35 -13
-63 -27z"/>
<path d="M1933 4945 c-12 -8 -45 -27 -75 -41 -29 -15 -85 -46 -124 -70 -39
-24 -74 -44 -78 -44 -3 0 -47 -25 -97 -55 -50 -31 -105 -62 -123 -70 -17 -8
-67 -37 -111 -64 -44 -27 -114 -67 -155 -89 -41 -22 -100 -56 -130 -76 -30
-20 -59 -36 -65 -36 -5 0 -50 -25 -100 -55 -49 -30 -95 -55 -102 -55 -7 0 -13
-4 -13 -9 0 -5 -9 -11 -20 -14 -11 -3 -20 -12 -20 -21 0 -16 77 -83 90 -79 5
1 14 -4 20 -12 7 -8 19 -15 27 -15 8 0 33 -13 56 -28 23 -16 49 -32 57 -35 8
-4 33 -18 55 -32 22 -14 58 -34 80 -45 43 -22 57 -30 122 -72 23 -16 46 -28
51 -28 13 0 50 -20 87 -46 45 -33 104 -64 119 -64 8 0 16 -6 19 -13 3 -7 36
-28 73 -47 38 -19 77 -40 87 -48 9 -9 17 -12 17 -8 0 4 15 -4 33 -16 17 -13
46 -30 62 -38 17 -8 50 -28 75 -45 25 -17 57 -36 73 -43 69 -30 85 -39 127
-67 25 -17 59 -37 75 -45 17 -8 44 -23 60 -35 17 -11 53 -31 80 -45 28 -13 71
-39 96 -57 26 -18 52 -33 58 -33 13 0 73 -33 115 -64 17 -12 54 -33 81 -46 28
-13 64 -33 80 -45 17 -11 44 -27 60 -35 17 -8 51 -29 78 -47 26 -18 51 -33 57
-33 13 0 78 -37 118 -67 17 -13 32 -21 32 -17 0 4 8 0 18 -8 9 -8 33 -22 52
-31 19 -10 53 -28 75 -42 22 -14 47 -28 55 -32 8 -3 34 -19 57 -35 23 -15 48
-28 56 -28 8 0 20 -7 27 -15 7 -9 15 -13 18 -11 2 3 19 -5 36 -18 43 -33 104
-66 121 -66 8 0 18 -6 22 -12 8 -14 31 -28 98 -62 22 -12 61 -36 87 -54 26
-17 51 -32 57 -32 12 0 80 -37 101 -55 22 -19 89 -55 101 -55 6 0 32 -15 58
-33 25 -18 60 -39 76 -47 17 -8 51 -29 76 -47 26 -18 51 -33 57 -33 15 0 117
-55 155 -84 19 -14 39 -26 45 -26 13 0 80 -36 102 -55 21 -18 89 -55 101 -55
6 0 31 -15 57 -32 26 -18 65 -42 87 -54 67 -34 90 -48 98 -61 4 -7 15 -13 23
-13 8 0 32 -12 54 -26 l39 -26 68 49 c38 27 82 55 98 63 17 8 50 28 75 45 25
18 61 38 80 45 19 7 55 27 80 44 25 17 68 42 95 56 28 13 64 33 80 45 17 11
44 27 60 35 17 8 49 27 72 42 23 15 48 28 56 28 8 0 20 7 27 15 7 8 17 15 22
15 5 0 29 13 53 30 24 16 48 30 53 30 5 0 15 6 21 14 7 8 44 30 84 51 40 20
90 47 112 61 22 14 58 33 80 44 22 10 56 31 75 45 19 14 60 38 90 53 30 14 56
30 58 34 2 4 29 19 60 34 31 15 77 41 102 58 42 29 67 42 130 69 14 6 45 25
70 42 25 17 59 37 75 45 17 8 44 24 61 37 17 12 34 20 36 17 3 -2 11 2 18 11
7 8 17 15 22 15 5 0 29 13 53 30 24 16 50 30 58 30 8 0 17 7 21 15 3 8 13 15
21 15 9 0 35 12 58 27 64 42 79 51 122 73 41 21 88 47 115 65 8 5 17 10 20 10
3 0 26 15 52 33 26 17 52 32 59 32 7 0 27 12 46 26 42 32 140 84 159 84 8 0
14 4 14 9 0 5 12 16 28 24 96 50 146 79 175 101 19 14 39 26 46 26 7 0 33 15
59 32 52 36 130 78 145 78 5 0 32 16 58 35 27 19 52 35 55 35 3 0 24 12 47 28
68 44 81 52 97 58 40 16 69 31 110 59 54 36 89 55 102 55 5 0 29 13 53 30 24
16 46 30 49 30 3 0 28 16 55 35 26 19 53 35 59 35 13 0 48 19 102 56 25 17 61
38 80 47 19 10 56 32 81 50 25 18 54 37 63 42 19 11 13 45 -8 46 -6 0 -40 18
-76 39 -36 22 -90 52 -121 68 -31 16 -80 45 -110 64 -30 19 -79 47 -109 62
-30 15 -78 43 -107 62 -28 19 -72 43 -96 53 -25 11 -46 23 -48 28 -2 4 -26 19
-52 32 -27 14 -75 42 -107 63 -33 21 -63 38 -67 38 -4 0 -53 27 -107 60 -55
33 -104 60 -109 60 -5 0 -29 14 -54 30 -24 17 -49 30 -56 30 -7 -1 -28 -14
-47 -30 -19 -17 -38 -30 -43 -30 -5 0 -29 -15 -55 -32 -56 -39 -87 -57 -167
-98 -33 -17 -78 -42 -100 -55 -22 -14 -58 -34 -80 -45 -43 -22 -57 -30 -122
-72 -23 -16 -46 -28 -51 -28 -5 0 -15 -7 -22 -15 -7 -8 -19 -15 -27 -15 -8 0
-33 -13 -56 -28 -23 -15 -55 -34 -72 -42 -16 -8 -43 -24 -60 -35 -16 -12 -52
-32 -80 -45 -27 -14 -70 -39 -95 -55 -25 -17 -57 -36 -72 -43 -71 -31 -85 -38
-113 -58 -45 -33 -104 -64 -120 -64 -8 0 -18 -6 -22 -12 -8 -14 -31 -28 -98
-62 -22 -12 -61 -36 -87 -54 -26 -17 -51 -32 -57 -32 -12 0 -80 -37 -101 -55
-22 -19 -89 -55 -102 -55 -6 0 -26 -12 -45 -26 -29 -22 -79 -51 -175 -101 -16
-8 -28 -19 -28 -24 0 -5 -6 -9 -14 -9 -19 0 -117 -52 -159 -84 -19 -14 -39
-26 -46 -26 -7 0 -33 -14 -59 -32 -26 -18 -48 -30 -48 -28 -1 3 -10 -2 -20
-10 -26 -21 -62 -40 -75 -40 -6 0 -31 -15 -57 -32 -26 -18 -67 -44 -92 -57
-25 -13 -57 -30 -72 -38 -16 -8 -28 -19 -28 -24 0 -5 -6 -9 -14 -9 -16 0 -123
-55 -146 -75 -9 -8 -47 -13 -101 -14 -68 -2 -88 1 -99 14 -21 25 -65 45 -100
45 -27 0 -79 20 -130 49 -8 5 -28 15 -45 22 -16 7 -50 27 -75 44 -25 16 -72
44 -105 61 -66 34 -100 53 -160 90 -22 13 -58 33 -80 44 -22 11 -49 26 -60 33
-11 6 -38 23 -60 37 -22 14 -49 31 -60 38 -11 6 -27 15 -35 18 -37 14 -68 30
-105 54 -73 46 -80 49 -120 70 -22 11 -58 31 -80 45 -22 14 -47 28 -55 32 -8
3 -34 19 -57 35 -23 15 -46 28 -51 28 -13 0 -48 19 -102 55 -25 17 -58 37 -75
44 -16 7 -37 17 -45 22 -8 5 -22 12 -30 16 -8 3 -33 18 -55 32 -69 44 -78 49
-215 122 -25 13 -66 39 -92 57 -26 17 -51 32 -56 32 -13 0 -48 19 -102 55 -25
17 -56 35 -70 41 -64 28 -88 41 -130 70 -25 17 -62 38 -82 48 -20 9 -40 21
-43 26 -3 6 -13 10 -21 10 -9 0 -35 14 -59 30 -24 17 -46 30 -49 30 -3 0 -28
16 -55 35 -26 19 -53 35 -59 35 -13 0 -80 36 -102 55 -23 20 -89 55 -103 55
-7 0 -28 13 -47 30 -41 35 -40 34 -67 15z"/>
<path d="M557 4163 c-4 -3 -7 -370 -7 -814 l0 -808 21 -6 c12 -4 85 -45 161
-91 77 -46 143 -84 147 -84 3 0 47 -25 96 -55 50 -30 93 -55 97 -55 4 0 48
-25 98 -55 50 -31 101 -60 113 -64 12 -5 63 -34 112 -65 50 -30 119 -70 155
-89 36 -19 91 -50 122 -71 32 -20 70 -41 84 -46 15 -6 66 -34 113 -64 47 -29
94 -55 103 -59 9 -3 63 -34 120 -68 57 -35 137 -80 178 -102 41 -21 82 -45 90
-52 8 -7 38 -24 65 -38 28 -14 88 -48 135 -76 47 -28 88 -51 91 -51 4 0 54
-29 113 -64 58 -36 106 -63 106 -60 0 3 10 -4 22 -16 12 -11 27 -20 33 -20 6
0 51 -25 100 -55 50 -30 95 -55 100 -55 6 0 35 -16 65 -36 30 -20 84 -52 120
-71 36 -19 106 -59 155 -89 50 -29 104 -60 121 -69 18 -8 73 -39 123 -70 50
-30 93 -55 97 -55 3 0 43 -22 88 -49 44 -27 97 -56 116 -65 19 -8 71 -38 115
-65 44 -28 86 -51 93 -51 6 0 12 -4 12 -9 0 -5 21 -19 48 -32 26 -12 79 -42
119 -66 40 -24 80 -46 90 -50 10 -4 53 -29 96 -55 43 -27 89 -53 103 -58 13
-5 48 -25 77 -43 28 -18 77 -46 107 -63 30 -16 57 -32 58 -36 2 -5 10 -8 18
-8 7 0 29 -9 49 -20 l35 -20 -2 802 c-3 700 -5 802 -18 809 -8 4 -28 14 -45
22 -56 27 -120 63 -169 95 -28 18 -54 32 -60 32 -5 0 -23 11 -41 24 -40 31
-102 66 -117 66 -6 0 -31 15 -57 33 -25 18 -68 43 -96 57 -27 13 -63 34 -80
45 -16 12 -61 37 -100 55 -38 18 -83 43 -100 54 -16 12 -43 28 -60 36 -16 8
-50 28 -75 45 -55 37 -89 55 -102 55 -6 0 -31 15 -57 33 -25 18 -71 45 -101
60 -30 15 -73 39 -95 52 -22 14 -47 28 -55 32 -8 3 -34 19 -57 35 -23 15 -49
28 -57 28 -9 0 -16 4 -16 9 0 5 -10 13 -22 17 -13 4 -41 19 -63 34 -22 14 -56
34 -75 44 -19 9 -53 28 -75 41 -22 14 -56 33 -75 42 -19 9 -55 31 -80 48 -25
18 -61 38 -80 45 -19 8 -48 24 -65 36 -44 32 -103 64 -120 64 -8 0 -15 5 -15
10 0 6 -6 10 -14 10 -7 0 -19 6 -25 13 -6 8 -32 24 -58 37 -27 13 -68 38 -93
55 -25 18 -61 38 -80 45 -19 8 -55 27 -80 44 -54 37 -89 56 -102 56 -6 0 -31
15 -57 33 -25 18 -62 41 -81 50 -19 9 -53 28 -75 42 -22 13 -56 32 -75 41 -19
10 -60 35 -91 56 -32 20 -77 45 -100 54 -24 10 -64 31 -89 48 -25 17 -54 36
-65 42 -76 42 -122 68 -132 77 -7 5 -13 6 -13 2 0 -4 -7 -2 -15 5 -17 14 -62
41 -120 70 -22 11 -49 26 -60 33 -144 89 -137 85 -275 158 -25 13 -59 34 -75
45 -17 12 -52 32 -80 45 -27 12 -63 33 -80 45 -41 30 -103 64 -118 64 -16 0
-135 93 -154 120 -15 21 -25 25 -36 13z"/>
<path d="M9435 4119 c-22 -12 -60 -35 -85 -53 -25 -17 -58 -38 -75 -46 -16 -8
-50 -28 -75 -45 -55 -37 -89 -55 -102 -55 -6 0 -33 -16 -59 -35 -27 -19 -52
-35 -55 -35 -3 0 -25 -13 -49 -30 -24 -16 -48 -30 -53 -30 -13 0 -50 -20 -87
-46 -47 -34 -104 -64 -121 -64 -8 0 -17 -7 -20 -15 -4 -8 -13 -15 -21 -15 -8
0 -34 -13 -58 -30 -24 -16 -46 -30 -49 -30 -3 0 -28 -16 -55 -35 -26 -19 -53
-35 -58 -35 -15 0 -93 -42 -145 -78 -26 -17 -52 -32 -58 -32 -7 0 -33 -15 -59
-33 -25 -18 -59 -39 -76 -47 -16 -8 -51 -29 -78 -47 -26 -18 -51 -33 -56 -33
-14 0 -118 -57 -154 -84 -19 -14 -39 -26 -46 -26 -7 0 -31 -13 -54 -29 -23
-16 -45 -28 -48 -27 -3 0 -13 -5 -23 -13 -18 -15 -62 -41 -121 -71 -43 -22
-58 -31 -122 -72 -23 -16 -46 -28 -51 -28 -5 0 -15 -7 -22 -15 -7 -8 -19 -15
-27 -15 -8 0 -34 -13 -58 -30 -24 -16 -48 -30 -53 -30 -5 0 -15 -7 -22 -15 -7
-9 -15 -13 -18 -11 -2 3 -19 -5 -36 -17 -17 -13 -44 -29 -61 -37 -16 -8 -50
-28 -75 -45 -25 -17 -58 -37 -75 -44 -16 -8 -41 -19 -55 -25 -14 -6 -45 -25
-70 -42 -25 -17 -71 -43 -102 -58 -31 -15 -58 -30 -60 -34 -2 -4 -28 -20 -58
-34 -30 -15 -71 -39 -90 -53 -19 -14 -53 -35 -75 -45 -22 -11 -58 -30 -80 -44
-22 -14 -72 -41 -112 -61 -40 -21 -77 -43 -84 -51 -6 -8 -16 -14 -21 -14 -5 0
-29 -13 -53 -30 -24 -16 -48 -30 -53 -30 -5 0 -15 -7 -22 -15 -7 -8 -19 -15
-27 -15 -8 0 -33 -13 -56 -28 -23 -15 -55 -34 -72 -42 -16 -8 -43 -24 -60 -35
-16 -12 -52 -32 -80 -45 -27 -14 -63 -34 -80 -46 -41 -30 -103 -64 -116 -64
-6 0 -32 -15 -58 -33 -25 -18 -67 -44 -94 -57 -26 -13 -52 -29 -58 -37 -6 -7
-17 -13 -23 -13 -7 0 -22 -10 -34 -23 l-22 -23 0 -787 c0 -462 4 -787 9 -787
5 0 38 16 73 37 34 20 97 55 138 78 41 23 98 56 126 73 28 18 54 32 58 32 4 0
56 28 114 63 59 34 119 69 135 77 15 8 73 42 130 76 136 80 258 151 332 189
33 18 85 48 116 67 30 20 71 43 90 52 18 9 70 38 114 66 44 27 114 67 155 88
41 22 100 56 130 76 30 20 59 36 65 36 6 0 35 16 65 36 30 20 84 52 120 71 36
19 106 59 155 88 50 30 115 67 145 83 31 16 81 46 113 66 31 20 67 40 80 45
12 5 65 34 115 65 51 31 107 63 125 71 18 8 68 37 112 65 44 27 112 65 150 85
39 20 77 43 85 50 8 7 49 31 90 52 41 22 110 61 153 86 43 26 82 47 87 47 6 0
10 5 10 11 0 5 5 7 10 4 6 -3 10 -1 10 4 0 6 5 11 10 11 6 0 54 26 108 58 53
32 104 61 113 65 10 3 52 28 95 55 44 27 99 59 124 70 25 12 77 42 115 67 39
24 76 45 83 45 6 0 12 5 12 11 0 5 5 7 10 4 6 -3 10 -1 10 4 0 6 5 11 11 11
19 0 147 80 194 122 l45 40 -2 781 c-2 514 -6 781 -13 784 -6 2 -28 -6 -50
-18z"/>
</g>
</svg>
