<?xml version="1.0" standalone="no"?>
<!DOCTYPE svg PUBLIC "-//W3C//DTD SVG 20010904//EN"
 "http://www.w3.org/TR/2001/REC-SVG-20010904/DTD/svg10.dtd">
<svg version="1.0" xmlns="http://www.w3.org/2000/svg"
 width="1008.000000pt" height="1008.000000pt" viewBox="0 0 1008.000000 1008.000000"
 preserveAspectRatio="xMidYMid meet">

<g transform="translate(0.000000,1008.000000) scale(0.100000,-0.100000)"
fill="#000000" stroke="none">
<path d="M3930 10055 c-7 -8 -21 -15 -31 -15 -10 0 -24 -8 -31 -19 -10 -13
-30 -20 -78 -24 -114 -10 -214 -26 -255 -41 -25 -10 -78 -15 -142 -16 -81 0
-110 -4 -140 -19 -21 -11 -74 -27 -118 -36 -44 -9 -113 -27 -153 -41 -57 -19
-95 -24 -178 -25 -88 -1 -106 -4 -117 -19 -10 -14 -31 -18 -115 -22 l-102 -4
-53 -52 c-41 -40 -63 -54 -93 -58 -21 -4 -70 -21 -109 -40 -38 -18 -89 -38
-111 -43 -25 -7 -58 -27 -82 -50 -36 -35 -110 -71 -145 -71 -33 0 -142 -94
-366 -319 -281 -282 -271 -265 -271 -445 0 -95 3 -110 36 -192 19 -49 42 -96
50 -105 8 -8 14 -20 14 -26 0 -14 215 -229 260 -260 19 -13 53 -37 75 -53 22
-16 51 -36 65 -44 58 -33 386 -196 393 -196 5 0 23 -6 40 -14 94 -43 363 -139
465 -167 17 -5 49 -14 70 -20 20 -6 54 -15 75 -20 71 -18 117 -29 155 -39 55
-14 120 -29 177 -40 28 -6 70 -15 95 -20 25 -6 74 -15 110 -21 36 -6 88 -14
115 -19 266 -45 480 -71 815 -101 114 -10 667 -30 800 -29 378 3 878 32 1178
70 45 5 117 14 160 20 42 5 105 14 140 20 34 5 88 14 120 19 100 17 126 22
167 31 22 4 67 14 100 20 33 7 96 20 140 30 44 10 105 23 135 30 30 6 82 20
115 30 33 9 96 28 140 40 117 33 298 92 310 100 6 4 28 13 50 20 22 7 45 16
50 20 6 4 28 13 50 20 22 7 45 16 50 20 6 4 27 13 49 20 43 14 133 60 174 88
15 11 44 25 64 31 20 7 42 19 50 28 7 9 31 24 53 33 106 46 355 276 423 391
34 59 72 153 72 180 0 9 9 24 20 34 18 16 20 31 20 147 l0 128 -29 0 c-22 0
-37 9 -55 33 -15 19 -26 37 -26 41 0 17 -74 114 -136 178 -65 67 -259 218
-316 247 -19 10 -30 25 -34 46 -6 32 -6 32 -77 37 -50 4 -84 12 -112 28 -29
17 -63 25 -126 30 -79 6 -89 9 -120 38 -19 18 -37 32 -42 32 -4 0 -21 14 -39
30 -17 17 -49 35 -72 41 -23 6 -68 26 -102 45 -46 26 -73 34 -110 34 -46 0
-115 16 -244 55 -35 11 -110 20 -205 24 -149 6 -150 6 -183 36 -37 33 -118 63
-170 64 -18 1 -62 7 -97 13 -62 12 -65 14 -65 41 0 16 -10 38 -25 52 l-24 25
-1264 0 c-1112 0 -1266 -2 -1277 -15z m1845 -384 c66 -6 165 -15 220 -21 55
-6 136 -15 180 -20 88 -9 195 -24 295 -41 36 -6 88 -14 115 -19 59 -9 143 -26
205 -41 75 -17 122 -27 200 -43 209 -43 439 -123 670 -234 156 -74 338 -231
382 -329 34 -74 31 -208 -6 -285 -57 -121 -191 -231 -416 -341 -63 -31 -135
-59 -160 -63 -25 -4 -50 -10 -55 -15 -6 -4 -49 -19 -95 -33 -156 -45 -195 -57
-255 -77 -33 -12 -96 -27 -140 -35 -44 -8 -101 -19 -127 -24 -27 -6 -69 -14
-95 -19 -27 -5 -70 -15 -98 -21 -27 -6 -81 -15 -120 -20 -38 -6 -97 -15 -130
-20 -33 -6 -103 -15 -155 -21 -52 -6 -133 -15 -180 -20 -602 -71 -1749 -50
-2280 42 -134 23 -166 28 -215 34 -27 4 -59 10 -70 15 -11 5 -38 11 -60 14
-48 6 -124 21 -182 35 -108 27 -132 33 -198 46 -67 13 -107 25 -150 45 -19 8
-132 42 -202 60 -81 20 -293 127 -398 200 -57 40 -179 168 -205 215 -44 79
-44 210 1 302 35 72 122 156 242 236 62 40 128 81 148 90 177 81 391 159 484
178 27 5 76 20 110 33 33 13 89 27 125 31 36 3 90 13 120 22 30 8 82 19 115
23 33 5 83 14 110 19 131 28 267 47 575 80 52 6 167 15 255 21 88 6 167 12
175 14 31 9 1151 -3 1265 -13z"/>
<path d="M4550 9585 c-8 -3 -87 -9 -175 -15 -290 -20 -691 -69 -825 -100 -25
-6 -74 -15 -110 -19 -36 -5 -90 -16 -120 -24 -30 -8 -80 -18 -110 -22 -66 -8
-128 -24 -155 -41 -11 -7 -40 -15 -65 -19 -50 -8 -288 -86 -365 -120 -27 -12
-75 -33 -105 -46 -82 -36 -281 -170 -321 -217 -19 -23 -41 -54 -48 -69 -7 -15
-17 -36 -22 -45 -17 -34 -10 -107 15 -156 33 -63 122 -148 229 -216 109 -70
289 -156 327 -156 11 0 28 -4 38 -9 45 -23 93 -31 146 -25 31 4 59 11 62 15 3
5 16 9 29 9 13 0 27 5 30 10 3 6 21 10 40 10 19 0 37 5 40 10 3 6 21 10 40 10
19 0 37 5 40 10 3 6 21 10 40 10 19 0 37 5 40 10 3 6 21 10 40 10 19 0 37 5
40 10 3 6 26 10 51 10 24 0 44 5 44 10 0 6 27 10 60 10 33 0 60 4 60 10 0 6
24 10 54 10 30 0 58 5 61 10 3 6 30 10 60 10 30 0 57 5 60 10 3 6 39 10 80 10
41 0 77 5 80 10 3 6 48 10 100 10 52 0 97 4 100 10 4 6 55 10 120 10 65 0 115
4 117 10 2 6 90 10 226 11 122 1 225 5 228 10 7 12 421 12 428 0 3 -5 101 -9
218 -10 117 -1 215 -5 218 -10 3 -5 61 -9 130 -10 70 -1 126 -6 128 -11 2 -6
37 -10 77 -10 41 0 77 -4 80 -10 3 -5 44 -10 90 -10 46 0 87 -4 90 -10 3 -5
35 -10 70 -10 35 0 67 -4 70 -10 3 -5 26 -10 51 -10 24 0 44 -4 44 -10 0 -6
27 -10 60 -10 33 0 60 -4 60 -10 0 -5 20 -10 44 -10 25 0 48 -4 51 -10 3 -5
26 -10 50 -10 24 0 47 -4 50 -10 3 -5 21 -10 40 -10 19 0 37 -4 40 -10 3 -5
21 -10 40 -10 19 0 37 -4 40 -10 3 -5 17 -10 30 -10 13 0 27 -4 30 -10 3 -5
21 -10 40 -10 19 0 37 -4 40 -10 3 -5 17 -10 30 -10 13 0 26 -4 29 -8 6 -10
60 -5 91 7 79 33 105 41 140 47 76 13 354 165 433 238 31 28 82 103 82 121 0
8 5 17 10 20 19 12 11 123 -11 168 -30 59 -101 130 -194 192 -114 76 -342 182
-475 220 -25 8 -74 23 -110 35 -69 24 -103 32 -215 55 -38 8 -89 19 -112 25
-24 5 -62 15 -85 20 -91 21 -165 35 -328 60 -41 6 -104 16 -140 21 -36 6 -103
14 -150 19 -236 26 -294 32 -400 41 -111 10 -1149 22 -1180 14z"/>
<path d="M4865 8490 c-4 -6 -90 -10 -225 -10 -135 0 -221 -4 -225 -10 -4 -6
-55 -10 -120 -10 -65 0 -116 -4 -120 -10 -3 -6 -48 -10 -100 -10 -52 0 -97 -4
-100 -10 -3 -5 -39 -10 -80 -10 -41 0 -77 -4 -80 -10 -3 -5 -30 -10 -60 -10
-30 0 -57 -4 -60 -10 -3 -5 -28 -10 -55 -10 -27 0 -52 -4 -55 -10 -3 -5 -30
-10 -60 -10 -30 0 -57 -4 -60 -10 -3 -5 -26 -10 -50 -10 -24 0 -47 -4 -50 -10
-3 -5 -21 -10 -40 -10 -19 0 -37 -4 -40 -10 -3 -5 -21 -10 -40 -10 -19 0 -37
-4 -40 -10 -3 -5 -21 -10 -40 -10 -19 0 -37 -4 -40 -10 -3 -5 -21 -10 -40 -10
-19 0 -37 -4 -40 -10 -3 -5 -17 -10 -30 -10 -52 0 -31 -18 33 -28 37 -5 85
-15 107 -21 86 -24 202 -49 270 -57 22 -3 49 -9 60 -14 11 -5 38 -11 60 -14
22 -3 69 -10 105 -16 228 -40 370 -57 665 -80 159 -12 595 -31 725 -31 216 -1
731 27 940 50 47 6 128 15 180 20 52 6 122 15 155 21 33 5 92 14 130 20 39 5
90 14 115 20 25 6 66 15 93 21 26 5 71 14 100 19 28 6 86 15 127 21 41 6 80
15 86 20 6 5 38 18 70 28 57 19 58 20 22 20 -20 1 -40 6 -43 11 -3 6 -17 10
-30 10 -13 0 -27 5 -30 10 -3 6 -21 10 -40 10 -19 0 -37 5 -40 10 -3 6 -21 10
-40 10 -19 0 -37 5 -40 10 -3 6 -26 10 -50 10 -24 0 -47 5 -50 10 -3 6 -26 10
-50 10 -24 0 -47 5 -50 10 -3 6 -30 10 -60 10 -30 0 -57 5 -60 10 -3 6 -24 10
-45 10 -21 0 -42 5 -45 10 -3 6 -35 10 -70 10 -35 0 -67 5 -70 10 -3 6 -44 10
-90 10 -46 0 -87 5 -90 10 -3 6 -39 10 -80 10 -41 0 -77 5 -80 10 -4 6 -58 10
-130 10 -72 0 -126 4 -130 10 -4 6 -87 10 -215 10 -128 0 -211 4 -215 10 -4 6
-73 10 -175 10 -102 0 -171 -4 -175 -10z"/>
<path d="M1240 6210 l0 -2078 72 -70 c40 -39 70 -73 66 -77 -3 -3 -36 24 -72
61 -37 36 -70 64 -73 60 -10 -10 130 -136 154 -138 12 -1 21 -7 20 -13 -1 -5
4 -9 11 -7 8 1 11 -2 8 -7 -6 -10 85 -91 102 -91 5 0 15 -7 22 -15 18 -22 77
-48 90 -40 6 3 9 1 8 -7 -2 -8 6 -13 19 -12 12 0 21 -4 20 -10 -1 -6 8 -11 20
-10 12 0 21 -4 20 -10 -1 -6 9 -12 23 -14 14 -2 29 -8 34 -13 6 -5 20 -9 32
-9 13 0 26 -5 29 -10 3 -5 17 -10 30 -10 13 0 27 -5 31 -11 3 -6 23 -9 44 -7
21 2 36 0 34 -4 -6 -10 7 -14 61 -22 27 -4 35 -2 25 4 -26 17 13 12 49 -6 21
-11 51 -15 90 -12 33 1 59 -1 58 -6 -2 -11 133 -15 139 -4 3 5 47 8 99 8 52 0
97 4 100 10 3 6 26 10 50 10 24 0 47 5 50 10 3 6 19 10 35 10 16 0 32 4 35 10
3 6 18 10 31 10 14 0 35 10 46 23 11 12 16 15 12 7 -6 -12 -4 -13 7 -3 7 7 20
13 29 13 21 0 185 82 212 106 14 13 19 14 13 4 -4 -8 9 1 30 20 21 19 35 28
30 20 -4 -8 5 0 20 18 14 17 34 32 42 32 9 0 31 18 50 40 36 41 103 94 88 69
-11 -19 76 79 95 106 17 26 178 195 185 195 3 0 5 -6 5 -13 0 -8 9 -22 20 -32
11 -10 20 -24 20 -31 0 -14 34 -37 42 -29 6 7 42 -34 44 -48 3 -30 18 -57 30
-57 8 0 17 -8 21 -17 8 -24 44 -63 58 -63 6 0 29 -18 50 -40 21 -22 46 -39 54
-37 9 1 16 -4 17 -10 1 -7 2 -17 3 -23 0 -5 7 -10 14 -10 8 0 22 -9 32 -20 10
-11 23 -20 30 -20 7 0 20 -9 30 -20 10 -11 23 -20 30 -20 7 0 20 -9 30 -20 10
-11 28 -20 40 -20 12 0 30 -9 40 -20 10 -11 28 -20 40 -20 12 0 30 -9 41 -21
12 -14 27 -19 46 -17 15 3 26 0 25 -6 -1 -6 12 -11 30 -11 17 0 31 -4 30 -10
-1 -5 12 -10 30 -10 17 0 31 -4 30 -10 -1 -5 17 -10 40 -10 23 0 41 -4 40 -10
-1 -6 21 -10 50 -10 28 0 49 -3 46 -8 -7 -12 15 -15 125 -20 57 -2 98 0 90 4
-10 7 -10 9 0 9 19 0 27 -4 24 -13 -1 -5 21 -6 50 -4 170 18 246 27 273 32
342 70 621 219 840 448 61 63 133 140 160 171 28 30 54 56 58 56 5 0 48 -42
95 -92 130 -138 180 -188 252 -246 165 -133 332 -222 545 -289 205 -65 217
-67 470 -66 224 1 233 2 345 31 112 30 185 53 225 71 212 97 325 167 445 277
31 28 70 59 86 69 l31 17 -1 2083 c-1 1146 -3 2086 -6 2089 -4 3 -66 -55 -140
-129 -74 -74 -139 -135 -144 -135 -6 0 -22 -12 -37 -26 -30 -29 -54 -44 -109
-70 -19 -9 -48 -27 -63 -40 -16 -13 -35 -24 -44 -24 -8 0 -34 -13 -57 -28 -43
-29 -169 -92 -183 -92 -5 0 -28 -9 -51 -20 -22 -11 -45 -20 -50 -20 -4 0 -27
-9 -50 -20 -22 -11 -48 -20 -56 -20 -8 0 -17 -4 -20 -8 -5 -8 -209 -76 -336
-112 -36 -10 -90 -26 -120 -35 -61 -19 -112 -32 -180 -45 -25 -5 -65 -14 -90
-20 -25 -6 -66 -15 -92 -21 -27 -5 -69 -13 -95 -19 -27 -5 -75 -14 -108 -20
-33 -6 -85 -15 -115 -21 -72 -13 -151 -25 -220 -33 -30 -4 -84 -11 -120 -17
-140 -21 -519 -47 -875 -58 -154 -5 -336 -14 -405 -19 -69 -6 -129 -7 -135 -3
-5 3 -156 9 -335 13 -179 3 -379 11 -445 18 -271 25 -323 30 -390 39 -99 13
-211 30 -275 40 -30 5 -86 15 -125 21 -196 32 -212 35 -350 64 -44 10 -93 21
-110 26 -29 8 -76 20 -152 39 -105 26 -161 42 -327 97 -77 25 -158 54 -181 64
-23 10 -59 25 -81 34 -21 8 -57 21 -79 29 -55 21 -347 166 -415 206 -99 60
-193 137 -312 258 l-118 120 0 -2077z"/>
<path d="M3765 4210 c10 -11 20 -20 23 -20 3 0 -3 9 -13 20 -10 11 -20 20 -23
20 -3 0 3 -9 13 -20z"/>
<path d="M6319 4198 c-6 -13 -68 -81 -138 -152 -137 -139 -263 -233 -428 -317
-94 -48 -262 -108 -363 -129 -30 -6 -71 -16 -91 -21 -20 -5 -64 -9 -97 -9 -33
0 -72 -4 -86 -9 -13 -6 -48 -11 -78 -11 -92 -3 -348 13 -354 22 -3 4 -25 8
-49 8 -24 0 -47 5 -50 10 -3 6 -21 10 -40 10 -19 0 -37 5 -40 10 -3 6 -17 10
-30 10 -13 0 -27 5 -30 10 -3 6 -17 10 -30 10 -13 0 -27 5 -30 10 -3 6 -16 10
-29 10 -13 0 -31 9 -41 20 -10 11 -28 20 -40 20 -12 0 -30 9 -40 20 -10 11
-28 20 -40 20 -12 0 -30 9 -40 20 -10 11 -23 20 -30 20 -7 0 -20 9 -30 20 -10
11 -23 20 -30 20 -7 0 -20 9 -30 20 -10 11 -23 20 -29 20 -7 0 -38 27 -71 60
-33 33 -64 60 -70 60 -13 0 -125 112 -125 126 0 5 -22 31 -48 57 l-49 48 -44
-49 c-24 -27 -73 -84 -108 -126 -35 -42 -71 -76 -81 -76 -10 0 -37 -22 -60
-50 -23 -27 -48 -50 -57 -50 -8 0 -26 -13 -40 -30 -13 -16 -31 -30 -38 -30 -7
0 -18 -6 -24 -14 -15 -18 -230 -126 -251 -126 -8 0 -26 -9 -40 -20 -14 -11
-37 -20 -52 -20 -15 0 -30 -4 -33 -10 -3 -5 -19 -10 -35 -10 -16 0 -32 -4 -35
-10 -3 -5 -26 -10 -50 -10 -24 0 -47 -4 -50 -10 -3 -6 -48 -10 -100 -10 -52 0
-97 -4 -100 -10 -3 -6 -52 -10 -110 -10 -58 0 -107 4 -110 10 -3 6 -25 10 -47
10 -63 0 -222 21 -233 31 -5 5 -24 9 -41 9 -18 0 -36 5 -39 10 -3 6 -17 10
-30 10 -13 0 -27 5 -30 10 -3 6 -17 10 -30 10 -13 0 -27 5 -30 10 -3 6 -14 10
-23 10 -22 0 -197 87 -212 106 -7 8 -18 14 -25 14 -6 0 -20 9 -30 20 -10 11
-23 20 -30 20 -6 0 -29 18 -50 40 -21 22 -45 40 -51 40 -7 0 -22 12 -34 27
-11 15 -30 33 -41 41 -20 13 -20 10 -16 -1335 3 -741 5 -1356 6 -1365 1 -10 6
-20 12 -23 5 -4 9 -15 9 -26 0 -21 4 -31 64 -143 28 -52 132 -169 209 -234 55
-48 229 -172 241 -172 2 0 34 -18 70 -40 36 -22 69 -40 73 -40 5 0 48 -20 98
-45 49 -25 95 -45 102 -45 7 0 28 -9 48 -20 20 -11 44 -20 55 -20 10 0 22 -4
25 -10 3 -5 15 -10 25 -10 11 0 35 -9 55 -20 20 -11 44 -20 55 -20 10 0 22 -5
25 -10 3 -6 17 -10 30 -10 13 0 27 -4 30 -10 3 -5 17 -10 30 -10 13 0 27 -4
30 -10 3 -5 17 -10 30 -10 13 0 27 -4 30 -10 3 -5 21 -10 40 -10 19 0 37 -4
40 -10 3 -5 17 -10 30 -10 13 0 27 -4 30 -10 3 -5 19 -10 35 -10 16 0 32 -4
35 -10 3 -5 21 -10 40 -10 19 0 37 -4 40 -10 3 -5 21 -10 40 -10 19 0 37 -5
40 -10 3 -6 26 -10 50 -10 24 0 47 -4 50 -10 3 -5 21 -10 40 -10 19 0 37 -4
40 -10 3 -5 26 -10 50 -10 24 0 47 -4 50 -10 3 -5 26 -10 50 -10 24 0 47 -4
50 -10 3 -5 30 -10 60 -10 30 0 57 -4 60 -10 3 -5 21 -10 38 -10 18 0 109 -12
202 -26 94 -14 202 -27 240 -30 39 -2 84 -7 100 -10 17 -3 62 -7 100 -10 39
-3 95 -9 126 -13 31 -4 126 -8 210 -10 85 -1 156 -7 157 -12 5 -12 909 -12
914 0 2 5 71 11 153 12 83 1 155 5 160 9 6 5 53 9 105 11 52 2 102 6 110 10 9
4 49 9 90 10 41 1 82 6 91 11 10 4 43 9 74 10 31 1 59 6 61 10 3 4 25 8 49 8
25 0 64 5 87 10 24 6 108 21 188 35 80 13 188 33 240 45 52 11 115 25 140 30
43 10 122 31 186 51 17 5 37 9 46 9 42 0 389 115 515 171 24 11 49 19 56 19 7
0 17 4 23 8 5 5 25 15 44 22 44 16 245 115 285 141 17 10 37 22 45 26 8 3 48
29 89 57 40 28 81 56 90 61 9 6 39 31 68 57 28 27 57 48 62 48 6 0 11 7 11 15
0 8 7 15 15 15 8 0 15 5 15 10 0 6 20 33 45 59 25 26 45 53 45 58 0 6 7 16 15
23 18 15 65 109 65 130 0 9 4 20 10 26 5 5 10 38 12 72 1 35 6 65 10 68 9 6 7
163 -3 170 -4 2 -3 18 3 35 7 21 7 34 0 41 -7 7 -7 19 0 40 7 20 7 33 0 40 -7
7 -7 19 0 40 7 20 7 33 0 40 -7 7 -7 19 -1 38 11 30 7 345 -4 356 -4 4 -2 13
4 20 8 10 8 22 1 43 -7 20 -7 32 1 40 7 7 7 18 -2 37 -9 21 -9 29 0 35 9 5 9
15 0 40 -8 22 -8 35 -1 39 13 8 11 292 -2 301 -5 3 -4 17 3 33 9 19 9 30 2 37
-8 8 -8 20 -1 41 7 20 7 33 0 40 -7 7 -7 19 0 40 7 20 7 33 0 40 -7 7 -7 19
-1 36 12 30 10 317 -2 348 -4 13 -3 26 3 32 7 7 7 20 0 40 -7 21 -7 33 0 40 7
7 7 20 0 40 -7 21 -7 33 1 41 7 7 7 18 -2 37 -8 19 -9 30 -1 38 13 13 14 245
0 280 -6 17 -6 27 1 32 6 3 8 17 4 33 -4 14 -8 32 -8 39 -1 21 -16 13 -75 -40
-122 -112 -234 -182 -447 -279 -145 -66 -387 -111 -605 -112 -95 -1 -298 17
-375 32 -151 30 -395 132 -532 223 -40 26 -75 48 -78 48 -16 0 -218 187 -290
268 -44 50 -85 91 -92 91 -7 1 -18 -9 -24 -21z"/>
</g>
</svg>
