<?xml version="1.0" standalone="no"?>
<!DOCTYPE svg PUBLIC "-//W3C//DTD SVG 20010904//EN"
 "http://www.w3.org/TR/2001/REC-SVG-20010904/DTD/svg10.dtd">
<svg version="1.0" xmlns="http://www.w3.org/2000/svg"
 width="1008.000000pt" height="1008.000000pt" viewBox="0 0 1008.000000 1008.000000"
 preserveAspectRatio="xMidYMid meet">

<g transform="translate(0.000000,1008.000000) scale(0.100000,-0.100000)"
fill="#000000" stroke="none">
<path d="M4785 10033 c-277 -17 -385 -27 -466 -43 -52 -11 -112 -20 -135 -20
-22 0 -78 -11 -124 -25 -46 -14 -97 -25 -113 -25 -39 0 -131 -24 -242 -62 -49
-18 -110 -35 -135 -39 -71 -12 -324 -104 -490 -179 -47 -21 -106 -46 -131 -55
-26 -8 -55 -25 -65 -36 -9 -11 -43 -27 -73 -36 -31 -8 -83 -30 -116 -48 -64
-35 -203 -112 -221 -123 -56 -34 -93 -64 -107 -85 -10 -15 -30 -27 -53 -32
-36 -6 -100 -57 -91 -72 3 -5 -5 -9 -18 -9 -13 -1 -44 -17 -70 -35 -26 -19
-68 -47 -95 -64 -26 -16 -86 -64 -134 -105 -48 -41 -102 -86 -121 -100 -18
-14 -39 -36 -46 -48 -8 -13 -27 -31 -43 -39 -44 -23 -344 -321 -366 -363 -10
-20 -29 -41 -42 -48 -12 -7 -32 -26 -43 -41 -11 -16 -59 -74 -106 -128 -90
-103 -120 -149 -111 -172 2 -8 0 -11 -6 -7 -16 10 -119 -121 -159 -204 -21
-41 -42 -78 -49 -82 -17 -11 -81 -101 -98 -140 -9 -18 -38 -73 -66 -123 -58
-104 -73 -135 -90 -190 -7 -22 -23 -52 -36 -67 -12 -15 -28 -44 -34 -65 -6
-21 -29 -76 -50 -123 -22 -47 -51 -116 -65 -155 -15 -38 -37 -97 -50 -130 -37
-94 -56 -156 -66 -212 -5 -29 -18 -76 -29 -104 -28 -71 -70 -231 -70 -267 0
-17 -9 -59 -21 -94 -11 -34 -24 -97 -29 -138 -4 -41 -15 -113 -24 -160 -21
-108 -46 -478 -46 -679 0 -206 27 -652 44 -721 8 -30 17 -89 21 -130 7 -81 32
-187 46 -196 5 -3 9 -31 9 -62 0 -31 9 -84 20 -117 11 -33 31 -103 45 -155 15
-52 31 -108 37 -125 5 -16 17 -56 25 -89 8 -32 26 -82 40 -110 14 -28 36 -80
49 -116 42 -121 55 -153 73 -176 10 -13 24 -45 31 -71 7 -26 21 -60 31 -74 11
-15 27 -47 38 -72 11 -25 24 -48 30 -51 6 -4 11 -15 11 -25 0 -10 18 -46 40
-79 22 -33 40 -63 40 -67 0 -16 92 -194 106 -206 8 -7 22 -26 31 -43 9 -17 27
-44 40 -60 13 -15 31 -45 39 -65 8 -20 32 -57 54 -82 21 -25 45 -61 53 -80 7
-19 26 -40 40 -48 15 -8 30 -24 33 -35 4 -12 28 -43 53 -71 26 -27 61 -71 78
-96 18 -25 47 -60 67 -76 19 -17 41 -44 50 -60 29 -55 402 -420 490 -478 21
-15 53 -40 69 -57 17 -16 49 -42 71 -56 23 -14 51 -38 63 -52 15 -17 31 -25
55 -25 18 0 33 -5 33 -11 0 -20 78 -94 115 -110 19 -8 45 -25 58 -37 21 -20
74 -53 147 -92 17 -9 40 -31 52 -50 17 -25 39 -39 95 -61 40 -15 112 -49 161
-75 48 -26 111 -55 140 -64 28 -10 79 -32 112 -49 33 -18 73 -36 89 -40 17 -4
41 -15 55 -25 14 -10 42 -22 61 -26 19 -4 49 -15 65 -25 17 -10 55 -23 86 -29
31 -7 65 -18 75 -26 11 -8 26 -15 34 -15 9 0 34 -9 55 -20 22 -11 58 -23 80
-27 22 -3 53 -12 68 -20 16 -8 72 -23 126 -33 53 -11 110 -26 126 -34 17 -9
46 -16 65 -16 19 0 69 -9 110 -20 41 -11 93 -20 116 -20 22 0 63 -7 90 -15
206 -64 1379 -69 1491 -7 12 7 37 12 55 12 18 0 65 7 103 16 39 8 120 24 180
35 61 11 144 30 185 43 41 13 109 32 150 42 41 9 84 23 95 30 11 6 45 17 75
24 30 7 71 22 90 34 33 20 91 40 190 66 25 6 68 24 95 39 28 16 68 34 90 41
22 7 59 23 82 36 23 13 53 24 68 24 15 0 36 11 50 26 13 14 72 50 132 81 59
31 122 66 138 78 17 13 40 26 53 30 13 4 38 20 57 36 18 16 48 35 67 43 18 8
42 24 53 37 11 12 43 32 70 44 28 13 62 36 77 53 14 16 40 33 56 36 16 4 59
34 96 66 37 33 71 60 75 60 5 0 38 26 74 58 36 31 91 77 123 102 74 59 408
393 459 460 22 28 63 78 91 110 29 32 60 71 70 86 10 16 37 50 60 75 23 25 45
56 49 70 4 13 24 44 45 69 20 25 44 59 52 75 9 17 30 47 46 68 17 21 34 51 37
68 4 16 18 37 32 46 14 9 36 39 49 67 14 28 43 83 65 121 22 39 56 100 75 137
19 36 41 69 49 71 7 3 16 25 20 49 4 24 16 55 27 70 10 15 26 51 34 80 9 29
29 74 46 100 16 27 40 88 54 143 13 52 35 112 49 133 13 20 29 62 36 92 6 30
16 64 21 74 15 29 87 289 104 376 8 41 23 114 34 161 11 47 23 110 26 140 3
30 12 72 20 94 7 22 18 126 25 235 35 614 14 1046 -71 1455 -10 50 -21 110
-25 134 -3 24 -12 53 -20 64 -8 12 -15 34 -15 49 0 16 -9 54 -21 86 -11 31
-29 93 -39 137 -20 87 -40 147 -70 210 -10 22 -22 58 -26 80 -4 22 -17 58 -30
81 -13 22 -24 48 -24 56 0 8 -11 31 -24 50 -13 19 -26 51 -30 70 -4 20 -15 47
-25 59 -28 37 -41 66 -57 126 -8 30 -23 67 -33 82 -10 14 -22 37 -26 51 -4 14
-18 41 -31 61 -13 20 -42 72 -64 115 -23 44 -50 88 -60 99 -10 11 -25 34 -33
51 -9 17 -35 59 -59 94 -24 34 -56 83 -73 109 -29 46 -94 115 -107 116 -12 0
-21 15 -9 15 17 0 -12 53 -43 77 -13 10 -33 37 -44 58 -23 46 -83 103 -102 97
-9 -3 -11 1 -7 13 4 10 -1 27 -14 43 -85 110 -454 482 -476 482 -7 0 -24 16
-39 35 -14 19 -50 52 -78 72 -28 20 -72 56 -97 79 -25 23 -56 47 -69 54 -14 7
-33 24 -43 37 -10 13 -35 30 -55 39 -21 8 -48 26 -62 38 -14 13 -40 31 -59 41
-19 9 -62 38 -95 64 -99 76 -269 181 -293 181 -8 0 -44 16 -82 35 -37 19 -71
35 -75 35 -4 0 -24 11 -44 25 -20 14 -44 25 -53 25 -9 0 -24 9 -34 20 -10 11
-43 29 -74 41 -31 11 -92 38 -136 59 -44 22 -111 49 -150 61 -38 11 -85 29
-103 40 -30 17 -70 31 -207 69 -42 12 -152 45 -267 81 -45 14 -78 18 -103 13
-28 -5 -50 0 -98 21 -48 22 -83 30 -163 35 -56 3 -109 11 -116 18 -20 16 -63
21 -348 37 -228 13 -496 17 -635 8z m498 -302 c16 -6 38 -11 50 -11 12 0 38
-8 57 -18 19 -11 52 -22 72 -25 20 -3 76 -31 125 -63 104 -68 123 -83 227
-177 43 -40 85 -76 95 -81 9 -5 27 -22 41 -38 22 -26 36 -31 108 -42 46 -6 87
-17 91 -24 5 -8 42 -16 90 -21 62 -7 88 -14 105 -30 12 -11 28 -21 34 -21 23
0 253 -81 286 -101 18 -10 57 -27 88 -38 30 -10 63 -23 74 -29 54 -29 134 -62
172 -72 23 -6 57 -23 75 -39 17 -15 70 -49 117 -75 82 -46 115 -66 183 -113
18 -13 58 -40 90 -60 95 -62 217 -153 217 -162 0 -5 14 -14 31 -20 32 -11 82
-49 147 -111 21 -19 73 -65 117 -101 134 -112 437 -442 456 -498 6 -17 18 -33
28 -36 9 -3 36 -29 60 -58 39 -48 58 -76 136 -197 17 -26 40 -57 53 -70 12
-13 22 -29 22 -36 0 -7 15 -25 34 -39 25 -19 35 -35 39 -66 3 -22 18 -59 34
-81 66 -95 77 -114 85 -153 5 -22 16 -48 25 -58 17 -18 62 -117 93 -205 11
-29 28 -64 39 -78 11 -14 22 -39 26 -57 3 -18 19 -66 35 -107 16 -41 36 -104
45 -140 19 -75 31 -100 57 -118 14 -10 17 -21 12 -51 -7 -41 13 -144 47 -247
11 -33 24 -105 28 -160 5 -54 16 -126 24 -159 17 -65 43 -484 40 -630 -3 -169
-25 -470 -44 -615 -10 -80 -22 -165 -25 -190 -3 -25 -16 -76 -29 -115 -13 -38
-29 -110 -35 -160 -8 -63 -19 -101 -36 -127 -13 -20 -28 -58 -34 -85 -26 -114
-34 -140 -50 -168 -10 -16 -20 -45 -23 -62 -4 -18 -17 -50 -31 -70 -13 -21
-30 -58 -36 -83 -7 -25 -32 -84 -56 -131 -24 -47 -44 -93 -44 -101 0 -8 -8
-23 -19 -32 -10 -9 -33 -49 -51 -89 -18 -40 -40 -81 -50 -92 -9 -11 -23 -36
-30 -55 -7 -19 -18 -39 -24 -45 -6 -5 -23 -28 -37 -50 -29 -46 -42 -64 -107
-159 -26 -38 -56 -83 -67 -101 -34 -56 -72 -109 -97 -135 -23 -25 -31 -35 -94
-127 -20 -28 -54 -63 -76 -78 -22 -14 -46 -41 -53 -59 -8 -19 -30 -43 -50 -55
-21 -12 -40 -34 -47 -51 -5 -17 -23 -37 -38 -45 -15 -8 -42 -33 -60 -55 -17
-22 -37 -40 -44 -40 -13 0 -96 -78 -96 -91 0 -4 -17 -18 -37 -31 -44 -27 -174
-136 -187 -156 -4 -8 -31 -25 -60 -38 -28 -14 -72 -39 -99 -57 -26 -18 -66
-45 -90 -60 -23 -16 -56 -38 -73 -50 -65 -45 -175 -108 -264 -151 -41 -20 -84
-45 -95 -56 -11 -10 -33 -22 -49 -26 -16 -4 -67 -27 -113 -51 -47 -23 -90 -43
-97 -43 -7 0 -39 -13 -72 -29 -82 -41 -153 -67 -264 -97 -52 -14 -114 -37
-137 -50 -28 -16 -74 -28 -146 -38 -57 -8 -127 -24 -155 -35 -28 -11 -82 -23
-119 -27 -37 -3 -79 -13 -91 -21 -16 -10 -51 -15 -102 -15 l-78 0 -74 -69
c-40 -37 -80 -75 -88 -83 -161 -162 -218 -214 -248 -230 -20 -10 -44 -24 -52
-31 -8 -7 -40 -16 -71 -19 -46 -6 -59 -4 -80 12 -13 11 -35 23 -47 27 -13 4
-52 35 -86 68 -34 34 -121 120 -194 190 l-133 128 -52 -2 c-38 -2 -64 4 -97
21 -34 18 -60 23 -105 22 -39 -1 -83 7 -130 22 -117 40 -211 59 -253 51 -29
-5 -42 -2 -52 10 -20 24 -66 46 -140 66 -36 10 -96 29 -135 43 -38 14 -79 26
-89 26 -11 0 -40 13 -66 30 -25 16 -64 36 -86 44 -58 20 -132 53 -185 81 -26
14 -53 25 -61 25 -7 0 -48 24 -90 54 -43 29 -103 61 -135 71 -38 11 -66 28
-81 46 -13 16 -30 29 -37 29 -8 0 -29 14 -47 31 -18 17 -46 37 -63 46 -16 9
-43 27 -59 40 -16 13 -45 32 -65 43 -20 10 -64 46 -99 79 -35 34 -68 61 -73
61 -16 0 -223 183 -344 305 -139 140 -263 278 -300 333 -15 23 -31 42 -36 42
-4 0 -13 16 -19 35 -6 19 -16 35 -20 35 -11 0 -74 84 -137 180 -23 36 -54 81
-68 100 -43 59 -95 141 -137 217 -21 39 -52 87 -67 107 -16 19 -34 57 -40 83
-7 26 -17 56 -22 66 -31 58 -69 143 -84 187 -9 24 -24 58 -34 75 -10 17 -26
54 -35 82 -9 28 -24 57 -32 63 -7 7 -14 23 -14 36 0 13 -16 67 -35 120 -19 53
-35 115 -35 138 0 24 -8 53 -20 71 -11 17 -20 44 -20 61 0 16 -11 68 -25 115
-13 46 -25 101 -25 121 0 21 -6 57 -14 80 -29 88 -72 677 -62 848 18 284 36
482 50 535 9 32 16 79 16 103 0 63 60 345 88 412 6 14 16 55 22 92 6 37 24 94
40 127 17 33 30 73 30 88 0 15 9 43 20 61 11 18 35 72 54 120 19 48 59 140 90
206 31 65 56 127 56 136 0 10 13 31 29 47 16 16 54 79 85 139 31 60 68 119 81
132 14 12 25 28 25 34 0 6 17 34 38 62 39 53 162 232 197 288 11 17 49 61 85
98 87 90 184 200 198 226 6 11 29 29 51 38 30 14 42 26 46 48 4 17 19 37 34
46 37 23 152 123 226 198 33 34 71 67 85 74 14 7 53 35 88 62 34 27 86 63 115
80 28 16 74 48 101 69 27 22 54 39 60 39 7 0 27 16 46 35 19 19 40 35 47 35
21 0 186 91 211 116 12 13 35 27 50 31 15 3 70 26 122 51 203 94 422 180 501
197 37 8 82 23 101 34 18 11 64 25 100 30 36 5 75 14 85 19 11 6 50 18 88 27
64 14 74 21 163 103 136 125 195 170 256 192 30 12 72 34 94 50 81 58 260 112
402 120 116 6 285 -3 323 -19z m-778 -9061 c3 -5 2 -10 -4 -10 -5 0 -13 5 -16
10 -3 6 -2 10 4 10 5 0 13 -4 16 -10z"/>
<path d="M4920 9653 c-14 -2 -54 -13 -89 -24 -35 -10 -73 -19 -86 -19 -48 0
-245 -106 -342 -183 -28 -23 -95 -82 -147 -130 -91 -85 -99 -90 -171 -108 -88
-22 -115 -34 -115 -54 0 -8 -358 -373 -796 -811 -437 -438 -806 -813 -818
-833 -13 -20 -33 -45 -45 -55 -11 -11 -21 -25 -21 -32 0 -7 -13 -29 -30 -47
-16 -19 -30 -42 -30 -50 0 -8 -13 -44 -30 -79 -16 -34 -30 -69 -30 -76 0 -7
-7 -26 -15 -42 -27 -52 -45 -189 -45 -347 0 -152 11 -240 34 -278 7 -11 21
-44 31 -74 28 -85 102 -235 132 -267 15 -16 42 -48 60 -71 18 -24 142 -152
275 -286 134 -134 282 -284 329 -333 48 -49 133 -135 190 -190 88 -86 427
-433 689 -704 96 -100 187 -221 199 -267 7 -26 11 -532 11 -1547 l0 -1508 35
-39 c19 -22 35 -46 35 -54 0 -8 15 -32 34 -52 18 -21 38 -48 45 -60 6 -12 33
-34 59 -48 27 -14 56 -40 66 -57 10 -16 31 -41 47 -56 16 -14 29 -31 29 -38 0
-17 24 -24 81 -24 47 0 52 -3 131 -74 46 -41 137 -129 203 -195 74 -74 130
-123 147 -126 14 -4 32 -13 39 -21 6 -8 17 -14 23 -14 35 0 126 67 236 175
246 240 265 255 308 255 67 0 102 11 102 31 0 18 39 54 69 64 10 3 22 14 27
25 13 28 313 329 345 346 15 7 36 28 48 46 49 78 72 108 81 108 5 0 25 21 45
46 65 86 43 157 -91 294 -46 47 -120 127 -165 179 -72 84 -81 98 -76 126 8 50
55 112 168 222 57 56 115 113 129 126 44 43 70 96 70 141 0 77 -25 110 -317
413 -45 47 -52 68 -42 123 4 29 33 63 148 180 161 163 218 233 227 276 9 48
-33 107 -210 289 -217 225 -215 223 -233 260 -22 47 -10 95 38 152 42 50 636
657 1517 1548 119 121 235 244 257 273 22 29 52 67 66 85 15 18 41 64 58 102
18 39 36 77 41 86 4 8 22 51 40 95 80 198 58 608 -44 799 -9 17 -16 38 -16 47
0 9 -10 29 -23 45 -12 15 -29 38 -37 49 -73 107 -231 272 -914 957 -432 434
-786 795 -786 803 0 18 -30 29 -104 39 -55 6 -63 11 -145 84 -47 43 -93 86
-101 96 -22 26 -187 147 -251 183 -31 18 -65 32 -75 32 -11 0 -32 7 -49 16
-57 31 -233 63 -335 62 -52 0 -106 -3 -120 -5z m-900 -503 c-8 -5 -19 -10 -25
-10 -5 0 -3 5 5 10 8 5 20 10 25 10 6 0 3 -5 -5 -10z m1155 -208 c44 -10 96
-28 115 -40 19 -12 41 -22 48 -22 34 0 147 -110 207 -200 65 -98 105 -211 105
-297 0 -26 -11 -100 -23 -164 -21 -106 -27 -121 -73 -184 -27 -38 -62 -82 -79
-98 -101 -100 -123 -117 -143 -117 -13 0 -44 -11 -70 -24 -26 -13 -84 -31
-130 -41 -79 -16 -88 -16 -175 1 -129 25 -278 95 -332 156 -111 127 -144 187
-175 316 -18 73 -21 108 -16 165 11 129 18 162 36 182 10 11 27 40 37 65 23
51 160 210 182 210 8 0 36 14 62 31 27 17 73 37 103 45 29 8 69 21 87 29 41
19 120 14 234 -13z m1300 -2023 c89 -22 148 -118 124 -199 -16 -54 -70 -105
-124 -119 -62 -16 -2738 -16 -2800 0 -54 14 -108 65 -124 119 -23 78 32 171
116 197 53 16 2744 18 2808 2z m0 -560 c89 -22 148 -118 124 -199 -14 -47 -64
-100 -111 -116 -45 -17 -2748 -19 -2813 -3 -54 14 -108 65 -124 119 -23 78 32
171 116 197 53 16 2744 18 2808 2z m-1767 -2439 c33 -15 47 -29 62 -62 19 -42
20 -76 20 -1238 0 -1163 -1 -1196 -20 -1238 -15 -34 -29 -47 -66 -64 -47 -20
-48 -20 -93 -2 -36 15 -51 28 -68 64 l-23 44 0 1196 c0 1162 1 1196 20 1238
15 33 29 47 62 62 24 11 48 20 53 20 6 0 29 -9 53 -20z m-263 -3090 c3 -6 -1
-7 -9 -4 -18 7 -21 14 -7 14 6 0 13 -4 16 -10z m1168 -7 c-13 -2 -35 -2 -50 0
-16 2 -5 4 22 4 28 0 40 -2 28 -4z m-708 -333 c21 -22 37 -40 34 -40 -3 0 -23
18 -44 40 -21 22 -37 40 -34 40 3 0 23 -18 44 -40z"/>
</g>
</svg>
