<?xml version="1.0" standalone="no"?>
<!DOCTYPE svg PUBLIC "-//W3C//DTD SVG 20010904//EN"
 "http://www.w3.org/TR/2001/REC-SVG-20010904/DTD/svg10.dtd">
<svg version="1.0" xmlns="http://www.w3.org/2000/svg"
 width="1008.000000pt" height="1008.000000pt" viewBox="0 0 1008.000000 1008.000000"
 preserveAspectRatio="xMidYMid meet">

<g transform="translate(0.000000,1008.000000) scale(0.100000,-0.100000)"
fill="#000000" stroke="none">
<path d="M4448 8636 c-17 -12 -18 -47 -18 -472 0 -400 2 -462 16 -482 l15 -22
504 0 504 0 15 22 c14 20 16 83 16 485 0 447 -1 463 -19 473 -13 6 -193 10
-518 10 -398 -1 -502 -3 -515 -14z"/>
<path d="M2035 7493 c-45 -11 -45 -12 -45 -504 0 -506 -1 -499 53 -499 12 0
238 0 502 0 418 0 481 2 495 15 13 14 15 76 18 458 3 477 1 510 -44 527 -25
10 -939 12 -979 3z"/>
<path d="M3250 7493 c-39 -14 -40 -21 -40 -504 0 -412 2 -469 16 -483 14 -14
73 -16 487 -17 260 -1 486 0 502 1 62 4 60 -15 60 499 0 447 -1 470 -19 490
-19 21 -23 21 -505 20 -267 0 -493 -3 -501 -6z"/>
<path d="M4468 7493 c-34 -9 -38 -57 -38 -513 0 -412 1 -449 18 -469 17 -20
22 -21 517 -22 l499 -1 18 22 c17 21 18 56 18 477 0 452 -2 484 -34 505 -12 8
-969 9 -998 1z"/>
<path d="M7799 7218 c-23 -20 -143 -204 -184 -283 -20 -38 -40 -77 -45 -85
-13 -21 -38 -81 -72 -175 -119 -332 -138 -752 -47 -1050 29 -91 97 -246 120
-269 18 -19 9 -42 -23 -58 -72 -36 -148 -68 -161 -68 -8 0 -30 -7 -49 -15 -20
-8 -89 -24 -154 -37 l-119 -23 -3501 -5 c-2929 -4 -3504 -7 -3517 -19 -9 -7
-22 -30 -28 -50 -17 -53 -24 -651 -10 -796 21 -211 87 -546 130 -657 5 -12 21
-63 36 -113 40 -131 148 -403 175 -440 4 -5 31 -55 60 -110 205 -390 551 -778
890 -1000 82 -54 231 -145 237 -145 2 0 34 -17 71 -38 37 -21 110 -55 162 -76
52 -21 109 -43 125 -50 188 -81 575 -178 799 -202 40 -4 55 -9 45 -15 -8 -5
252 -9 639 -9 373 0 651 4 648 9 -7 11 43 21 108 21 28 0 80 7 116 14 36 8 97
17 135 21 39 4 90 11 115 17 25 5 83 16 130 24 112 19 290 61 363 85 31 10 66
19 76 19 11 0 43 9 73 19 29 11 87 29 128 42 72 21 241 80 345 122 28 11 70
27 95 37 112 42 361 165 531 261 79 45 153 86 164 93 99 55 421 286 532 380
39 34 93 79 120 101 26 21 131 123 233 225 163 162 258 269 416 465 135 168
329 465 457 699 86 156 237 472 277 576 24 63 45 79 99 73 52 -5 227 10 371
32 305 46 565 177 761 382 113 118 210 269 287 443 19 41 42 91 53 111 24 45
24 72 2 91 -22 18 -203 127 -258 155 -53 27 -164 71 -195 77 -14 3 -54 12 -90
20 -99 22 -140 26 -341 33 -118 3 -230 1 -304 -7 -100 -10 -120 -10 -132 3 -8
7 -23 55 -33 105 -72 345 -336 704 -720 979 -96 68 -120 78 -141 61z"/>
<path d="M787 6308 c-16 -12 -17 -52 -18 -488 l0 -475 22 -18 c20 -16 55 -17
515 -15 424 3 495 5 508 18 13 13 16 81 16 490 1 440 0 475 -16 487 -25 19
-1002 19 -1027 1z"/>
<path d="M2006 6302 c-15 -17 -16 -64 -17 -479 0 -252 3 -466 6 -475 14 -36
46 -38 534 -38 457 0 480 1 502 19 l24 19 0 472 c0 455 -1 472 -19 486 -17 12
-103 14 -516 14 -470 0 -498 -1 -514 -18z"/>
<path d="M3232 6304 l-22 -15 0 -468 c0 -388 2 -470 14 -487 14 -18 33 -19
503 -22 268 -1 498 0 510 3 41 10 44 51 41 526 -2 360 -6 449 -17 462 -12 15
-60 17 -510 17 -433 0 -499 -2 -519 -16z"/>
<path d="M4445 6296 c-14 -20 -15 -81 -13 -486 l3 -462 24 -19 c22 -18 46 -19
512 -19 476 0 490 1 509 20 19 19 20 33 20 483 0 402 -2 465 -16 485 l-15 22
-504 0 -505 0 -15 -24z"/>
<path d="M5676 6304 c-9 -8 -16 -23 -16 -32 0 -9 0 -222 -1 -472 0 -453 0
-455 22 -472 20 -17 59 -18 509 -18 450 0 489 1 509 18 22 17 22 18 22 490 0
346 -3 478 -12 488 -10 12 -95 14 -515 14 -444 0 -504 -2 -518 -16z"/>
</g>
</svg>
