<?xml version="1.0" standalone="no"?>
<!DOCTYPE svg PUBLIC "-//W3C//DTD SVG 20010904//EN"
 "http://www.w3.org/TR/2001/REC-SVG-20010904/DTD/svg10.dtd">
<svg version="1.0" xmlns="http://www.w3.org/2000/svg"
 width="1263.000000pt" height="319.000000pt" viewBox="0 0 1263.000000 319.000000"
 preserveAspectRatio="xMidYMid meet">

<g transform="translate(0.000000,319.000000) scale(0.100000,-0.100000)"
fill="#000000" stroke="none">
<path d="M1970 2990 l0 -199 221 -3 c130 -2 224 1 230 7 5 5 9 94 9 202 l0
193 -230 0 -230 0 0 -200z"/>
<path d="M894 2687 c-2 -7 -3 -102 -2 -212 l3 -200 225 0 225 0 3 199 c2 138
-1 203 -9 212 -16 20 -437 21 -445 1z"/>
<path d="M1435 2687 c-3 -7 -4 -102 -3 -212 l3 -200 225 0 225 0 0 210 0 210
-223 3 c-175 2 -224 0 -227 -11z"/>
<path d="M1975 2687 c-3 -7 -4 -102 -3 -212 l3 -200 225 0 225 0 0 210 0 210
-223 3 c-175 2 -224 0 -227 -11z"/>
<path d="M3436 2548 c-46 -62 -95 -163 -122 -253 -22 -76 -26 -110 -27 -215 0
-140 11 -198 53 -282 28 -55 28 -58 11 -67 -39 -21 -128 -50 -185 -60 -40 -8
-557 -11 -1598 -11 -1456 0 -1539 -1 -1546 -17 -15 -37 -7 -394 10 -488 63
-335 239 -647 469 -829 187 -148 405 -242 639 -275 47 -7 99 -16 116 -22 40
-12 421 -12 476 1 24 5 88 14 143 21 434 50 855 221 1175 478 87 69 248 229
318 316 31 39 60 72 63 75 40 35 243 394 299 530 l15 35 110 11 c148 16 167
21 260 64 133 63 206 138 284 297 17 34 31 68 31 76 0 8 -17 25 -37 39 -118
77 -222 101 -412 96 -148 -3 -145 -4 -156 63 -8 55 -77 187 -132 254 -44 55
-206 195 -224 195 -5 0 -19 -15 -33 -32z"/>
<path d="M6043 2380 c-40 -9 -60 -24 -79 -61 -11 -22 -14 -86 -14 -319 0 -159
-2 -290 -5 -290 -3 0 -26 13 -53 30 -72 44 -169 78 -266 92 -73 10 -98 9 -178
-5 -315 -55 -538 -318 -538 -634 0 -208 114 -414 296 -533 109 -72 193 -95
339 -95 139 0 186 11 300 68 160 81 289 245 329 421 23 96 24 1222 2 1265 -27
51 -75 73 -133 61z m-411 -791 c122 -26 226 -110 280 -225 55 -118 48 -257
-18 -370 -35 -60 -115 -131 -182 -162 -50 -23 -70 -27 -162 -27 -94 0 -111 3
-163 27 -81 38 -168 124 -203 201 -26 55 -29 73 -29 162 0 123 22 185 94 266
99 111 240 158 383 128z"/>
<path d="M9054 2376 c-17 -8 -40 -26 -52 -41 l-22 -28 0 -829 c0 -721 2 -833
15 -858 35 -68 135 -79 188 -20 l27 30 0 223 c0 122 4 227 8 233 8 11 83 64
118 82 20 11 42 -11 293 -293 290 -326 292 -327 370 -310 62 13 99 96 74 161
-4 10 -119 144 -255 297 -137 153 -247 284 -245 290 2 6 107 78 233 159 126
82 239 160 252 174 27 31 30 93 5 135 -25 42 -78 65 -123 52 -19 -5 -188 -109
-374 -231 -187 -121 -343 -219 -347 -216 -5 2 -8 210 -9 460 0 512 1 499 -72
529 -46 18 -45 18 -84 1z"/>
<path d="M355 2167 c-3 -7 -4 -102 -3 -212 l3 -200 222 -3 223 -2 5 22 c3 13
4 109 3 213 l-3 190 -223 3 c-175 2 -224 0 -227 -11z"/>
<path d="M895 2167 c-3 -7 -4 -102 -3 -212 l3 -200 222 -3 223 -2 5 22 c3 13
4 109 3 213 l-3 190 -223 3 c-175 2 -224 0 -227 -11z"/>
<path d="M1435 2167 c-3 -7 -4 -102 -3 -212 l3 -200 225 0 225 0 0 210 0 210
-223 3 c-175 2 -224 0 -227 -11z"/>
<path d="M1975 2167 c-3 -7 -4 -102 -3 -212 l3 -200 225 0 225 0 0 210 0 210
-223 3 c-175 2 -224 0 -227 -11z"/>
<path d="M2515 2167 c-3 -7 -4 -102 -3 -212 l3 -200 228 -3 227 -2 -2 212 -3
213 -223 3 c-175 2 -224 0 -227 -11z"/>
<path d="M8281 1829 c-131 -22 -256 -86 -349 -179 -78 -78 -123 -149 -159
-252 -23 -63 -26 -90 -27 -198 -1 -97 3 -137 18 -180 63 -187 189 -330 360
-409 152 -70 373 -67 528 8 150 73 207 146 175 223 -33 78 -118 96 -197 42
-111 -77 -204 -101 -313 -82 -314 54 -444 430 -230 667 68 77 189 131 294 131
58 0 163 -32 209 -63 38 -26 123 -67 139 -67 29 0 80 36 95 67 41 86 -3 151
-153 227 -127 65 -259 86 -390 65z"/>
<path d="M10740 1825 c-247 -49 -443 -232 -504 -471 -19 -72 -21 -234 -5 -302
6 -26 31 -88 54 -138 99 -207 297 -338 531 -351 168 -9 336 43 438 137 50 47
63 84 46 135 -28 85 -114 100 -208 37 -139 -93 -278 -105 -416 -35 -64 33
-150 114 -176 167 -39 82 -78 76 449 76 465 0 468 0 496 22 45 35 56 74 45
164 -12 104 -25 145 -68 228 -89 170 -260 294 -460 332 -88 17 -135 17 -222
-1z m233 -245 c84 -26 168 -89 218 -163 36 -55 50 -97 32 -97 -483 -2 -737 0
-743 7 -12 12 27 86 72 138 101 115 271 161 421 115z"/>
<path d="M11689 1817 c-18 -12 -39 -34 -46 -47 -10 -19 -13 -154 -13 -568 0
-483 2 -548 16 -578 34 -72 129 -84 188 -25 l31 31 5 333 c7 370 8 380 78 472
103 136 261 190 432 146 116 -29 135 -28 176 13 30 30 34 40 34 84 0 46 -3 53
-40 85 -70 59 -226 89 -363 68 -94 -15 -212 -57 -262 -95 -39 -30 -55 -33 -55
-8 0 31 -40 83 -75 98 -47 19 -66 18 -106 -9z"/>
<path d="M6850 1821 c-50 -10 -126 -38 -199 -75 -69 -36 -186 -152 -212 -212
-12 -27 -28 -56 -35 -65 -23 -26 -55 -130 -64 -204 -15 -129 27 -305 98 -411
87 -131 215 -224 368 -270 93 -28 257 -24 359 9 188 61 347 216 407 395 41
123 41 290 0 412 -62 189 -222 343 -421 407 -55 17 -238 25 -301 14z m195
-232 c22 -5 48 -12 58 -14 35 -8 105 -55 149 -98 53 -54 95 -137 110 -217 31
-163 -66 -345 -227 -425 -56 -28 -68 -30 -170 -30 -101 0 -115 2 -170 29 -254
125 -307 459 -103 652 99 94 235 133 353 103z"/>
</g>
</svg>
