<?xml version="1.0" standalone="no"?>
<!DOCTYPE svg PUBLIC "-//W3C//DTD SVG 20010904//EN"
 "http://www.w3.org/TR/2001/REC-SVG-20010904/DTD/svg10.dtd">
<svg version="1.0" xmlns="http://www.w3.org/2000/svg"
 width="1008.000000pt" height="1008.000000pt" viewBox="0 0 1008.000000 1008.000000"
 preserveAspectRatio="xMidYMid meet">

<g transform="translate(0.000000,1008.000000) scale(0.100000,-0.100000)"
fill="#000000" stroke="none">
<path d="M621 8480 c-1 -883 3 -1610 7 -1616 4 -6 30 -23 58 -37 27 -14 56
-32 63 -41 7 -9 50 -34 95 -56 46 -22 91 -49 100 -59 10 -11 31 -23 47 -26 16
-4 35 -12 42 -18 11 -11 43 -29 145 -83 24 -12 53 -31 65 -41 12 -11 47 -32
78 -47 32 -14 62 -33 69 -41 7 -8 21 -15 31 -15 11 0 19 -3 19 -7 0 -5 29 -21
65 -37 36 -16 65 -32 65 -36 0 -4 25 -20 55 -34 30 -15 57 -32 60 -37 4 -5 25
-18 49 -29 23 -10 49 -26 56 -35 7 -8 22 -15 34 -15 13 0 32 -13 45 -31 12
-16 33 -34 47 -39 13 -5 24 -14 24 -20 0 -6 10 -10 23 -9 23 3 90 -25 120 -49
19 -17 51 -36 82 -51 12 -5 27 -16 34 -25 7 -9 23 -16 36 -16 12 0 30 -9 40
-20 10 -11 26 -20 37 -20 10 0 18 -4 18 -10 0 -5 7 -10 15 -10 9 0 28 -11 42
-24 15 -14 30 -23 34 -21 4 3 12 -2 19 -10 7 -8 18 -15 25 -15 6 0 20 -9 30
-20 10 -11 28 -20 40 -20 13 0 28 -7 35 -15 7 -9 32 -24 54 -35 23 -10 50 -28
60 -39 11 -12 24 -21 31 -21 16 0 73 -29 80 -41 4 -5 26 -18 50 -29 24 -11 47
-24 50 -30 3 -6 26 -19 51 -30 24 -11 44 -27 44 -35 0 -8 8 -15 18 -15 11 0
27 -9 37 -20 11 -13 25 -18 37 -14 10 3 18 1 18 -5 0 -6 6 -11 13 -11 23 0 71
-28 97 -55 13 -14 33 -25 45 -25 11 0 27 -6 34 -12 10 -11 15 -9 26 6 12 16
15 253 15 1572 0 1037 -3 1555 -10 1559 -5 3 -10 14 -10 24 0 22 -43 62 -97
89 -67 34 -87 46 -114 70 -27 24 -155 92 -172 92 -5 0 -17 8 -26 18 -19 20
-56 42 -72 42 -5 0 -25 11 -43 25 -18 14 -39 25 -48 25 -8 0 -27 14 -43 30
-16 17 -38 30 -50 30 -12 0 -32 11 -45 25 -13 14 -38 28 -57 31 -18 3 -37 11
-41 18 -9 13 -36 32 -79 51 -17 8 -38 24 -45 34 -8 11 -26 25 -41 30 -15 6
-27 15 -27 21 0 6 -8 10 -17 8 -19 -3 -88 27 -98 42 -7 12 -65 40 -82 40 -7 0
-13 5 -13 10 0 6 -6 10 -12 10 -7 0 -24 9 -38 20 -14 11 -33 20 -42 20 -10 0
-35 15 -55 33 -21 18 -72 50 -115 71 -42 20 -82 43 -88 51 -7 8 -19 15 -28 15
-8 0 -37 16 -63 35 -27 19 -53 35 -57 35 -5 0 -17 9 -27 20 -10 11 -28 20 -40
20 -13 0 -28 7 -35 15 -7 8 -40 29 -74 45 -34 16 -70 38 -81 50 -10 11 -28 20
-40 20 -12 0 -30 8 -41 18 -27 23 -61 42 -77 42 -7 0 -24 11 -37 25 -13 14
-29 25 -36 25 -6 0 -17 7 -24 15 -7 8 -41 29 -75 45 -34 16 -68 37 -75 45 -7
8 -21 15 -31 15 -11 0 -19 5 -19 10 0 6 -9 10 -20 10 -11 0 -20 7 -20 15 0 9
-10 19 -22 24 -13 5 -32 18 -42 30 -12 13 -31 21 -52 21 -18 0 -36 5 -39 10
-3 6 -14 10 -24 10 -10 0 -26 10 -34 23 -15 20 -16 -122 -16 -1583z"/>
<path d="M9313 8329 c-13 -4 -23 -13 -23 -18 0 -19 -32 -41 -60 -41 -19 0 -36
-10 -53 -30 -16 -19 -35 -30 -51 -30 -22 0 -26 -4 -26 -30 0 -33 -14 -39 -28
-14 -8 14 -12 13 -29 -10 -12 -15 -27 -24 -35 -21 -8 3 -23 -3 -33 -15 -10
-11 -26 -20 -36 -20 -10 0 -34 -13 -52 -30 -19 -16 -42 -30 -50 -30 -29 0 -65
-22 -76 -46 -8 -18 -19 -24 -43 -24 -25 0 -38 -7 -53 -30 -14 -21 -28 -30 -47
-30 -17 0 -33 -8 -40 -20 -7 -11 -21 -20 -31 -20 -27 0 -75 -28 -87 -50 -7
-13 -21 -20 -38 -20 -28 0 -72 -31 -72 -50 0 -6 -14 -10 -30 -10 -18 0 -37 -8
-47 -20 -10 -11 -23 -20 -30 -20 -7 0 -13 -4 -13 -9 0 -5 -12 -12 -27 -16 -15
-3 -33 -15 -41 -26 -7 -10 -22 -19 -32 -19 -31 0 -68 -21 -73 -41 -4 -13 -14
-19 -35 -19 -20 0 -45 -12 -72 -35 -23 -19 -50 -35 -60 -35 -11 0 -23 -6 -27
-13 -11 -18 -59 -47 -77 -47 -9 0 -20 -8 -25 -19 -6 -10 -30 -24 -55 -31 -24
-6 -54 -23 -65 -36 -12 -13 -32 -24 -46 -24 -20 0 -25 -5 -25 -23 0 -30 -10
-40 -26 -26 -8 7 -14 7 -19 -1 -3 -5 -16 -10 -27 -10 -11 0 -31 -11 -44 -25
-12 -13 -35 -27 -51 -31 -15 -4 -39 -16 -53 -28 -14 -12 -42 -28 -63 -35 -21
-7 -49 -23 -62 -37 -13 -13 -34 -24 -46 -24 -12 0 -37 -13 -56 -30 -18 -16
-40 -30 -48 -30 -8 0 -19 -9 -25 -20 -6 -10 -29 -25 -53 -31 -23 -7 -55 -26
-70 -42 -16 -17 -34 -27 -43 -23 -8 3 -30 -9 -53 -29 -21 -19 -47 -35 -58 -35
-12 0 -26 -7 -33 -15 -7 -8 -32 -24 -55 -34 -32 -14 -47 -29 -64 -63 l-21 -45
0 -1564 c0 -1243 2 -1566 12 -1576 20 -19 141 21 176 58 15 16 37 29 49 29 12
0 26 6 30 14 4 7 28 23 53 34 25 11 53 30 62 41 10 12 30 21 44 21 16 0 37 11
54 30 16 17 38 30 52 30 14 0 35 11 48 25 12 13 62 44 109 67 47 24 92 51 99
61 7 9 22 17 32 17 30 0 69 21 75 40 3 11 20 21 41 24 22 5 39 15 45 29 12 26
54 48 75 40 8 -3 25 6 38 20 14 15 37 29 53 33 15 4 38 18 50 31 12 12 29 23
37 23 25 0 66 22 66 36 0 7 18 18 40 24 22 6 52 22 66 35 15 14 35 25 46 25
10 0 28 11 40 25 12 14 40 30 62 36 22 6 46 19 54 30 7 10 30 23 51 29 21 5
50 21 65 35 15 14 36 25 46 25 11 0 24 9 30 19 5 11 27 25 47 32 21 7 50 25
64 41 18 18 37 28 56 28 20 0 38 10 56 30 15 17 37 30 49 30 12 0 31 9 42 19
23 21 87 59 153 90 23 11 46 28 52 39 6 12 25 21 49 24 25 4 49 16 69 37 17
17 39 31 48 31 9 0 28 14 42 30 17 21 34 30 54 30 18 0 32 7 39 20 6 11 20 20
31 20 27 0 59 17 86 47 12 12 31 23 41 23 14 0 26 15 41 49 l21 49 0 1538 c0
1366 -1 1540 -15 1561 -9 12 -23 23 -31 23 -13 0 -14 -3 -5 -13 20 -25 -2 -28
-28 -3 -20 19 -31 22 -48 15z m-1783 -1089 c0 -5 -4 -10 -10 -10 -5 0 -10 5
-10 10 0 6 5 10 10 10 6 0 10 -4 10 -10z"/>
<path d="M3608 8309 c-17 -9 -18 -96 -18 -1588 l0 -1579 33 -15 c18 -9 43 -27
56 -41 14 -14 34 -26 46 -26 12 0 34 -13 50 -30 16 -16 38 -30 50 -30 12 0 33
-11 47 -23 14 -13 43 -31 64 -39 23 -9 45 -27 52 -42 7 -14 21 -26 31 -26 10
0 24 -7 31 -15 7 -9 19 -14 27 -11 17 7 83 -28 113 -59 13 -14 33 -25 45 -25
12 0 30 -8 41 -17 27 -24 61 -43 77 -43 7 0 24 -11 37 -24 12 -14 35 -28 50
-31 15 -3 36 -15 46 -26 18 -20 70 -49 88 -49 6 0 17 -9 24 -20 7 -11 21 -20
32 -20 23 0 52 -15 93 -47 16 -13 34 -23 42 -23 7 0 18 -7 25 -15 7 -9 32 -25
55 -35 23 -10 48 -26 55 -35 7 -8 20 -15 30 -15 22 0 74 -26 91 -46 7 -8 27
-21 46 -29 18 -8 33 -19 33 -24 0 -6 9 -11 19 -11 11 0 23 -4 26 -10 3 -5 15
-10 26 -10 10 0 33 -12 49 -26 30 -27 57 -45 95 -63 12 -5 27 -16 34 -25 7 -9
24 -16 36 -16 12 0 28 -7 35 -15 14 -17 67 -45 85 -45 7 0 16 -11 19 -25 4
-14 13 -25 21 -25 8 0 24 -9 35 -20 11 -11 28 -20 38 -20 23 0 116 -46 132
-65 7 -8 23 -15 35 -15 12 0 28 -7 35 -15 7 -9 34 -25 58 -37 25 -11 52 -26
60 -34 7 -8 33 -23 57 -34 24 -11 47 -24 50 -30 3 -6 25 -19 49 -30 23 -10 49
-26 56 -35 7 -8 23 -15 36 -15 16 0 28 -8 35 -24 6 -13 32 -34 56 -47 l45 -23
29 32 29 32 0 1544 0 1544 -25 30 c-14 17 -25 34 -25 40 0 5 -8 13 -17 16 -25
9 -60 30 -81 49 -10 10 -27 17 -38 17 -11 0 -29 8 -40 18 -26 22 -61 42 -75
42 -6 0 -29 15 -49 33 -83 71 -92 77 -124 77 -23 0 -41 9 -61 30 -16 17 -36
30 -45 30 -20 0 -77 27 -86 41 -3 5 -27 19 -52 31 -26 12 -56 30 -66 40 -11
10 -25 18 -31 18 -7 0 -20 9 -30 20 -10 11 -28 20 -39 20 -12 1 -39 14 -61 30
-22 16 -58 38 -81 49 -22 11 -47 27 -54 36 -7 8 -20 15 -30 15 -10 0 -23 7
-30 15 -7 9 -32 24 -54 35 -23 10 -50 28 -60 39 -11 12 -27 21 -36 21 -20 0
-77 27 -85 40 -3 5 -23 17 -43 26 -20 10 -46 25 -57 34 -11 10 -31 20 -45 23
-14 4 -41 20 -60 37 -19 16 -40 30 -46 30 -6 0 -17 7 -24 15 -16 19 -68 45
-90 45 -9 0 -25 9 -36 21 -10 11 -34 27 -52 35 -18 7 -54 32 -79 54 -25 22
-56 40 -69 40 -12 0 -26 5 -29 10 -3 6 -16 10 -29 10 -12 0 -35 13 -51 30 -15
16 -40 32 -56 35 -15 4 -33 13 -40 21 -7 8 -31 24 -54 34 -23 10 -48 26 -55
35 -7 8 -20 15 -30 15 -9 0 -25 9 -35 20 -22 24 -71 50 -95 50 -9 0 -29 14
-45 30 -16 17 -39 30 -51 30 -12 0 -27 7 -34 15 -7 9 -32 24 -54 35 -23 10
-50 28 -60 39 -21 23 -51 26 -78 10z"/>
<path d="M3608 4796 c-17 -12 -18 -100 -18 -1583 l0 -1569 38 -37 c21 -20 47
-37 59 -37 11 0 26 -7 33 -15 7 -9 29 -23 49 -32 20 -9 45 -24 56 -33 11 -10
37 -23 58 -30 25 -8 42 -21 47 -36 5 -13 16 -24 23 -24 7 0 23 -9 35 -20 12
-11 32 -20 45 -20 30 0 78 -24 101 -49 10 -11 31 -23 46 -26 15 -3 38 -17 50
-31 13 -13 29 -24 35 -24 16 0 73 -29 80 -41 4 -5 25 -18 49 -29 23 -10 49
-26 56 -35 7 -8 22 -15 35 -15 12 0 30 -9 40 -20 20 -22 71 -50 92 -50 7 0 13
-3 13 -7 0 -5 23 -19 50 -33 28 -13 60 -34 72 -47 12 -13 31 -23 43 -23 12 0
34 -13 50 -30 16 -16 39 -30 51 -30 12 0 27 -7 34 -15 13 -16 67 -45 83 -45
11 0 47 -39 47 -52 0 -4 7 -8 15 -8 8 0 24 -9 35 -20 11 -11 26 -17 35 -14 20
8 74 -18 104 -50 14 -14 34 -26 46 -26 12 0 30 -9 40 -20 19 -21 71 -50 89
-50 7 0 18 -9 26 -20 8 -11 20 -20 26 -20 16 0 143 -68 169 -90 11 -9 45 -29
76 -44 32 -14 62 -33 69 -41 7 -8 21 -15 31 -15 11 0 19 -4 19 -9 0 -5 24 -20
53 -34 28 -13 61 -34 71 -46 11 -11 27 -21 36 -21 22 0 74 -26 90 -45 7 -8 17
-15 22 -15 6 0 23 -11 40 -25 16 -14 38 -25 48 -25 11 0 35 -14 53 -30 43 -37
89 -40 111 -8 14 20 16 185 16 1563 0 1435 -1 1542 -17 1565 -25 35 -81 83
-119 100 -18 9 -41 22 -51 30 -29 24 -61 40 -80 40 -9 0 -28 11 -42 23 -15 13
-42 30 -61 38 -19 7 -44 21 -54 31 -11 10 -29 18 -41 18 -12 0 -34 14 -50 30
-16 17 -34 30 -40 30 -6 0 -21 11 -34 24 -12 12 -41 29 -64 37 -23 7 -58 26
-77 41 -19 15 -43 28 -53 28 -10 0 -39 20 -64 45 -24 25 -48 43 -53 40 -10 -6
-125 51 -141 71 -6 8 -22 14 -34 14 -12 0 -28 7 -35 15 -7 9 -36 26 -64 39
-28 13 -60 33 -70 45 -11 12 -56 39 -102 61 -45 22 -87 47 -94 55 -7 8 -22 15
-33 15 -12 0 -32 11 -46 23 -15 13 -42 30 -61 37 -19 7 -44 21 -55 30 -11 9
-36 24 -56 33 -19 9 -43 25 -54 37 -10 11 -28 20 -40 20 -12 0 -34 14 -50 30
-16 17 -38 30 -49 30 -25 1 -50 19 -59 43 -3 9 -15 17 -26 17 -11 0 -25 9 -31
20 -6 11 -20 20 -31 20 -26 0 -102 35 -119 55 -7 8 -22 15 -34 15 -12 0 -35
14 -51 30 -16 17 -38 30 -48 30 -11 0 -36 12 -56 28 -43 33 -58 41 -138 82
-34 17 -65 35 -68 40 -6 10 -63 40 -76 40 -4 0 -19 11 -33 25 -14 14 -34 25
-45 25 -11 0 -23 5 -26 10 -8 14 -26 12 -47 -4z"/>
</g>
</svg>
