<?xml version="1.0" standalone="no"?>
<!DOCTYPE svg PUBLIC "-//W3C//DTD SVG 20010904//EN"
 "http://www.w3.org/TR/2001/REC-SVG-20010904/DTD/svg10.dtd">
<svg version="1.0" xmlns="http://www.w3.org/2000/svg"
 width="1263.000000pt" height="473.000000pt" viewBox="0 0 1263.000000 473.000000"
 preserveAspectRatio="xMidYMid meet">

<g transform="translate(0.000000,473.000000) scale(0.100000,-0.100000)"
fill="#000000" stroke="none">
<path d="M0 3972 l0 -749 47 -30 c27 -16 147 -86 269 -155 278 -158 262 -149
292 -175 13 -13 28 -21 31 -18 4 2 33 -12 65 -31 31 -18 59 -34 61 -34 3 0 34
-18 70 -40 36 -22 67 -40 70 -40 9 0 211 -125 229 -142 10 -9 22 -15 26 -13 4
3 24 -6 44 -20 19 -13 43 -25 53 -27 17 -3 18 34 21 731 2 634 0 737 -12 757
-15 22 -32 33 -191 124 -49 28 -97 55 -105 60 -8 5 -42 25 -75 44 -33 19 -70
43 -81 55 -12 11 -24 17 -27 14 -5 -4 -85 38 -147 77 -8 5 -46 27 -85 49 -38
23 -88 51 -110 64 -22 13 -65 37 -97 54 -81 45 -230 135 -250 152 -13 11 -81
40 -95 41 -2 0 -3 -337 -3 -748z"/>
<path d="M4083 3899 c-14 -14 -52 -36 -75 -45 -10 -3 -18 -12 -18 -20 0 -7 -5
-16 -12 -20 -7 -4 -8 -3 -4 4 4 7 2 12 -3 12 -6 0 -11 -5 -11 -11 0 -5 -3 -8
-7 -6 -5 2 -21 -4 -38 -14 -16 -11 -42 -24 -57 -30 -16 -6 -28 -15 -28 -20 0
-5 -9 -9 -20 -9 -11 0 -20 -4 -20 -10 0 -5 -19 -19 -42 -30 -68 -34 -103 -53
-108 -59 -8 -10 -83 -51 -112 -62 -16 -6 -28 -15 -28 -20 0 -5 -8 -9 -19 -9
-10 0 -24 -7 -31 -15 -7 -8 -19 -15 -26 -15 -8 0 -14 -4 -14 -10 0 -5 -11 -12
-25 -16 -14 -3 -25 -10 -25 -14 0 -4 -11 -11 -25 -14 -14 -4 -25 -11 -25 -16
0 -6 -9 -10 -20 -10 -11 0 -20 -6 -20 -13 0 -7 -9 -13 -20 -14 -11 -1 -27 -9
-36 -17 -8 -9 -21 -16 -29 -16 -7 0 -15 -3 -17 -7 -1 -5 -21 -17 -43 -28 -22
-10 -56 -32 -76 -47 -20 -15 -43 -28 -51 -28 -8 0 -19 -5 -25 -11 -12 -12 -27
-21 -95 -57 -25 -13 -49 -35 -56 -51 -9 -21 -12 -200 -10 -757 3 -655 5 -729
19 -732 19 -3 48 9 114 48 28 17 59 35 70 40 11 6 34 19 50 30 49 31 136 79
156 85 11 4 19 11 19 16 0 5 7 9 15 9 7 0 18 7 23 16 5 8 15 16 23 17 8 2 30
12 49 23 19 11 42 23 50 27 8 4 29 16 45 27 17 11 40 24 52 29 11 5 24 15 28
20 3 6 15 11 26 11 10 0 19 4 19 9 0 5 10 13 23 17 12 4 36 16 52 28 38 27 67
45 80 50 40 16 58 26 110 61 50 33 69 45 85 51 8 3 22 10 30 15 8 5 23 12 32
15 9 3 19 12 22 20 3 8 15 14 26 14 11 0 20 4 20 9 0 5 11 12 25 15 14 4 25
11 25 16 0 6 7 10 15 10 8 0 19 9 25 19 7 13 10 267 10 754 0 655 -2 736 -16
741 -10 4 -13 2 -8 -7 5 -9 4 -9 -7 1 -16 15 -22 15 -36 1z"/>
<path d="M1407 3893 c-4 -3 -7 -338 -7 -744 l0 -737 28 -18 c35 -24 51 -34
104 -62 24 -13 48 -29 53 -36 6 -7 27 -18 47 -25 20 -7 42 -19 48 -27 7 -7 16
-14 21 -14 5 0 49 -25 99 -55 50 -30 94 -55 98 -55 4 0 23 -11 42 -24 31 -21
88 -53 188 -107 18 -9 38 -22 45 -27 7 -5 39 -24 72 -42 33 -18 62 -36 65 -40
3 -4 43 -28 90 -52 47 -25 115 -64 153 -86 37 -23 72 -42 77 -42 6 0 10 -4 10
-10 0 -5 9 -14 21 -20 50 -27 49 -44 49 744 -1 559 -4 735 -13 747 -7 9 -40
31 -74 50 -34 19 -73 44 -87 57 -15 12 -35 22 -45 22 -10 0 -24 7 -31 15 -7 8
-18 15 -24 15 -6 0 -39 18 -74 40 -34 22 -66 40 -69 40 -4 0 -38 20 -77 44
-39 24 -98 59 -131 77 -33 17 -69 37 -80 43 -11 6 -34 20 -50 32 -17 11 -50
31 -75 43 -25 13 -53 31 -62 41 -9 10 -31 21 -47 25 -16 3 -35 13 -42 21 -6 8
-16 14 -21 14 -5 0 -34 16 -65 36 -31 19 -65 40 -77 45 -12 5 -30 15 -41 21
-87 56 -106 64 -118 51z"/>
<path d="M8955 3168 c-27 -5 -57 -14 -65 -19 -8 -5 -25 -13 -38 -19 -30 -13
-92 -76 -92 -93 0 -8 -6 -20 -14 -26 -19 -16 -27 -66 -33 -203 l-4 -117 -82
-3 -82 -3 0 -115 0 -115 80 -5 80 -5 3 -415 c2 -376 4 -416 19 -427 23 -17
254 -18 271 -1 9 9 12 118 12 430 l0 418 125 0 c150 0 145 -5 145 139 l0 101
-136 0 -136 0 5 78 c5 87 15 133 31 145 6 4 60 6 120 5 l109 -3 18 40 c21 48
26 177 7 193 -25 20 -272 35 -343 20z"/>
<path d="M4444 3077 c-2 -7 -3 -69 -2 -138 l3 -124 200 -5 200 -5 5 -605 5
-605 147 -3 148 -3 2 608 3 608 200 3 c144 2 201 6 207 15 13 20 10 241 -4
255 -18 18 -1107 17 -1114 -1z"/>
<path d="M5620 2705 c-14 -8 -37 -14 -51 -15 -15 0 -32 -7 -39 -15 -7 -8 -20
-15 -29 -15 -19 0 -121 -90 -121 -107 0 -6 -7 -13 -15 -17 -8 -3 -15 -17 -15
-31 0 -14 -4 -25 -9 -25 -4 0 -11 -21 -15 -46 -3 -26 -11 -53 -16 -59 -7 -9
-9 -93 -7 -241 3 -216 11 -282 38 -336 5 -10 9 -24 9 -32 0 -19 105 -126 124
-126 9 0 16 -4 16 -9 0 -5 13 -12 30 -16 16 -4 32 -11 35 -16 4 -5 22 -9 41
-9 19 0 69 -7 111 -16 62 -13 85 -13 122 -4 25 7 80 16 121 20 82 9 147 24
198 46 28 13 32 19 32 55 0 22 -5 50 -12 62 -7 12 -15 42 -18 67 l-5 45 -70
-3 c-38 -2 -81 -10 -97 -18 -19 -10 -64 -14 -153 -14 -131 0 -127 -1 -193 46
-2 1 -10 28 -17 61 -25 103 -56 93 284 93 263 0 300 2 305 16 3 9 6 81 6 160
0 106 -4 154 -15 181 -8 19 -15 50 -15 68 0 18 -7 38 -15 45 -8 7 -15 19 -15
27 0 16 -10 30 -68 89 -23 24 -48 44 -56 44 -7 0 -19 7 -26 15 -7 8 -23 15
-35 15 -12 0 -39 7 -58 15 -49 20 -251 20 -287 0z m194 -244 c3 -4 19 -11 36
-14 16 -4 30 -11 30 -17 0 -6 7 -18 15 -27 12 -11 15 -31 13 -72 l-3 -56 -152
-3 -153 -3 0 40 c0 22 5 43 10 46 6 3 10 14 10 24 0 26 42 71 67 71 12 0 25 5
28 10 8 12 92 13 99 1z"/>
<path d="M6830 2705 c-7 -8 -23 -15 -35 -15 -12 0 -28 -7 -35 -15 -7 -8 -20
-15 -29 -15 -9 0 -21 -4 -26 -9 -6 -5 -31 -20 -57 -35 l-48 -26 0 28 c-1 73 1
72 -141 72 -125 0 -129 -1 -134 -22 -3 -13 -4 -256 -3 -541 3 -447 5 -519 18
-527 8 -5 74 -10 146 -10 103 0 134 3 144 14 8 11 11 99 10 335 0 176 2 331 6
345 3 14 12 26 20 26 8 0 14 4 14 9 0 5 11 12 25 15 14 4 25 11 25 16 0 6 8
10 19 10 10 0 24 6 30 14 7 8 23 17 36 20 14 4 25 11 25 16 0 6 11 10 24 10
15 0 30 10 41 26 15 23 16 33 6 64 -6 21 -11 72 -11 113 0 65 -3 78 -19 87
-26 14 -36 13 -51 -5z"/>
<path d="M7480 2705 c-7 -8 -23 -15 -35 -15 -12 0 -28 -7 -35 -15 -7 -8 -20
-15 -30 -15 -10 0 -23 -7 -30 -15 -7 -8 -17 -15 -22 -15 -6 0 -23 -9 -39 -21
l-29 -20 0 38 c0 22 -5 44 -12 51 -8 8 -53 12 -135 12 l-123 0 2 -547 3 -548
139 -3 c105 -2 141 1 148 10 4 7 8 166 8 353 l1 340 32 20 c18 11 59 34 92 50
33 17 65 36 73 43 7 6 21 12 31 12 33 0 41 22 41 115 0 108 -18 179 -47 183
-11 2 -26 -4 -33 -13z"/>
<path d="M7825 2705 c-22 -8 -56 -15 -75 -15 -19 0 -54 -8 -78 -17 -43 -18
-43 -18 -37 -58 3 -22 8 -68 11 -102 7 -80 18 -90 87 -74 29 6 123 11 209 12
204 1 207 -1 208 -118 0 -45 3 -88 6 -97 5 -14 -14 -16 -178 -16 -146 0 -188
-3 -204 -15 -10 -8 -26 -15 -34 -15 -25 -1 -88 -62 -114 -113 -24 -44 -26 -58
-26 -172 0 -72 4 -126 10 -130 6 -3 10 -14 10 -23 0 -46 114 -162 158 -162 10
0 40 -7 66 -16 43 -15 52 -15 111 0 35 9 73 16 85 16 11 0 28 4 38 8 9 5 41
21 69 35 l53 26 8 -32 8 -32 113 -3 c77 -2 118 1 128 9 12 11 13 70 9 398 -5
422 -8 465 -38 529 -24 51 -97 132 -119 132 -9 0 -22 7 -29 15 -7 8 -29 15
-49 15 -20 1 -47 7 -61 15 -35 20 -289 20 -345 0z m328 -762 c-1 -32 -2 -63
-2 -69 -1 -7 -12 -15 -26 -18 -14 -4 -25 -11 -25 -16 0 -6 -41 -10 -100 -10
l-100 0 0 71 c0 95 5 98 145 99 l110 0 -2 -57z"/>
<path d="M9646 2705 c-15 -8 -43 -15 -61 -15 -18 0 -38 -7 -45 -15 -7 -8 -21
-15 -32 -15 -10 0 -21 -7 -24 -15 -4 -8 -11 -15 -17 -15 -13 0 -86 -78 -98
-105 -5 -11 -13 -27 -18 -35 -34 -58 -41 -117 -41 -345 0 -228 7 -287 41 -345
5 -8 14 -25 19 -38 13 -31 107 -122 126 -122 8 0 14 -4 14 -9 0 -5 15 -13 33
-16 17 -4 37 -11 42 -15 15 -11 121 -24 205 -24 133 0 200 14 287 56 70 35
172 165 173 222 1 12 7 32 15 46 21 37 21 466 0 494 -8 11 -15 35 -15 53 0 18
-4 33 -8 33 -5 0 -16 17 -25 38 -10 20 -25 46 -35 57 -28 33 -99 85 -115 85
-8 0 -20 7 -27 15 -7 8 -27 15 -44 15 -17 1 -42 7 -56 15 -36 21 -254 20 -294
0z m271 -281 c18 -14 33 -31 33 -38 0 -8 7 -27 15 -42 22 -43 21 -348 -1 -401
-26 -61 -30 -66 -45 -73 -8 -4 -28 -15 -46 -24 -46 -24 -113 -20 -175 9 -83
40 -88 57 -88 290 0 174 2 199 20 232 32 59 62 73 164 73 80 0 92 -3 123 -26z"/>
<path d="M10876 2705 c-8 -8 -23 -15 -34 -15 -11 0 -25 -7 -32 -15 -7 -8 -18
-15 -25 -15 -14 0 -77 -31 -85 -41 -3 -4 -16 -9 -30 -10 -22 -4 -26 0 -30 36
l-5 40 -130 0 -130 0 -3 -528 c-1 -353 1 -534 8 -547 10 -18 22 -20 148 -20
94 0 142 4 150 12 9 9 12 102 12 356 0 335 0 344 20 349 11 3 20 9 20 13 0 4
23 18 50 31 28 13 50 27 50 31 0 5 8 8 19 8 10 0 24 7 31 15 7 8 20 15 29 15
10 0 28 11 40 24 23 24 23 25 7 88 -9 36 -16 89 -16 120 0 42 -4 57 -16 62
-23 9 -31 8 -48 -9z"/>
<path d="M11570 2705 c-14 -8 -43 -15 -65 -15 -22 0 -49 -7 -59 -15 -11 -8
-32 -15 -48 -15 -15 0 -28 -4 -28 -10 0 -5 -6 -10 -12 -10 -7 0 -26 -7 -41
-15 -30 -15 -30 -16 -41 38 l-7 28 -117 -3 -117 -3 -3 -525 c-1 -289 0 -535 3
-548 5 -22 7 -23 148 -20 l142 3 3 369 c2 379 4 396 43 396 9 0 24 7 33 15 8
8 27 15 43 15 15 0 37 7 47 15 13 9 43 15 81 15 94 0 89 21 95 -435 l5 -390
134 -3 c90 -2 138 1 147 9 12 9 14 78 14 381 0 342 1 369 18 374 9 3 30 12 45
20 16 7 38 14 50 14 12 0 31 7 41 15 13 10 43 15 87 15 60 0 67 -2 75 -22 5
-13 11 -198 14 -413 l5 -390 151 -3 c119 -2 154 0 163 11 8 11 11 134 9 458
l-3 444 -22 -2 c-20 -2 -23 2 -23 31 0 18 -7 39 -15 46 -8 7 -15 18 -15 25 0
18 -71 85 -90 85 -10 0 -23 7 -30 15 -17 21 -194 21 -230 0 -14 -8 -44 -14
-66 -15 -24 0 -47 -6 -54 -15 -7 -8 -25 -15 -41 -15 -15 0 -30 -4 -34 -9 -3
-5 -19 -12 -35 -16 -17 -4 -30 -11 -30 -16 0 -19 -22 -8 -55 27 -58 61 -93 74
-197 74 -62 -1 -101 -6 -118 -15z"/>
<path d="M1407 2243 c-4 -3 -7 -338 -7 -743 0 -690 1 -738 18 -751 16 -13 51
-34 105 -62 13 -7 33 -22 47 -34 13 -13 30 -23 38 -23 8 0 49 -21 91 -46 42
-26 110 -65 151 -87 41 -22 81 -45 89 -51 14 -11 28 -19 93 -54 24 -13 48 -29
53 -36 6 -7 27 -18 47 -25 20 -7 42 -19 48 -27 7 -7 16 -14 20 -14 6 0 214
-117 285 -161 17 -10 44 -25 60 -33 17 -9 48 -27 70 -41 56 -35 63 -38 80 -31
13 5 15 96 15 739 l0 734 -22 20 c-20 18 -56 40 -183 107 -11 6 -34 21 -51 33
-17 12 -42 27 -55 33 -37 17 -71 37 -78 47 -3 5 -33 22 -66 38 -33 15 -82 43
-110 60 -27 18 -81 49 -120 70 -38 21 -86 48 -105 60 -19 12 -42 25 -50 29
-31 14 -56 32 -80 54 -13 12 -30 22 -37 22 -12 0 -62 25 -115 58 -61 38 -192
112 -208 117 -9 3 -19 2 -23 -2z"/>
</g>
</svg>
