<?xml version="1.0" standalone="no"?>
<!DOCTYPE svg PUBLIC "-//W3C//DTD SVG 20010904//EN"
 "http://www.w3.org/TR/2001/REC-SVG-20010904/DTD/svg10.dtd">
<svg version="1.0" xmlns="http://www.w3.org/2000/svg"
 width="1008.000000pt" height="1008.000000pt" viewBox="0 0 1008.000000 1008.000000"
 preserveAspectRatio="xMidYMid meet">

<g transform="translate(0.000000,1008.000000) scale(0.100000,-0.100000)"
fill="#000000" stroke="none">
<path d="M6 10064 c-3 -9 -6 -47 -6 -86 l0 -71 93 -93 c50 -51 691 -681 1424
-1401 732 -719 1333 -1311 1335 -1315 4 -8 -1399 -1458 -1534 -1585 -54 -51
-95 -93 -92 -93 3 0 -41 -51 -97 -112 -192 -211 -318 -402 -460 -693 -138
-284 -238 -564 -334 -940 -216 -837 -342 -2080 -333 -3270 l3 -400 125 -2 125
-2 1370 1419 c754 780 1373 1417 1376 1417 17 -5 1395 -1370 1491 -1477 61
-68 117 -125 125 -125 7 0 63 -47 125 -105 156 -147 223 -200 378 -303 149
-98 440 -247 625 -320 558 -219 1237 -367 2095 -456 459 -48 534 -51 1401 -51
745 0 827 2 833 16 3 9 6 47 6 86 l0 70 -52 53 c-29 30 -671 661 -1427 1403
-755 743 -1372 1354 -1371 1358 2 5 262 277 579 604 1042 1076 1156 1194 1216
1265 312 364 561 907 734 1600 206 828 328 2054 319 3210 l-3 410 -122 3 -122
3 -1373 -1418 c-755 -780 -1375 -1418 -1378 -1418 -9 0 -1306 1275 -1303 1281
2 2 -37 41 -85 86 -48 45 -170 162 -272 259 -102 98 -216 203 -255 234 -200
161 -549 358 -830 468 -639 250 -1429 407 -2480 492 -150 12 -363 15 -1016 15
-745 0 -827 -2 -833 -16z m769 -44 c1465 -50 2481 -193 3270 -460 397 -134
759 -317 1025 -520 83 -63 295 -257 294 -268 0 -4 10 -15 23 -25 13 -10 23
-24 23 -31 0 -7 20 -44 45 -82 143 -217 235 -501 266 -824 56 -589 -149 -1464
-567 -2406 l-49 -111 -60 1 c-51 1 -63 5 -82 26 -24 27 -59 100 -67 141 -3 14
-19 43 -36 64 -16 21 -34 54 -40 75 -5 20 -19 45 -30 55 -11 10 -20 26 -20 35
0 9 -9 25 -20 35 -11 10 -20 26 -20 35 0 9 -5 21 -11 27 -12 12 -32 45 -47 78
-6 11 -19 29 -31 39 -11 11 -21 27 -21 36 0 9 -10 25 -21 36 -30 27 -119 160
-119 178 0 8 -11 23 -25 34 -14 11 -25 26 -25 33 0 8 -21 33 -45 57 -25 24
-45 50 -45 58 0 15 -107 154 -119 154 -3 0 -11 10 -16 23 -6 12 -20 26 -32 32
-12 5 -28 21 -34 35 -17 33 -50 70 -63 70 -13 0 -146 131 -146 144 0 14 -41
56 -55 56 -6 0 -21 14 -33 30 -13 17 -28 30 -35 30 -7 0 -17 8 -23 18 -18 28
-199 154 -264 183 -54 24 -86 39 -100 48 -36 22 -90 41 -118 41 -17 0 -34 5
-37 10 -7 11 -31 12 -168 3 -69 -4 -95 -10 -121 -28 l-34 -23 -1363 1340
c-750 736 -1390 1365 -1421 1397 -59 60 -72 93 -46 119 15 15 260 16 663 2z
m9211 -30 c26 -61 -20 -1238 -71 -1830 -126 -1447 -411 -2464 -869 -3100 -123
-172 -307 -370 -342 -370 -13 0 -51 -20 -86 -44 -359 -249 -854 -339 -1438
-261 -487 66 -1107 257 -1740 538 l-145 64 -3 56 -3 56 148 75 c358 182 712
412 1013 661 142 117 405 386 495 506 96 128 165 243 204 338 68 164 78 321
28 422 l-26 53 37 40 c20 23 643 668 1385 1434 1192 1231 1352 1393 1375 1390
17 -2 31 -12 38 -28z m-3529 -2289 c515 -506 523 -515 523 -553 0 -28 9 -52
29 -81 48 -68 54 -111 31 -203 -120 -472 -745 -1053 -1645 -1530 -110 -58
-124 -63 -116 -42 5 12 32 77 61 143 286 660 469 1304 521 1827 18 184 6 664
-20 803 -17 95 -53 235 -77 300 -9 25 56 -37 693 -664z m-3201 -652 c38 -11
116 -45 174 -75 377 -195 786 -650 1159 -1289 72 -123 221 -405 221 -419 0 -2
-55 20 -122 51 -68 30 -217 92 -333 138 -792 315 -1446 449 -2032 415 -195
-11 -347 -37 -502 -83 l-110 -34 78 82 c42 45 313 326 601 624 516 533 525
541 563 541 23 0 50 8 67 20 76 54 132 61 236 29z m-326 -1359 c491 -72 1034
-239 1663 -513 l187 -81 0 -61 0 -60 -147 -75 c-272 -139 -594 -340 -822 -513
-169 -128 -276 -221 -427 -372 -207 -206 -330 -367 -422 -550 -64 -129 -87
-214 -87 -330 0 -89 3 -106 27 -155 l27 -54 -45 -51 c-24 -27 -646 -671 -1382
-1430 -1184 -1222 -1341 -1380 -1367 -1380 -50 0 -52 16 -44 385 34 1547 170
2645 434 3495 160 514 402 980 660 1265 149 164 188 200 222 200 17 0 35 5 38
10 11 18 190 119 276 155 331 142 752 182 1209 115z m2164 -496 c28 -4 46 -12
46 -20 0 -7 12 -22 28 -34 26 -21 27 -26 26 -104 0 -73 -3 -84 -25 -106 -14
-14 -46 -31 -72 -38 -57 -14 -157 -6 -157 14 0 7 -12 22 -27 34 -25 19 -27 26
-27 100 0 74 2 81 27 100 15 12 27 28 27 35 0 13 22 19 86 23 12 1 42 -1 68
-4z m619 -565 c386 -155 826 -290 1152 -353 544 -106 1070 -95 1435 29 l71 24
-43 -48 c-24 -26 -295 -307 -602 -624 l-559 -577 -44 0 c-31 0 -54 -7 -76 -24
-46 -34 -100 -49 -150 -41 -158 27 -373 149 -595 340 -313 269 -701 805 -967
1335 l-64 127 121 -53 c66 -30 211 -91 321 -135z m-973 -1 c-273 -644 -443
-1218 -507 -1723 -25 -201 -25 -665 0 -820 20 -118 56 -272 82 -344 8 -24 14
-46 12 -48 -2 -2 -279 267 -615 598 l-612 601 0 43 c0 26 -7 51 -19 66 -58 75
-66 141 -31 249 157 478 740 1014 1615 1483 77 42 143 76 146 76 4 1 -28 -81
-71 -181z m429 25 c347 -684 776 -1238 1211 -1565 128 -96 312 -190 416 -214
109 -24 235 -17 296 18 l46 25 1413 -1389 c778 -764 1418 -1400 1424 -1414 6
-17 6 -31 -1 -42 -15 -23 -187 -27 -634 -12 -1622 51 -2709 219 -3545 547
-185 73 -476 222 -625 320 -155 103 -222 156 -378 303 -82 77 -112 111 -112
129 0 13 -23 60 -51 104 -207 323 -301 775 -259 1242 44 485 183 1017 418
1610 69 173 184 445 199 467 2 5 29 8 58 8 l54 0 70 -137z"/>
</g>
</svg>
