<?xml version="1.0" standalone="no"?>
<!DOCTYPE svg PUBLIC "-//W3C//DTD SVG 20010904//EN"
 "http://www.w3.org/TR/2001/REC-SVG-20010904/DTD/svg10.dtd">
<svg version="1.0" xmlns="http://www.w3.org/2000/svg"
 width="1263.000000pt" height="720.000000pt" viewBox="0 0 1263.000000 720.000000"
 preserveAspectRatio="xMidYMid meet">

<g transform="translate(0.000000,720.000000) scale(0.100000,-0.100000)"
fill="#000000" stroke="none">
<path d="M9981 6859 c-72 -14 -127 -47 -188 -112 -66 -71 -121 -169 -152 -271
-12 -38 -48 -220 -81 -405 -33 -185 -75 -423 -94 -530 -19 -106 -40 -200 -48
-207 -7 -7 -200 -72 -428 -144 -606 -191 -716 -228 -804 -272 -97 -49 -177
-122 -213 -197 -24 -48 -28 -68 -28 -141 1 -76 4 -92 34 -153 40 -80 114 -160
198 -214 34 -22 226 -113 428 -203 322 -143 371 -162 394 -154 35 14 591 374
591 384 0 4 -192 84 -426 177 -234 93 -425 173 -425 179 0 5 250 88 556 185
306 97 560 180 564 185 5 5 50 243 101 529 112 632 109 620 123 606 6 -6 130
-210 277 -453 251 -418 268 -443 297 -446 17 -2 122 22 234 52 434 117 892
236 896 233 2 -2 -14 -24 -35 -48 -293 -336 -742 -875 -742 -892 0 -12 103
-217 229 -457 266 -507 275 -524 264 -517 -19 11 -824 229 -829 224 -6 -6 86
-551 96 -567 8 -12 794 -254 882 -271 31 -6 99 -10 151 -7 81 3 103 8 159 36
165 81 250 263 205 439 -20 74 -45 125 -334 672 -188 355 -223 428 -215 445 6
12 200 244 431 516 232 272 439 521 461 553 80 118 104 260 60 346 -47 93
-142 136 -295 135 -107 -1 -46 14 -1178 -288 -93 -25 -174 -43 -181 -40 -7 3
-120 184 -252 402 -131 218 -260 429 -286 467 -114 171 -257 252 -397 224z"/>
<path d="M5583 4525 c-199 -62 -317 -279 -257 -471 24 -79 97 -154 169 -174
92 -26 238 -9 249 29 8 28 19 151 13 151 -3 0 -21 -9 -40 -20 -81 -48 -186
-32 -226 34 -51 82 -35 173 43 252 80 79 175 92 250 33 32 -25 35 -20 38 80
l3 74 -35 13 c-45 16 -154 16 -207 -1z"/>
<path d="M3157 4508 c-8 -13 -74 -135 -147 -273 -73 -137 -146 -274 -162 -302
l-29 -53 88 0 89 0 32 65 32 66 108 -3 107 -3 8 -62 9 -63 80 0 c78 0 80 1 75
23 -3 12 -29 148 -56 302 -28 154 -54 290 -56 303 -5 21 -11 22 -85 22 -72 0
-81 -2 -93 -22z m78 -255 c3 -32 9 -68 12 -80 5 -22 2 -23 -56 -23 l-61 0 42
84 c23 47 45 83 49 81 4 -3 10 -31 14 -62z"/>
<path d="M3870 4524 c0 -3 -25 -147 -55 -319 -30 -171 -55 -315 -55 -319 0 -3
33 -6 73 -6 l73 0 19 115 18 115 62 0 c168 0 265 86 265 235 0 94 -34 148
-109 174 -35 11 -291 16 -291 5z m234 -150 c21 -21 20 -67 -2 -94 -14 -18 -32
-24 -77 -28 l-58 -5 7 27 c3 14 9 46 13 71 l6 45 48 0 c30 0 53 -6 63 -16z"/>
<path d="M4601 4210 c-94 -177 -171 -323 -171 -325 0 -3 38 -5 84 -5 l84 0 33
65 34 65 107 0 106 0 9 -62 8 -63 78 -3 c42 -2 77 1 77 5 0 4 -25 151 -57 326
l-57 317 -82 0 -82 0 -171 -320z m249 -32 c0 -27 -2 -28 -55 -28 -30 0 -55 2
-55 5 0 3 19 43 43 91 l42 86 12 -64 c7 -35 12 -75 13 -90z"/>
<path d="M6181 4223 c-30 -169 -56 -316 -59 -325 -4 -16 4 -18 70 -18 l75 0
21 123 c12 68 22 126 22 130 0 4 61 7 135 7 74 0 135 -4 135 -8 0 -5 -9 -58
-20 -118 -11 -60 -20 -115 -20 -122 0 -10 18 -12 72 -10 l72 3 51 290 c28 160
54 305 58 323 l7 32 -74 0 -74 0 -23 -125 -22 -125 -134 0 c-73 0 -133 4 -133
8 0 5 9 58 20 118 11 60 20 112 20 117 0 4 -33 7 -73 7 l-72 0 -54 -307z"/>
<path d="M7176 4503 c-11 -56 -106 -603 -106 -613 0 -6 67 -10 184 -10 l184 0
7 48 c3 26 9 57 12 70 5 22 4 22 -107 22 l-112 0 7 43 c12 81 6 76 118 79
l101 3 7 35 c4 19 9 50 13 68 l6 32 -104 0 -103 0 10 55 10 55 113 0 112 0 7
48 c3 26 9 57 12 70 l5 22 -185 0 -185 0 -6 -27z"/>
<path d="M1462 4260 c-293 -41 -533 -184 -718 -429 -136 -179 -192 -345 -181
-536 7 -126 26 -197 81 -310 53 -107 101 -166 413 -508 280 -306 345 -384 381
-457 76 -155 -4 -328 -198 -425 -127 -64 -235 -69 -349 -15 -93 44 -150 109
-222 253 -34 67 -66 121 -73 119 -41 -12 -556 -297 -556 -308 0 -23 59 -165
108 -258 57 -109 158 -221 258 -286 139 -91 342 -137 554 -127 474 23 838 260
1030 671 71 150 85 219 85 406 -1 154 -2 170 -28 245 -60 171 -118 249 -427
575 -239 252 -390 424 -427 488 -35 59 -30 143 13 204 113 160 355 177 509 36
30 -27 80 -88 111 -135 37 -56 60 -83 70 -79 18 7 514 376 514 383 0 14 -189
250 -235 291 -102 94 -208 153 -335 186 -76 21 -284 29 -378 16z"/>
<path d="M9413 3972 c-166 -108 -305 -200 -308 -204 -8 -7 -1 40 -205 -1518
-82 -630 -152 -1160 -154 -1178 l-5 -32 294 0 293 0 5 23 c3 12 40 291 83 620
43 328 81 597 85 597 4 0 183 -269 399 -597 216 -329 402 -608 413 -620 20
-22 22 -23 374 -25 194 -2 352 0 351 3 -2 3 -245 346 -541 762 l-538 757 18
24 c11 13 151 163 313 332 161 170 299 319 307 331 14 20 10 50 -32 300 -26
153 -51 281 -54 285 -3 4 -217 -227 -475 -512 -258 -286 -470 -519 -471 -517
-1 1 37 301 86 667 48 366 88 673 89 683 0 9 -6 17 -12 16 -7 0 -149 -89 -315
-197z"/>
<path d="M6186 3450 c-476 -45 -911 -347 -1133 -789 -170 -338 -189 -744 -48
-1048 196 -423 654 -662 1140 -593 149 21 350 83 387 119 12 12 26 90 57 328
23 171 41 321 41 333 0 19 -9 14 -64 -37 -110 -104 -231 -165 -389 -197 -207
-43 -397 14 -548 163 -118 118 -169 243 -169 417 0 343 244 649 595 745 101
28 260 30 354 6 231 -61 378 -259 411 -550 13 -113 7 -182 -65 -732 -30 -225
-57 -440 -61 -477 l-7 -68 261 0 261 0 6 33 c17 103 133 1012 146 1142 15 156
7 337 -21 440 -27 102 -104 263 -163 340 -49 65 -171 189 -227 230 -204 152
-477 222 -764 195z"/>
<path d="M3497 3430 c-321 -51 -580 -183 -812 -415 -227 -226 -345 -460 -400
-792 -14 -81 -51 -355 -84 -608 -33 -253 -83 -639 -112 -857 -28 -218 -49
-404 -46 -412 6 -14 38 -16 255 -16 188 0 252 3 259 13 6 6 34 198 63 425 30
226 57 417 60 423 5 7 28 -3 65 -26 312 -200 725 -227 1110 -71 285 115 560
364 722 653 223 399 208 935 -34 1265 -137 186 -360 335 -592 395 -76 19 -127
25 -246 28 -82 2 -176 0 -208 -5z m292 -556 c131 -44 239 -127 311 -241 71
-111 109 -281 89 -397 -31 -191 -97 -324 -219 -447 -248 -249 -563 -316 -838
-179 -134 67 -240 192 -285 335 -18 56 -22 93 -21 185 1 135 17 208 74 326
162 337 565 526 889 418z"/>
<path d="M8265 3370 c-228 -46 -456 -242 -540 -464 -29 -77 -53 -237 -170
-1136 -47 -360 -87 -667 -90 -682 l-4 -28 273 0 274 0 6 28 c3 15 13 83 21
152 57 453 187 1421 195 1448 13 50 57 102 104 123 35 16 67 19 226 19 l186 0
33 258 c18 141 35 265 37 275 5 16 -11 17 -253 16 -142 -1 -276 -5 -298 -9z"/>
<path d="M11160 1295 c0 -11 11 -15 40 -15 l40 0 0 -120 0 -120 25 0 25 0 0
120 0 120 40 0 c29 0 40 4 40 15 0 12 -18 15 -105 15 -87 0 -105 -3 -105 -15z"/>
<path d="M11430 1175 c0 -128 1 -135 20 -135 18 0 20 8 22 113 l3 112 44 -113
c31 -80 48 -112 59 -110 9 2 33 49 58 113 l43 110 0 -112 1 -113 25 0 25 0 0
136 0 135 -37 -3 c-37 -3 -37 -4 -72 -95 -20 -50 -38 -94 -41 -97 -3 -2 -23
40 -44 95 -39 98 -39 99 -72 99 l-34 0 0 -135z"/>
</g>
</svg>
