<?xml version="1.0" standalone="no"?>
<!DOCTYPE svg PUBLIC "-//W3C//DTD SVG 20010904//EN"
 "http://www.w3.org/TR/2001/REC-SVG-20010904/DTD/svg10.dtd">
<svg version="1.0" xmlns="http://www.w3.org/2000/svg"
 width="1008.000000pt" height="1008.000000pt" viewBox="0 0 1008.000000 1008.000000"
 preserveAspectRatio="xMidYMid meet">

<g transform="translate(0.000000,1008.000000) scale(0.100000,-0.100000)"
fill="#000000" stroke="none">
<path d="M4188 9707 c-389 -205 -716 -381 -727 -392 -21 -18 -21 -24 -21 -742
0 -397 -3 -723 -6 -723 -3 0 -444 122 -978 270 -535 149 -982 270 -994 270
-13 0 -35 -9 -50 -20 -15 -11 -139 -69 -277 -130 -137 -61 -257 -118 -267
-127 -17 -15 -18 -156 -18 -3098 0 -2454 3 -3085 12 -3092 29 -23 585 -263
608 -263 15 0 31 5 37 11 5 5 445 120 977 254 l966 243 0 -692 0 -693 23 -20
c12 -11 342 -187 733 -391 l712 -372 85 0 85 0 718 376 c396 207 727 383 737
392 16 14 17 54 17 564 0 301 2 548 5 548 2 0 417 -47 921 -105 504 -58 940
-105 969 -105 51 0 71 10 397 191 189 106 351 199 360 207 17 14 18 167 18
2952 0 2462 -2 2939 -14 2949 -7 6 -170 99 -362 206 -303 170 -354 195 -392
195 -24 0 -456 -47 -960 -105 -504 -58 -924 -105 -934 -105 -17 0 -18 27 -18
575 l0 575 -37 23 c-21 13 -347 186 -725 385 l-686 362 -104 0 -103 0 -707
-373z m772 -945 l0 -1229 -162 -47 c-90 -26 -179 -51 -198 -56 -19 -5 -72 -21
-118 -35 -46 -14 -93 -25 -106 -25 -12 0 -26 -4 -31 -9 -9 -8 -114 -39 -260
-75 -27 -7 -57 -16 -65 -20 -16 -7 -223 -63 -270 -73 -14 -2 -39 -11 -57 -19
-17 -8 -35 -14 -41 -14 -5 0 -23 -7 -38 -15 -16 -8 -41 -15 -57 -15 l-27 0 2
1062 3 1062 695 368 c382 202 703 367 713 368 16 0 17 -65 17 -1228z m784 867
c376 -198 690 -365 699 -372 13 -11 16 -143 22 -1064 7 -1019 6 -1053 -12
-1053 -10 0 -331 87 -713 194 l-695 193 -3 1231 c-1 862 1 1232 9 1232 5 0
318 -162 693 -361z m-3244 -1623 l945 -262 3 -341 c2 -288 5 -343 17 -353 28
-24 304 -74 1127 -206 l368 -59 0 -227 c0 -176 -3 -228 -12 -228 -7 0 -202
-21 -433 -46 -999 -109 -1015 -110 -1035 -129 -20 -18 -20 -37 -20 -1130 0
-948 2 -1114 14 -1124 15 -12 65 -21 236 -41 52 -6 131 -15 175 -20 118 -13
231 -26 625 -70 195 -22 376 -43 403 -46 l47 -6 0 -218 0 -219 -52 -10 c-29
-6 -359 -67 -733 -136 -471 -87 -685 -131 -697 -142 -17 -15 -18 -43 -18 -369
l0 -353 -37 -10 c-141 -36 -1912 -481 -1917 -481 -3 0 -6 1463 -6 3251 l0
3251 28 -7 c15 -3 452 -124 972 -269z m5930 -2987 l0 -3261 -47 6 c-122 16
-1799 206 -1815 206 -17 0 -18 22 -18 498 0 484 -1 499 -20 517 -15 13 -29 16
-58 12 -27 -5 -45 -2 -60 9 -13 9 -69 24 -125 34 -257 48 -682 127 -1017 189
-118 23 -218 41 -222 41 -11 0 -10 438 1 444 10 6 75 14 406 51 127 14 264 30
305 35 41 6 136 17 210 25 439 48 551 63 565 75 13 11 15 135 15 1125 0 962
-2 1114 -15 1125 -13 11 -267 41 -960 115 -132 14 -274 29 -315 35 -41 5 -108
12 -148 15 l-72 7 2 231 3 232 695 112 c382 62 703 117 712 123 10 5 28 10 41
10 13 0 31 8 40 18 15 16 17 71 19 518 l3 499 920 106 c506 59 928 107 938
108 16 1 17 -161 17 -3260z m-7023 11 c2 -1862 -1 -3201 -6 -3209 -7 -11 -51
5 -230 84 l-221 98 0 3019 c0 2866 1 3019 18 3024 21 8 84 35 267 119 77 35
147 63 155 62 13 -2 15 -366 17 -3197z m7424 3033 l299 -167 0 -2877 0 -2877
-288 -161 c-159 -88 -296 -163 -305 -167 -16 -6 -17 202 -17 3205 0 1766 3
3211 6 3211 3 0 140 -75 305 -167z m-3324 -774 c280 -77 559 -154 621 -171 61
-17 112 -35 112 -38 0 -4 -19 -10 -42 -13 -24 -4 -295 -47 -603 -98 -308 -50
-576 -90 -595 -90 -19 0 -283 41 -587 90 -304 49 -579 93 -613 97 -34 4 -58
10 -53 15 4 4 42 16 83 27 95 25 913 255 1040 292 52 16 103 29 112 29 10 1
246 -62 525 -140z m-537 -2266 l0 -1216 -97 6 c-54 4 -168 15 -253 26 -85 11
-261 31 -390 46 -129 14 -307 35 -395 45 -88 11 -190 22 -227 26 l-68 6 0
1062 0 1062 298 32 c163 18 335 37 382 42 462 53 688 77 723 79 l27 1 0 -1217z
m330 1188 c82 -8 272 -29 655 -72 99 -11 250 -27 335 -35 85 -8 161 -17 168
-19 9 -3 12 -224 12 -1059 l0 -1055 -52 -10 c-29 -5 -129 -17 -223 -26 -93 -8
-197 -20 -230 -25 -33 -5 -123 -16 -200 -25 -140 -15 -300 -33 -535 -60 -69
-8 -137 -15 -152 -15 l-28 0 0 1211 0 1212 83 -7 c45 -3 120 -10 167 -15z m40
-3090 c151 -29 388 -72 525 -97 355 -64 358 -65 349 -74 -5 -5 -279 -76 -609
-159 l-600 -150 -624 156 c-617 155 -624 157 -585 170 21 8 47 12 58 9 10 -3
75 6 145 20 129 25 552 103 696 129 44 8 125 24 180 34 55 11 120 19 145 17
25 -2 169 -27 320 -55z m-1066 -395 c378 -96 690 -177 693 -180 2 -2 1 -554
-3 -1225 -5 -928 -10 -1221 -19 -1221 -6 0 -324 164 -706 363 l-694 364 -3
1043 -2 1042 22 -5 c13 -3 333 -84 712 -181z m2179 -1887 c-9 -8 -1363 -716
-1387 -725 -15 -6 -16 88 -16 1210 l0 1215 38 11 c20 6 336 86 702 178 l665
167 3 -1024 c1 -564 -1 -1028 -5 -1032z"/>
</g>
</svg>
