<?xml version="1.0" standalone="no"?>
<!DOCTYPE svg PUBLIC "-//W3C//DTD SVG 20010904//EN"
 "http://www.w3.org/TR/2001/REC-SVG-20010904/DTD/svg10.dtd">
<svg version="1.0" xmlns="http://www.w3.org/2000/svg"
 width="1008.000000pt" height="1008.000000pt" viewBox="0 0 1008.000000 1008.000000"
 preserveAspectRatio="xMidYMid meet">

<g transform="translate(0.000000,1008.000000) scale(0.100000,-0.100000)"
fill="#000000" stroke="none">
<path d="M4730 10060 c0 -5 -9 -10 -20 -10 -11 0 -20 -4 -20 -10 0 -5 -13 -10
-30 -10 -16 0 -30 5 -30 10 0 6 -13 10 -30 10 -19 0 -30 -5 -30 -14 0 -8 -7
-17 -16 -20 -23 -9 -24 -8 -24 15 0 14 -4 18 -12 12 -7 -4 -23 -6 -35 -5 -14
2 -23 -4 -28 -17 -6 -21 -45 -30 -45 -11 0 6 -7 10 -15 10 -8 0 -15 -4 -15
-10 0 -5 -7 -10 -15 -10 -8 0 -15 -4 -15 -10 0 -5 -7 -10 -15 -10 -8 0 -15 5
-15 10 0 6 -7 10 -15 10 -8 0 -15 -4 -15 -10 0 -5 -9 -10 -20 -10 -11 0 -20
-5 -20 -10 0 -6 -11 -8 -25 -4 -19 5 -25 2 -25 -10 0 -16 -32 -22 -88 -17 -12
1 -25 -5 -28 -14 -5 -11 -21 -15 -61 -15 -46 0 -56 -3 -60 -20 -5 -19 -24 -25
-65 -21 -10 1 -18 -4 -18 -13 0 -21 -18 -20 -22 1 -3 16 -4 16 -20 0 -9 -9
-23 -17 -32 -17 -8 0 -18 -9 -21 -20 -3 -11 -15 -20 -26 -20 -10 0 -19 -4 -19
-9 0 -5 -9 -11 -20 -14 -13 -3 -20 0 -20 9 0 8 -6 11 -15 8 -8 -4 -15 -15 -15
-26 0 -14 -6 -19 -22 -18 -37 3 -48 1 -48 -11 0 -17 -27 -39 -49 -39 -12 0
-21 -4 -21 -10 0 -5 -6 -7 -14 -4 -7 3 -27 -9 -44 -25 -17 -17 -37 -31 -44
-31 -7 0 -20 -8 -27 -19 -8 -10 -21 -16 -31 -14 -11 3 -19 -3 -23 -16 -3 -12
-13 -21 -22 -21 -10 0 -25 -8 -34 -19 -9 -10 -25 -20 -36 -22 -12 -3 -21 -14
-23 -27 -3 -16 -10 -22 -28 -22 -13 0 -24 -4 -24 -10 0 -5 -3 -9 -7 -9 -21 3
-32 -3 -39 -23 -9 -28 -49 -68 -69 -68 -8 0 -15 -5 -15 -10 0 -14 -18 -35 -81
-96 -5 -5 -22 -23 -37 -40 -15 -18 -37 -33 -47 -35 -13 -3 -21 -14 -23 -32 -2
-15 -7 -27 -12 -27 -5 0 -12 -9 -15 -20 -3 -11 -15 -20 -26 -20 -13 0 -19 -7
-19 -23 0 -12 -9 -29 -20 -37 -10 -8 -22 -27 -26 -43 -3 -17 -14 -32 -25 -34
-12 -3 -19 -14 -19 -29 0 -12 -8 -29 -19 -36 -10 -7 -22 -24 -26 -38 -4 -14
-11 -27 -14 -30 -4 -3 -15 -26 -25 -52 -10 -27 -22 -48 -27 -48 -5 0 -9 -9 -9
-20 0 -11 -4 -20 -10 -20 -5 0 -10 -7 -10 -15 0 -8 -4 -15 -10 -15 -5 0 -10
-13 -10 -28 0 -16 -7 -37 -15 -48 -8 -10 -15 -27 -15 -36 0 -10 -4 -18 -10
-18 -5 0 -10 -11 -10 -25 0 -14 -4 -25 -10 -25 -5 0 -10 -11 -10 -25 0 -14 -4
-25 -10 -25 -5 0 -10 -10 -10 -22 1 -46 -12 -88 -27 -88 -12 0 -14 -7 -9 -30
3 -17 1 -30 -4 -30 -6 0 -10 -18 -10 -40 0 -22 -4 -40 -10 -40 -5 0 -10 -25
-10 -56 0 -47 -3 -57 -20 -61 -24 -6 -28 -53 -5 -53 22 0 19 -42 -5 -68 -21
-22 -27 -52 -10 -52 6 0 10 -25 10 -55 0 -30 -4 -55 -10 -55 -5 0 -10 -9 -10
-20 0 -11 -4 -20 -10 -20 -6 0 -10 -127 -10 -360 l0 -360 -635 0 -635 0 0
-935 0 -935 635 0 635 0 0 -2550 0 -2550 1135 0 1135 0 0 2530 c0 1680 3 2530
10 2530 6 0 10 6 10 14 0 8 7 17 16 20 9 3 497 6 1085 6 l1069 0 17 -27 c16
-25 17 -168 19 -2522 0 -1373 2 -2508 3 -2523 l1 -28 1125 0 1125 0 0 3485 0
3485 -2219 0 c-1480 0 -2222 -3 -2226 -10 -4 -6 -12 -5 -21 4 -11 12 -14 60
-14 260 0 157 4 246 10 246 6 0 10 7 10 15 0 8 5 15 10 15 6 0 10 11 10 25 0
14 -4 25 -10 25 -5 0 -10 9 -10 20 0 11 4 20 9 20 4 0 11 19 14 43 7 45 27 97
40 97 4 0 7 9 7 20 0 11 5 20 10 20 6 0 10 11 10 25 0 14 5 25 10 25 6 0 15
11 20 25 5 14 13 25 18 25 5 0 29 20 54 45 25 25 53 45 61 45 9 0 19 9 22 20
3 11 11 20 16 20 5 0 9 7 9 15 0 17 17 20 22 4 4 -12 68 46 68 61 0 4 9 10 20
13 13 3 20 0 20 -9 0 -8 6 -11 15 -8 8 4 15 15 15 26 0 17 5 19 30 13 22 -5
32 -3 36 9 3 8 12 12 20 9 8 -3 24 3 35 13 17 16 22 16 29 4 8 -12 13 -13 27
-2 33 22 45 25 64 14 23 -15 79 -16 79 -2 0 6 9 10 20 10 11 0 20 5 20 10 0 7
233 10 680 10 l680 0 0 925 0 925 -894 0 c-706 0 -895 -3 -899 -12 -4 -10 -6
-10 -6 0 -1 14 -41 17 -41 2 0 -5 -25 -10 -55 -10 -30 0 -55 5 -55 10 0 6 -22
10 -50 10 -27 0 -50 -4 -50 -10z"/>
</g>
</svg>
