<?xml version="1.0" standalone="no"?>
<!DOCTYPE svg PUBLIC "-//W3C//DTD SVG 20010904//EN"
 "http://www.w3.org/TR/2001/REC-SVG-20010904/DTD/svg10.dtd">
<svg version="1.0" xmlns="http://www.w3.org/2000/svg"
 width="1008.000000pt" height="1008.000000pt" viewBox="0 0 1008.000000 1008.000000"
 preserveAspectRatio="xMidYMid meet">

<g transform="translate(0.000000,1008.000000) scale(0.100000,-0.100000)"
fill="#000000" stroke="none">
<path d="M2731 10069 c-890 -80 -1708 -564 -2213 -1309 -260 -383 -412 -777
-491 -1270 l-22 -135 0 -2315 0 -2315 22 -135 c48 -301 128 -576 237 -820 185
-410 481 -798 827 -1082 432 -355 913 -567 1499 -661 l135 -22 2315 0 2315 0
135 22 c480 77 868 224 1242 472 655 434 1121 1116 1282 1878 64 304 60 127
64 2573 2 1604 0 2264 -8 2365 -74 914 -551 1733 -1310 2247 -382 259 -769
409 -1265 491 l-130 21 -2270 2 c-1248 1 -2312 -2 -2364 -7z m4489 -1009 c389
-30 750 -166 1063 -402 45 -33 134 -113 198 -177 309 -310 494 -675 566 -1121
16 -96 17 -286 21 -2220 2 -1434 0 -2163 -8 -2264 -36 -506 -244 -957 -602
-1302 -337 -326 -767 -518 -1238 -554 -184 -14 -4176 -14 -4360 0 -991 76
-1764 849 -1840 1840 -14 183 -14 4176 0 4358 17 215 56 389 133 587 270 699
941 1197 1689 1254 159 12 4218 13 4378 1z"/>
<path d="M7490 8234 c-219 -47 -392 -221 -446 -449 -24 -104 -16 -266 19 -365
109 -307 450 -485 758 -394 207 61 381 239 436 445 26 100 22 245 -11 345 -66
206 -238 365 -451 419 -73 18 -218 18 -305 -1z"/>
<path d="M4841 7640 c-1055 -88 -1943 -783 -2275 -1781 -92 -277 -129 -513
-129 -819 0 -306 37 -542 129 -819 317 -952 1141 -1631 2144 -1767 266 -36
622 -19 900 42 974 217 1757 1000 1974 1974 81 368 81 772 0 1140 -235 1058
-1128 1874 -2204 2014 -148 19 -406 27 -539 16z m514 -1040 c638 -136 1107
-607 1246 -1250 20 -90 23 -134 23 -310 0 -176 -3 -220 -23 -310 -92 -430
-325 -776 -681 -1015 -167 -112 -356 -190 -570 -236 -143 -31 -444 -34 -595
-5 -652 122 -1152 621 -1282 1281 -25 127 -25 443 0 570 86 433 323 795 681
1036 195 132 406 214 651 254 131 21 417 13 550 -15z"/>
</g>
</svg>
