<?xml version="1.0" standalone="no"?>
<!DOCTYPE svg PUBLIC "-//W3C//DTD SVG 20010904//EN"
 "http://www.w3.org/TR/2001/REC-SVG-20010904/DTD/svg10.dtd">
<svg version="1.0" xmlns="http://www.w3.org/2000/svg"
 width="1440.000000pt" height="1008.000000pt" viewBox="0 0 1440.000000 1008.000000"
 preserveAspectRatio="xMidYMid meet">

<g transform="translate(0.000000,1008.000000) scale(0.100000,-0.100000)"
fill="#000000" stroke="none">
<path d="M3265 10049 c-439 -55 -829 -381 -964 -804 -41 -130 -55 -222 -55
-370 1 -145 18 -248 66 -385 140 -399 490 -692 912 -765 121 -21 460 -21 577
-1 233 41 452 157 624 331 405 408 458 1042 127 1510 -181 257 -468 432 -787
480 -109 16 -382 18 -500 4z"/>
<path d="M9945 6944 c-721 -48 -1359 -414 -1747 -1002 l-68 -104 0 471 0 471
-1127 0 -1128 0 -1 -3390 -2 -3390 1124 0 1124 0 0 1953 c0 1208 4 1988 10
2047 36 350 153 597 386 820 235 226 523 340 855 340 433 0 753 -189 937 -556
81 -161 133 -344 169 -590 15 -108 17 -293 20 -2066 l4 -1948 1125 0 1125 0
-4 2158 c-4 2338 -1 2201 -57 2536 -111 659 -357 1182 -735 1562 -377 379
-868 605 -1450 668 -138 15 -462 26 -560 20z"/>
<path d="M2360 3390 l0 -3390 1130 0 1130 0 0 3390 0 3390 -1130 0 -1130 0 0
-3390z"/>
</g>
</svg>
