<?xml version="1.0" standalone="no"?>
<!DOCTYPE svg PUBLIC "-//W3C//DTD SVG 20010904//EN"
 "http://www.w3.org/TR/2001/REC-SVG-20010904/DTD/svg10.dtd">
<svg version="1.0" xmlns="http://www.w3.org/2000/svg"
 width="1008.000000pt" height="1008.000000pt" viewBox="0 0 1008.000000 1008.000000"
 preserveAspectRatio="xMidYMid meet">

<g transform="translate(0.000000,1008.000000) scale(0.100000,-0.100000)"
fill="#000000" stroke="none">
<path d="M4990 10043 c0 -60 -36 -187 -72 -255 -41 -77 -90 -132 -241 -266
-1104 -984 -1764 -2308 -1883 -3777 -20 -246 -15 -742 10 -964 118 -1047 527
-1989 1211 -2787 228 -267 578 -590 843 -780 9 -6 86 -655 138 -1147 l6 -58
101 3 101 3 23 180 c40 324 111 750 166 1000 l22 99 89 67 c148 113 245 201
437 397 453 461 799 992 1033 1584 251 637 363 1332 327 2028 -28 534 -87 843
-255 1351 -332 999 -859 1868 -1582 2609 -130 134 -182 195 -221 260 -80 134
-140 250 -193 370 -26 61 -51 114 -54 117 -3 4 -6 -12 -6 -34z m134 -4073 c42
-375 98 -1647 151 -3430 8 -278 17 -596 21 -708 4 -130 3 -202 -3 -202 -23 0
-65 45 -97 103 -65 118 -138 362 -189 632 -22 119 -22 129 -20 945 4 1739 50
2868 113 2804 5 -5 16 -70 24 -144z"/>
</g>
</svg>
