<?xml version="1.0" standalone="no"?>
<!DOCTYPE svg PUBLIC "-//W3C//DTD SVG 20010904//EN"
 "http://www.w3.org/TR/2001/REC-SVG-20010904/DTD/svg10.dtd">
<svg version="1.0" xmlns="http://www.w3.org/2000/svg"
 width="1440.000000pt" height="1008.000000pt" viewBox="0 0 1440.000000 1008.000000"
 preserveAspectRatio="xMidYMid meet">

<g transform="translate(0.000000,1008.000000) scale(0.100000,-0.100000)"
fill="#000000" stroke="none">
<path d="M6502 9103 c-387 -196 -700 -359 -695 -363 13 -13 1447 -740 1458
-740 16 0 1358 724 1359 733 1 5 -318 170 -709 367 l-710 358 -703 -355z"/>
<path d="M4317 8005 c-439 -221 -798 -406 -797 -411 1 -5 338 -179 748 -387
676 -342 749 -377 772 -367 63 28 1550 814 1550 819 -1 6 -1465 752 -1472 750
-2 -1 -362 -182 -801 -404z"/>
<path d="M8620 8035 c-377 -200 -686 -367 -687 -372 -2 -8 1501 -775 1531
-781 14 -3 1358 670 1400 701 23 17 17 20 -955 510 l-605 306 -684 -364z"/>
<path d="M6472 6912 c-426 -225 -775 -413 -775 -418 -2 -9 1479 -763 1501
-764 16 0 1586 796 1589 806 3 9 -1514 784 -1533 784 -5 0 -357 -184 -782
-408z"/>
<path d="M3100 4917 l0 -2244 503 -271 c276 -149 510 -274 519 -278 17 -6 18
55 20 1149 l3 1154 550 -1065 c303 -586 631 -1224 730 -1416 285 -555 295
-566 693 -814 366 -228 762 -469 785 -477 16 -7 17 104 15 2270 l-3 2277 -580
294 c-319 162 -581 294 -582 294 -2 0 -4 -564 -5 -1253 l-3 -1254 -470 1006
c-1092 2339 -1060 2273 -1102 2310 -28 24 -980 525 -1060 558 -10 4 -13 -448
-13 -2240z"/>
<path d="M10558 6729 l-738 -369 0 -970 c0 -700 3 -970 11 -970 6 0 339 168
740 373 l728 372 1 968 c0 532 -1 967 -2 966 -2 0 -335 -166 -740 -370z"/>
<path d="M8365 5631 l-850 -429 -3 -971 c-1 -534 0 -971 3 -971 3 0 392 194
865 430 l860 430 0 970 c0 769 -3 970 -12 970 -7 0 -395 -193 -863 -429z"/>
<path d="M10553 4117 l-733 -372 0 -977 c0 -700 3 -978 11 -978 6 0 339 165
740 367 l729 368 0 983 c0 540 -3 982 -7 982 -5 0 -338 -168 -740 -373z"/>
<path d="M8368 3017 l-858 -432 0 -983 0 -984 863 435 862 434 3 981 c1 540
-1 982 -5 982 -5 0 -394 -195 -865 -433z"/>
</g>
</svg>
