<?xml version="1.0" encoding="UTF-8"?>
<!DOCTYPE svg PUBLIC "-//W3C//DTD SVG 1.1//EN" "http://www.w3.org/Graphics/SVG/1.1/DTD/svg11.dtd">
<svg xmlns="http://www.w3.org/2000/svg" version="1.1" width="1440px" height="1008px" style="shape-rendering:geometricPrecision; text-rendering:geometricPrecision; image-rendering:optimizeQuality; fill-rule:evenodd; clip-rule:evenodd" xmlns:xlink="http://www.w3.org/1999/xlink">
<g><path style="opacity:1" fill="#000000" d="M 881.5,106.5 C 910.5,106.5 939.5,106.5 968.5,106.5C 968.5,306.167 968.5,505.833 968.5,705.5C 939.5,705.5 910.5,705.5 881.5,705.5C 881.5,505.833 881.5,306.167 881.5,106.5 Z"/></g>
<g><path style="opacity:1" fill="#000000" d="M 608.5,153.5 C 637.833,153.5 667.167,153.5 696.5,153.5C 696.5,213.833 696.5,274.167 696.5,334.5C 667.167,334.5 637.833,334.5 608.5,334.5C 608.5,274.167 608.5,213.833 608.5,153.5 Z"/></g>
<g><path style="opacity:1" fill="#000000" d="M 470.5,301.5 C 499.5,301.5 528.5,301.5 557.5,301.5C 557.5,500.833 557.5,700.167 557.5,899.5C 528.5,899.5 499.5,899.5 470.5,899.5C 470.5,700.167 470.5,500.833 470.5,301.5 Z"/></g>
<g><path style="opacity:1" fill="#000000" d="M 745.5,301.5 C 774.5,301.5 803.5,301.5 832.5,301.5C 832.5,361.833 832.5,422.167 832.5,482.5C 803.5,482.5 774.5,482.5 745.5,482.5C 745.5,422.167 745.5,361.833 745.5,301.5 Z"/></g>
<g><path style="opacity:1" fill="#000000" d="M 608.5,385.5 C 637.833,385.5 667.167,385.5 696.5,385.5C 696.5,414.167 696.5,442.833 696.5,471.5C 667.167,471.5 637.833,471.5 608.5,471.5C 608.5,442.833 608.5,414.167 608.5,385.5 Z"/></g>
<g><path style="opacity:1" fill="#000000" d="M 608.5,522.5 C 637.833,522.5 667.167,522.5 696.5,522.5C 696.5,582.833 696.5,643.167 696.5,703.5C 667.167,703.5 637.833,703.5 608.5,703.5C 608.5,643.167 608.5,582.833 608.5,522.5 Z"/></g>
<g><path style="opacity:1" fill="#000000" d="M 745.5,533.5 C 774.5,533.5 803.5,533.5 832.5,533.5C 832.5,562.167 832.5,590.833 832.5,619.5C 803.5,619.5 774.5,619.5 745.5,619.5C 745.5,590.833 745.5,562.167 745.5,533.5 Z"/></g>
<g><path style="opacity:1" fill="#000000" d="M 745.5,671.5 C 774.5,671.5 803.5,671.5 832.5,671.5C 832.5,731.833 832.5,792.167 832.5,852.5C 803.5,852.5 774.5,852.5 745.5,852.5C 745.5,792.167 745.5,731.833 745.5,671.5 Z"/></g>
</svg>
