<?xml version="1.0" standalone="no"?>
<!DOCTYPE svg PUBLIC "-//W3C//DTD SVG 20010904//EN"
 "http://www.w3.org/TR/2001/REC-SVG-20010904/DTD/svg10.dtd">
<svg version="1.0" xmlns="http://www.w3.org/2000/svg"
 width="1440.000000pt" height="1008.000000pt" viewBox="0 0 1440.000000 1008.000000"
 preserveAspectRatio="xMidYMid meet">

<g transform="translate(0.000000,1008.000000) scale(0.100000,-0.100000)"
fill="#000000" stroke="none">
<path d="M2780 5040 l0 -4300 4415 0 4415 0 0 4300 0 4300 -4415 0 -4415 0 0
-4300z m8450 0 l0 -3920 -4030 0 -4030 0 0 3920 0 3920 4030 0 4030 0 0 -3920z"/>
<path d="M5168 7380 c-160 -5 -201 -10 -222 -24 l-26 -16 0 -1995 0 -1995 26
-10 c35 -14 580 -13 605 0 19 10 19 29 19 731 l0 721 163 -7 c369 -16 712 47
971 177 355 178 569 473 642 883 23 134 24 412 0 545 -70 397 -268 675 -591
835 -172 85 -336 130 -557 154 -104 12 -703 12 -1030 1z m965 -595 c217 -38
373 -131 469 -279 78 -121 114 -307 97 -502 -32 -365 -244 -572 -640 -624 -82
-10 -438 -14 -463 -4 -14 6 -16 77 -16 709 l0 704 38 4 c107 11 435 6 515 -8z"/>
<path d="M8635 6360 c-430 -29 -754 -247 -869 -588 -77 -225 -54 -506 56 -699
105 -184 263 -311 626 -501 350 -184 462 -290 462 -438 0 -85 -18 -133 -70
-185 -57 -57 -128 -85 -251 -99 -244 -28 -575 53 -802 197 -69 43 -68 50 -65
-294 l3 -308 50 -27 c65 -35 275 -103 390 -125 129 -25 484 -25 609 0 423 85
679 308 762 663 26 110 26 350 0 449 -73 278 -261 468 -683 688 -406 213 -503
299 -503 446 1 135 103 232 277 262 185 32 470 -19 682 -123 64 -32 87 -39
100 -31 14 9 16 44 19 292 l2 282 -24 24 c-42 42 -265 97 -461 114 -130 12
-144 12 -310 1z"/>
</g>
</svg>
