<?xml version="1.0" standalone="no"?>
<!DOCTYPE svg PUBLIC "-//W3C//DTD SVG 20010904//EN"
 "http://www.w3.org/TR/2001/REC-SVG-20010904/DTD/svg10.dtd">
<svg version="1.0" xmlns="http://www.w3.org/2000/svg"
 width="1008.000000pt" height="1008.000000pt" viewBox="0 0 1008.000000 1008.000000"
 preserveAspectRatio="xMidYMid meet">

<g transform="translate(0.000000,1008.000000) scale(0.100000,-0.100000)"
fill="#000000" stroke="none">
<path d="M7250 9875 c-209 -51 -304 -90 -460 -189 -222 -140 -417 -370 -494
-581 -20 -55 -40 -107 -45 -116 -12 -20 -38 -152 -51 -259 -28 -217 -28 -1386
0 -1590 15 -112 41 -243 49 -255 4 -5 20 -46 36 -90 37 -107 65 -160 134 -258
167 -233 392 -397 674 -492 186 -62 312 -79 522 -71 168 6 253 19 370 56 98
31 229 82 235 90 3 4 32 22 65 40 163 87 352 267 447 425 26 44 53 86 59 93
18 21 65 160 89 262 12 52 26 104 31 115 21 46 29 225 29 623 l0 422 -665 0
-665 0 0 -260 0 -260 371 2 372 3 -6 -185 c-6 -174 -20 -302 -37 -325 -4 -5
-15 -35 -25 -65 -28 -88 -61 -145 -126 -220 -97 -113 -231 -200 -369 -240
-106 -30 -288 -38 -400 -16 -84 16 -208 58 -219 74 -3 5 -27 21 -52 36 -26 14
-57 37 -70 50 -75 72 -123 134 -152 193 -17 38 -35 70 -39 73 -11 9 -46 160
-57 251 -42 321 -39 1185 4 1473 17 115 44 216 56 216 5 0 9 5 9 11 0 6 14 41
32 76 38 77 149 195 223 238 28 15 52 31 55 35 3 3 32 18 65 32 159 70 403 77
585 17 123 -40 237 -122 348 -251 28 -33 102 -173 102 -194 0 -8 7 -17 15 -20
14 -6 111 28 178 61 15 8 69 31 120 50 50 20 125 51 165 68 72 30 74 31 68 60
-8 38 -129 250 -170 298 -17 20 -47 56 -66 80 -52 67 -215 205 -275 233 -17 8
-48 27 -69 41 -46 31 -109 57 -221 91 -44 14 -102 32 -130 41 -68 23 -561 29
-645 8z"/>
<path d="M2075 7605 c-231 -7 -729 -13 -1107 -14 l-688 -1 0 -173 0 -174 38
-11 c20 -6 130 -27 243 -47 220 -38 316 -64 345 -96 9 -10 23 -19 30 -19 20 0
87 -83 121 -151 40 -78 58 -148 81 -304 16 -111 17 -298 17 -2570 0 -2312 -1
-2456 -18 -2564 -19 -122 -56 -250 -78 -275 -8 -9 -29 -37 -48 -63 -36 -53
-109 -108 -170 -129 -21 -7 -85 -22 -142 -33 -106 -21 -272 -53 -367 -72 l-52
-11 0 -175 0 -176 93 6 c443 31 1501 41 2032 19 149 -6 363 -14 478 -18 l207
-7 0 176 0 176 -57 6 c-32 4 -71 11 -88 16 -16 5 -122 20 -235 34 -263 33
-341 49 -401 82 -60 32 -122 91 -139 132 -7 17 -16 31 -20 31 -13 0 -46 97
-64 185 -31 160 -36 320 -36 1322 l0 1003 426 2 427 3 39 -85 c22 -47 43 -87
47 -90 5 -3 34 -52 66 -110 96 -177 163 -294 173 -306 5 -6 29 -46 52 -90 24
-43 53 -92 65 -109 12 -16 44 -68 71 -115 26 -47 53 -90 60 -97 6 -6 33 -49
60 -95 26 -46 51 -85 56 -88 4 -3 31 -44 60 -91 29 -47 85 -132 123 -188 39
-57 91 -136 117 -175 27 -39 54 -78 62 -87 8 -9 37 -51 66 -94 28 -42 59 -84
67 -93 17 -19 94 -125 174 -242 29 -41 56 -78 61 -81 8 -5 85 -105 176 -228
91 -124 344 -365 432 -411 14 -7 41 -26 60 -42 19 -15 38 -28 43 -28 4 0 44
-21 87 -46 133 -76 367 -159 553 -196 98 -19 145 -22 367 -22 240 -1 262 1
370 26 63 14 132 34 153 44 l37 18 0 152 0 151 -51 7 c-122 16 -376 92 -464
138 -22 11 -65 34 -95 49 -30 16 -69 37 -87 48 -71 40 -243 176 -243 191 0 6
-6 10 -14 10 -8 0 -34 24 -57 53 -24 28 -55 63 -69 77 -14 14 -43 48 -65 75
-22 28 -45 54 -52 58 -7 4 -34 36 -60 70 -26 34 -51 64 -55 65 -5 2 -29 31
-55 65 -25 34 -54 69 -63 77 -9 8 -39 44 -66 80 -26 36 -54 70 -60 75 -6 6
-38 45 -70 88 -122 162 -145 193 -172 225 -15 19 -45 59 -67 91 -70 100 -129
181 -175 244 -25 34 -61 87 -79 117 -19 30 -39 59 -46 65 -7 5 -34 46 -61 90
-27 44 -54 85 -60 90 -6 6 -31 44 -55 85 -23 41 -50 84 -60 95 -9 11 -39 58
-65 105 -27 47 -54 91 -61 98 -7 7 -34 52 -60 100 -26 48 -52 92 -59 99 -6 6
-33 54 -59 105 -27 51 -52 95 -57 96 -15 6 -8 32 9 32 72 0 431 147 537 219
25 17 48 31 51 31 11 0 126 82 190 134 208 173 375 365 476 546 23 41 52 91
65 110 13 19 43 87 68 150 25 63 50 122 55 131 31 54 85 321 100 494 21 235
-30 623 -99 770 -11 22 -40 87 -65 145 -25 57 -49 107 -53 110 -4 3 -31 41
-58 85 -58 91 -114 157 -228 265 -88 84 -235 196 -311 236 -104 55 -244 124
-254 124 -5 0 -38 13 -73 30 -67 30 -227 77 -362 105 -44 9 -83 18 -87 21 -4
2 -70 14 -146 26 -125 19 -187 21 -648 23 -280 2 -699 -3 -930 -10z m1134
-540 c176 -20 292 -47 423 -101 112 -45 229 -101 238 -114 3 -4 30 -24 60 -44
72 -49 191 -164 232 -224 17 -26 39 -54 47 -62 17 -17 101 -191 101 -209 0 -6
4 -11 9 -11 10 0 44 -114 65 -215 40 -192 44 -478 11 -680 -15 -96 -61 -266
-74 -275 -4 -3 -15 -27 -25 -55 -24 -65 -71 -159 -89 -176 -7 -8 -30 -40 -51
-72 -38 -57 -154 -178 -238 -248 -41 -35 -189 -129 -202 -129 -4 0 -24 -11
-45 -24 -41 -26 -208 -85 -301 -106 -30 -7 -62 -16 -71 -21 -9 -5 -72 -15
-140 -24 -194 -24 -816 -18 -1066 11 l-53 5 0 1395 0 1394 518 0 c392 0 549
-4 651 -15z"/>
</g>
</svg>
