<?xml version="1.0" standalone="no"?>
<!DOCTYPE svg PUBLIC "-//W3C//DTD SVG 20010904//EN"
 "http://www.w3.org/TR/2001/REC-SVG-20010904/DTD/svg10.dtd">
<svg version="1.0" xmlns="http://www.w3.org/2000/svg"
 width="1440.000000pt" height="1008.000000pt" viewBox="0 0 1440.000000 1008.000000"
 preserveAspectRatio="xMidYMid meet">

<g transform="translate(0.000000,1008.000000) scale(0.100000,-0.100000)"
fill="#000000" stroke="none">
<path d="M7025 8073 c-649 -39 -1114 -205 -1515 -541 -354 -296 -635 -764
-795 -1325 -20 -70 -35 -134 -33 -142 2 -10 24 12 58 57 127 167 347 373 523
491 269 180 614 269 915 238 206 -22 352 -61 505 -138 200 -99 330 -206 717
-588 323 -319 412 -401 560 -516 279 -218 612 -383 947 -469 260 -68 490 -94
823 -94 267 1 443 17 658 60 812 165 1380 658 1706 1479 58 149 133 383 142
450 l5 40 -23 -30 c-128 -166 -326 -367 -458 -466 -376 -282 -787 -375 -1224
-278 -172 38 -295 90 -442 187 -152 100 -239 177 -569 502 -176 174 -356 347
-400 386 -437 380 -881 587 -1435 668 -188 27 -482 40 -665 29z"/>
<path d="M4400 5044 c-19 -2 -80 -9 -135 -15 -468 -50 -910 -224 -1235 -486
-110 -89 -285 -273 -374 -392 -136 -183 -258 -406 -348 -636 -69 -174 -152
-443 -146 -472 2 -9 24 11 56 51 319 399 653 627 1042 712 118 26 426 26 554
1 350 -71 565 -207 981 -621 415 -414 558 -544 740 -673 473 -335 1006 -493
1665 -493 683 0 1230 171 1660 517 289 233 546 600 708 1008 70 177 168 495
152 495 -4 0 -45 -46 -91 -102 -424 -520 -921 -753 -1464 -687 -288 35 -532
145 -776 350 -46 39 -214 200 -374 358 -327 324 -439 425 -604 550 -382 287
-772 446 -1272 517 -108 15 -649 28 -739 18z"/>
</g>
</svg>
