<?xml version="1.0" encoding="UTF-8"?>
<!DOCTYPE svg PUBLIC "-//W3C//DTD SVG 1.1//EN" "http://www.w3.org/Graphics/SVG/1.1/DTD/svg11.dtd">
<svg xmlns="http://www.w3.org/2000/svg" version="1.1" width="1440px" height="1008px" style="shape-rendering:geometricPrecision; text-rendering:geometricPrecision; image-rendering:optimizeQuality; fill-rule:evenodd; clip-rule:evenodd" xmlns:xlink="http://www.w3.org/1999/xlink">
<g><path style="opacity:1" fill="#000000" d="M 699.5,75.5 C 701.167,75.5 702.833,75.5 704.5,75.5C 704.5,360.833 704.5,646.167 704.5,931.5C 702.143,931.663 699.81,931.497 697.5,931C 650.831,903.109 603.831,875.776 556.5,849C 555.874,848.25 555.374,847.416 555,846.5C 554.667,681.5 554.333,516.5 554,351.5C 482.23,393.301 410.397,434.967 338.5,476.5C 337.167,411.833 337.167,347.167 338.5,282.5C 459.161,214.059 579.495,145.059 699.5,75.5 Z"/></g>
<g><path style="opacity:1" fill="#000000" d="M 734.5,75.5 C 737.394,75.5564 740.061,76.3897 742.5,78C 862.189,145.989 981.689,214.489 1101,283.5C 1101.83,347.836 1101.67,412.169 1100.5,476.5C 1028.57,434.952 956.733,393.285 885,351.5C 884.829,381.405 884.329,411.238 883.5,441C 919.96,462.102 956.46,483.269 993,504.5C 993.5,560.166 993.667,615.832 993.5,671.5C 988.345,669.928 983.345,667.762 978.5,665C 947.491,646.829 916.491,628.663 885.5,610.5C 884.667,689.498 884.167,768.498 884,847.5C 837.512,874.648 791.012,901.815 744.5,929C 741.5,931.003 738.167,931.836 734.5,931.5C 734.5,646.167 734.5,360.833 734.5,75.5 Z"/></g>
</svg>
