<?xml version="1.0" standalone="no"?>
<!DOCTYPE svg PUBLIC "-//W3C//DTD SVG 20010904//EN"
 "http://www.w3.org/TR/2001/REC-SVG-20010904/DTD/svg10.dtd">
<svg version="1.0" xmlns="http://www.w3.org/2000/svg"
 width="1263.000000pt" height="720.000000pt" viewBox="0 0 1263.000000 720.000000"
 preserveAspectRatio="xMidYMid meet">

<g transform="translate(0.000000,720.000000) scale(0.100000,-0.100000)"
fill="#000000" stroke="none">
<path d="M524 7187 c-9 -25 4 -2831 14 -2917 24 -201 46 -343 57 -360 4 -6 9
-27 11 -48 3 -20 9 -41 14 -46 6 -6 10 -25 10 -42 0 -18 5 -36 10 -39 6 -3 10
-17 10 -30 0 -13 5 -27 10 -30 6 -3 10 -21 10 -40 0 -19 5 -37 10 -40 6 -3 10
-15 10 -26 0 -10 5 -19 10 -19 6 0 10 -13 10 -29 0 -17 5 -33 10 -36 6 -3 10
-15 10 -25 0 -11 9 -35 20 -55 11 -20 20 -42 20 -50 0 -8 5 -15 10 -15 6 0 10
-9 10 -19 0 -10 7 -21 15 -25 8 -3 12 -12 9 -19 -3 -8 2 -17 11 -21 10 -4 15
-12 11 -21 -3 -9 1 -18 9 -21 8 -4 15 -15 15 -25 0 -10 5 -19 10 -19 6 0 10
-9 10 -20 0 -11 5 -20 10 -20 6 0 10 -6 10 -13 0 -20 28 -73 45 -87 8 -7 15
-18 15 -25 0 -6 9 -20 20 -30 11 -10 20 -23 20 -30 0 -6 11 -22 25 -35 13 -12
22 -26 20 -30 -2 -4 16 -26 40 -50 25 -24 45 -49 45 -55 0 -13 342 -355 356
-355 5 0 30 -20 54 -45 24 -25 49 -45 56 -45 6 0 19 -9 29 -20 10 -11 24 -20
30 -20 7 0 18 -7 25 -15 7 -9 33 -25 56 -35 24 -11 46 -25 49 -31 4 -5 17 -15
28 -20 12 -5 36 -18 52 -28 17 -11 38 -20 48 -20 9 -1 17 -5 17 -11 0 -5 7
-10 15 -10 8 0 30 -9 50 -20 20 -11 42 -20 50 -20 8 0 30 -9 50 -20 20 -11 44
-20 55 -20 10 0 22 -4 25 -10 3 -5 17 -10 30 -10 13 0 27 -4 30 -10 3 -5 24
-10 45 -10 21 0 42 -4 45 -10 3 -5 16 -10 29 -10 12 0 27 -5 33 -11 6 -6 29
-12 51 -13 22 -2 45 -7 51 -11 34 -20 321 -49 496 -50 175 0 462 29 497 51 7
5 21 7 31 6 10 -2 29 4 43 13 13 9 29 13 34 10 6 -4 24 1 42 9 17 9 41 16 54
16 13 0 26 5 29 10 3 6 17 10 30 10 13 0 27 5 30 10 3 6 17 10 30 10 13 0 27
5 30 10 3 6 15 10 25 10 11 0 35 9 55 20 20 11 42 20 50 20 8 0 15 5 15 10 0
6 9 10 20 10 11 0 20 5 20 10 0 6 6 10 13 10 18 0 75 28 82 41 4 5 10 7 14 4
5 -2 17 5 27 16 10 11 37 29 60 39 22 11 47 26 54 35 7 8 18 15 24 15 7 0 25
13 41 30 16 16 34 30 40 30 6 0 31 20 55 45 24 25 49 45 55 45 13 0 255 242
255 256 0 5 18 28 40 49 22 21 40 44 40 50 0 6 16 26 35 45 19 18 32 36 30 40
-2 4 7 18 20 30 14 13 25 29 25 36 0 6 7 17 15 24 15 13 65 107 65 125 0 6 9
17 20 25 11 8 20 22 20 32 0 10 5 18 10 18 6 0 10 7 10 15 0 16 17 50 38 77 8
9 11 22 7 28 -4 6 1 20 11 31 9 10 13 19 9 19 -4 0 -2 8 6 18 24 29 39 61 39
81 0 11 5 23 10 26 6 3 10 19 10 36 0 16 5 29 10 29 6 0 10 9 10 19 0 11 5 23
10 26 6 3 10 21 10 40 0 19 4 37 10 40 6 3 10 17 10 30 0 13 5 27 10 30 6 3
10 21 10 40 0 19 5 37 10 40 6 3 10 24 10 45 0 21 4 42 10 45 6 3 10 25 10 49
0 23 4 46 10 52 5 5 12 38 15 74 3 36 10 90 15 120 24 147 30 400 30 1253 -1
495 1 902 4 904 2 3 14 2 25 -2 16 -5 21 -15 21 -40 0 -19 5 -37 10 -40 6 -3
10 -21 10 -40 0 -19 5 -37 10 -40 6 -3 10 -19 10 -34 0 -16 6 -34 14 -41 8 -6
12 -18 9 -25 -2 -8 2 -29 11 -46 9 -18 16 -40 16 -50 0 -10 5 -21 10 -24 6 -3
10 -17 10 -30 0 -13 5 -27 10 -30 6 -3 10 -19 10 -36 0 -16 5 -29 10 -29 6 0
10 -13 10 -29 0 -17 5 -33 10 -36 6 -3 10 -17 10 -30 0 -13 4 -27 10 -30 6 -3
10 -17 10 -30 0 -13 5 -27 10 -30 6 -3 10 -17 10 -30 0 -13 5 -27 10 -30 6 -3
10 -15 10 -26 0 -10 5 -19 10 -19 6 0 10 -13 10 -29 0 -16 7 -34 15 -41 8 -7
12 -16 9 -21 -3 -5 1 -19 8 -31 7 -13 12 -26 13 -30 0 -4 6 -13 13 -20 6 -6
12 -20 12 -30 0 -9 9 -33 20 -53 11 -20 20 -44 20 -55 0 -10 4 -22 10 -25 6
-3 10 -15 10 -26 0 -10 5 -19 10 -19 6 0 10 -13 10 -30 0 -16 5 -30 10 -30 6
0 10 -6 10 -13 0 -16 49 -115 60 -122 5 -3 7 -12 3 -21 -3 -8 3 -24 12 -34 10
-11 15 -20 10 -20 -4 0 -2 -7 5 -15 19 -23 60 -106 60 -122 0 -7 5 -13 10 -13
6 0 10 -9 10 -20 0 -11 5 -20 10 -20 6 0 10 -9 10 -20 0 -11 5 -20 10 -20 6 0
10 -6 10 -13 0 -15 61 -139 80 -162 7 -8 9 -15 5 -15 -5 0 0 -9 10 -20 10 -11
15 -20 10 -20 -4 0 -2 -7 5 -15 18 -21 60 -106 60 -119 0 -7 9 -18 20 -26 11
-8 20 -22 20 -32 0 -10 5 -18 10 -18 6 0 10 -6 10 -13 0 -18 28 -75 41 -82 5
-4 18 -25 29 -49 10 -23 26 -49 35 -56 9 -7 25 -32 35 -55 10 -23 26 -48 35
-55 8 -7 15 -18 15 -25 0 -6 9 -20 20 -30 11 -10 20 -23 20 -30 0 -7 9 -20 20
-30 11 -10 20 -26 20 -37 0 -10 5 -18 11 -18 8 0 10 -15 6 -47 -4 -27 -9 -70
-12 -98 -4 -27 -10 -59 -15 -70 -5 -11 -12 -45 -15 -75 -3 -30 -8 -80 -11
-110 -3 -30 -10 -59 -15 -64 -5 -6 -9 -34 -9 -62 0 -29 -4 -56 -10 -59 -5 -3
-10 -33 -10 -65 0 -32 -4 -62 -10 -65 -6 -3 -10 -30 -10 -60 0 -30 -4 -57 -10
-60 -5 -3 -10 -33 -10 -65 0 -32 -4 -62 -10 -65 -6 -3 -10 -30 -10 -59 0 -28
-4 -56 -10 -62 -5 -5 -11 -34 -13 -64 -1 -31 -7 -61 -11 -69 -5 -8 -10 -35
-12 -60 -1 -25 -7 -59 -13 -74 -6 -16 -11 -48 -11 -72 0 -24 -5 -47 -10 -50
-6 -3 -10 -30 -10 -60 0 -30 -4 -57 -10 -60 -6 -3 -10 -33 -10 -65 0 -32 -4
-62 -10 -65 -5 -3 -10 -30 -10 -60 0 -30 -4 -57 -10 -60 -5 -3 -10 -33 -10
-66 0 -33 -4 -59 -10 -59 -5 0 -10 -22 -10 -49 0 -28 -4 -53 -10 -56 -5 -3
-10 -30 -10 -60 0 -30 -4 -57 -10 -60 -5 -3 -10 -33 -10 -65 0 -32 -4 -62 -10
-65 -5 -3 -10 -30 -10 -59 0 -28 -4 -56 -10 -62 -5 -5 -11 -34 -13 -64 -2 -30
-7 -62 -10 -70 -6 -14 -17 -72 -38 -210 -6 -36 -15 -90 -20 -120 -6 -30 -13
-80 -15 -110 -3 -30 -10 -59 -15 -64 -5 -6 -9 -34 -9 -62 0 -29 -4 -56 -10
-59 -5 -3 -10 -33 -10 -65 0 -32 -4 -62 -10 -65 -5 -3 -10 -30 -10 -60 0 -30
-5 -57 -10 -60 -6 -3 -10 -33 -10 -65 0 -32 -4 -62 -10 -65 -5 -3 -10 -37 -10
-76 l0 -69 577 2 578 3 8 50 c4 28 12 77 18 110 14 83 29 189 35 255 3 30 10
59 15 65 5 5 9 33 9 61 0 29 5 56 10 59 6 3 10 33 10 65 0 32 5 62 10 65 6 3
10 35 10 70 0 35 4 67 10 70 5 3 10 33 10 65 0 32 4 62 10 65 6 3 10 30 10 60
0 30 5 57 10 60 6 3 10 32 10 64 0 31 4 61 10 67 5 5 11 37 14 71 2 34 7 66
10 72 4 5 11 43 17 83 6 40 15 98 20 128 6 30 12 82 15 115 3 33 9 69 14 80 5
11 12 45 15 75 3 30 8 80 11 110 3 30 10 59 15 65 5 5 9 37 9 71 0 35 4 66 10
69 6 3 10 33 10 65 0 32 5 62 10 65 6 3 10 30 10 60 0 30 4 57 10 60 6 3 10
37 10 74 0 53 4 72 18 84 26 23 45 21 72 -8 13 -14 29 -25 35 -25 6 0 24 -13
40 -30 16 -16 35 -30 43 -30 8 0 27 -13 42 -30 15 -16 33 -30 39 -30 6 0 27
-16 48 -35 20 -19 40 -32 45 -29 4 3 11 -2 14 -10 3 -9 14 -16 24 -16 9 0 25
-9 35 -20 10 -11 24 -20 30 -20 7 0 18 -7 25 -15 6 -8 59 -37 116 -65 57 -28
106 -56 110 -61 3 -5 9 -7 14 -4 5 3 11 1 15 -5 3 -5 23 -17 43 -26 20 -9 54
-24 75 -35 22 -10 47 -19 57 -19 11 0 22 -5 25 -10 3 -5 15 -10 25 -10 11 0
35 -9 55 -20 20 -11 44 -20 55 -20 10 0 22 -4 25 -10 3 -5 24 -10 45 -10 21 0
42 -4 45 -10 3 -5 17 -10 30 -10 13 0 27 -4 30 -10 3 -5 21 -10 39 -10 17 0
37 -5 43 -11 5 -5 31 -12 57 -14 25 -2 51 -7 57 -11 12 -7 76 -17 224 -36 198
-26 659 -2 755 39 8 3 20 5 26 4 7 -1 25 4 40 10 16 7 44 13 63 15 19 2 39 8
45 14 5 5 25 10 42 10 18 0 36 5 39 10 3 6 17 10 30 10 13 0 27 5 30 10 3 6
17 10 30 10 13 0 27 5 30 10 3 6 15 10 26 10 10 0 19 5 19 10 0 6 11 10 24 10
13 0 50 14 81 30 31 17 64 30 74 31 9 0 30 9 46 20 17 10 40 23 52 28 11 5 24
14 27 20 8 13 65 41 83 41 7 0 13 5 13 10 0 6 8 10 18 10 10 0 24 9 32 20 8
11 22 20 31 20 9 0 24 9 34 20 10 11 23 20 30 20 6 0 26 16 45 35 18 19 36 32
40 30 4 -2 22 11 40 30 19 19 39 35 45 35 13 0 355 342 355 356 0 5 20 30 45
54 24 24 42 46 40 50 -2 4 7 18 20 30 14 13 25 29 25 35 0 7 9 20 20 30 11 10
20 25 20 34 0 9 9 23 20 31 11 8 20 22 20 32 0 10 4 18 9 18 4 0 23 30 41 68
19 37 40 75 48 85 9 9 11 17 7 17 -4 0 0 9 10 20 10 11 15 20 10 20 -4 0 -2 7
5 15 24 30 80 149 80 172 0 13 5 23 10 23 6 0 10 9 10 19 0 11 5 23 10 26 6 3
10 17 10 30 0 13 5 27 10 30 6 3 10 17 10 30 0 13 5 27 10 30 6 3 10 21 10 40
0 19 4 37 10 40 6 3 10 16 10 29 0 13 7 37 16 54 8 18 13 36 10 41 -3 5 1 23
10 40 8 17 14 41 13 53 -2 13 0 28 4 35 9 14 22 99 40 248 23 196 12 588 -21
785 -23 134 -33 184 -39 193 -3 6 -7 23 -9 40 -1 16 -7 34 -13 40 -6 6 -11 21
-11 33 0 13 -4 26 -10 29 -6 3 -10 19 -10 36 0 16 -4 29 -10 29 -5 0 -10 13
-10 29 0 17 -4 33 -10 36 -5 3 -10 17 -10 30 0 13 -4 27 -10 30 -5 3 -10 15
-10 25 0 11 -9 35 -20 55 -11 20 -20 42 -20 50 0 8 -4 15 -10 15 -5 0 -10 14
-10 30 0 17 -4 30 -10 30 -5 0 -10 6 -10 13 0 18 -28 75 -41 82 -5 4 -7 10 -4
14 2 5 -5 17 -16 27 -11 10 -29 37 -40 61 -10 23 -23 45 -29 48 -6 3 -19 25
-30 49 -10 23 -26 49 -35 56 -8 7 -15 18 -15 24 0 7 -16 27 -35 46 -19 19 -35
39 -35 44 0 6 -22 34 -50 61 -27 28 -49 55 -50 61 0 16 -290 305 -300 299 -3
-2 -26 16 -50 40 -24 25 -49 45 -56 45 -6 0 -19 9 -29 20 -10 11 -23 20 -30
20 -6 0 -24 14 -40 30 -16 17 -34 30 -41 30 -6 0 -17 7 -24 15 -7 8 -16 13
-20 10 -4 -2 -16 5 -26 16 -10 11 -46 33 -80 49 -34 16 -67 37 -74 45 -7 8
-21 15 -31 15 -11 0 -19 5 -19 10 0 6 -13 10 -30 10 -16 0 -30 5 -30 10 0 6
-7 10 -15 10 -8 0 -30 9 -50 20 -20 11 -44 20 -54 20 -10 0 -24 7 -31 15 -7 8
-16 13 -20 10 -4 -3 -13 2 -20 10 -7 8 -23 15 -36 15 -12 0 -26 4 -29 10 -9
14 -1791 14 -1800 0 -3 -5 -17 -10 -29 -10 -13 0 -29 -7 -36 -15 -7 -8 -16
-13 -20 -10 -4 3 -13 -2 -20 -10 -7 -8 -21 -15 -31 -15 -10 0 -34 -9 -54 -20
-20 -11 -42 -20 -50 -20 -8 0 -15 -4 -15 -10 0 -5 -9 -10 -20 -10 -11 0 -20
-4 -20 -10 0 -5 -6 -10 -13 -10 -20 0 -146 -66 -171 -89 -12 -12 -25 -19 -28
-16 -2 3 -15 -6 -28 -20 -13 -14 -29 -25 -35 -25 -7 0 -20 -9 -30 -20 -10 -11
-23 -20 -30 -20 -6 0 -27 -16 -46 -36 -18 -20 -42 -39 -51 -43 -23 -9 -348
-332 -348 -346 0 -6 -18 -29 -40 -50 -22 -21 -40 -44 -40 -50 0 -6 -16 -26
-35 -45 -19 -18 -32 -36 -30 -40 3 -4 -5 -16 -16 -26 -11 -10 -27 -34 -36 -53
-9 -20 -23 -44 -31 -53 -20 -23 -62 -108 -62 -125 0 -7 -4 -13 -10 -13 -5 0
-10 -9 -10 -20 0 -11 -4 -20 -10 -20 -5 0 -10 -9 -10 -20 0 -11 -4 -20 -10
-20 -5 0 -10 -6 -10 -13 0 -18 -28 -75 -41 -82 -5 -4 -7 -10 -4 -15 3 -4 -2
-13 -10 -20 -8 -7 -15 -21 -15 -31 0 -10 -9 -34 -20 -54 -11 -20 -20 -44 -20
-55 0 -10 -4 -22 -10 -25 -5 -3 -10 -19 -10 -35 0 -16 -4 -32 -10 -35 -5 -3
-10 -17 -10 -30 0 -13 -4 -27 -10 -30 -5 -3 -10 -21 -10 -39 0 -17 -4 -36 -9
-42 -5 -5 -11 -20 -13 -34 -2 -17 -10 -26 -24 -28 -18 -3 -28 10 -58 70 -20
40 -36 79 -36 86 0 6 -4 12 -10 12 -5 0 -10 9 -10 20 0 11 -4 20 -10 20 -5 0
-10 14 -10 30 0 17 -4 30 -10 30 -5 0 -10 6 -10 13 0 17 -28 75 -40 82 -5 3
-7 12 -3 21 3 8 -2 23 -11 33 -9 10 -14 20 -11 23 3 3 -1 11 -10 18 -8 7 -15
23 -15 36 0 12 -4 26 -10 29 -6 3 -10 17 -10 30 0 13 -5 27 -10 30 -6 3 -10
15 -10 26 0 10 -4 19 -10 19 -5 0 -10 13 -10 29 0 17 -4 33 -10 36 -5 3 -10
17 -10 30 0 13 -4 27 -10 30 -5 3 -10 17 -10 30 0 13 -4 27 -10 30 -5 3 -10
17 -10 30 0 13 -4 27 -10 30 -5 3 -10 17 -10 30 0 13 -4 27 -10 30 -6 3 -10
19 -10 34 0 16 -6 34 -14 40 -8 7 -12 20 -9 30 2 9 -3 23 -11 30 -9 8 -16 28
-16 47 0 18 -5 36 -10 39 -6 3 -10 17 -10 30 0 13 -4 27 -10 30 -6 3 -10 24
-10 46 0 21 -4 39 -10 39 -5 0 -10 18 -10 39 0 22 -4 43 -10 46 -5 3 -10 21
-10 40 0 19 -4 37 -10 40 -5 3 -10 21 -10 40 0 19 -4 37 -10 40 -6 3 -10 23
-10 44 0 20 -4 41 -9 47 -5 5 -11 27 -14 49 -12 91 -27 149 -43 166 -17 18
-49 19 -1003 17 l-986 -3 -3 -1410 c-1 -919 -6 -1413 -12 -1419 -6 -6 -10 -54
-10 -107 0 -55 -4 -101 -10 -104 -5 -3 -10 -30 -10 -60 0 -30 -4 -57 -10 -60
-5 -3 -10 -21 -10 -39 0 -17 -5 -37 -11 -43 -6 -6 -12 -28 -14 -48 -2 -21 -9
-43 -14 -48 -6 -6 -11 -21 -11 -33 0 -13 -4 -26 -10 -29 -5 -3 -10 -17 -10
-30 0 -13 -4 -27 -10 -30 -6 -3 -10 -14 -10 -24 0 -10 -18 -53 -40 -96 -22
-43 -40 -84 -40 -91 0 -8 -4 -14 -10 -14 -5 0 -10 -9 -10 -20 0 -11 -4 -20 -9
-20 -5 0 -16 -16 -25 -35 -10 -20 -26 -41 -37 -48 -10 -6 -19 -19 -19 -27 0
-17 -209 -230 -226 -230 -7 0 -17 -7 -24 -15 -7 -9 -28 -23 -46 -31 -19 -9
-34 -20 -34 -25 0 -5 -9 -9 -20 -9 -11 0 -20 -4 -20 -10 0 -5 -9 -10 -19 -10
-11 0 -23 -5 -26 -10 -3 -5 -17 -10 -30 -10 -13 0 -27 -4 -30 -10 -3 -5 -17
-10 -30 -10 -13 0 -27 -4 -30 -10 -3 -5 -17 -10 -30 -10 -13 0 -26 -4 -29 -9
-3 -5 -35 -12 -71 -16 -36 -3 -67 -10 -70 -14 -6 -10 -366 -8 -382 2 -6 4 -39
10 -72 14 -34 3 -64 10 -67 14 -3 5 -16 9 -29 9 -13 0 -27 5 -30 10 -3 5 -17
10 -30 10 -13 0 -27 5 -30 10 -3 6 -15 10 -25 10 -11 0 -35 9 -55 20 -20 11
-42 20 -50 20 -8 0 -15 5 -15 10 0 6 -8 10 -18 10 -10 0 -24 9 -32 20 -8 11
-22 20 -30 20 -9 0 -27 11 -40 25 -12 13 -26 23 -30 20 -8 -5 -237 224 -230
229 3 2 -10 20 -27 40 -18 19 -33 42 -33 51 0 8 -4 15 -10 15 -5 0 -10 8 -10
18 0 10 -9 24 -20 32 -11 8 -20 20 -20 26 0 7 -13 38 -30 69 -16 31 -30 63
-30 71 0 15 -17 49 -38 76 -8 9 -11 22 -7 28 4 6 -1 20 -10 30 -10 11 -15 26
-12 34 4 9 0 22 -8 30 -8 8 -15 30 -15 50 0 19 -4 38 -10 41 -5 3 -10 25 -10
49 0 23 -4 46 -9 52 -10 10 -20 86 -27 219 -2 50 -9 99 -14 110 -7 13 -11 517
-13 1395 l-2 1375 -563 3 c-456 2 -564 0 -568 -11z m9091 -887 c3 -5 30 -10
60 -10 30 0 57 -4 60 -10 3 -5 21 -10 39 -10 17 0 37 -5 42 -10 6 -6 27 -11
47 -12 21 -1 42 -7 49 -15 6 -7 19 -11 29 -8 9 3 20 1 23 -4 4 -5 53 -33 110
-61 57 -28 110 -57 116 -65 7 -8 18 -15 25 -15 6 0 20 -9 30 -20 10 -11 24
-20 31 -20 7 0 36 -25 65 -55 28 -30 58 -55 66 -55 18 0 46 -27 39 -38 -3 -5
24 -37 59 -71 36 -34 65 -68 65 -75 0 -7 9 -21 20 -31 11 -10 20 -23 20 -30 0
-6 11 -22 25 -35 14 -13 23 -26 20 -28 -3 -3 2 -14 12 -24 9 -10 13 -18 8 -18
-4 0 -2 -7 5 -15 22 -26 80 -148 80 -166 0 -10 5 -21 10 -24 6 -3 10 -15 10
-26 0 -11 9 -39 20 -61 11 -23 20 -54 20 -69 0 -15 5 -31 10 -34 6 -3 10 -21
10 -40 0 -19 4 -36 9 -39 4 -3 11 -33 14 -67 4 -33 10 -65 13 -71 4 -6 9 -61
11 -122 3 -61 9 -119 14 -128 12 -22 12 -271 0 -284 -5 -5 -11 -47 -14 -94 -2
-47 -7 -92 -11 -100 -6 -16 -23 -107 -33 -173 -3 -20 -9 -40 -14 -43 -5 -3 -9
-16 -9 -29 0 -13 -4 -27 -10 -30 -5 -3 -10 -17 -10 -30 0 -13 -4 -27 -10 -30
-5 -3 -10 -14 -10 -25 0 -10 -13 -44 -30 -75 -16 -31 -30 -63 -30 -71 0 -8 -4
-14 -10 -14 -5 0 -10 -9 -10 -19 0 -10 -7 -22 -16 -25 -8 -3 -12 -11 -9 -16 4
-6 -5 -22 -19 -35 -14 -13 -26 -30 -26 -38 0 -8 -9 -22 -20 -32 -11 -10 -20
-23 -20 -29 -1 -6 -19 -29 -40 -51 -22 -22 -40 -45 -40 -50 0 -6 -22 -33 -50
-60 -27 -27 -50 -45 -50 -40 0 5 -26 -15 -57 -46 -32 -30 -70 -61 -85 -69 -16
-7 -28 -17 -28 -22 0 -4 -9 -8 -20 -8 -11 0 -20 -4 -20 -10 0 -5 -6 -10 -14
-10 -7 0 -25 -11 -40 -25 -15 -14 -31 -23 -36 -20 -4 3 -13 -2 -20 -10 -7 -8
-16 -13 -20 -10 -4 3 -13 -2 -20 -10 -7 -8 -21 -15 -31 -15 -10 0 -34 -9 -54
-20 -20 -11 -44 -20 -55 -20 -10 0 -22 -4 -25 -10 -3 -5 -21 -10 -39 -10 -17
0 -36 -4 -42 -9 -11 -11 -60 -17 -239 -33 -98 -8 -164 -8 -270 1 -197 16 -239
22 -249 32 -6 5 -25 9 -42 9 -18 0 -36 5 -39 10 -3 5 -17 10 -30 10 -13 0 -27
5 -30 10 -3 6 -17 10 -30 10 -13 0 -27 5 -30 10 -3 6 -17 10 -30 10 -13 0 -45
11 -70 25 -25 14 -50 23 -55 20 -5 -3 -11 -1 -15 4 -3 6 -43 28 -89 51 -46 22
-89 47 -96 55 -7 8 -18 15 -25 15 -6 0 -20 9 -30 20 -10 11 -23 20 -30 20 -6
0 -22 11 -35 25 -12 13 -26 22 -30 20 -4 -2 -18 7 -30 20 -13 14 -29 25 -36
25 -6 0 -35 22 -63 50 -28 28 -56 50 -62 50 -15 0 -249 235 -249 250 0 6 -18
29 -40 50 -22 21 -40 45 -40 53 0 8 -16 29 -36 46 -19 17 -33 35 -30 40 3 5
-1 14 -9 21 -17 14 -21 110 -5 140 6 10 12 45 13 78 2 32 6 63 9 68 4 5 12 45
18 89 13 86 25 151 41 230 5 28 13 67 16 88 3 20 9 40 14 43 5 3 9 25 9 49 0
24 5 47 10 50 6 3 10 17 10 30 0 13 5 27 10 30 6 3 10 21 10 40 0 19 5 37 10
40 6 3 10 19 10 35 0 16 5 32 10 35 6 3 10 17 10 30 0 13 5 27 10 30 6 3 10
15 10 26 0 11 7 31 16 44 9 13 13 28 10 33 -3 6 1 15 9 22 8 7 15 21 15 31 0
10 9 34 20 54 11 20 20 47 20 60 0 14 5 25 10 25 6 0 10 9 10 20 0 11 5 20 10
20 6 0 10 6 10 12 0 22 90 195 110 213 11 10 20 23 20 30 0 7 9 20 20 30 11
10 20 23 20 30 0 7 9 20 20 30 11 10 20 24 20 31 0 7 18 29 40 50 22 21 40 44
40 51 0 18 134 150 147 146 5 -2 28 17 51 42 22 25 44 45 50 45 13 0 71 30 77
40 7 12 194 100 225 106 8 2 23 7 35 12 39 18 92 32 118 32 14 0 29 5 32 10 3
6 35 10 70 10 35 0 67 5 70 10 4 6 75 10 180 10 105 0 176 -4 180 -10z"/>
</g>
</svg>
