<?xml version="1.0" standalone="no"?>
<!DOCTYPE svg PUBLIC "-//W3C//DTD SVG 20010904//EN"
 "http://www.w3.org/TR/2001/REC-SVG-20010904/DTD/svg10.dtd">
<svg version="1.0" xmlns="http://www.w3.org/2000/svg"
 width="1263.000000pt" height="720.000000pt" viewBox="0 0 1263.000000 720.000000"
 preserveAspectRatio="xMidYMid meet">

<g transform="translate(0.000000,720.000000) scale(0.100000,-0.100000)"
fill="#000000" stroke="none">
<path d="M4975 7189 c-1529 -37 -2430 -111 -2762 -225 -346 -119 -640 -397
-776 -735 -110 -273 -182 -766 -239 -1629 -18 -270 -18 -1731 0 -2000 65 -985
143 -1449 289 -1733 189 -365 530 -609 962 -686 669 -121 2354 -191 4241 -178
1664 12 2858 70 3435 168 214 36 312 66 465 145 291 150 514 405 625 714 94
264 164 766 217 1570 18 269 18 1718 0 1995 -49 772 -118 1281 -209 1554 -125
376 -439 693 -806 816 -348 116 -1228 187 -2817 225 -462 11 -2160 11 -2625
-1z m1555 -2764 c674 -389 1269 -732 1323 -763 53 -31 97 -59 97 -62 -1 -3
-71 -45 -158 -94 -86 -50 -685 -394 -1329 -767 l-1173 -677 0 1540 c0 846 3
1537 8 1535 4 -3 558 -323 1232 -712z"/>
</g>
</svg>
