<?xml version="1.0" standalone="no"?>
<!DOCTYPE svg PUBLIC "-//W3C//DTD SVG 20010904//EN"
 "http://www.w3.org/TR/2001/REC-SVG-20010904/DTD/svg10.dtd">
<svg version="1.0" xmlns="http://www.w3.org/2000/svg"
 width="360.000000pt" height="360.000000pt" viewBox="0 0 360.000000 360.000000"
 preserveAspectRatio="xMidYMid meet">

<g transform="translate(0.000000,360.000000) scale(0.100000,-0.100000)"
fill="#000000" stroke="none">
<path d="M1707 3568 c-9 -7 -28 -42 -42 -77 -26 -68 -32 -152 -16 -223 9 -41
10 -40 -56 -53 -43 -8 -153 -126 -193 -205 -58 -115 -51 -200 25 -321 l28 -43
-19 -35 c-11 -19 -28 -47 -40 -61 -11 -14 -28 -47 -38 -75 -21 -59 -43 -113
-56 -137 -5 -9 -23 -70 -40 -135 -17 -65 -38 -132 -46 -150 -8 -17 -14 -44
-14 -60 0 -15 -4 -33 -8 -39 -4 -7 -67 -16 -152 -22 -80 -6 -152 -13 -160 -16
-13 -5 -14 3 -12 52 3 53 1 61 -27 91 -28 29 -36 33 -67 28 -64 -11 -75 -29
-89 -144 l-7 -53 -97 0 c-90 0 -101 -2 -142 -29 -27 -17 -51 -41 -59 -61 -12
-29 -12 -37 6 -69 10 -19 37 -46 59 -58 34 -19 55 -23 140 -23 l101 0 12 -44
c14 -53 35 -76 68 -76 52 0 68 21 88 112 5 23 13 28 59 37 28 5 85 11 125 13
69 4 72 3 72 -19 0 -12 -4 -24 -9 -27 -5 -3 -15 -30 -21 -58 -7 -29 -16 -57
-20 -63 -4 -5 -16 -39 -26 -75 -9 -36 -29 -92 -44 -125 -36 -80 -75 -172 -91
-214 -7 -19 -27 -55 -45 -81 -18 -26 -37 -65 -43 -86 -6 -22 -22 -57 -35 -79
-63 -103 -68 -116 -64 -173 6 -65 31 -92 85 -92 50 0 71 15 95 68 12 26 27 54
34 62 20 24 70 123 78 156 4 16 14 36 21 44 17 19 75 129 75 143 0 5 12 35 26
66 14 31 35 76 46 101 10 25 23 52 28 61 5 9 14 45 21 80 6 35 15 69 20 74 4
6 13 32 20 58 6 26 20 64 30 85 11 20 19 53 19 74 0 35 2 38 29 38 16 0 46 7
67 16 36 15 39 15 49 -1 21 -37 69 -87 99 -102 38 -20 222 -30 281 -15 48 13
187 59 233 78 21 9 44 32 64 64 l31 49 46 -6 c47 -6 80 -32 81 -63 0 -8 9 -29
19 -46 25 -41 117 -260 143 -338 11 -34 28 -77 39 -96 10 -19 23 -53 28 -75
14 -59 74 -223 104 -280 14 -27 32 -67 41 -88 17 -41 67 -77 106 -77 36 0 86
34 105 71 22 42 13 98 -26 169 -35 62 -73 163 -99 263 -10 37 -26 79 -35 93
-9 14 -25 52 -36 84 -24 75 -137 342 -150 354 -25 26 -8 36 61 36 57 0 75 -4
106 -25 66 -45 125 -45 145 -1 14 29 43 36 158 36 98 0 139 17 166 69 20 40
19 69 -5 108 -33 55 -67 66 -197 61 -126 -4 -117 -9 -128 73 -14 94 -95 131
-155 70 -23 -22 -30 -41 -36 -90 l-7 -61 -61 0 c-33 0 -83 -3 -111 -6 l-50 -6
-28 73 c-15 41 -27 80 -27 87 0 15 -33 81 -90 182 -23 41 -58 104 -77 139 -19
35 -41 74 -50 88 -15 23 -15 25 7 40 12 9 39 50 59 92 32 70 35 84 35 166 0
98 -10 129 -61 177 -30 29 -151 88 -180 88 -10 0 -36 9 -59 19 -40 18 -41 19
-52 92 -32 208 -37 232 -55 265 -9 17 -24 34 -32 38 -27 10 -80 7 -98 -6z m71
-566 c25 -26 62 -41 202 -81 30 -9 36 -37 20 -87 -18 -52 -70 -73 -182 -74
-74 0 -96 4 -143 26 -68 33 -78 50 -70 119 14 111 110 164 173 97z m-133 -461
c23 -12 62 -16 175 -17 l145 -1 25 -49 c14 -27 33 -69 43 -94 10 -25 31 -74
47 -110 16 -36 36 -90 44 -120 7 -30 24 -79 35 -109 12 -29 20 -54 19 -55 -39
-23 -61 -25 -91 -9 -25 14 -58 18 -157 19 -69 0 -143 4 -166 8 -47 8 -172 -16
-220 -44 -25 -14 -45 -17 -99 -13 -62 6 -66 7 -60 27 4 12 22 79 40 150 18 70
38 133 44 139 6 6 11 18 11 27 0 8 7 27 14 42 8 16 18 48 22 73 3 25 10 48 15
51 5 3 9 13 9 22 0 9 5 34 11 55 9 34 12 37 37 31 15 -4 41 -14 57 -23z"/>
</g>
</svg>
