<?xml version="1.0" standalone="no"?>
<!DOCTYPE svg PUBLIC "-//W3C//DTD SVG 20010904//EN"
 "http://www.w3.org/TR/2001/REC-SVG-20010904/DTD/svg10.dtd">
<svg version="1.0" xmlns="http://www.w3.org/2000/svg"
 width="360.000000pt" height="360.000000pt" viewBox="0 0 360.000000 360.000000"
 preserveAspectRatio="xMidYMid meet">

<g transform="translate(0.000000,360.000000) scale(0.100000,-0.100000)"
fill="#000000" stroke="none">
<path d="M2512 2715 c-42 -19 -65 -69 -56 -127 7 -49 39 -109 99 -188 23 -30
49 -68 58 -85 28 -54 303 -312 381 -358 l31 -18 -35 8 c-19 4 -188 8 -375 9
-334 0 -415 4 -1005 45 -346 24 -1141 29 -1212 7 -66 -20 -86 -67 -46 -111 23
-25 108 -57 150 -57 13 0 28 -4 34 -9 16 -16 108 -22 424 -29 168 -4 310 -10
315 -14 9 -5 319 -27 974 -69 103 -6 250 -8 362 -3 104 4 189 4 189 1 0 -2
-67 -55 -149 -117 -170 -127 -201 -165 -201 -248 0 -65 19 -82 91 -82 54 0 55
0 247 143 105 78 212 155 237 170 70 44 278 147 297 147 9 0 33 15 52 34 30
27 36 40 36 74 0 60 -25 84 -92 90 l-56 4 -5 44 c-6 54 -46 115 -99 152 -200
138 -381 332 -493 526 -19 32 -40 53 -61 62 -41 17 -50 17 -92 -1z"/>
</g>
</svg>
