<?xml version="1.0" standalone="no"?>
<!DOCTYPE svg PUBLIC "-//W3C//DTD SVG 20010904//EN"
 "http://www.w3.org/TR/2001/REC-SVG-20010904/DTD/svg10.dtd">
<svg version="1.0" xmlns="http://www.w3.org/2000/svg"
 width="360.000000pt" height="360.000000pt" viewBox="0 0 360.000000 360.000000"
 preserveAspectRatio="xMidYMid meet">

<g transform="translate(0.000000,360.000000) scale(0.100000,-0.100000)"
fill="#000000" stroke="none">
<path d="M1773 3149 c-36 -11 -63 -43 -63 -76 0 -32 19 -70 40 -79 10 -5 33
-30 52 -56 18 -25 73 -90 121 -144 48 -53 95 -111 104 -128 9 -17 35 -56 58
-86 23 -30 52 -75 65 -100 12 -25 35 -61 50 -80 47 -60 196 -376 298 -630 79
-196 127 -305 198 -442 36 -71 62 -128 57 -128 -46 -1 -279 -32 -293 -40 -21
-11 -125 -36 -215 -52 -39 -6 -137 -7 -280 -1 -121 4 -337 8 -480 7 -257 -1
-286 -3 -510 -44 -121 -22 -135 -23 -135 -7 0 8 8 25 18 38 10 13 23 35 30 49
7 14 34 66 61 115 27 50 68 128 91 175 65 131 110 220 143 280 53 99 173 344
217 445 26 58 95 207 116 248 8 16 14 35 14 44 0 8 14 45 31 81 47 101 99 242
105 288 6 36 3 43 -17 58 -13 9 -32 16 -42 16 -26 0 -72 -55 -92 -109 -41
-111 -91 -212 -165 -336 -17 -27 -62 -115 -100 -195 -39 -80 -75 -153 -80
-162 -6 -10 -14 -26 -20 -35 -5 -10 -21 -43 -35 -74 -14 -31 -42 -82 -63 -115
-20 -32 -61 -108 -90 -169 -29 -60 -57 -118 -63 -127 -89 -167 -167 -311 -185
-343 -12 -22 -33 -60 -45 -85 -12 -25 -38 -70 -58 -100 -20 -30 -42 -67 -48
-82 -7 -15 -25 -37 -42 -49 -17 -13 -33 -35 -37 -53 -3 -17 -13 -38 -21 -47
-7 -9 -16 -32 -19 -51 -5 -27 -1 -40 21 -66 38 -46 87 -45 143 4 23 19 42 42
42 50 0 9 12 14 38 14 20 1 66 8 102 16 36 9 85 19 110 24 25 5 63 13 85 19
142 36 385 54 623 47 105 -3 279 -9 385 -12 236 -7 330 4 507 60 68 22 275 38
335 27 133 -25 188 -55 230 -121 29 -46 70 -70 120 -70 37 0 66 17 125 71 80
73 35 166 -115 235 -38 18 -82 45 -96 61 -112 122 -237 358 -376 713 -93 235
-275 618 -323 680 -15 19 -38 55 -50 80 -13 25 -42 70 -65 100 -23 30 -48 66
-55 80 -40 76 -263 325 -305 341 -16 6 -42 17 -57 25 -29 16 -49 16 -95 3z"/>
<path d="M1779 2517 c-24 -16 -47 -50 -80 -117 -26 -52 -49 -108 -52 -125 -5
-28 -141 -325 -167 -365 -6 -8 -29 -53 -51 -100 -23 -47 -83 -173 -135 -280
-52 -107 -94 -206 -94 -220 0 -35 34 -86 72 -110 27 -17 43 -20 93 -15 33 4
74 10 90 15 90 26 159 32 460 44 234 9 337 16 354 25 14 8 50 17 80 22 177 26
198 35 227 91 19 36 13 92 -15 147 -10 20 -27 56 -38 81 -82 185 -127 259
-221 367 -122 138 -166 201 -238 336 -50 96 -78 135 -113 165 -83 70 -115 77
-172 39z m133 -412 c26 -50 120 -175 212 -282 94 -107 146 -197 169 -286 1 -5
-16 -15 -38 -24 -30 -12 -119 -19 -360 -29 -176 -7 -332 -16 -348 -20 l-27 -6
44 93 c72 154 106 222 126 259 37 66 170 348 170 362 1 17 25 -14 52 -67z"/>
</g>
</svg>
