<?xml version="1.0" standalone="no"?>
<!DOCTYPE svg PUBLIC "-//W3C//DTD SVG 20010904//EN"
 "http://www.w3.org/TR/2001/REC-SVG-20010904/DTD/svg10.dtd">
<svg version="1.0" xmlns="http://www.w3.org/2000/svg"
 width="1535.000000pt" height="2047.000000pt" viewBox="0 0 1535.000000 2047.000000"
 preserveAspectRatio="xMidYMid meet">

<g transform="translate(0.000000,2047.000000) scale(0.100000,-0.100000)"
fill="#000000" stroke="none">
<path d="M10972 12213 l3 -6068 878 -3 877 -2 0 6070 0 6070 -880 0 -880 0 2
-6067z"/>
<path d="M5440 15505 l0 -1825 880 0 880 0 0 1825 0 1825 -880 0 -880 0 0
-1825z"/>
<path d="M2620 8260 l0 -6070 880 0 880 0 -2 6068 -3 6067 -877 3 -878 2 0
-6070z"/>
<path d="M8210 12495 l0 -1825 878 2 877 3 3 1823 2 1822 -880 0 -880 0 0
-1825z"/>
<path d="M5440 8005 l0 -1825 880 0 880 0 0 1825 0 1825 -880 0 -880 0 0
-1825z"/>
<path d="M8210 8740 l0 -860 875 0 875 0 0 860 0 860 -875 0 -875 0 0 -860z"/>
<path d="M8210 4995 l0 -1825 880 0 880 0 -2 1823 -3 1822 -877 3 -878 2 0
-1825z"/>
</g>
</svg>
