<?xml version="1.0" standalone="no"?>
<!DOCTYPE svg PUBLIC "-//W3C//DTD SVG 20010904//EN"
 "http://www.w3.org/TR/2001/REC-SVG-20010904/DTD/svg10.dtd">
<svg version="1.0" xmlns="http://www.w3.org/2000/svg"
 width="1812.000000pt" height="700.000000pt" viewBox="0 0 1812.000000 700.000000"
 preserveAspectRatio="xMidYMid meet">

<g transform="translate(0.000000,700.000000) scale(0.100000,-0.100000)"
fill="#000000" stroke="none">
<path d="M87 6922 c-10 -10 -17 -30 -17 -45 0 -30 -47 17 1170 -1170 l815
-795 30 21 c40 29 134 34 211 12 327 -94 741 -550 1068 -1174 l63 -122 -36
-37 -36 -37 -190 81 c-566 242 -1015 354 -1418 354 -259 0 -426 -36 -616 -131
-173 -86 -309 -213 -450 -418 -256 -375 -436 -960 -530 -1731 -44 -360 -66
-686 -83 -1217 -11 -366 -11 -383 7 -403 24 -26 68 -25 98 2 14 13 388 396
832 853 445 457 869 892 944 967 l135 137 -22 40 c-28 50 -30 146 -3 222 115
334 553 730 1155 1045 l139 72 25 -29 c72 -86 187 -75 242 22 34 62 20 137
-36 185 l-24 20 66 154 c393 916 474 1602 243 2062 -118 236 -336 431 -670
598 -559 281 -1362 425 -2619 470 -414 15 -474 14 -493 -8z"/>
<path d="M10965 5618 c-3 -7 -4 -215 -3 -463 l3 -450 27 -9 c17 -6 42 -6 65 0
l38 9 5 230 c5 218 6 232 28 267 46 75 172 101 240 51 62 -46 67 -67 72 -318
l5 -230 27 -9 c17 -6 42 -6 65 0 l38 9 0 240 c0 266 -6 302 -68 372 -82 93
-248 111 -357 38 l-49 -33 -3 151 -3 152 -63 3 c-44 2 -64 -1 -67 -10z"/>
<path d="M8143 5608 c-20 -26 -335 -866 -331 -884 4 -25 46 -38 91 -30 35 7
37 9 74 106 l38 100 209 -3 210 -2 39 -97 c37 -94 40 -98 75 -104 43 -8 86 5
90 30 4 17 -311 859 -331 884 -6 7 -36 12 -82 12 -46 0 -76 -5 -82 -12z m170
-381 l75 -197 -164 0 -164 0 11 28 c6 15 39 101 74 192 35 91 66 173 71 184
10 25 9 25 97 -207z"/>
<path d="M8993 5386 c-23 -7 -54 -23 -70 -35 l-28 -22 -10 23 c-5 13 -14 26
-20 30 -16 12 -90 9 -103 -4 -17 -17 -17 -899 0 -916 7 -7 33 -12 58 -12 25 0
51 5 58 12 8 8 12 57 12 155 l0 143 40 -29 c108 -78 290 -60 370 37 43 52 70
133 77 227 13 182 -43 322 -151 377 -52 27 -172 34 -233 14z m165 -132 c15
-11 38 -42 52 -70 47 -94 29 -285 -33 -341 -55 -50 -162 -53 -219 -5 -50 42
-68 94 -68 200 0 128 30 194 105 228 41 19 129 13 163 -12z"/>
<path d="M9682 5385 c-92 -29 -172 -115 -158 -171 6 -22 12 -24 59 -24 47 0
54 3 69 29 35 63 146 90 218 53 41 -20 60 -53 60 -103 l0 -36 -121 -17 c-143
-20 -218 -46 -269 -92 -50 -45 -63 -81 -58 -153 5 -73 38 -120 107 -156 93
-46 219 -42 298 12 26 17 39 21 41 13 15 -43 64 -60 117 -40 l26 10 -3 262
c-3 250 -4 265 -25 305 -44 81 -131 124 -252 122 -36 0 -85 -6 -109 -14z m248
-403 c0 -66 -35 -130 -86 -159 -73 -42 -197 -24 -223 33 -22 50 -5 91 52 121
26 13 192 49 245 52 8 1 12 -15 12 -47z"/>
<path d="M10418 5386 c-89 -24 -153 -86 -185 -177 -34 -101 -26 -296 17 -379
27 -53 101 -115 157 -131 74 -22 198 -16 260 11 87 37 161 136 151 202 -3 21
-9 23 -63 26 l-60 3 -25 -47 c-32 -60 -65 -85 -124 -91 -72 -9 -130 18 -164
75 -25 44 -27 55 -27 162 0 138 19 186 85 220 88 45 179 18 230 -70 23 -39 31
-45 65 -48 21 -2 49 -1 62 2 31 8 30 47 -3 115 -57 114 -220 169 -376 127z"/>
<path d="M11949 5393 c-49 -8 -133 -66 -166 -116 -47 -71 -58 -117 -58 -247 1
-102 4 -121 26 -170 36 -77 71 -115 137 -147 50 -25 68 -28 147 -28 75 1 99 5
146 27 90 41 153 117 135 163 -4 11 -21 15 -59 15 -45 0 -58 -4 -78 -26 -62
-66 -157 -88 -226 -51 -37 20 -78 85 -88 140 l-7 37 230 0 c193 0 232 2 242
15 17 20 7 142 -16 210 -24 70 -102 145 -173 168 -49 16 -128 20 -192 10z
m138 -114 c56 -21 112 -99 113 -156 0 -23 0 -23 -170 -23 l-170 0 0 23 c0 13
11 46 25 74 39 78 123 112 202 82z"/>
<path d="M12516 4074 c-143 -28 -264 -111 -319 -220 -48 -95 -59 -150 -66
-324 l-6 -165 -163 -5 c-197 -6 -192 -3 -192 -126 0 -66 4 -86 19 -105 19 -23
25 -24 180 -27 l161 -3 0 -709 0 -709 22 -15 c17 -12 49 -16 128 -16 98 0 108
2 128 23 l22 23 0 702 0 702 355 0 355 0 0 -699 c0 -836 -17 -751 150 -751 99
0 111 2 130 22 20 22 20 28 20 1198 l0 1177 -23 21 c-21 20 -34 22 -129 22
-159 0 -148 28 -148 -391 l0 -339 -352 2 -353 3 -3 95 c-7 190 32 295 124 341
44 21 65 24 199 27 193 4 195 6 195 132 0 78 -2 89 -23 108 -22 21 -32 22
-183 21 -90 0 -189 -7 -228 -15z"/>
<path d="M9899 4001 c-22 -18 -24 -27 -27 -138 -3 -109 -2 -121 18 -146 l21
-27 140 0 c184 0 179 -5 179 164 0 123 0 125 -26 145 -24 19 -40 21 -154 21
-111 0 -131 -3 -151 -19z"/>
<path d="M8383 3950 c-12 -5 -28 -19 -37 -32 -31 -49 -836 -2169 -836 -2202 0
-55 25 -66 152 -66 97 0 109 2 132 23 16 15 54 100 117 264 l93 243 541 0 542
0 93 -242 c61 -161 101 -251 117 -265 22 -21 34 -23 137 -23 126 0 146 9 146
66 0 31 -808 2158 -835 2201 -9 13 -27 28 -41 33 -31 12 -291 12 -321 0z m387
-905 c121 -318 220 -580 220 -582 0 -1 -201 -3 -446 -3 -421 0 -446 1 -439 18
3 9 104 272 222 585 119 312 218 566 220 564 1 -2 102 -264 223 -582z"/>
<path d="M14505 3389 c-319 -40 -538 -237 -615 -551 -43 -173 -37 -534 11
-708 56 -202 193 -365 375 -446 184 -82 495 -86 697 -10 190 72 347 251 406
465 41 149 51 451 20 642 -16 97 -55 206 -104 284 -52 84 -159 189 -235 232
-147 83 -351 117 -555 92z m219 -249 c171 -28 291 -140 351 -330 26 -81 33
-433 11 -549 -47 -252 -205 -391 -445 -391 -236 0 -381 115 -442 348 -26 101
-29 445 -5 560 55 262 265 406 530 362z"/>
<path d="M9916 3338 c-14 -20 -16 -116 -16 -835 0 -800 0 -813 20 -833 18 -18
33 -20 129 -20 92 0 112 3 132 19 l24 19 0 815 c0 787 -1 816 -19 836 -17 19
-30 21 -137 21 -110 0 -119 -1 -133 -22z"/>
<path d="M10720 3340 c-20 -20 -20 -33 -20 -835 0 -802 0 -815 20 -835 18 -18
33 -20 135 -20 102 0 117 2 135 20 19 19 20 33 20 538 0 331 4 540 11 577 22
120 94 215 198 263 52 25 69 27 234 32 222 6 217 3 217 146 0 139 2 138 -204
131 -132 -4 -172 -8 -223 -26 -78 -28 -159 -84 -198 -138 -16 -23 -33 -42 -37
-42 -5 -1 -8 37 -8 84 0 120 -6 125 -150 125 -97 0 -112 -2 -130 -20z"/>
<path d="M15685 3346 c-13 -9 -19 -25 -18 -47 2 -38 464 -1552 488 -1599 24
-46 45 -52 167 -48 103 3 111 5 131 28 14 16 92 243 217 628 107 331 197 598
201 594 3 -4 90 -268 193 -587 103 -319 192 -593 198 -608 17 -44 54 -57 165
-57 107 0 132 9 157 58 12 23 463 1499 482 1575 4 18 1 36 -10 52 -16 24 -20
25 -131 25 l-115 0 -18 -29 c-9 -16 -98 -306 -197 -645 -99 -339 -182 -616
-185 -616 -3 0 -93 278 -200 617 -134 422 -202 625 -218 645 -23 27 -26 28
-122 28 -78 0 -102 -3 -119 -17 -16 -14 -71 -176 -217 -633 -108 -338 -200
-622 -204 -629 -6 -11 -11 -6 -18 20 -5 18 -87 300 -182 624 -141 482 -177
594 -197 613 -22 20 -34 22 -127 22 -71 0 -108 -4 -121 -14z"/>
</g>
</svg>
