<?xml version="1.0" standalone="no"?>
<!DOCTYPE svg PUBLIC "-//W3C//DTD SVG 20010904//EN"
 "http://www.w3.org/TR/2001/REC-SVG-20010904/DTD/svg10.dtd">
<svg version="1.0" xmlns="http://www.w3.org/2000/svg"
 width="2560.000000pt" height="1330.000000pt" viewBox="0 0 2560.000000 1330.000000"
 preserveAspectRatio="xMidYMid meet">

<g transform="translate(0.000000,1330.000000) scale(0.100000,-0.100000)"
fill="#000000" stroke="none">
<path d="M20185 13272 c-196 -59 -363 -210 -506 -458 -104 -181 -155 -343
-214 -684 -20 -113 -72 -403 -115 -645 -44 -242 -111 -621 -150 -843 -39 -221
-74 -412 -79 -425 -21 -52 -48 -63 -726 -277 -1462 -462 -1603 -509 -1773
-590 -156 -75 -254 -143 -345 -240 -118 -125 -175 -252 -184 -410 -6 -110 16
-218 67 -327 95 -205 316 -417 555 -536 162 -80 1453 -647 1473 -647 13 0 39
9 60 20 80 42 1157 746 1155 755 -1 6 -397 167 -880 359 -483 192 -880 351
-883 353 -3 3 5 13 18 24 27 21 77 37 1317 429 490 154 909 287 931 296 60 22
75 44 89 131 13 79 265 1494 351 1968 26 143 51 265 56 270 22 23 78 -65 783
-1239 198 -330 372 -608 386 -618 l26 -20 674 180 c1194 318 1648 436 1655
429 4 -4 2 -18 -4 -31 -6 -13 -156 -194 -334 -402 -870 -1017 -1240 -1457
-1250 -1484 -13 -38 -15 -33 274 -580 616 -1165 753 -1429 745 -1436 -3 -3
-387 100 -853 229 l-849 234 -3 -26 c-2 -14 20 -154 47 -311 28 -157 68 -395
91 -529 22 -134 45 -252 51 -263 13 -24 0 -20 376 -133 175 -53 530 -161 788
-240 657 -201 707 -212 919 -202 144 7 211 24 331 82 381 184 528 615 353
1030 -32 76 -190 377 -806 1540 -153 290 -267 515 -269 536 -3 20 1 47 8 61 8
14 399 479 869 1033 470 554 881 1041 913 1084 69 91 160 271 182 360 78 310
-55 541 -360 626 -93 26 -319 31 -430 10 -88 -16 -697 -175 -1916 -501 -339
-90 -630 -164 -647 -164 -18 0 -41 9 -55 23 -14 12 -199 312 -413 667 -697
1160 -707 1176 -863 1330 -160 158 -273 211 -461 216 -89 3 -128 0 -175 -14z"/>
<path d="M11394 8559 c-88 -13 -198 -53 -279 -101 -90 -53 -220 -183 -273
-273 -128 -219 -141 -482 -32 -695 33 -64 135 -166 205 -206 150 -83 363 -91
544 -18 l37 15 13 117 c7 64 15 135 18 157 6 39 5 39 -13 24 -61 -53 -176 -89
-285 -89 -65 0 -85 4 -137 31 -207 103 -231 416 -48 617 96 105 199 153 327
154 92 1 163 -21 224 -67 l44 -34 6 57 c4 31 13 101 19 156 l13 98 -36 16
c-99 41 -238 58 -347 41z"/>
<path d="M6366 8523 c-8 -16 -165 -309 -349 -653 l-335 -625 157 -3 c86 -1
157 1 159 5 1 5 34 68 73 141 l70 132 223 0 224 0 10 -62 c6 -35 16 -98 23
-140 l12 -78 143 0 c108 0 144 3 144 12 0 7 -53 302 -117 655 l-117 643 -153
0 -152 0 -15 -27z m150 -540 l30 -198 -129 -3 c-72 -1 -132 -1 -134 2 -5 5
190 396 197 396 3 0 19 -89 36 -197z"/>
<path d="M7806 8523 c-3 -16 -53 -300 -111 -633 -59 -333 -109 -615 -112 -627
-5 -23 -5 -23 131 -23 132 0 136 1 141 23 3 12 22 119 43 237 l38 215 154 6
c177 7 229 20 317 78 71 48 114 100 156 189 31 64 32 72 32 192 0 117 -2 129
-28 182 -47 96 -137 158 -259 178 -34 5 -161 10 -280 10 l-216 0 -6 -27z m458
-254 c86 -39 67 -213 -29 -266 -34 -19 -55 -23 -146 -23 l-105 0 23 138 c14
75 26 143 28 150 6 16 194 17 229 1z"/>
<path d="M9297 7901 c-191 -357 -347 -652 -347 -655 0 -3 70 -6 155 -6 l154 0
71 140 72 140 226 -2 227 -3 20 -135 20 -135 148 -3 c138 -2 148 -1 143 15 -3
10 -52 281 -111 603 -58 322 -110 609 -116 638 l-10 52 -153 0 -152 0 -347
-649z m482 91 c17 -106 31 -197 31 -202 0 -6 -55 -10 -135 -10 l-135 0 102
205 c56 112 103 203 105 202 1 -2 16 -89 32 -195z"/>
<path d="M12615 8528 c-8 -32 -225 -1267 -225 -1279 0 -5 57 -9 135 -9 74 0
135 3 135 6 0 8 77 454 86 497 l6 27 284 0 284 0 0 -22 c-1 -13 -20 -132 -43
-265 l-43 -243 136 0 136 0 93 528 c51 290 103 584 115 655 l23 127 -137 0
-136 0 -43 -247 c-24 -137 -46 -254 -49 -260 -3 -10 -70 -13 -288 -13 -156 0
-284 4 -284 8 0 9 77 445 86 485 l6 27 -136 0 c-132 0 -136 -1 -141 -22z"/>
<path d="M14540 8542 c0 -9 -218 -1249 -225 -1279 l-5 -23 365 0 c201 0 365 4
365 8 0 5 9 58 20 118 11 60 20 115 20 122 0 9 -52 12 -225 12 l-225 0 6 38
c3 20 13 80 22 132 l17 95 210 5 209 5 18 100 c9 55 20 112 22 128 l6 27 -204
0 c-111 0 -205 2 -208 5 -2 3 6 60 18 127 13 68 23 124 24 125 0 2 102 4 227
5 l227 3 17 100 c10 55 20 112 23 128 l6 27 -365 0 c-201 0 -365 -3 -365 -8z"/>
<path d="M2990 8004 c-14 -2 -65 -9 -115 -15 -130 -16 -372 -80 -505 -134
-355 -143 -671 -392 -922 -726 -197 -262 -296 -464 -350 -712 -32 -148 -32
-437 0 -585 32 -144 67 -251 121 -367 119 -252 185 -333 901 -1115 443 -483
529 -581 626 -710 187 -249 221 -467 109 -695 -129 -265 -489 -477 -810 -477
-202 0 -366 67 -516 210 -49 46 -111 117 -138 157 -45 68 -161 296 -212 416
-12 30 -23 55 -24 57 -3 3 -1127 -597 -1139 -609 -12 -10 107 -312 184 -468
167 -338 386 -564 696 -719 378 -189 885 -234 1413 -126 723 148 1284 580
1622 1249 271 538 288 1106 48 1588 -114 228 -235 379 -680 847 -113 118 -256
269 -319 335 -315 332 -615 687 -658 777 -83 179 -43 350 119 503 135 126 286
185 479 185 128 0 216 -21 330 -77 82 -41 109 -61 201 -152 100 -100 141 -155
282 -378 l27 -42 525 391 525 391 -39 54 c-120 169 -299 391 -386 478 -263
263 -562 416 -908 464 -71 10 -427 13 -487 5z"/>
<path d="M19275 7532 c-786 -507 -813 -526 -825 -551 -13 -27 -59 -374 -560
-4196 -100 -761 -170 -1307 -170 -1322 0 -2 263 -3 585 -3 l585 0 5 23 c3 12
79 591 171 1287 91 696 167 1266 169 1268 5 5 62 -81 405 -603 1068 -1626
1276 -1939 1305 -1956 28 -18 67 -19 730 -19 l699 0 -36 38 c-44 46 -2170
3038 -2172 3057 -1 13 285 319 943 1009 189 199 352 375 362 391 11 17 19 40
19 53 0 27 -178 1067 -188 1100 -8 24 39 74 -1320 -1430 -522 -578 -622 -685
-622 -664 0 7 359 2750 363 2774 3 12 -1 22 -7 22 -6 0 -204 -125 -441 -278z"/>
<path d="M12580 6354 c-19 -2 -80 -9 -135 -15 -585 -63 -1180 -349 -1634 -785
-467 -448 -768 -1019 -863 -1639 -25 -165 -30 -500 -10 -655 65 -493 279 -923
628 -1260 229 -221 479 -373 784 -474 266 -89 509 -122 815 -113 199 6 314 21
505 63 209 47 521 161 547 201 7 10 46 277 88 593 41 316 80 605 85 642 16
108 16 108 -42 52 -317 -306 -710 -474 -1113 -476 -210 -1 -372 36 -550 124
-354 176 -580 471 -656 853 -21 105 -19 397 4 505 73 346 221 617 468 855 311
299 699 458 1119 458 282 0 495 -58 685 -186 275 -186 458 -542 506 -982 25
-238 10 -396 -170 -1763 -49 -372 -93 -710 -97 -749 l-7 -73 522 0 c286 0 521
2 521 5 0 2 23 172 50 377 77 567 227 1734 245 1901 52 479 30 804 -76 1122
-195 587 -710 1105 -1300 1308 -106 37 -256 73 -379 92 -100 15 -462 28 -540
19z"/>
<path d="M7180 6320 c-346 -34 -665 -121 -965 -264 -685 -328 -1239 -929
-1494 -1625 -102 -277 -150 -557 -301 -1743 -39 -304 -122 -942 -185 -1418
-168 -1284 -161 -1220 -144 -1231 8 -5 233 -9 511 -9 425 0 499 2 511 15 18
17 18 20 57 330 46 370 188 1437 192 1441 2 2 60 -33 128 -76 212 -136 368
-209 583 -274 528 -160 1171 -109 1744 139 390 169 770 460 1069 820 352 423
548 840 631 1340 26 158 26 622 0 780 -79 477 -258 837 -572 1150 -283 282
-655 487 -1050 579 -191 44 -513 65 -715 46z m298 -1075 c368 -70 677 -297
844 -620 62 -121 92 -213 123 -380 14 -77 27 -145 30 -152 2 -6 0 -54 -6 -105
-46 -463 -226 -832 -536 -1104 -220 -191 -506 -341 -768 -400 -111 -25 -363
-30 -487 -9 -126 21 -314 81 -411 132 -419 220 -658 671 -616 1163 50 588 383
1073 914 1330 308 150 624 200 913 145z"/>
<path d="M16885 6204 c-187 -22 -318 -60 -480 -140 -397 -196 -711 -578 -805
-978 -21 -91 -79 -482 -140 -956 -22 -173 -88 -670 -145 -1105 -131 -992 -195
-1488 -195 -1509 0 -15 50 -16 545 -16 408 0 545 3 545 12 0 33 418 3203 430
3264 26 127 104 232 216 291 93 49 134 53 504 53 l340 0 5 23 c7 35 135 1020
135 1045 l0 22 -462 -1 c-255 -1 -476 -4 -493 -5z"/>
<path d="M22620 1975 l0 -34 88 -3 87 -3 3 -237 2 -238 40 0 40 0 2 238 3 237
88 3 87 3 0 34 0 35 -220 0 -220 0 0 -35z"/>
<path d="M23170 1735 l0 -275 45 0 45 0 2 228 3 227 90 -228 90 -228 30 3 c28
3 31 9 111 213 45 116 87 217 93 225 7 10 10 -55 10 -212 l1 -228 45 0 45 0 0
275 0 276 -71 -3 -72 -3 -79 -205 c-43 -112 -80 -205 -82 -207 -1 -2 -40 92
-85 207 l-82 210 -70 0 -69 0 0 -275z"/>
</g>
</svg>
