<?xml version="1.0" standalone="no"?>
<!DOCTYPE svg PUBLIC "-//W3C//DTD SVG 20010904//EN"
 "http://www.w3.org/TR/2001/REC-SVG-20010904/DTD/svg10.dtd">
<svg version="1.0" xmlns="http://www.w3.org/2000/svg"
 width="1008.000000pt" height="1008.000000pt" viewBox="0 0 1008.000000 1008.000000"
 preserveAspectRatio="xMidYMid meet">

<g transform="translate(0.000000,1008.000000) scale(0.100000,-0.100000)"
fill="#000000" stroke="none">
<path d="M420 5040 l0 -4620 4620 0 4620 0 0 210 0 210 -4410 0 -4410 0 0
4410 0 4410 -210 0 -210 0 0 -4620z"/>
<path d="M3360 8190 l0 -1470 -630 0 -630 0 0 -2520 0 -2520 3360 0 3360 0 0
3360 0 3360 -840 0 -840 0 0 -1470 0 -1470 -630 0 -630 0 0 -630 0 -630 -420
0 -420 0 0 2730 0 2730 -840 0 -840 0 0 -1470z m1260 -2520 l0 -3570 -420 0
-420 0 0 3570 0 3570 420 0 420 0 0 -3570z m3780 -630 l0 -2940 -420 0 -420 0
0 2940 0 2940 420 0 420 0 0 -2940z m-5040 -840 l0 -2100 -420 0 -420 0 0
2100 0 2100 420 0 420 0 0 -2100z m3780 -630 l0 -1470 -420 0 -420 0 0 1470 0
1470 420 0 420 0 0 -1470z m-1260 -630 l0 -840 -420 0 -420 0 0 840 0 840 420
0 420 0 0 -840z"/>
</g>
</svg>
