<?xml version="1.0" standalone="no"?>
<!DOCTYPE svg PUBLIC "-//W3C//DTD SVG 20010904//EN"
 "http://www.w3.org/TR/2001/REC-SVG-20010904/DTD/svg10.dtd">
<svg version="1.0" xmlns="http://www.w3.org/2000/svg"
 width="830.000000pt" height="718.000000pt" viewBox="0 0 830.000000 718.000000"
 preserveAspectRatio="xMidYMid meet">

<g transform="translate(0.000000,718.000000) scale(0.100000,-0.100000)"
fill="#000000" stroke="none">
<path d="M2820 7029 c-14 -5 -35 -20 -48 -32 -20 -18 -26 -20 -55 -9 -69 25
-307 0 -357 -36 -33 -25 -50 -86 -56 -207 -7 -116 -8 -114 94 -180 33 -22 61
-43 62 -46 0 -3 -25 -16 -55 -28 -122 -51 -173 -181 -123 -314 6 -15 9 -29 7
-32 -2 -2 -35 5 -72 15 -190 53 -352 44 -557 -31 -255 -94 -432 -356 -446
-659 -7 -166 50 -328 166 -470 183 -224 234 -310 233 -392 -1 -95 -91 -195
-243 -271 l-85 -42 -125 0 c-112 0 -130 3 -173 24 -62 31 -114 97 -123 159
-14 93 8 180 81 326 77 152 84 197 46 276 -16 34 -18 46 -9 52 7 5 50 30 96
55 54 31 84 54 87 68 2 11 6 66 8 123 6 119 12 111 -116 161 -48 19 -96 31
-125 31 -86 0 -342 -92 -342 -123 0 -6 -14 -20 -30 -29 -41 -23 -60 -73 -60
-153 0 -114 33 -157 144 -190 71 -21 132 -60 162 -103 l26 -37 -6 30 c-15 67
-69 112 -174 144 -39 12 -78 31 -91 45 -43 46 -50 165 -13 229 29 48 39 33 47
-68 5 -71 12 -101 26 -119 27 -34 181 -126 212 -126 13 0 48 10 77 22 59 24
62 22 81 -47 17 -62 5 -108 -54 -214 -133 -236 -146 -388 -44 -499 28 -30 88
-61 152 -78 164 -44 379 24 503 160 65 70 85 123 80 210 -4 91 -32 148 -148
306 -118 161 -153 220 -186 315 -24 69 -27 96 -28 195 0 135 17 207 74 325 68
137 163 235 295 300 110 54 188 69 355 69 128 -1 155 -4 235 -28 247 -75 457
-257 526 -456 19 -53 23 -87 24 -180 0 -128 -10 -177 -61 -286 -50 -105 -126
-196 -267 -316 -69 -60 -141 -130 -161 -157 -43 -58 -90 -156 -83 -174 3 -7 8
-4 12 8 19 48 88 123 195 213 240 201 318 294 379 451 81 210 61 416 -59 594
-78 116 -218 236 -346 297 -68 33 -72 39 -81 120 -12 117 44 218 142 256 l47
17 54 -29 c56 -30 64 -41 39 -50 -8 -3 -28 -26 -45 -52 -61 -92 -39 -163 110
-352 230 -290 266 -351 301 -498 40 -167 10 -340 -88 -509 -67 -115 -164 -234
-332 -406 -79 -81 -142 -149 -139 -152 9 -9 363 341 428 424 173 218 233 428
184 644 -37 163 -113 285 -291 469 -68 70 -136 148 -153 174 -37 59 -47 121
-26 161 25 49 81 93 119 92 40 -1 239 45 312 72 49 18 56 24 65 59 6 21 17 40
25 44 8 3 28 33 46 67 45 90 42 137 -13 241 -58 109 -98 141 -181 145 -34 2
-73 -2 -87 -8z m133 -23 c41 -17 83 -65 113 -131 31 -65 33 -162 5 -196 l-19
-24 5 47 c10 84 6 88 -141 172 -163 93 -169 98 -124 126 39 24 113 27 161 6z
m-120 -121 c78 -46 149 -88 157 -93 10 -6 -21 -15 -95 -27 -197 -33 -200 -33
-285 18 -41 24 -112 69 -156 99 l-82 56 57 11 c86 17 100 18 184 20 l77 1 143
-85z m-363 -45 c212 -135 195 -120 194 -165 -3 -104 -18 -215 -28 -215 -17 0
-257 148 -289 178 -27 25 -28 29 -22 97 8 94 25 177 35 173 4 -2 54 -32 110
-68z m-1427 -1330 c42 -17 77 -35 77 -38 0 -4 -40 -23 -88 -43 -48 -20 -112
-47 -142 -61 l-55 -25 -103 57 -102 58 97 35 c54 19 112 40 128 46 45 16 102
7 188 -29z m97 -148 c0 -72 -3 -92 -17 -104 -18 -15 -159 -95 -240 -137 l-43
-21 0 110 0 111 48 20 c26 11 90 40 142 64 52 24 98 44 103 45 4 0 7 -40 7
-88z"/>
<path d="M1750 5070 c0 -5 5 -10 10 -10 6 0 10 -9 10 -20 0 -12 11 -25 26 -32
23 -11 29 -10 44 10 10 12 20 22 23 22 3 0 15 -16 27 -36 53 -84 -18 -204
-120 -204 -92 0 -142 93 -100 187 27 61 25 67 -5 18 -48 -77 -25 -186 45 -215
61 -25 142 -9 181 36 65 75 49 198 -31 239 -33 17 -110 20 -110 5z"/>
<path d="M2067 5008 c3 -13 10 -29 16 -35 14 -19 54 -16 66 5 10 15 13 15 36
-11 31 -35 33 -92 6 -146 -19 -36 -38 -49 -99 -66 -32 -9 -88 12 -112 42 -27
35 -27 116 0 161 12 19 15 32 9 30 -7 -2 -21 -20 -31 -39 -27 -49 -21 -139 12
-174 65 -69 201 -49 246 36 22 44 22 120 0 153 -24 38 -75 66 -118 66 -32 0
-36 -2 -31 -22z"/>
<path d="M2934 4862 c-78 -27 -139 -84 -169 -155 -10 -23 -24 -38 -45 -45 -30
-11 -30 -11 -30 -90 0 -138 7 -168 49 -195 58 -38 223 -107 256 -106 17 0 62
13 100 29 39 15 71 24 73 19 4 -10 -30 -61 -66 -101 -42 -46 -161 -89 -250
-91 l-75 -2 -26 47 c-36 66 -103 131 -181 177 -79 48 -125 61 -211 61 -78 0
-123 -24 -151 -80 -36 -70 -12 -137 59 -166 38 -16 60 -9 90 31 l18 25 69 -35
c37 -19 74 -35 82 -35 19 0 37 -77 30 -130 -10 -70 -20 -75 -123 -61 -106 15
-176 45 -238 102 -68 63 -105 147 -118 269 -2 27 -2 27 -57 -125 -30 -82 -26
-198 10 -270 29 -60 93 -126 150 -155 51 -26 153 -29 218 -6 86 31 165 101
192 171 22 56 15 138 -16 195 -37 68 -145 158 -176 148 -6 -2 9 -16 33 -30 47
-28 89 -68 71 -68 -16 0 -81 38 -115 66 -38 32 -44 30 -39 -11 5 -38 -18 -75
-46 -75 -26 0 -71 33 -83 61 -14 36 1 87 37 120 21 19 38 24 97 27 68 3 77 1
157 -39 108 -54 179 -120 216 -202 26 -56 29 -72 29 -167 0 -96 -2 -110 -29
-163 -16 -32 -49 -75 -72 -97 -46 -42 -132 -90 -163 -90 -11 0 -64 21 -118 47
-54 25 -112 46 -128 46 -17 -1 -59 -13 -94 -27 -36 -14 -75 -26 -88 -26 -32 0
-109 79 -168 174 -56 90 -64 115 -74 231 -10 109 1 193 35 259 14 26 23 51 20
54 -10 9 -88 -52 -112 -88 -38 -57 -48 -125 -30 -206 8 -38 24 -114 36 -169
31 -142 26 -238 -15 -297 -37 -52 -119 -103 -193 -120 -47 -10 -71 -9 -156 5
-140 24 -256 82 -364 180 -23 22 -42 36 -41 31 1 -11 142 -136 194 -171 21
-14 75 -42 119 -62 75 -33 89 -36 176 -36 83 0 103 4 153 27 135 63 188 134
195 260 l5 80 46 -45 c25 -24 67 -61 94 -82 l47 -38 -26 -24 c-26 -24 -27 -27
-20 -106 10 -114 24 -138 130 -217 122 -89 276 -192 285 -188 22 9 231 142
256 162 28 23 30 29 36 118 3 51 4 98 2 104 -2 6 -37 28 -78 48 -104 52 -107
58 -41 90 69 34 145 116 187 201 32 65 32 65 75 65 112 0 323 69 412 134 81
60 115 103 148 187 29 73 29 76 29 283 l0 210 -49 18 c-27 9 -68 35 -90 57
-66 63 -118 84 -216 88 -64 3 -98 -1 -136 -15z m260 -42 c140 -84 209 -256
185 -465 -19 -170 -98 -269 -283 -356 -67 -31 -249 -82 -279 -77 -16 3 -19 14
-20 83 l-2 80 86 6 c184 13 313 120 348 291 28 136 -41 288 -154 339 -55 26
-89 24 -195 -11 -50 -16 -94 -30 -96 -30 -2 0 -4 10 -4 23 0 35 67 106 124
134 44 21 63 23 141 21 83 -3 96 -6 149 -38z m-103 -136 c27 -20 54 -44 59
-55 12 -22 6 -25 -97 -62 l-72 -26 -120 48 c-67 26 -123 50 -126 53 -4 3 33
15 82 26 48 12 106 28 128 36 64 23 92 20 146 -20z m299 14 c0 -13 -23 -5 -28
10 -2 7 2 10 12 6 9 -3 16 -11 16 -16z m17 -60 c-3 -22 -4 -21 -16 6 -9 23 -9
31 1 37 15 10 21 -9 15 -43z m-218 -89 c13 -37 14 -148 3 -167 -8 -12 -164
-82 -183 -82 -6 0 -9 46 -7 113 l3 112 75 27 c41 15 80 27 87 27 6 1 16 -13
22 -30z m-1370 -256 c-16 -32 -35 -87 -42 -122 -9 -43 -16 -59 -20 -47 -19 49
3 134 49 190 42 51 46 44 13 -21z m290 -197 c27 -54 80 -110 129 -135 49 -25
180 -61 223 -61 l34 -1 -34 -29 c-102 -87 -272 -75 -359 25 -62 69 -77 111
-77 210 0 69 5 101 20 134 l19 43 12 -71 c7 -39 22 -90 33 -115z m185 -422
c21 -15 105 -58 185 -96 l146 -70 -60 -34 c-33 -18 -83 -46 -110 -60 l-50 -27
-90 52 c-50 28 -123 68 -163 88 -39 20 -86 48 -104 63 l-32 27 115 40 c63 22
116 41 119 42 3 0 23 -11 44 -25z m-250 -107 c37 -28 200 -124 272 -160 82
-42 84 -45 84 -158 l0 -100 -40 23 c-22 13 -71 46 -110 73 -38 28 -106 75
-150 105 -44 30 -82 62 -84 70 -9 32 -17 170 -10 170 4 0 21 -10 38 -23z"/>
<path d="M779 4803 c-107 -190 -139 -288 -139 -432 0 -181 76 -274 280 -342
89 -30 101 -31 191 -25 121 7 247 43 362 101 66 34 89 41 93 31 3 -7 6 -68 7
-135 l2 -122 -37 -34 c-89 -82 -239 -69 -409 37 -160 99 -192 116 -250 128
-180 38 -345 -113 -326 -299 11 -105 77 -197 171 -236 55 -23 84 -19 122 19
50 50 47 86 -13 145 -87 83 -101 121 -63 156 34 30 81 24 147 -20 32 -21 51
-30 43 -21 -24 30 -113 76 -148 76 -45 0 -67 -13 -82 -49 -18 -45 2 -92 61
-142 38 -32 49 -47 49 -70 0 -32 -31 -69 -57 -69 -58 1 -156 83 -182 153 -17
45 -13 131 8 181 26 59 87 119 137 134 94 28 153 10 312 -97 125 -84 205 -120
283 -127 136 -13 238 36 275 131 19 52 16 153 -11 292 -28 144 -13 206 63 275
61 55 90 71 151 84 54 12 55 12 16 13 -78 2 -187 -68 -251 -160 -23 -33 -29
-55 -34 -117 l-5 -76 -81 -41 c-130 -66 -316 -99 -463 -83 -129 15 -271 110
-308 206 -24 63 -21 200 6 305 11 43 43 123 71 178 56 110 62 145 9 52z"/>
</g>
</svg>
