<?xml version="1.0" standalone="no"?>
<!DOCTYPE svg PUBLIC "-//W3C//DTD SVG 20010904//EN"
 "http://www.w3.org/TR/2001/REC-SVG-20010904/DTD/svg10.dtd">
<svg version="1.0" xmlns="http://www.w3.org/2000/svg"
 width="2560.000000pt" height="1970.000000pt" viewBox="0 0 2560.000000 1970.000000"
 preserveAspectRatio="xMidYMid meet">

<g transform="translate(0.000000,1970.000000) scale(0.100000,-0.100000)"
fill="#000000" stroke="none">
<path d="M12502 19360 c-1860 -111 -3498 -1092 -4459 -2670 -376 -619 -639
-1347 -742 -2055 -47 -321 -55 -445 -55 -830 0 -457 26 -730 105 -1115 276
-1341 1014 -2508 2109 -3334 274 -207 532 -366 860 -529 1510 -755 3289 -779
4830 -67 444 205 870 480 1270 818 152 128 469 445 606 606 660 775 1092 1698
1258 2686 62 365 71 488 71 935 0 446 -9 568 -71 935 -401 2400 -2345 4271
-4759 4580 -316 40 -738 57 -1023 40z m-614 -3261 c435 -47 865 -226 1207
-502 110 -88 305 -292 391 -407 466 -623 589 -1447 324 -2167 -298 -808 -1003
-1376 -1859 -1499 -157 -23 -467 -23 -616 0 -261 41 -480 108 -701 215 -819
401 -1323 1240 -1291 2151 12 341 84 626 237 937 340 692 1015 1173 1780 1268
131 16 399 18 528 4z m4072 -1482 c164 -42 287 -112 401 -226 163 -164 239
-347 239 -575 0 -350 -223 -664 -553 -777 -45 -15 -111 -33 -147 -38 -40 -7
-289 -11 -637 -11 l-573 0 0 826 0 825 603 -4 c521 -3 611 -6 667 -20z"/>
<path d="M330 2930 l0 -2530 935 0 c960 0 1037 3 1230 41 833 166 1527 923
1728 1884 46 218 60 363 61 605 0 244 -10 347 -54 570 -188 942 -837 1690
-1648 1901 -224 58 -252 59 -1298 59 l-954 0 0 -2530z m2010 1687 c231 -57
420 -161 593 -326 557 -531 700 -1506 332 -2266 -207 -428 -551 -715 -948
-790 -65 -12 -180 -15 -628 -15 l-549 0 0 1711 0 1710 568 -4 c478 -3 577 -6
632 -20z"/>
<path d="M17130 2930 l0 -2531 988 4 c1078 3 1038 1 1277 64 799 208 1430 940
1620 1878 79 390 76 835 -10 1220 -84 382 -284 807 -513 1090 -368 454 -860
737 -1384 794 -62 7 -439 11 -1038 11 l-940 0 0 -2530z m2002 1687 c398 -97
707 -355 917 -766 277 -542 279 -1265 6 -1826 -215 -441 -568 -728 -978 -795
-36 -6 -289 -10 -599 -10 l-538 0 0 1711 0 1710 563 -4 c476 -3 572 -6 629
-20z"/>
<path d="M21702 2933 l3 -2528 1005 -3 c1213 -3 1289 1 1524 79 226 75 406
188 581 363 184 184 295 364 375 605 55 167 73 285 73 476 0 175 -20 313 -69
462 -38 117 -134 307 -205 407 -72 101 -215 251 -301 315 -32 24 -58 47 -58
51 0 4 22 40 49 81 257 387 319 845 171 1264 -172 488 -603 850 -1119 940 -70
13 -247 15 -1057 15 l-974 0 2 -2527z m1968 1686 c98 -27 176 -69 249 -135 77
-70 128 -148 164 -254 71 -204 20 -438 -131 -602 -70 -75 -158 -132 -257 -166
l-80 -27 -552 -3 -553 -3 0 606 0 605 543 0 c518 0 546 -1 617 -21z m275
-2028 c128 -42 203 -89 301 -186 78 -76 98 -104 138 -185 114 -232 97 -482
-45 -695 -93 -139 -242 -244 -405 -285 -73 -19 -114 -20 -751 -20 l-673 0 0
701 0 700 683 -3 682 -3 70 -24z"/>
<path d="M13052 2928 l3 -2523 400 0 400 0 3 742 2 742 191 201 c105 110 192
200 194 200 2 0 302 -425 666 -945 l662 -945 499 0 499 0 -19 28 c-306 436
-1733 2484 -1734 2490 -2 5 328 357 732 782 404 426 741 782 748 792 13 17 -8
18 -552 18 l-565 0 -658 -709 -658 -709 -3 1179 -2 1179 -405 0 -405 0 2
-2522z"/>
<path d="M10334 4370 c-449 -44 -860 -266 -1144 -618 -127 -158 -238 -371
-294 -564 -57 -198 -59 -224 -63 -769 -5 -552 1 -648 52 -842 155 -599 652
-1070 1263 -1197 232 -48 646 -48 897 0 618 120 1128 546 1310 1094 43 130 65
236 72 358 l6 98 -411 0 -412 0 0 -32 c-1 -65 -30 -175 -69 -253 -102 -206
-312 -369 -571 -441 -87 -24 -114 -27 -330 -31 -261 -6 -325 1 -454 48 -111
40 -206 99 -293 183 -85 80 -139 154 -188 259 -69 146 -69 141 -73 671 -3 414
-1 491 13 560 63 309 293 555 611 652 86 27 97 28 324 28 211 1 244 -2 323
-21 270 -69 471 -222 584 -447 40 -80 73 -199 73 -268 l0 -48 414 0 414 0 -4
63 c-29 405 -181 738 -463 1017 -260 258 -571 417 -941 481 -132 23 -494 34
-646 19z"/>
<path d="M4893 2983 c3 -1340 3 -1349 25 -1447 32 -149 67 -248 131 -381 77
-157 160 -271 284 -392 247 -239 547 -374 917 -413 126 -13 452 -13 581 1 644
65 1134 471 1294 1071 56 210 55 184 55 1601 l0 1307 -405 0 -404 0 -3 -1247
-3 -1248 -24 -85 c-82 -298 -268 -497 -531 -567 -94 -26 -456 -26 -550 0 -304
81 -505 336 -550 697 -6 54 -10 509 -10 1267 l0 1183 -405 0 -406 0 4 -1347z"/>
</g>
</svg>
