<?xml version="1.0" standalone="no"?>
<!DOCTYPE svg PUBLIC "-//W3C//DTD SVG 20010904//EN"
 "http://www.w3.org/TR/2001/REC-SVG-20010904/DTD/svg10.dtd">
<svg version="1.0" xmlns="http://www.w3.org/2000/svg"
 width="360.000000pt" height="360.000000pt" viewBox="0 0 360.000000 360.000000"
 preserveAspectRatio="xMidYMid meet">

<g transform="translate(0.000000,360.000000) scale(0.100000,-0.100000)"
fill="#000000" stroke="none">
<path d="M2685 3209 c-60 -5 -144 -16 -185 -24 -42 -9 -172 -20 -295 -25 -121
-6 -267 -14 -325 -19 -58 -6 -193 -11 -300 -11 -175 -1 -283 -9 -490 -39 -72
-11 -447 -8 -635 4 -151 10 -160 5 -181 -105 -8 -41 -11 -82 -7 -90 3 -8 9
-40 13 -70 13 -94 29 -223 35 -280 3 -30 10 -84 15 -120 5 -36 12 -139 15
-230 9 -254 24 -484 45 -715 23 -235 34 -314 55 -365 7 -19 16 -51 20 -72 3
-23 14 -42 31 -53 34 -22 169 -28 264 -10 70 13 257 21 1060 44 311 9 363 16
675 82 77 16 160 34 185 39 90 18 204 12 287 -16 106 -35 272 -50 313 -29 49
25 65 60 66 145 3 283 3 1462 0 1490 -2 19 -7 76 -11 125 -4 50 -9 92 -11 94
-2 2 8 17 21 33 46 55 45 110 -4 159 -16 15 -39 30 -52 32 -166 32 -412 42
-604 26z m378 -236 l68 -6 -2 -71 c-2 -97 -6 -112 -39 -126 -53 -22 -130 -87
-300 -252 -92 -90 -185 -179 -206 -199 -51 -46 -257 -266 -286 -304 -12 -16
-54 -66 -92 -110 -39 -44 -77 -88 -85 -97 -11 -13 -19 -14 -40 -6 -28 11 -102
33 -166 49 -51 13 -269 123 -315 159 -19 15 -64 42 -100 60 -35 18 -84 47
-107 64 -23 17 -62 43 -85 57 -61 38 -436 232 -478 248 -19 8 -89 40 -156 72
l-121 59 -6 54 c-6 59 -29 139 -58 201 -11 22 -19 46 -19 53 0 16 41 15 133
-2 92 -18 372 -21 562 -6 77 5 285 14 462 19 178 6 327 12 333 16 5 3 114 10
242 15 138 5 264 15 308 25 131 27 412 42 553 28z m62 -685 c-3 -128 -9 -344
-12 -480 l-5 -248 -76 42 c-42 23 -95 55 -117 71 -22 15 -65 45 -96 65 -31 20
-87 61 -124 90 -38 29 -90 60 -117 70 -26 9 -48 19 -48 23 0 5 160 178 206
222 11 10 102 98 204 197 102 99 187 180 189 180 2 0 0 -105 -4 -232z m-2375
-71 c27 -7 363 -179 438 -225 24 -15 55 -36 69 -47 l25 -21 -78 -67 c-44 -38
-110 -94 -147 -125 -185 -155 -306 -279 -377 -384 -13 -20 -26 -35 -28 -33
-13 13 -56 580 -66 867 l-3 117 71 -38 c39 -21 82 -41 96 -44z m950 -533 c19
-12 67 -33 105 -44 39 -12 90 -29 115 -38 50 -18 159 -21 230 -5 59 12 121 55
190 132 56 61 70 71 70 49 1 -20 42 -62 101 -103 30 -21 72 -54 95 -74 23 -20
64 -49 93 -66 29 -16 71 -44 94 -61 23 -17 63 -42 89 -55 l47 -24 -147 -1
c-119 -1 -158 -5 -207 -21 -33 -12 -100 -28 -150 -37 -388 -69 -327 -64 -930
-76 -264 -5 -514 -13 -555 -16 l-75 -7 50 49 c28 27 87 83 132 124 79 73 121
109 341 298 l103 89 87 -45 c48 -24 103 -55 122 -68z"/>
</g>
</svg>
