<?xml version="1.0" standalone="no"?>
<!DOCTYPE svg PUBLIC "-//W3C//DTD SVG 20010904//EN"
 "http://www.w3.org/TR/2001/REC-SVG-20010904/DTD/svg10.dtd">
<svg version="1.0" xmlns="http://www.w3.org/2000/svg"
 width="1008.000000pt" height="1008.000000pt" viewBox="0 0 1008.000000 1008.000000"
 preserveAspectRatio="xMidYMid meet">

<g transform="translate(0.000000,1008.000000) scale(0.100000,-0.100000)"
fill="#000000" stroke="none">
<path d="M4710 8359 c-849 -81 -1642 -491 -2202 -1138 -982 -1135 -1086 -2783
-253 -4031 217 -325 525 -643 844 -870 234 -166 518 -314 798 -416 152 -55
236 -42 288 47 19 32 20 55 23 342 2 247 1 307 -10 307 -7 0 -49 -7 -93 -15
-45 -8 -143 -14 -225 -15 -194 0 -296 21 -438 91 -92 44 -118 63 -192 138 -90
90 -118 137 -194 319 -71 171 -161 283 -331 410 -112 83 -144 117 -145 149 -1
66 154 79 298 25 148 -55 263 -147 348 -278 129 -199 247 -294 444 -355 63
-20 95 -24 200 -23 108 1 136 5 205 28 127 42 126 41 152 147 28 114 75 214
141 295 l49 61 -96 12 c-608 78 -1016 325 -1226 741 -110 218 -163 454 -180
790 -18 356 77 672 275 921 l56 71 -22 78 c-64 221 -57 475 19 699 39 116 46
120 187 102 179 -22 442 -130 675 -277 l89 -56 116 26 c273 60 443 78 720 78
277 0 447 -18 720 -78 l115 -26 97 61 c273 171 556 280 730 281 83 0 91 -8
126 -113 76 -227 82 -477 18 -697 l-22 -78 56 -71 c211 -265 296 -573 271
-983 -22 -354 -93 -610 -232 -835 -67 -107 -234 -280 -339 -350 -212 -142
-520 -248 -835 -288 -27 -3 -62 -9 -77 -11 l-27 -5 53 -70 c60 -79 116 -187
142 -274 16 -54 18 -124 23 -650 6 -567 7 -591 26 -624 47 -80 132 -100 251
-61 449 149 910 437 1262 788 527 526 853 1191 958 1957 25 184 25 627 0 810
-81 586 -284 1102 -613 1553 -569 780 -1435 1273 -2393 1361 -131 12 -503 12
-630 0z"/>
</g>
</svg>
