<?xml version="1.0" standalone="no"?>
<!DOCTYPE svg PUBLIC "-//W3C//DTD SVG 20010904//EN"
 "http://www.w3.org/TR/2001/REC-SVG-20010904/DTD/svg10.dtd">
<svg version="1.0" xmlns="http://www.w3.org/2000/svg"
 width="1008.000000pt" height="1008.000000pt" viewBox="0 0 1008.000000 1008.000000"
 preserveAspectRatio="xMidYMid meet">

<g transform="translate(0.000000,1008.000000) scale(0.100000,-0.100000)"
fill="#000000" stroke="none">
<path d="M0 5040 l0 -5040 5040 0 5040 0 0 5040 0 5040 -5040 0 -5040 0 0
-5040z m3767 3967 l28 -27 3 -2415 c1 -1328 5 -2415 10 -2415 4 0 478 477
1054 1059 763 771 1059 1065 1091 1080 42 21 55 21 616 21 416 0 578 -3 594
-12 35 -18 46 -40 47 -88 l0 -45 -1100 -1064 c-658 -636 -1097 -1068 -1093
-1075 4 -6 513 -640 1131 -1410 618 -769 1135 -1414 1148 -1433 44 -65 23
-125 -48 -138 -18 -3 -278 -5 -578 -3 l-545 3 -44 25 c-37 21 -189 208 -912
1129 -477 607 -872 1108 -877 1113 -6 6 -102 -78 -248 -216 l-239 -226 -5
-885 -5 -885 -28 -27 -27 -28 -460 0 -460 0 -27 28 -28 27 0 3939 0 3939 24
26 c13 14 33 27 45 29 11 3 220 4 463 3 l443 -1 27 -28z"/>
</g>
</svg>
