<?xml version="1.0" encoding="UTF-8"?>
<!DOCTYPE svg PUBLIC "-//W3C//DTD SVG 1.1//EN" "http://www.w3.org/Graphics/SVG/1.1/DTD/svg11.dtd">
<svg xmlns="http://www.w3.org/2000/svg" version="1.1" width="1263px" height="720px" style="shape-rendering:geometricPrecision; text-rendering:geometricPrecision; image-rendering:optimizeQuality; fill-rule:evenodd; clip-rule:evenodd" xmlns:xlink="http://www.w3.org/1999/xlink">
<g><path style="opacity:1" fill="#ebc091" d="M 245.5,252.5 C 243.801,252.473 242.467,251.806 241.5,250.5C 240.737,249.732 239.737,249.232 238.5,249C 234.514,248.501 230.514,248.334 226.5,248.5C 231.73,245.971 237.063,246.137 242.5,249C 244.063,249.759 245.063,250.926 245.5,252.5 Z"/></g>
<g><path style="opacity:1" fill="#ea9d58" d="M 226.5,248.5 C 230.514,248.334 234.514,248.501 238.5,249C 239.737,249.232 240.737,249.732 241.5,250.5C 235.794,250.171 230.128,250.505 224.5,251.5C 222.86,255.152 220.526,258.152 217.5,260.5C 217.5,259.5 217.5,258.5 217.5,257.5C 219.522,256.493 220.855,254.826 221.5,252.5C 222.539,250.469 224.205,249.136 226.5,248.5 Z"/></g>
<g><path style="opacity:1" fill="#edcd97" d="M 168.5,250.5 C 170.783,250.608 172.783,251.441 174.5,253C 175.252,253.671 175.586,254.504 175.5,255.5C 173.539,253.688 171.206,252.688 168.5,252.5C 168.5,251.833 168.5,251.167 168.5,250.5 Z"/></g>
<g><path style="opacity:1" fill="#f29a47" d="M 158.5,253.5 C 161.625,252.521 164.958,252.187 168.5,252.5C 171.206,252.688 173.539,253.688 175.5,255.5C 175.5,256.833 176.167,257.5 177.5,257.5C 178.338,257.842 178.672,258.508 178.5,259.5C 178.5,259.833 178.5,260.167 178.5,260.5C 175.5,260.167 173.833,258.5 173.5,255.5C 171.856,255.714 170.356,255.38 169,254.5C 167.152,256.953 164.652,257.953 161.5,257.5C 161.33,256.178 161.663,255.011 162.5,254C 161.207,253.51 159.873,253.343 158.5,253.5 Z"/></g>
<g><path style="opacity:0.29" fill="#edc99b" d="M 158.5,250.5 C 156.452,253.215 154.118,255.548 151.5,257.5C 152.833,254.167 155.167,251.833 158.5,250.5 Z"/></g>
<g><path style="opacity:0.118" fill="#fce1b3" d="M 246.5,252.5 C 247.906,252.973 248.573,253.973 248.5,255.5C 247.094,255.027 246.427,254.027 246.5,252.5 Z"/></g>
<g><path style="opacity:1" fill="#eac185" d="M 221.5,252.5 C 220.855,254.826 219.522,256.493 217.5,257.5C 218.136,255.205 219.469,253.539 221.5,252.5 Z"/></g>
<g><path style="opacity:1" fill="#e9a362" d="M 168.5,250.5 C 168.5,251.167 168.5,251.833 168.5,252.5C 164.958,252.187 161.625,252.521 158.5,253.5C 153.461,257.583 151.128,262.917 151.5,269.5C 151.167,269.5 150.833,269.5 150.5,269.5C 150.395,265.452 150.728,261.452 151.5,257.5C 154.118,255.548 156.452,253.215 158.5,250.5C 161.969,249.3 165.302,249.3 168.5,250.5 Z"/></g>
<g><path style="opacity:0.216" fill="#f6c395" d="M 248.5,255.5 C 250.165,262.114 251.831,268.781 253.5,275.5C 252.833,274.833 252.167,274.167 251.5,273.5C 249.785,267.689 248.785,261.689 248.5,255.5 Z"/></g>
<g><path style="opacity:1" fill="#fd9439" d="M 241.5,250.5 C 241.5,251.5 241.5,252.5 241.5,253.5C 243.59,253.45 244.923,254.45 245.5,256.5C 243.604,257.466 241.604,257.799 239.5,257.5C 239.421,258.93 239.754,260.264 240.5,261.5C 242.743,262.474 245.076,262.808 247.5,262.5C 247.66,264.199 247.494,265.866 247,267.5C 240.858,271.748 238.858,277.415 241,284.5C 242.594,280.316 244.428,276.316 246.5,272.5C 247.425,273.641 248.259,273.641 249,272.5C 249.977,274.74 250.477,277.073 250.5,279.5C 249.5,279.5 248.5,279.5 247.5,279.5C 247.201,281.604 247.534,283.604 248.5,285.5C 249.151,283.153 250.484,281.486 252.5,280.5C 253.778,280.782 254.778,281.449 255.5,282.5C 255.703,284.044 256.37,285.378 257.5,286.5C 264.828,290.517 272.494,291.517 280.5,289.5C 280.833,289.5 281.167,289.5 281.5,289.5C 285.094,288.543 288.76,287.876 292.5,287.5C 295.362,287.77 298.028,288.604 300.5,290C 301.252,290.671 301.586,291.504 301.5,292.5C 302.484,295.319 303.484,298.152 304.5,301C 304.212,303.187 303.878,305.354 303.5,307.5C 300.514,308.808 298.848,311.142 298.5,314.5C 297.167,314.5 295.833,314.5 294.5,314.5C 294.5,315.5 294.5,316.5 294.5,317.5C 292.092,318.201 289.758,319.201 287.5,320.5C 286.754,321.736 286.421,323.07 286.5,324.5C 283.833,325.167 282.167,326.833 281.5,329.5C 280.167,329.5 278.833,329.5 277.5,329.5C 277.5,330.5 277.5,331.5 277.5,332.5C 274.051,332.376 272.051,334.043 271.5,337.5C 270.167,337.5 269.5,338.167 269.5,339.5C 262.796,343.348 257.129,348.348 252.5,354.5C 248.719,355.231 245.719,357.231 243.5,360.5C 242.675,361.386 241.675,361.719 240.5,361.5C 240.649,362.552 240.483,363.552 240,364.5C 238.293,366.037 236.793,367.704 235.5,369.5C 235.167,370.5 234.5,371.167 233.5,371.5C 232.167,371.5 230.833,371.5 229.5,371.5C 229.608,373.514 228.942,375.18 227.5,376.5C 225.5,376.5 224.5,377.5 224.5,379.5C 222.5,379.5 220.5,379.5 218.5,379.5C 218.5,381.167 218.5,382.833 218.5,384.5C 217.833,384.5 217.5,384.833 217.5,385.5C 214.338,385.911 211.338,386.745 208.5,388C 204.848,388.499 201.182,388.665 197.5,388.5C 197.5,387.167 196.833,386.5 195.5,386.5C 196.218,384.863 196.384,383.197 196,381.5C 194.187,380.391 193.354,381.058 193.5,383.5C 192.167,383.5 190.833,383.5 189.5,383.5C 189.784,380.143 188.451,377.809 185.5,376.5C 184.662,376.158 184.328,375.492 184.5,374.5C 184.051,371.71 184.051,369.044 184.5,366.5C 189.211,368.579 191.377,372.246 191,377.5C 193.203,375.331 194.036,372.665 193.5,369.5C 190.53,369.254 189.197,367.588 189.5,364.5C 186.833,364.5 184.167,364.5 181.5,364.5C 181.833,361.833 182.167,359.167 182.5,356.5C 183.5,356.5 184.5,356.5 185.5,356.5C 185.687,358.564 186.187,360.564 187,362.5C 187.667,358.833 187.667,355.167 187,351.5C 186.667,351.833 186.333,352.167 186,352.5C 184.409,350.073 183.575,347.407 183.5,344.5C 182.5,344.5 181.5,344.5 180.5,344.5C 180.505,348.534 180.838,352.534 181.5,356.5C 180.5,356.5 179.5,356.5 178.5,356.5C 178.829,353.772 178.163,351.438 176.5,349.5C 176.028,347.469 175.028,345.802 173.5,344.5C 174.01,341.612 173.344,339.279 171.5,337.5C 170.517,329.616 168.683,321.95 166,314.5C 165.583,313.244 164.75,312.577 163.5,312.5C 163.307,307.601 161.974,303.268 159.5,299.5C 158.566,298.432 158.232,297.099 158.5,295.5C 158.68,291.714 157.68,288.381 155.5,285.5C 154.797,279.979 153.464,274.646 151.5,269.5C 151.128,262.917 153.461,257.583 158.5,253.5C 159.873,253.343 161.207,253.51 162.5,254C 161.663,255.011 161.33,256.178 161.5,257.5C 164.652,257.953 167.152,256.953 169,254.5C 170.356,255.38 171.856,255.714 173.5,255.5C 173.833,258.5 175.5,260.167 178.5,260.5C 178.48,262.143 179.147,263.476 180.5,264.5C 179.833,265.167 179.167,265.833 178.5,266.5C 183.084,266.981 187.417,268.148 191.5,270C 196.837,271.143 201.837,270.476 206.5,268C 210.211,267.825 213.878,267.325 217.5,266.5C 216.675,265.614 215.675,265.281 214.5,265.5C 214.392,263.486 215.058,261.82 216.5,260.5C 216.833,260.5 217.167,260.5 217.5,260.5C 220.526,258.152 222.86,255.152 224.5,251.5C 230.128,250.505 235.794,250.171 241.5,250.5 Z"/></g>
<g><path style="opacity:0.224" fill="#f0c699" d="M 217.5,257.5 C 217.5,258.5 217.5,259.5 217.5,260.5C 217.167,260.5 216.833,260.5 216.5,260.5C 214.271,261.055 212.605,262.389 211.5,264.5C 209.955,265.452 208.288,265.785 206.5,265.5C 210.122,262.894 213.788,260.228 217.5,257.5 Z"/></g>
<g><path style="opacity:0.09" fill="#f7dcad" d="M 175.5,255.5 C 176.833,255.5 177.5,256.167 177.5,257.5C 177.5,256.167 176.833,255.5 175.5,255.5 Z"/></g>
<g><path style="opacity:0.243" fill="#f1c8a3" d="M 151.5,257.5 C 150.728,261.452 150.395,265.452 150.5,269.5C 149.84,268.036 149.507,266.369 149.5,264.5C 149.316,261.795 149.983,259.462 151.5,257.5 Z"/></g>
<g><path style="opacity:0.18" fill="#f0cba1" d="M 178.5,260.5 C 178.5,260.167 178.5,259.833 178.5,259.5C 181.455,259.981 183.789,261.481 185.5,264C 189.333,265.034 192.999,266.2 196.5,267.5C 191.626,267.642 186.959,266.976 182.5,265.5C 182.5,264.5 182.5,263.5 182.5,262.5C 180.801,262.473 179.467,261.806 178.5,260.5 Z"/></g>
<g><path style="opacity:1" fill="#f1984d" d="M 178.5,260.5 C 179.467,261.806 180.801,262.473 182.5,262.5C 182.5,263.5 182.5,264.5 182.5,265.5C 186.959,266.976 191.626,267.642 196.5,267.5C 196.833,267.5 197.167,267.5 197.5,267.5C 200.781,267.58 203.781,266.913 206.5,265.5C 208.288,265.785 209.955,265.452 211.5,264.5C 212.605,262.389 214.271,261.055 216.5,260.5C 215.058,261.82 214.392,263.486 214.5,265.5C 215.675,265.281 216.675,265.614 217.5,266.5C 213.878,267.325 210.211,267.825 206.5,268C 201.837,270.476 196.837,271.143 191.5,270C 187.417,268.148 183.084,266.981 178.5,266.5C 179.167,265.833 179.833,265.167 180.5,264.5C 179.147,263.476 178.48,262.143 178.5,260.5 Z"/></g>
<g><path style="opacity:0.18" fill="#f4daae" d="M 206.5,265.5 C 203.781,266.913 200.781,267.58 197.5,267.5C 200.219,266.087 203.219,265.42 206.5,265.5 Z"/></g>
<g><path style="opacity:1" fill="#f89542" d="M 241.5,250.5 C 242.467,251.806 243.801,252.473 245.5,252.5C 245.833,252.5 246.167,252.5 246.5,252.5C 246.427,254.027 247.094,255.027 248.5,255.5C 248.785,261.689 249.785,267.689 251.5,273.5C 251.674,275.861 252.007,278.194 252.5,280.5C 250.484,281.486 249.151,283.153 248.5,285.5C 247.534,283.604 247.201,281.604 247.5,279.5C 248.5,279.5 249.5,279.5 250.5,279.5C 250.477,277.073 249.977,274.74 249,272.5C 248.259,273.641 247.425,273.641 246.5,272.5C 244.428,276.316 242.594,280.316 241,284.5C 238.858,277.415 240.858,271.748 247,267.5C 247.494,265.866 247.66,264.199 247.5,262.5C 245.076,262.808 242.743,262.474 240.5,261.5C 239.754,260.264 239.421,258.93 239.5,257.5C 241.604,257.799 243.604,257.466 245.5,256.5C 244.923,254.45 243.59,253.45 241.5,253.5C 241.5,252.5 241.5,251.5 241.5,250.5 Z"/></g>
<g><path style="opacity:0.349" fill="#f1c192" d="M 150.5,269.5 C 150.833,269.5 151.167,269.5 151.5,269.5C 153.464,274.646 154.797,279.979 155.5,285.5C 153.463,280.383 151.796,275.05 150.5,269.5 Z"/></g>
<g><path style="opacity:1" fill="#eda05e" d="M 251.5,273.5 C 252.167,274.167 252.833,274.833 253.5,275.5C 254.674,276.514 255.34,277.847 255.5,279.5C 255.5,280.5 255.5,281.5 255.5,282.5C 254.778,281.449 253.778,280.782 252.5,280.5C 252.007,278.194 251.674,275.861 251.5,273.5 Z"/></g>
<g><path style="opacity:1" fill="#ebc292" d="M 255.5,279.5 C 258.109,280.443 260.109,282.11 261.5,284.5C 259.5,283.833 257.5,283.167 255.5,282.5C 255.5,281.5 255.5,280.5 255.5,279.5 Z"/></g>
<g><path style="opacity:1" fill="#e89e5a" d="M 255.5,282.5 C 257.5,283.167 259.5,283.833 261.5,284.5C 264.626,288.958 268.959,290.624 274.5,289.5C 275.167,289.5 275.833,289.5 276.5,289.5C 277.833,289.5 279.167,289.5 280.5,289.5C 272.494,291.517 264.828,290.517 257.5,286.5C 256.37,285.378 255.703,284.044 255.5,282.5 Z"/></g>
<g><path style="opacity:1" fill="#edc698" d="M 305.5,306.5 C 305.665,302.818 305.499,299.152 305,295.5C 304.241,293.937 303.074,292.937 301.5,292.5C 301.586,291.504 301.252,290.671 300.5,290C 298.028,288.604 295.362,287.77 292.5,287.5C 288.76,287.876 285.094,288.543 281.5,289.5C 282.167,288.833 282.833,288.167 283.5,287.5C 294.812,282.644 302.646,285.977 307,297.5C 307.576,300.772 307.076,303.772 305.5,306.5 Z"/></g>
<g><path style="opacity:0.247" fill="#f0c49e" d="M 155.5,285.5 C 157.68,288.381 158.68,291.714 158.5,295.5C 156.899,292.45 155.899,289.116 155.5,285.5 Z"/></g>
<g><path style="opacity:0.224" fill="#f2cea2" d="M 261.5,284.5 C 265.711,286.63 270.044,288.296 274.5,289.5C 268.959,290.624 264.626,288.958 261.5,284.5 Z"/></g>
<g><path style="opacity:0.173" fill="#f7e2b3" d="M 283.5,287.5 C 282.833,288.167 282.167,288.833 281.5,289.5C 281.167,289.5 280.833,289.5 280.5,289.5C 279.167,289.5 277.833,289.5 276.5,289.5C 278.515,288.076 280.848,287.41 283.5,287.5 Z"/></g>
<g><path style="opacity:1" fill="#e49a55" d="M 301.5,292.5 C 303.074,292.937 304.241,293.937 305,295.5C 305.499,299.152 305.665,302.818 305.5,306.5C 304.833,306.833 304.167,307.167 303.5,307.5C 303.878,305.354 304.212,303.187 304.5,301C 303.484,298.152 302.484,295.319 301.5,292.5 Z"/></g>
<g><path style="opacity:1" fill="#797979" d="M 461.5,304.5 C 461.5,304.833 461.5,305.167 461.5,305.5C 451.5,305.5 441.5,305.5 431.5,305.5C 431.611,304.883 431.944,304.383 432.5,304C 442.342,303.175 452.009,303.342 461.5,304.5 Z"/></g>
<g><path style="opacity:1" fill="#797979" d="M 1202.5,304.5 C 1202.5,304.833 1202.5,305.167 1202.5,305.5C 1194.83,305.5 1187.17,305.5 1179.5,305.5C 1179.5,305.167 1179.5,304.833 1179.5,304.5C 1187.07,303.188 1194.73,303.188 1202.5,304.5 Z"/></g>
<g><path style="opacity:0.247" fill="#f4ca9b" d="M 159.5,299.5 C 161.974,303.268 163.307,307.601 163.5,312.5C 161.721,308.406 160.388,304.073 159.5,299.5 Z"/></g>
<g><path style="opacity:0.008" fill="#a5a5a5" d="M 942.5,305.5 C 945.152,305.41 947.485,306.076 949.5,307.5C 946.848,307.59 944.515,306.924 942.5,305.5 Z"/></g>
<g><path style="opacity:1" fill="#777777" d="M 368.5,306.5 C 368.167,306.5 367.833,306.5 367.5,306.5C 358.014,305.506 348.348,305.173 338.5,305.5C 338.5,343.167 338.5,380.833 338.5,418.5C 338.167,418.5 337.833,418.5 337.5,418.5C 336.336,380.669 336.169,342.669 337,304.5C 347.09,303.348 357.256,303.181 367.5,304C 368.252,304.671 368.586,305.504 368.5,306.5 Z"/></g>
<g><path style="opacity:1" fill="#222222" d="M 367.5,306.5 C 358.167,306.5 348.833,306.5 339.5,306.5C 339.5,343.833 339.5,381.167 339.5,418.5C 339.167,418.5 338.833,418.5 338.5,418.5C 338.5,380.833 338.5,343.167 338.5,305.5C 348.348,305.173 358.014,305.506 367.5,306.5 Z"/></g>
<g><path style="opacity:1" fill="#2e2e2e" d="M 431.5,305.5 C 441.5,305.5 451.5,305.5 461.5,305.5C 462.161,343.515 461.494,381.181 459.5,418.5C 459.5,381.167 459.5,343.833 459.5,306.5C 449.985,306.827 440.652,306.494 431.5,305.5 Z"/></g>
<g><path style="opacity:0.298" fill="#878787" d="M 461.5,304.5 C 462.499,342.663 462.832,380.996 462.5,419.5C 454.316,419.826 446.316,419.492 438.5,418.5C 445.5,418.5 452.5,418.5 459.5,418.5C 461.494,381.181 462.161,343.515 461.5,305.5C 461.5,305.167 461.5,304.833 461.5,304.5 Z"/></g>
<g><path style="opacity:0.297" fill="#888888" d="M 631.5,304.5 C 631.5,304.833 631.5,305.167 631.5,305.5C 631.168,343.337 631.502,381.004 632.5,418.5C 639.833,418.5 647.167,418.5 654.5,418.5C 646.684,419.492 638.684,419.826 630.5,419.5C 630.168,380.996 630.501,342.663 631.5,304.5 Z"/></g>
<g><path style="opacity:1" fill="#232323" d="M 631.5,305.5 C 639.019,305.175 646.352,305.508 653.5,306.5C 646.5,306.5 639.5,306.5 632.5,306.5C 632.5,343.833 632.5,381.167 632.5,418.5C 631.502,381.004 631.168,343.337 631.5,305.5 Z"/></g>
<g><path style="opacity:1" fill="#393939" d="M 942.5,305.5 C 944.515,306.924 946.848,307.59 949.5,307.5C 964.075,312.408 974.075,322.075 979.5,336.5C 979.41,339.152 980.076,341.485 981.5,343.5C 982.245,353.148 982.578,362.815 982.5,372.5C 980.995,391.647 971.662,405.314 954.5,413.5C 952.62,413.229 951.287,413.896 950.5,415.5C 949.292,416.234 947.959,416.567 946.5,416.5C 943.772,416.171 941.438,416.837 939.5,418.5C 938.5,418.5 937.5,418.5 936.5,418.5C 920.167,418.5 903.833,418.5 887.5,418.5C 887.5,380.833 887.5,343.167 887.5,305.5C 905.833,305.5 924.167,305.5 942.5,305.5 Z M 929.5,325.5 C 931.607,326.468 933.941,326.802 936.5,326.5C 939.076,327.488 941.743,328.488 944.5,329.5C 944.842,330.338 945.508,330.672 946.5,330.5C 946.973,331.906 947.973,332.573 949.5,332.5C 950.833,334.5 952.167,336.5 953.5,338.5C 954.263,340.368 955.263,342.035 956.5,343.5C 956.263,344.791 956.596,345.791 957.5,346.5C 958.323,354.471 958.656,362.471 958.5,370.5C 958.5,370.833 958.5,371.167 958.5,371.5C 957.469,373.961 956.802,376.627 956.5,379.5C 954.992,381.181 953.992,383.181 953.5,385.5C 952.094,385.973 951.427,386.973 951.5,388.5C 949.475,390.196 947.475,391.863 945.5,393.5C 942.982,394.264 940.649,395.264 938.5,396.5C 935.482,396.704 932.482,397.037 929.5,397.5C 923.5,397.5 917.5,397.5 911.5,397.5C 911.5,373.5 911.5,349.5 911.5,325.5C 917.5,325.5 923.5,325.5 929.5,325.5 Z"/></g>
<g><path style="opacity:0.463" fill="#757575" d="M 942.5,305.5 C 924.167,305.5 905.833,305.5 887.5,305.5C 887.5,343.167 887.5,380.833 887.5,418.5C 903.833,418.5 920.167,418.5 936.5,418.5C 920.008,419.497 903.342,419.83 886.5,419.5C 886.5,380.833 886.5,342.167 886.5,303.5C 902.503,303.333 918.503,303.5 934.5,304C 937.365,304.183 940.031,304.683 942.5,305.5 Z"/></g>
<g><path style="opacity:1" fill="#3a3a3a" d="M 1179.5,305.5 C 1187.17,305.5 1194.83,305.5 1202.5,305.5C 1202.5,325.5 1202.5,345.5 1202.5,365.5C 1204.18,365.715 1205.18,365.048 1205.5,363.5C 1205.5,362.833 1205.83,362.5 1206.5,362.5C 1208.26,361.738 1209.26,360.404 1209.5,358.5C 1211.47,354.895 1214.14,351.895 1217.5,349.5C 1219.59,348.415 1220.92,346.749 1221.5,344.5C 1223.12,341.216 1225.45,338.549 1228.5,336.5C 1229.91,336.027 1230.57,335.027 1230.5,333.5C 1239.9,332.862 1248.9,333.529 1257.5,335.5C 1247.53,347.142 1237.53,358.808 1227.5,370.5C 1227.43,372.027 1228.09,373.027 1229.5,373.5C 1229.43,375.027 1230.09,376.027 1231.5,376.5C 1231.43,378.027 1232.09,379.027 1233.5,379.5C 1236.88,383.553 1239.88,387.886 1242.5,392.5C 1242.43,394.027 1243.09,395.027 1244.5,395.5C 1249.65,401.779 1254.31,408.446 1258.5,415.5C 1258.41,416.496 1258.75,417.329 1259.5,418C 1250.51,418.5 1241.51,418.666 1232.5,418.5C 1224.68,408.189 1217.34,397.523 1210.5,386.5C 1209.5,383.833 1208.5,383.833 1207.5,386.5C 1206.54,387.962 1205.38,389.295 1204,390.5C 1203.83,400.009 1203.33,409.342 1202.5,418.5C 1194.83,418.5 1187.17,418.5 1179.5,418.5C 1179.5,380.833 1179.5,343.167 1179.5,305.5 Z"/></g>
<g><path style="opacity:0.314" fill="#848484" d="M 1179.5,304.5 C 1179.5,304.833 1179.5,305.167 1179.5,305.5C 1179.5,343.167 1179.5,380.833 1179.5,418.5C 1187.17,418.5 1194.83,418.5 1202.5,418.5C 1194.68,419.492 1186.68,419.826 1178.5,419.5C 1178.17,380.996 1178.5,342.663 1179.5,304.5 Z"/></g>
<g><path style="opacity:1" fill="#ebb27c" d="M 305.5,306.5 C 303.906,309.764 301.573,312.431 298.5,314.5C 298.848,311.142 300.514,308.808 303.5,307.5C 304.167,307.167 304.833,306.833 305.5,306.5 Z"/></g>
<g><path style="opacity:0.462" fill="#707070" d="M 654.5,347.5 C 653.504,334.01 653.171,320.344 653.5,306.5C 646.352,305.508 639.019,305.175 631.5,305.5C 631.5,305.167 631.5,304.833 631.5,304.5C 638.982,303.508 646.648,303.175 654.5,303.5C 654.5,318.167 654.5,332.833 654.5,347.5 Z"/></g>
<g><path style="opacity:1" fill="#383838" d="M 600.5,332.5 C 605.64,333.488 610.974,333.821 616.5,333.5C 616.5,339.167 616.5,344.833 616.5,350.5C 611.167,350.5 605.833,350.5 600.5,350.5C 600.171,365.343 600.504,380.01 601.5,394.5C 602.167,395.5 602.833,396.5 603.5,397.5C 603.611,398.117 603.944,398.617 604.5,399C 608.821,399.499 613.154,399.666 617.5,399.5C 617.5,405.833 617.5,412.167 617.5,418.5C 609.833,418.5 602.167,418.5 594.5,418.5C 592.901,418.768 591.568,418.434 590.5,417.5C 590.027,416.094 589.027,415.427 587.5,415.5C 583.833,413.833 581.167,411.167 579.5,407.5C 579.162,405.146 578.662,402.813 578,400.5C 577.831,383.995 577.331,367.662 576.5,351.5C 573.038,350.518 569.371,350.185 565.5,350.5C 565.5,344.833 565.5,339.167 565.5,333.5C 569.167,333.5 572.833,333.5 576.5,333.5C 577.491,327.021 577.824,320.354 577.5,313.5C 584.833,313.5 592.167,313.5 599.5,313.5C 599.177,320.022 599.51,326.355 600.5,332.5 Z"/></g>
<g><path style="opacity:1" fill="#f0bd8a" d="M 298.5,314.5 C 297.738,316.262 296.404,317.262 294.5,317.5C 294.5,316.5 294.5,315.5 294.5,314.5C 295.833,314.5 297.167,314.5 298.5,314.5 Z"/></g>
<g><path style="opacity:0.48" fill="#6c6c6c" d="M 600.5,312.5 C 600.5,319.167 600.5,325.833 600.5,332.5C 599.51,326.355 599.177,320.022 599.5,313.5C 592.167,313.5 584.833,313.5 577.5,313.5C 577.824,320.354 577.491,327.021 576.5,333.5C 576.5,333.167 576.5,332.833 576.5,332.5C 576.5,325.5 576.5,318.5 576.5,311.5C 584.684,311.174 592.684,311.508 600.5,312.5 Z"/></g>
<g><path style="opacity:0.157" fill="#a5a5a5" d="M 1202.5,304.5 C 1203.33,324.329 1203.83,344.329 1204,364.5C 1204.38,363.944 1204.88,363.611 1205.5,363.5C 1205.18,365.048 1204.18,365.715 1202.5,365.5C 1202.5,345.5 1202.5,325.5 1202.5,305.5C 1202.5,305.167 1202.5,304.833 1202.5,304.5 Z"/></g>
<g><path style="opacity:1" fill="#f0b47f" d="M 294.5,317.5 C 292.431,320.573 289.764,322.906 286.5,324.5C 286.421,323.07 286.754,321.736 287.5,320.5C 289.758,319.201 292.092,318.201 294.5,317.5 Z"/></g>
<g><path style="opacity:0.157" fill="#f2c897" d="M 286.5,324.5 C 285.167,326.5 283.5,328.167 281.5,329.5C 282.167,326.833 283.833,325.167 286.5,324.5 Z"/></g>
<g><path style="opacity:0.937" fill="#878787" d="M 936.5,326.5 C 939.831,326.018 942.497,327.018 944.5,329.5C 941.743,328.488 939.076,327.488 936.5,326.5 Z"/></g>
<g><path style="opacity:0.231" fill="#f4d1a6" d="M 150.5,335.5 C 147.913,333.041 144.913,331.374 141.5,330.5C 138.713,329.523 135.713,329.19 132.5,329.5C 134.914,328.067 137.581,327.567 140.5,328C 143.377,328.956 146.044,330.289 148.5,332C 149.823,332.816 150.489,333.983 150.5,335.5 Z"/></g>
<g><path style="opacity:1" fill="#f1be8d" d="M 163.5,312.5 C 164.75,312.577 165.583,313.244 166,314.5C 168.683,321.95 170.517,329.616 171.5,337.5C 168.062,329.515 165.395,321.182 163.5,312.5 Z"/></g>
<g><path style="opacity:1" fill="#ebc18d" d="M 281.5,329.5 C 280.738,331.262 279.404,332.262 277.5,332.5C 277.5,331.5 277.5,330.5 277.5,329.5C 278.833,329.5 280.167,329.5 281.5,329.5 Z"/></g>
<g><path style="opacity:0.816" fill="#878787" d="M 946.5,330.5 C 948.027,330.427 949.027,331.094 949.5,332.5C 947.973,332.573 946.973,331.906 946.5,330.5 Z"/></g>
<g><path style="opacity:0.32" fill="#878787" d="M 525.5,332.5 C 516.743,332.191 508.076,332.858 499.5,334.5C 501.562,333.224 503.896,332.39 506.5,332C 513.014,331.18 519.347,331.347 525.5,332.5 Z"/></g>
<g><path style="opacity:0.43" fill="#868686" d="M 689.5,332.5 C 682.798,332.336 676.131,332.669 669.5,333.5C 676.122,330.485 682.789,330.151 689.5,332.5 Z"/></g>
<g><path style="opacity:0.322" fill="#898989" d="M 754.5,332.5 C 757.314,331.835 760.314,331.502 763.5,331.5C 768.107,331.316 772.44,331.983 776.5,333.5C 769.187,332.813 761.854,332.479 754.5,332.5 Z"/></g>
<g><path style="opacity:0.423" fill="#878787" d="M 1142.5,333.5 C 1134.19,332.712 1125.86,332.379 1117.5,332.5C 1125.85,330.236 1134.18,330.569 1142.5,333.5 Z"/></g>
<g><path style="opacity:1" fill="#393939" d="M 653.5,306.5 C 653.171,320.344 653.504,334.01 654.5,347.5C 655.5,346.167 656.5,344.833 657.5,343.5C 658.906,343.027 659.573,342.027 659.5,340.5C 661.775,336.693 665.108,334.359 669.5,333.5C 676.131,332.669 682.798,332.336 689.5,332.5C 694.596,333.546 698.929,335.879 702.5,339.5C 702.427,341.027 703.094,342.027 704.5,342.5C 704.427,344.027 705.094,345.027 706.5,345.5C 707.674,346.514 708.34,347.847 708.5,349.5C 708.448,351.903 708.781,354.236 709.5,356.5C 709.5,377.167 709.5,397.833 709.5,418.5C 702.167,418.5 694.833,418.5 687.5,418.5C 687.83,400.326 687.497,382.326 686.5,364.5C 685.695,362.085 684.695,359.751 683.5,357.5C 682.57,353.907 680.237,352.241 676.5,352.5C 675.036,351.84 673.369,351.507 671.5,351.5C 668.514,351.382 665.848,352.048 663.5,353.5C 659.817,355.83 657.317,359.163 656,363.5C 655.832,382.005 655.332,400.338 654.5,418.5C 647.167,418.5 639.833,418.5 632.5,418.5C 632.5,381.167 632.5,343.833 632.5,306.5C 639.5,306.5 646.5,306.5 653.5,306.5 Z"/></g>
<g><path style="opacity:0.32" fill="#828282" d="M 1230.5,333.5 C 1239.65,332.506 1248.99,332.173 1258.5,332.5C 1258.74,333.791 1258.4,334.791 1257.5,335.5C 1248.9,333.529 1239.9,332.862 1230.5,333.5 Z"/></g>
<g><path style="opacity:0.173" fill="#f0c6a0" d="M 132.5,329.5 C 130.909,331.633 128.909,333.299 126.5,334.5C 127.638,331.914 129.638,330.247 132.5,329.5 Z"/></g>
<g><path style="opacity:1" fill="#f59645" d="M 132.5,329.5 C 135.713,329.19 138.713,329.523 141.5,330.5C 138.109,330.297 135.109,331.297 132.5,333.5C 133.325,334.386 134.325,334.719 135.5,334.5C 135.5,336.833 135.5,339.167 135.5,341.5C 133.833,341.5 132.167,341.5 130.5,341.5C 130.5,339.5 130.5,337.5 130.5,335.5C 128.678,335.831 127.011,336.498 125.5,337.5C 126.11,336.609 126.443,335.609 126.5,334.5C 128.909,333.299 130.909,331.633 132.5,329.5 Z"/></g>
<g><path style="opacity:0.404" fill="#868686" d="M 867.5,332.5 C 861.346,332.1 855.346,332.767 849.5,334.5C 849.611,333.883 849.944,333.383 850.5,333C 856.392,330.535 862.059,330.368 867.5,332.5 Z"/></g>
<g><path style="opacity:0.35" fill="#828282" d="M 867.5,332.5 C 868.655,339.321 868.821,346.321 868,353.5C 867.667,353.833 867.333,354.167 867,354.5C 864.061,353.872 861.228,353.205 858.5,352.5C 861.5,352.5 864.5,352.5 867.5,352.5C 867.5,345.833 867.5,339.167 867.5,332.5 Z"/></g>
<g><path style="opacity:0.494" fill="#828282" d="M 1117.5,332.5 C 1115.49,333.924 1113.15,334.59 1110.5,334.5C 1112.51,333.076 1114.85,332.41 1117.5,332.5 Z"/></g>
<g><path style="opacity:1" fill="#656565" d="M 525.5,332.5 C 529.915,332.861 533.915,334.194 537.5,336.5C 534.8,335.484 532.134,335.484 529.5,336.5C 528.614,335.675 528.281,334.675 528.5,333.5C 527.209,333.737 526.209,333.404 525.5,332.5 Z"/></g>
<g><path style="opacity:1" fill="#3a3a3a" d="M 753.5,332.5 C 753.833,332.5 754.167,332.5 754.5,332.5C 761.854,332.479 769.187,332.813 776.5,333.5C 778.553,333.402 780.22,334.069 781.5,335.5C 782.429,336.315 783.429,337.148 784.5,338C 783.003,341.172 784.003,343.005 787.5,343.5C 787.281,342.325 787.614,341.325 788.5,340.5C 789.417,341.127 790.417,341.461 791.5,341.5C 795.336,344.678 798.002,348.678 799.5,353.5C 799.796,355.403 800.463,357.07 801.5,358.5C 803.264,364.063 804.264,369.896 804.5,376C 804.494,378.033 804.161,379.866 803.5,381.5C 803.167,381.5 802.833,381.5 802.5,381.5C 802.666,376.489 802.499,371.489 802,366.5C 801.501,371.155 801.334,375.821 801.5,380.5C 782.659,380.17 763.993,380.503 745.5,381.5C 744.375,382.652 744.375,383.652 745.5,384.5C 746.192,387.936 747.192,391.27 748.5,394.5C 748.833,396.833 750.167,398.167 752.5,398.5C 753.71,398.932 754.71,399.599 755.5,400.5C 755.611,401.117 755.944,401.617 756.5,402C 761.352,402.815 766.019,402.648 770.5,401.5C 772.05,400.559 773.716,399.893 775.5,399.5C 778.26,398.577 780.26,396.744 781.5,394C 788.5,393.333 795.5,393.333 802.5,394C 801.594,395.699 801.261,397.533 801.5,399.5C 798.5,408.5 792.5,414.5 783.5,417.5C 780.507,416.865 777.507,416.699 774.5,417C 775.833,417.333 777.167,417.667 778.5,418C 769.88,419.252 761.213,419.752 752.5,419.5C 750.485,418.076 748.152,417.41 745.5,417.5C 742.151,416.831 739.484,415.164 737.5,412.5C 737.027,411.094 736.027,410.427 734.5,410.5C 734.586,409.504 734.252,408.671 733.5,408C 735.279,408.979 736.945,408.646 738.5,407C 737.975,406.308 737.308,405.808 736.5,405.5C 734.929,406.309 733.262,406.643 731.5,406.5C 731.509,404.692 731.009,403.025 730,401.5C 729.667,401.833 729.333,402.167 729,402.5C 728.472,399.421 726.972,397.087 724.5,395.5C 723.379,393.046 722.546,390.379 722,387.5C 721.333,380.167 721.333,372.833 722,365.5C 722.976,360.388 724.809,355.722 727.5,351.5C 728.906,351.027 729.573,350.027 729.5,348.5C 730.419,345.911 732.086,343.911 734.5,342.5C 736.749,341.92 738.415,340.587 739.5,338.5C 741.027,338.573 742.027,337.906 742.5,336.5C 746.533,335.975 750.2,334.642 753.5,332.5 Z M 771.5,351.5 C 774.432,352.8 776.766,354.8 778.5,357.5C 779.578,360.402 780.244,363.402 780.5,366.5C 769.167,366.5 757.833,366.5 746.5,366.5C 746.5,364.833 746.5,363.167 746.5,361.5C 748.788,357.544 751.788,354.211 755.5,351.5C 760.833,350.167 766.167,350.167 771.5,351.5 Z"/></g>
<g><path style="opacity:0.352" fill="#9a9a9a" d="M 929.5,325.5 C 923.5,325.5 917.5,325.5 911.5,325.5C 911.5,349.5 911.5,373.5 911.5,397.5C 917.5,397.5 923.5,397.5 929.5,397.5C 923.355,398.49 917.022,398.823 910.5,398.5C 910.5,373.833 910.5,349.167 910.5,324.5C 917.022,324.177 923.355,324.51 929.5,325.5 Z"/></g>
<g><path style="opacity:0.431" fill="#8a8a8a" d="M 1230.5,333.5 C 1230.57,335.027 1229.91,336.027 1228.5,336.5C 1228.43,334.973 1229.09,333.973 1230.5,333.5 Z"/></g>
<g><path style="opacity:0.298" fill="#f3c89a" d="M 61.5,334.5 C 60.1092,336.89 58.1092,338.557 55.5,339.5C 56.865,337.14 58.865,335.473 61.5,334.5 Z"/></g>
<g><path style="opacity:1" fill="#eec293" d="M 82.5,339.5 C 82.1667,339.5 81.8333,339.5 81.5,339.5C 80.2223,339.218 79.2223,338.551 78.5,337.5C 73.6997,334.747 68.3664,333.747 62.5,334.5C 62.9175,333.778 63.5842,333.278 64.5,333C 71.9752,331.589 77.9752,333.756 82.5,339.5 Z"/></g>
<g><path style="opacity:0.349" fill="#f1bc80" d="M 277.5,332.5 C 276.089,334.914 274.089,336.581 271.5,337.5C 272.051,334.043 274.051,332.376 277.5,332.5 Z"/></g>
<g><path style="opacity:1" fill="#3a3a3a" d="M 525.5,332.5 C 526.209,333.404 527.209,333.737 528.5,333.5C 528.281,334.675 528.614,335.675 529.5,336.5C 532.134,335.484 534.8,335.484 537.5,336.5C 538.492,336.328 539.158,336.662 539.5,337.5C 540.035,339.446 541.368,340.446 543.5,340.5C 548.862,344.209 552.528,349.209 554.5,355.5C 554.69,358.855 555.69,361.855 557.5,364.5C 557.716,373.533 557.383,382.533 556.5,391.5C 554.603,393.698 553.603,396.364 553.5,399.5C 549.77,408.229 543.437,414.229 534.5,417.5C 532.102,417.259 530.102,417.926 528.5,419.5C 520.724,422.007 513.058,422.007 505.5,419.5C 503.485,418.076 501.152,417.41 498.5,417.5C 491.436,414.951 485.602,410.617 481,404.5C 479.519,401.89 478.352,399.223 477.5,396.5C 477.598,394.447 476.931,392.78 475.5,391.5C 473.551,383.31 473.051,374.976 474,366.5C 474.78,361.002 476.613,356.002 479.5,351.5C 480.906,351.027 481.573,350.027 481.5,348.5C 485.572,341.452 491.572,336.785 499.5,334.5C 508.076,332.858 516.743,332.191 525.5,332.5 Z M 524.5,352.5 C 524.973,353.906 525.973,354.573 527.5,354.5C 527.5,354.833 527.5,355.167 527.5,355.5C 528.846,357.537 530.18,359.537 531.5,361.5C 531.328,362.492 531.662,363.158 532.5,363.5C 534.072,372.585 533.738,381.585 531.5,390.5C 529.876,395.089 526.876,398.423 522.5,400.5C 516.872,402.13 511.538,401.463 506.5,398.5C 505.5,396.833 504.167,395.5 502.5,394.5C 500.728,390.191 499.394,385.858 498.5,381.5C 498.387,374.745 499.053,368.078 500.5,361.5C 505.795,351.4 513.795,348.4 524.5,352.5 Z"/></g>
<g><path style="opacity:0.247" fill="#929292" d="M 576.5,332.5 C 576.5,332.833 576.5,333.167 576.5,333.5C 572.833,333.5 569.167,333.5 565.5,333.5C 565.5,339.167 565.5,344.833 565.5,350.5C 569.371,350.185 573.038,350.518 576.5,351.5C 576.5,351.833 576.5,352.167 576.5,352.5C 572.6,351.57 568.6,351.237 564.5,351.5C 564.5,345.167 564.5,338.833 564.5,332.5C 568.5,332.5 572.5,332.5 576.5,332.5 Z"/></g>
<g><path style="opacity:0.245" fill="#a1a1a1" d="M 600.5,312.5 C 601.491,318.979 601.824,325.646 601.5,332.5C 606.833,332.5 612.167,332.5 617.5,332.5C 617.5,338.833 617.5,345.167 617.5,351.5C 612.167,351.5 606.833,351.5 601.5,351.5C 601.5,365.833 601.5,380.167 601.5,394.5C 600.504,380.01 600.171,365.343 600.5,350.5C 605.833,350.5 611.167,350.5 616.5,350.5C 616.5,344.833 616.5,339.167 616.5,333.5C 610.974,333.821 605.64,333.488 600.5,332.5C 600.5,325.833 600.5,319.167 600.5,312.5 Z"/></g>
<g><path style="opacity:1" fill="#6f6f6f" d="M 753.5,332.5 C 750.2,334.642 746.533,335.975 742.5,336.5C 745.66,334 749.327,332.667 753.5,332.5 Z"/></g>
<g><path style="opacity:1" fill="#373737" d="M 867.5,332.5 C 867.5,339.167 867.5,345.833 867.5,352.5C 864.5,352.5 861.5,352.5 858.5,352.5C 858.167,352.5 857.833,352.5 857.5,352.5C 854.447,352.111 851.78,352.777 849.5,354.5C 847.193,354.014 845.027,354.014 843,354.5C 842.61,350.834 841.443,350.668 839.5,354C 840.833,354.667 842.167,355.333 843.5,356C 841.771,357.789 841.104,359.956 841.5,362.5C 841.672,363.492 841.338,364.158 840.5,364.5C 839.883,364.611 839.383,364.944 839,365.5C 838.5,383.164 838.333,400.83 838.5,418.5C 831.167,418.5 823.833,418.5 816.5,418.5C 816.5,390.167 816.5,361.833 816.5,333.5C 823.833,333.5 831.167,333.5 838.5,333.5C 838.173,338.214 838.507,342.88 839.5,347.5C 840.298,347.043 840.631,346.376 840.5,345.5C 841.701,340.305 844.701,336.638 849.5,334.5C 855.346,332.767 861.346,332.1 867.5,332.5 Z"/></g>
<g><path style="opacity:0.371" fill="#838383" d="M 1020.5,386.5 C 1019.5,369.008 1019.17,351.341 1019.5,333.5C 1011.83,333.5 1004.17,333.5 996.5,333.5C 996.245,355.851 996.578,378.184 997.5,400.5C 996.71,399.391 996.21,398.058 996,396.5C 995.5,375.169 995.333,353.836 995.5,332.5C 1003.83,332.5 1012.17,332.5 1020.5,332.5C 1020.5,350.5 1020.5,368.5 1020.5,386.5 Z"/></g>
<g><path style="opacity:0.2" fill="#959595" d="M 1050.5,404.5 C 1050.56,403.957 1050.89,403.624 1051.5,403.5C 1052.49,408.456 1052.83,413.456 1052.5,418.5C 1059.83,418.5 1067.17,418.5 1074.5,418.5C 1074.5,390.167 1074.5,361.833 1074.5,333.5C 1066.83,333.5 1059.17,333.5 1051.5,333.5C 1051.83,351.341 1051.5,369.008 1050.5,386.5C 1050.5,368.5 1050.5,350.5 1050.5,332.5C 1058.83,332.5 1067.17,332.5 1075.5,332.5C 1075.5,361.5 1075.5,390.5 1075.5,419.5C 1067.5,419.5 1059.5,419.5 1051.5,419.5C 1051.82,414.305 1051.49,409.305 1050.5,404.5 Z"/></g>
<g><path style="opacity:0.216" fill="#e8c6a2" d="M 126.5,334.5 C 126.443,335.609 126.11,336.609 125.5,337.5C 125.167,337.5 124.833,337.5 124.5,337.5C 124.427,335.973 125.094,334.973 126.5,334.5 Z"/></g>
<g><path style="opacity:1" fill="#383838" d="M 1020.5,386.5 C 1022.37,395.694 1028.04,400.027 1037.5,399.5C 1039.2,399.66 1040.87,399.494 1042.5,399C 1043.76,398.583 1044.42,397.75 1044.5,396.5C 1047,393.498 1049,390.165 1050.5,386.5C 1051.5,369.008 1051.83,351.341 1051.5,333.5C 1059.17,333.5 1066.83,333.5 1074.5,333.5C 1074.5,361.833 1074.5,390.167 1074.5,418.5C 1067.17,418.5 1059.83,418.5 1052.5,418.5C 1052.83,413.456 1052.49,408.456 1051.5,403.5C 1050.89,403.624 1050.56,403.957 1050.5,404.5C 1048.59,410.745 1044.59,415.078 1038.5,417.5C 1029.83,418.833 1021.17,418.833 1012.5,417.5C 1011.51,417.672 1010.84,417.338 1010.5,416.5C 1010.03,415.094 1009.03,414.427 1007.5,414.5C 1007.03,413.094 1006.03,412.427 1004.5,412.5C 1001.14,409.121 998.809,405.121 997.5,400.5C 996.578,378.184 996.245,355.851 996.5,333.5C 1004.17,333.5 1011.83,333.5 1019.5,333.5C 1019.17,351.341 1019.5,369.008 1020.5,386.5 Z"/></g>
<g><path style="opacity:0.306" fill="#8f8f8f" d="M 1147.5,335.5 C 1149.15,335.66 1150.49,336.326 1151.5,337.5C 1149.62,337.771 1148.29,337.104 1147.5,335.5 Z"/></g>
<g><path style="opacity:0.439" fill="#828282" d="M 742.5,336.5 C 742.027,337.906 741.027,338.573 739.5,338.5C 739.973,337.094 740.973,336.427 742.5,336.5 Z"/></g>
<g><path style="opacity:0.263" fill="#eec494" d="M 271.5,337.5 C 271.5,338.833 270.833,339.5 269.5,339.5C 269.5,338.167 270.167,337.5 271.5,337.5 Z"/></g>
<g><path style="opacity:0.545" fill="#808080" d="M 539.5,337.5 C 541.23,338.026 542.564,339.026 543.5,340.5C 541.368,340.446 540.035,339.446 539.5,337.5 Z"/></g>
<g><path style="opacity:1" fill="#535353" d="M 781.5,335.5 C 785.461,336.479 788.794,338.479 791.5,341.5C 790.417,341.461 789.417,341.127 788.5,340.5C 787.614,341.325 787.281,342.325 787.5,343.5C 784.003,343.005 783.003,341.172 784.5,338C 783.429,337.148 782.429,336.315 781.5,335.5 Z"/></g>
<g><path style="opacity:0.969" fill="#838383" d="M 953.5,338.5 C 955.741,339.3 956.741,340.966 956.5,343.5C 955.263,342.035 954.263,340.368 953.5,338.5 Z"/></g>
<g><path style="opacity:0.455" fill="#8e8e8e" d="M 979.5,336.5 C 980.924,338.515 981.59,340.848 981.5,343.5C 980.076,341.485 979.41,339.152 979.5,336.5 Z"/></g>
<g><path style="opacity:0.349" fill="#f1bd87" d="M 171.5,337.5 C 173.344,339.279 174.01,341.612 173.5,344.5C 172.076,342.485 171.41,340.152 171.5,337.5 Z"/></g>
<g><path style="opacity:0.412" fill="#8c8c8c" d="M 702.5,339.5 C 703.906,339.973 704.573,340.973 704.5,342.5C 703.094,342.027 702.427,341.027 702.5,339.5 Z"/></g>
<g><path style="opacity:0.173" fill="#f3d0a9" d="M 150.5,335.5 C 151.952,337.848 152.618,340.514 152.5,343.5C 152.493,345.369 152.16,347.036 151.5,348.5C 151.81,345.287 151.477,342.287 150.5,339.5C 150.5,338.167 150.5,336.833 150.5,335.5 Z"/></g>
<g><path style="opacity:0.537" fill="#717171" d="M 739.5,338.5 C 738.415,340.587 736.749,341.92 734.5,342.5C 735.585,340.413 737.251,339.08 739.5,338.5 Z"/></g>
<g><path style="opacity:1" fill="#3a3a3a" d="M 1117.5,332.5 C 1125.86,332.379 1134.19,332.712 1142.5,333.5C 1144.55,333.402 1146.22,334.069 1147.5,335.5C 1148.29,337.104 1149.62,337.771 1151.5,337.5C 1154.78,339.117 1157.45,341.45 1159.5,344.5C 1159.43,346.027 1160.09,347.027 1161.5,347.5C 1163.01,349.181 1164.01,351.181 1164.5,353.5C 1165.05,356.807 1165.38,360.14 1165.5,363.5C 1158.08,363.797 1150.75,363.464 1143.5,362.5C 1142.46,361.07 1141.8,359.403 1141.5,357.5C 1140.83,354.833 1139.17,353.167 1136.5,352.5C 1135.51,352.672 1134.84,352.338 1134.5,351.5C 1132.88,350.028 1130.88,349.361 1128.5,349.5C 1127.17,349.667 1125.83,349.833 1124.5,350C 1123.94,350.383 1123.61,350.883 1123.5,351.5C 1119.57,353.762 1116.23,356.762 1113.5,360.5C 1112.03,361.347 1111.2,362.68 1111,364.5C 1108.87,371.373 1109.03,378.039 1111.5,384.5C 1112.34,387.543 1113.34,390.543 1114.5,393.5C 1115.17,396.167 1116.83,397.833 1119.5,398.5C 1120.17,398.833 1120.83,399.167 1121.5,399.5C 1121.61,400.117 1121.94,400.617 1122.5,401C 1126.5,401.667 1130.5,401.667 1134.5,401C 1135.06,400.617 1135.39,400.117 1135.5,399.5C 1138.55,397.451 1140.88,394.784 1142.5,391.5C 1144.1,390.713 1144.77,389.38 1144.5,387.5C 1151.5,387.5 1158.5,387.5 1165.5,387.5C 1165.38,390.86 1165.05,394.193 1164.5,397.5C 1162,406.663 1156.34,412.996 1147.5,416.5C 1145.21,416.595 1143.21,417.262 1141.5,418.5C 1137.27,420.025 1132.77,420.692 1128,420.5C 1124.42,420.463 1120.92,420.13 1117.5,419.5C 1115.79,418.262 1113.79,417.595 1111.5,417.5C 1111.5,416.5 1111.5,415.5 1111.5,414.5C 1108.76,414.599 1106.1,414.265 1103.5,413.5C 1093.92,407.555 1088.26,398.889 1086.5,387.5C 1086.29,378.8 1086.62,370.133 1087.5,361.5C 1090.49,348.506 1098.16,339.506 1110.5,334.5C 1113.15,334.59 1115.49,333.924 1117.5,332.5 Z"/></g>
<g><path style="opacity:1" fill="#fd9439" d="M 141.5,330.5 C 144.913,331.374 147.913,333.041 150.5,335.5C 150.5,336.833 150.5,338.167 150.5,339.5C 150.666,343.846 150.499,348.179 150,352.5C 148.002,360.453 146.002,368.453 144,376.5C 143.126,385.896 141.959,395.23 140.5,404.5C 138.094,413.259 136.427,422.259 135.5,431.5C 133.777,433.78 133.111,436.447 133.5,439.5C 133.656,443.764 132.989,447.764 131.5,451.5C 129.321,455.203 127.655,459.203 126.5,463.5C 125.167,463.5 123.833,463.5 122.5,463.5C 122.634,465.292 122.301,466.958 121.5,468.5C 114.99,470.434 108.323,470.934 101.5,470C 100.027,469.29 99.3601,468.124 99.5,466.5C 97.8333,466.5 96.1667,466.5 94.5,466.5C 91.9604,462.295 88.2938,459.628 83.5,458.5C 83.5,457.5 83.5,456.5 83.5,455.5C 81.8333,455.5 80.1667,455.5 78.5,455.5C 77.0681,452.898 75.0681,450.731 72.5,449C 71.2068,448.51 69.8734,448.343 68.5,448.5C 65.748,445.748 63.4147,442.581 61.5,439C 59.1902,438.503 56.8568,438.337 54.5,438.5C 53.5352,434.892 51.2019,433.226 47.5,433.5C 44.7234,428.276 40.39,425.276 34.5,424.5C 33.7377,422.738 32.4044,421.738 30.5,421.5C 29.7377,419.738 28.4044,418.738 26.5,418.5C 26.0269,417.094 25.0269,416.427 23.5,416.5C 23.1788,414.952 22.1788,414.285 20.5,414.5C 19.8333,413.5 19.1667,412.5 18.5,411.5C 16.8961,407.61 13.8961,405.944 9.5,406.5C 7.14963,404.787 6.14963,402.453 6.5,399.5C 5.16667,399.5 3.83333,399.5 2.5,399.5C 1.06375,394.273 1.39709,389.273 3.5,384.5C 5.27692,384.214 6.94359,383.547 8.5,382.5C 11.8774,385.236 14.8774,384.902 17.5,381.5C 22.7908,382.402 28.1242,382.735 33.5,382.5C 33.5,381.5 33.5,380.5 33.5,379.5C 38.327,380.089 41.9937,378.423 44.5,374.5C 45.675,374.719 46.675,374.386 47.5,373.5C 48.4299,370.603 50.0966,368.27 52.5,366.5C 52.1896,368.201 52.6896,369.868 54,371.5C 55.7497,368.754 56.7497,365.754 57,362.5C 57.3333,363.167 57.6667,363.833 58,364.5C 59.5165,359.13 59.3498,353.963 57.5,349C 58.9301,346.738 58.5967,344.905 56.5,343.5C 62.2853,342.739 67.6186,340.906 72.5,338C 74.4727,337.505 76.4727,337.338 78.5,337.5C 79.2223,338.551 80.2223,339.218 81.5,339.5C 81.7792,342.118 82.4459,344.618 83.5,347C 87.7818,347.79 91.7818,349.29 95.5,351.5C 101.128,352.495 106.794,352.829 112.5,352.5C 112.392,350.486 113.058,348.82 114.5,347.5C 115.833,347.5 117.167,347.5 118.5,347.5C 118.5,346.5 118.5,345.5 118.5,344.5C 119.5,344.5 120.5,344.5 121.5,344.5C 122.043,341.962 123.043,339.628 124.5,337.5C 124.833,337.5 125.167,337.5 125.5,337.5C 127.011,336.498 128.678,335.831 130.5,335.5C 130.5,337.5 130.5,339.5 130.5,341.5C 132.167,341.5 133.833,341.5 135.5,341.5C 135.5,339.167 135.5,336.833 135.5,334.5C 134.325,334.719 133.325,334.386 132.5,333.5C 135.109,331.297 138.109,330.297 141.5,330.5 Z"/></g>
<g><path style="opacity:0.239" fill="#eec290" d="M 124.5,337.5 C 123.043,339.628 122.043,341.962 121.5,344.5C 120.5,344.5 119.5,344.5 118.5,344.5C 119.8,341.568 121.8,339.234 124.5,337.5 Z"/></g>
<g><path style="opacity:0.322" fill="#868686" d="M 659.5,340.5 C 659.573,342.027 658.906,343.027 657.5,343.5C 657.427,341.973 658.094,340.973 659.5,340.5 Z"/></g>
<g><path style="opacity:0.255" fill="#828282" d="M 840.5,345.5 C 840.631,346.376 840.298,347.043 839.5,347.5C 838.507,342.88 838.173,338.214 838.5,333.5C 831.167,333.5 823.833,333.5 816.5,333.5C 816.5,361.833 816.5,390.167 816.5,418.5C 823.833,418.5 831.167,418.5 838.5,418.5C 838.833,418.5 839.167,418.5 839.5,418.5C 831.684,419.492 823.684,419.826 815.5,419.5C 815.5,390.5 815.5,361.5 815.5,332.5C 823.5,332.5 831.5,332.5 839.5,332.5C 839.182,337.032 839.515,341.366 840.5,345.5 Z"/></g>
<g><path style="opacity:0.224" fill="#f8d0a3" d="M 82.5,339.5 C 85.6735,342.913 89.3402,345.58 93.5,347.5C 88.1679,347.011 84.5013,344.344 82.5,339.5 Z"/></g>
<g><path style="opacity:0.231" fill="#f5c394" d="M 269.5,339.5 C 264.729,345.61 259.062,350.61 252.5,354.5C 257.129,348.348 262.796,343.348 269.5,339.5 Z"/></g>
<g><path style="opacity:0.998" fill="#3a3a3a" d="M 431.5,305.5 C 440.652,306.494 449.985,306.827 459.5,306.5C 459.5,343.833 459.5,381.167 459.5,418.5C 452.5,418.5 445.5,418.5 438.5,418.5C 438.667,393.831 438.5,369.164 438,344.5C 436.117,345.653 435.284,347.319 435.5,349.5C 431.173,360.823 426.84,372.156 422.5,383.5C 420.386,384.784 419.386,386.784 419.5,389.5C 417.557,395.662 415.224,401.662 412.5,407.5C 410.552,409.32 409.552,411.654 409.5,414.5C 409.67,415.822 409.337,416.989 408.5,418C 402.833,418.667 397.167,418.667 391.5,418C 388.675,412.359 386.342,406.526 384.5,400.5C 383.374,395.788 382.041,391.121 380.5,386.5C 379.817,386.137 379.15,385.804 378.5,385.5C 374.401,377.549 371.068,369.216 368.5,360.5C 368.289,356.818 366.956,353.818 364.5,351.5C 364.5,351.167 364.5,350.833 364.5,350.5C 364.553,347.939 363.553,345.939 361.5,344.5C 360.5,369.158 360.167,393.824 360.5,418.5C 353.5,418.5 346.5,418.5 339.5,418.5C 339.5,381.167 339.5,343.833 339.5,306.5C 348.833,306.5 358.167,306.5 367.5,306.5C 367.833,306.5 368.167,306.5 368.5,306.5C 379.081,331.059 389.581,355.726 400,380.5C 404.41,369.764 408.91,359.097 413.5,348.5C 415.213,347.365 415.88,345.698 415.5,343.5C 417.186,339.424 418.853,335.424 420.5,331.5C 421.688,330.316 422.855,330.316 424,331.5C 425.678,330.318 425.512,329.152 423.5,328C 424.687,325.276 425.353,322.443 425.5,319.5C 426.988,314.533 428.988,309.866 431.5,305.5 Z"/></g>
<g><path style="opacity:0.935" fill="#5a5a5a" d="M 425.5,319.5 C 425.353,322.443 424.687,325.276 423.5,328C 425.512,329.152 425.678,330.318 424,331.5C 422.855,330.316 421.688,330.316 420.5,331.5C 421.796,327.261 423.462,323.261 425.5,319.5 Z"/></g>
<g><path style="opacity:0.357" fill="#7f7f7f" d="M 704.5,342.5 C 705.906,342.973 706.573,343.973 706.5,345.5C 705.094,345.027 704.427,344.027 704.5,342.5 Z"/></g>
<g><path style="opacity:1" fill="#eec396" d="M 173.5,344.5 C 175.028,345.802 176.028,347.469 176.5,349.5C 177.092,352.127 177.425,354.794 177.5,357.5C 175.411,353.499 174.078,349.165 173.5,344.5 Z"/></g>
<g><path style="opacity:0.349" fill="#f0c08b" d="M 118.5,344.5 C 118.5,345.5 118.5,346.5 118.5,347.5C 117.167,347.5 115.833,347.5 114.5,347.5C 112.118,349.046 109.451,349.713 106.5,349.5C 110.307,347.451 114.307,345.784 118.5,344.5 Z"/></g>
<g><path style="opacity:0.486" fill="#838383" d="M 415.5,343.5 C 415.88,345.698 415.213,347.365 413.5,348.5C 413.796,346.597 414.463,344.93 415.5,343.5 Z"/></g>
<g><path style="opacity:0.349" fill="#888888" d="M 1159.5,344.5 C 1160.91,344.973 1161.57,345.973 1161.5,347.5C 1160.09,347.027 1159.43,346.027 1159.5,344.5 Z"/></g>
<g><path style="opacity:0.412" fill="#858585" d="M 1221.5,344.5 C 1220.92,346.749 1219.59,348.415 1217.5,349.5C 1218.08,347.251 1219.41,345.585 1221.5,344.5 Z"/></g>
<g><path style="opacity:0.098" fill="#9d9d9d" d="M 771.5,351.5 C 766.167,350.167 760.833,350.167 755.5,351.5C 755.611,350.883 755.944,350.383 756.5,350C 759,349.833 761.5,349.667 764,349.5C 766.929,349.525 769.429,350.191 771.5,351.5 Z"/></g>
<g><path style="opacity:0.716" fill="#737373" d="M 1134.5,351.5 C 1130.79,350.582 1127.12,350.582 1123.5,351.5C 1123.61,350.883 1123.94,350.383 1124.5,350C 1125.83,349.833 1127.17,349.667 1128.5,349.5C 1130.88,349.361 1132.88,350.028 1134.5,351.5 Z"/></g>
<g><path style="opacity:0.329" fill="#898989" d="M 481.5,348.5 C 481.573,350.027 480.906,351.027 479.5,351.5C 479.427,349.973 480.094,348.973 481.5,348.5 Z"/></g>
<g><path style="opacity:0.357" fill="#818181" d="M 729.5,348.5 C 729.573,350.027 728.906,351.027 727.5,351.5C 727.427,349.973 728.094,348.973 729.5,348.5 Z"/></g>
<g><path style="opacity:1" fill="#ef9747" d="M 81.5,339.5 C 81.8333,339.5 82.1667,339.5 82.5,339.5C 84.5013,344.344 88.1679,347.011 93.5,347.5C 94.347,348.966 95.6803,349.8 97.5,350C 100.696,350.805 103.696,350.638 106.5,349.5C 109.451,349.713 112.118,349.046 114.5,347.5C 113.058,348.82 112.392,350.486 112.5,352.5C 106.794,352.829 101.128,352.495 95.5,351.5C 91.7818,349.29 87.7818,347.79 83.5,347C 82.4459,344.618 81.7792,342.118 81.5,339.5 Z"/></g>
<g><path style="opacity:0.314" fill="#f8c08b" d="M 93.5,347.5 C 97.6859,348.908 102.019,349.575 106.5,349.5C 103.696,350.638 100.696,350.805 97.5,350C 95.6803,349.8 94.347,348.966 93.5,347.5 Z"/></g>
<g><path style="opacity:0.263" fill="#939393" d="M 676.5,352.5 C 672.131,352.467 667.798,352.8 663.5,353.5C 665.848,352.048 668.514,351.382 671.5,351.5C 673.369,351.507 675.036,351.84 676.5,352.5 Z"/></g>
<g><path style="opacity:0.066" fill="#bbbbbb" d="M 438.5,418.5 C 437.668,395.004 437.168,371.337 437,347.5C 436.722,348.416 436.222,349.082 435.5,349.5C 435.284,347.319 436.117,345.653 438,344.5C 438.5,369.164 438.667,393.831 438.5,418.5 Z"/></g>
<g><path style="opacity:0.671" fill="#8e8e8e" d="M 524.5,352.5 C 526.027,352.427 527.027,353.094 527.5,354.5C 525.973,354.573 524.973,353.906 524.5,352.5 Z"/></g>
<g><path style="opacity:0.514" fill="#848484" d="M 1136.5,352.5 C 1139.17,353.167 1140.83,354.833 1141.5,357.5C 1139.5,356.167 1137.83,354.5 1136.5,352.5 Z"/></g>
<g><path style="opacity:0.133" fill="#aaaaaa" d="M 857.5,352.5 C 855.039,353.531 852.373,354.198 849.5,354.5C 851.78,352.777 854.447,352.111 857.5,352.5 Z"/></g>
<g><path style="opacity:1" fill="#f2b888" d="M 55.5,339.5 C 54.4007,346.454 53.0673,353.121 51.5,359.5C 51.3342,354.821 51.5008,350.155 52,345.5C 52.7162,343.121 53.8828,341.121 55.5,339.5 Z"/></g>
<g><path style="opacity:0.396" fill="#828282" d="M 676.5,352.5 C 680.237,352.241 682.57,353.907 683.5,357.5C 681.4,355.384 679.067,353.717 676.5,352.5 Z"/></g>
<g><path style="opacity:0.396" fill="#7d7d7d" d="M 364.5,351.5 C 366.956,353.818 368.289,356.818 368.5,360.5C 366.795,357.739 365.462,354.739 364.5,351.5 Z"/></g>
<g><path style="opacity:0.478" fill="#5e5e5e" d="M 576.5,351.5 C 577.331,367.662 577.831,383.995 578,400.5C 578.662,402.813 579.162,405.146 579.5,407.5C 578.207,406.158 577.374,404.491 577,402.5C 576.5,385.837 576.333,369.17 576.5,352.5C 576.5,352.167 576.5,351.833 576.5,351.5 Z"/></g>
<g><path style="opacity:0.263" fill="#8f8f8f" d="M 708.5,349.5 C 709.924,351.515 710.59,353.848 710.5,356.5C 710.167,356.5 709.833,356.5 709.5,356.5C 708.781,354.236 708.448,351.903 708.5,349.5 Z"/></g>
<g><path style="opacity:0.149" fill="#959595" d="M 799.5,353.5 C 801.213,354.635 801.88,356.302 801.5,358.5C 800.463,357.07 799.796,355.403 799.5,353.5 Z"/></g>
<g><path style="opacity:0.461" fill="#878787" d="M 957.5,346.5 C 959.033,350.896 959.7,355.563 959.5,360.5C 959.498,364.018 959.165,367.351 958.5,370.5C 958.656,362.471 958.323,354.471 957.5,346.5 Z"/></g>
<g><path style="opacity:1" fill="#f6973f" d="M 184.5,374.5 C 181.866,369.93 180.199,364.93 179.5,359.5C 178.818,358.757 178.151,358.091 177.5,357.5C 177.425,354.794 177.092,352.127 176.5,349.5C 178.163,351.438 178.829,353.772 178.5,356.5C 179.5,356.5 180.5,356.5 181.5,356.5C 180.838,352.534 180.505,348.534 180.5,344.5C 181.5,344.5 182.5,344.5 183.5,344.5C 183.575,347.407 184.409,350.073 186,352.5C 186.333,352.167 186.667,351.833 187,351.5C 187.667,355.167 187.667,358.833 187,362.5C 186.187,360.564 185.687,358.564 185.5,356.5C 184.5,356.5 183.5,356.5 182.5,356.5C 182.167,359.167 181.833,361.833 181.5,364.5C 184.167,364.5 186.833,364.5 189.5,364.5C 189.197,367.588 190.53,369.254 193.5,369.5C 194.036,372.665 193.203,375.331 191,377.5C 191.377,372.246 189.211,368.579 184.5,366.5C 184.051,369.044 184.051,371.71 184.5,374.5 Z"/></g>
<g><path style="opacity:1" fill="#efb982" d="M 252.5,354.5 C 247.136,359.865 241.469,364.865 235.5,369.5C 236.793,367.704 238.293,366.037 240,364.5C 240.483,363.552 240.649,362.552 240.5,361.5C 241.675,361.719 242.675,361.386 243.5,360.5C 245.719,357.231 248.719,355.231 252.5,354.5 Z"/></g>
<g><path style="opacity:1" fill="#727272" d="M 527.5,355.5 C 530.697,356.112 532.031,358.112 531.5,361.5C 530.18,359.537 528.846,357.537 527.5,355.5 Z"/></g>
<g><path style="opacity:0.372" fill="#7e7e7e" d="M 981.5,343.5 C 982.953,349.267 983.62,355.267 983.5,361.5C 983.499,365.349 983.165,369.016 982.5,372.5C 982.578,362.815 982.245,353.148 981.5,343.5 Z"/></g>
<g><path style="opacity:1" fill="#545454" d="M 849.5,354.5 C 846.5,356.833 843.833,359.5 841.5,362.5C 841.104,359.956 841.771,357.789 843.5,356C 842.167,355.333 840.833,354.667 839.5,354C 841.443,350.668 842.61,350.834 843,354.5C 845.027,354.014 847.193,354.014 849.5,354.5 Z"/></g>
<g><path style="opacity:1" fill="#6e6e6e" d="M 554.5,355.5 C 556.472,358.084 557.472,361.084 557.5,364.5C 555.69,361.855 554.69,358.855 554.5,355.5 Z"/></g>
<g><path style="opacity:0.431" fill="#949494" d="M 778.5,357.5 C 781.222,360.117 781.889,363.117 780.5,366.5C 780.244,363.402 779.578,360.402 778.5,357.5 Z"/></g>
<g><path style="opacity:0.471" fill="#828282" d="M 1209.5,358.5 C 1209.26,360.404 1208.26,361.738 1206.5,362.5C 1206.74,360.596 1207.74,359.262 1209.5,358.5 Z"/></g>
<g><path style="opacity:0.188" fill="#eed0a7" d="M 51.5,359.5 C 51.9819,362.831 50.9819,365.497 48.5,367.5C 49.5122,364.743 50.5122,362.076 51.5,359.5 Z"/></g>
<g><path style="opacity:1" fill="#707070" d="M 709.5,356.5 C 709.833,356.5 710.167,356.5 710.5,356.5C 711.815,377.294 711.815,397.961 710.5,418.5C 710.167,418.5 709.833,418.5 709.5,418.5C 709.5,397.833 709.5,377.167 709.5,356.5 Z"/></g>
<g><path style="opacity:1" fill="#747474" d="M 1164.5,353.5 C 1165.93,356.413 1166.93,359.579 1167.5,363C 1167.36,363.772 1167.02,364.439 1166.5,365C 1159.17,365.667 1151.83,365.667 1144.5,365C 1143.75,364.329 1143.41,363.496 1143.5,362.5C 1150.75,363.464 1158.08,363.797 1165.5,363.5C 1165.38,360.14 1165.05,356.807 1164.5,353.5 Z"/></g>
<g><path style="opacity:1" fill="#f8953e" d="M 61.5,334.5 C 61.8333,334.5 62.1667,334.5 62.5,334.5C 68.3664,333.747 73.6997,334.747 78.5,337.5C 76.4727,337.338 74.4727,337.505 72.5,338C 67.6186,340.906 62.2853,342.739 56.5,343.5C 58.5967,344.905 58.9301,346.738 57.5,349C 59.3498,353.963 59.5165,359.13 58,364.5C 57.6667,363.833 57.3333,363.167 57,362.5C 56.7497,365.754 55.7497,368.754 54,371.5C 52.6896,369.868 52.1896,368.201 52.5,366.5C 50.0966,368.27 48.4299,370.603 47.5,373.5C 46.675,374.386 45.675,374.719 44.5,374.5C 45.925,373.078 46.925,371.411 47.5,369.5C 47.3284,368.508 47.6618,367.842 48.5,367.5C 50.9819,365.497 51.9819,362.831 51.5,359.5C 53.0673,353.121 54.4007,346.454 55.5,339.5C 58.1092,338.557 60.1092,336.89 61.5,334.5 Z"/></g>
<g><path style="opacity:0.375" fill="#7b7b7b" d="M 364.5,350.5 C 363.442,349.4 362.608,348.066 362,346.5C 361.5,370.831 361.333,395.164 361.5,419.5C 353.316,419.826 345.316,419.492 337.5,418.5C 337.833,418.5 338.167,418.5 338.5,418.5C 338.833,418.5 339.167,418.5 339.5,418.5C 346.5,418.5 353.5,418.5 360.5,418.5C 360.167,393.824 360.5,369.158 361.5,344.5C 363.553,345.939 364.553,347.939 364.5,350.5 Z"/></g>
<g><path style="opacity:0.671" fill="#878787" d="M 500.5,361.5 C 499.053,368.078 498.387,374.745 498.5,381.5C 497.355,377.689 497.188,373.689 498,369.5C 498.098,366.478 498.932,363.811 500.5,361.5 Z"/></g>
<g><path style="opacity:0.448" fill="#939393" d="M 746.5,361.5 C 746.5,363.167 746.5,364.833 746.5,366.5C 757.833,366.5 769.167,366.5 780.5,366.5C 769.012,367.495 757.345,367.828 745.5,367.5C 745.205,365.265 745.539,363.265 746.5,361.5 Z"/></g>
<g><path style="opacity:0.247" fill="#f0c394" d="M 177.5,357.5 C 178.151,358.091 178.818,358.757 179.5,359.5C 180.199,364.93 181.866,369.93 184.5,374.5C 184.328,375.492 184.662,376.158 185.5,376.5C 185.5,377.5 185.5,378.5 185.5,379.5C 184.21,378.942 183.377,377.942 183,376.5C 180.696,370.283 178.863,363.949 177.5,357.5 Z"/></g>
<g><path style="opacity:0.372" fill="#7b7b7b" d="M 686.5,364.5 C 687.497,382.326 687.83,400.326 687.5,418.5C 694.833,418.5 702.167,418.5 709.5,418.5C 709.833,418.5 710.167,418.5 710.5,418.5C 702.684,419.492 694.684,419.826 686.5,419.5C 686.5,401.167 686.5,382.833 686.5,364.5 Z"/></g>
<g><path style="opacity:0.329" fill="#f1c08b" d="M 150.5,339.5 C 151.477,342.287 151.81,345.287 151.5,348.5C 148.577,367.444 144.911,386.11 140.5,404.5C 141.959,395.23 143.126,385.896 144,376.5C 146.002,368.453 148.002,360.453 150,352.5C 150.499,348.179 150.666,343.846 150.5,339.5 Z"/></g>
<g><path style="opacity:0.375" fill="#888888" d="M 557.5,364.5 C 558.656,372.323 558.823,380.323 558,388.5C 557.768,389.737 557.268,390.737 556.5,391.5C 557.383,382.533 557.716,373.533 557.5,364.5 Z"/></g>
<g><path style="opacity:1" fill="#f2c08f" d="M 233.5,371.5 C 232.089,373.914 230.089,375.581 227.5,376.5C 228.942,375.18 229.608,373.514 229.5,371.5C 230.833,371.5 232.167,371.5 233.5,371.5 Z"/></g>
<g><path style="opacity:0.314" fill="#8d8d8d" d="M 1227.5,370.5 C 1228.91,370.973 1229.57,371.973 1229.5,373.5C 1228.09,373.027 1227.43,372.027 1227.5,370.5 Z"/></g>
<g><path style="opacity:0.398" fill="#808080" d="M 1113.5,360.5 C 1110.86,368.343 1110.19,376.343 1111.5,384.5C 1109.03,378.039 1108.87,371.373 1111,364.5C 1111.2,362.68 1112.03,361.347 1113.5,360.5 Z"/></g>
<g><path style="opacity:0.495" fill="#575757" d="M 840.5,364.5 C 839.569,382.477 839.235,400.477 839.5,418.5C 839.167,418.5 838.833,418.5 838.5,418.5C 838.333,400.83 838.5,383.164 839,365.5C 839.383,364.944 839.883,364.611 840.5,364.5 Z"/></g>
<g><path style="opacity:0.731" fill="#8d8d8d" d="M 1087.5,361.5 C 1086.62,370.133 1086.29,378.8 1086.5,387.5C 1084.17,378.783 1084.5,370.117 1087.5,361.5 Z"/></g>
<g><path style="opacity:1" fill="#eeb278" d="M 47.5,369.5 C 46.925,371.411 45.925,373.078 44.5,374.5C 41.9937,378.423 38.327,380.089 33.5,379.5C 32.8333,379.5 32.1667,379.5 31.5,379.5C 37.6077,377.39 42.941,374.056 47.5,369.5 Z"/></g>
<g><path style="opacity:0.349" fill="#898989" d="M 1229.5,373.5 C 1230.91,373.973 1231.57,374.973 1231.5,376.5C 1230.09,376.027 1229.43,375.027 1229.5,373.5 Z"/></g>
<g><path style="opacity:0.286" fill="#8e8e8e" d="M 532.5,363.5 C 533.222,363.918 533.722,364.584 534,365.5C 534.667,371.833 534.667,378.167 534,384.5C 533.76,386.852 532.927,388.852 531.5,390.5C 533.738,381.585 534.072,372.585 532.5,363.5 Z"/></g>
<g><path style="opacity:0.216" fill="#f3c490" d="M 31.5,379.5 C 26.1637,380.611 20.6637,380.611 15,379.5C 11.8336,380.305 8.66691,380.972 5.5,381.5C 7.57165,379.274 10.0716,377.607 13,376.5C 18.9391,378.72 25.1057,379.72 31.5,379.5 Z"/></g>
<g><path style="opacity:1" fill="#6a6a6a" d="M 958.5,371.5 C 958.663,373.857 958.497,376.19 958,378.5C 957.617,379.056 957.117,379.389 956.5,379.5C 956.802,376.627 957.469,373.961 958.5,371.5 Z"/></g>
<g><path style="opacity:0.125" fill="#f7cea2" d="M 227.5,376.5 C 226.833,377.833 225.833,378.833 224.5,379.5C 224.5,377.5 225.5,376.5 227.5,376.5 Z"/></g>
<g><path style="opacity:0.349" fill="#848484" d="M 1231.5,376.5 C 1232.91,376.973 1233.57,377.973 1233.5,379.5C 1232.09,379.027 1231.43,378.027 1231.5,376.5 Z"/></g>
<g><path style="opacity:0.263" fill="#eac79a" d="M 185.5,379.5 C 187.446,380.035 188.446,381.368 188.5,383.5C 186.738,382.738 185.738,381.404 185.5,379.5 Z"/></g>
<g><path style="opacity:1" fill="#efb277" d="M 224.5,379.5 C 222.909,381.633 220.909,383.299 218.5,384.5C 218.5,382.833 218.5,381.167 218.5,379.5C 220.5,379.5 222.5,379.5 224.5,379.5 Z"/></g>
<g><path style="opacity:1" fill="#242424" d="M 802.5,381.5 C 783.5,381.5 764.5,381.5 745.5,381.5C 763.993,380.503 782.659,380.17 801.5,380.5C 801.334,375.821 801.501,371.155 802,366.5C 802.499,371.489 802.666,376.489 802.5,381.5 Z"/></g>
<g><path style="opacity:1" fill="#f29545" d="M 31.5,379.5 C 32.1667,379.5 32.8333,379.5 33.5,379.5C 33.5,380.5 33.5,381.5 33.5,382.5C 28.1242,382.735 22.7908,382.402 17.5,381.5C 14.8774,384.902 11.8774,385.236 8.5,382.5C 6.94359,383.547 5.27692,384.214 3.5,384.5C 4.16667,383.5 4.83333,382.5 5.5,381.5C 8.66691,380.972 11.8336,380.305 15,379.5C 20.6637,380.611 26.1637,380.611 31.5,379.5 Z"/></g>
<g><path style="opacity:0.357" fill="#767676" d="M 745.5,381.5 C 764.5,381.5 783.5,381.5 802.5,381.5C 802.833,381.5 803.167,381.5 803.5,381.5C 784.671,382.332 765.671,382.832 746.5,383C 745.944,383.383 745.611,383.883 745.5,384.5C 744.375,383.652 744.375,382.652 745.5,381.5 Z"/></g>
<g><path style="opacity:1" fill="#f19a4a" d="M 185.5,376.5 C 188.451,377.809 189.784,380.143 189.5,383.5C 190.833,383.5 192.167,383.5 193.5,383.5C 193.354,381.058 194.187,380.391 196,381.5C 196.384,383.197 196.218,384.863 195.5,386.5C 194.5,386.5 193.5,386.5 192.5,386.5C 192.027,385.094 191.027,384.427 189.5,384.5C 188.833,384.5 188.5,384.167 188.5,383.5C 188.446,381.368 187.446,380.035 185.5,379.5C 185.5,378.5 185.5,377.5 185.5,376.5 Z"/></g>
<g><path style="opacity:1" fill="#686868" d="M 956.5,379.5 C 956.969,382.393 955.969,384.393 953.5,385.5C 953.992,383.181 954.992,381.181 956.5,379.5 Z"/></g>
<g><path style="opacity:0.255" fill="#8e8e8e" d="M 1210.5,386.5 C 1209.5,385.167 1208.5,385.167 1207.5,386.5C 1208.5,383.833 1209.5,383.833 1210.5,386.5 Z"/></g>
<g><path style="opacity:0.149" fill="#f0d9af" d="M 189.5,384.5 C 191.027,384.427 192.027,385.094 192.5,386.5C 190.973,386.573 189.973,385.906 189.5,384.5 Z"/></g>
<g><path style="opacity:1" fill="#ecbc93" d="M 192.5,386.5 C 193.5,386.5 194.5,386.5 195.5,386.5C 196.833,386.5 197.5,387.167 197.5,388.5C 195.447,388.598 193.78,387.931 192.5,386.5 Z"/></g>
<g><path style="opacity:1" fill="#666666" d="M 378.5,385.5 C 379.15,385.804 379.817,386.137 380.5,386.5C 382.041,391.121 383.374,395.788 384.5,400.5C 382.126,395.723 380.126,390.723 378.5,385.5 Z"/></g>
<g><path style="opacity:0.221" fill="#8f8f8f" d="M 1164.5,397.5 C 1165.05,394.193 1165.38,390.86 1165.5,387.5C 1158.5,387.5 1151.5,387.5 1144.5,387.5C 1144.77,389.38 1144.1,390.713 1142.5,391.5C 1142.42,390.07 1142.75,388.736 1143.5,387.5C 1151.14,386.503 1158.8,386.169 1166.5,386.5C 1166.88,390.489 1166.22,394.155 1164.5,397.5 Z"/></g>
<g><path style="opacity:1" fill="#efbd8c" d="M 217.5,385.5 C 215.879,387.117 213.879,388.284 211.5,389C 206.648,389.815 201.981,389.648 197.5,388.5C 201.182,388.665 204.848,388.499 208.5,388C 211.338,386.745 214.338,385.911 217.5,385.5 Z"/></g>
<g><path style="opacity:0.29" fill="#898989" d="M 422.5,383.5 C 421.87,385.75 420.87,387.75 419.5,389.5C 419.386,386.784 420.386,384.784 422.5,383.5 Z"/></g>
<g><path style="opacity:0.647" fill="#898989" d="M 953.5,385.5 C 953.573,387.027 952.906,388.027 951.5,388.5C 951.427,386.973 952.094,385.973 953.5,385.5 Z"/></g>
<g><path style="opacity:1" fill="#efb982" d="M 5.5,381.5 C 4.83333,382.5 4.16667,383.5 3.5,384.5C 1.39709,389.273 1.06375,394.273 2.5,399.5C 3.83333,399.5 5.16667,399.5 6.5,399.5C 6.14963,402.453 7.14963,404.787 9.5,406.5C 7.4048,405.588 5.4048,404.421 3.5,403C 2.26675,400.686 0.933421,398.519 -0.5,396.5C -0.5,393.833 -0.5,391.167 -0.5,388.5C 1.0672,387.319 1.90054,385.653 2,383.5C 2.81595,382.177 3.98261,381.511 5.5,381.5 Z"/></g>
<g><path style="opacity:0.967" fill="#848484" d="M 801.5,399.5 C 801.261,397.533 801.594,395.699 802.5,394C 795.5,393.333 788.5,393.333 781.5,394C 780.26,396.744 778.26,398.577 775.5,399.5C 777.666,397.163 779.666,394.663 781.5,392C 788.5,391.333 795.5,391.333 802.5,392C 803.378,394.658 803.044,397.158 801.5,399.5 Z"/></g>
<g><path style="opacity:0.349" fill="#848484" d="M 475.5,391.5 C 476.931,392.78 477.598,394.447 477.5,396.5C 476.069,395.22 475.402,393.553 475.5,391.5 Z"/></g>
<g><path style="opacity:0.455" fill="#8f8f8f" d="M 1114.5,393.5 C 1116.5,394.833 1118.17,396.5 1119.5,398.5C 1116.83,397.833 1115.17,396.167 1114.5,393.5 Z"/></g>
<g><path style="opacity:0.38" fill="#7c7c7c" d="M 1242.5,392.5 C 1243.91,392.973 1244.57,393.973 1244.5,395.5C 1243.09,395.027 1242.43,394.027 1242.5,392.5 Z"/></g>
<g><path style="opacity:0.808" fill="#828282" d="M 502.5,394.5 C 504.167,395.5 505.5,396.833 506.5,398.5C 504.167,398.167 502.833,396.833 502.5,394.5 Z"/></g>
<g><path style="opacity:0.478" fill="#898989" d="M 748.5,394.5 C 750.167,395.5 751.5,396.833 752.5,398.5C 750.167,398.167 748.833,396.833 748.5,394.5 Z"/></g>
<g><path style="opacity:0.953" fill="#6e6e6e" d="M 945.5,393.5 C 943.91,395.821 941.577,396.821 938.5,396.5C 940.649,395.264 942.982,394.264 945.5,393.5 Z"/></g>
<g><path style="opacity:0.337" fill="#7c7c7c" d="M 556.5,391.5 C 556.267,394.542 555.267,397.208 553.5,399.5C 553.603,396.364 554.603,393.698 556.5,391.5 Z"/></g>
<g><path style="opacity:0.494" fill="#717171" d="M 1044.5,396.5 C 1044.42,397.75 1043.76,398.583 1042.5,399C 1040.87,399.494 1039.2,399.66 1037.5,399.5C 1039.65,398.264 1041.98,397.264 1044.5,396.5 Z"/></g>
<g><path style="opacity:0.192" fill="#8f8f8f" d="M 1121.5,399.5 C 1126.17,400.833 1130.83,400.833 1135.5,399.5C 1135.39,400.117 1135.06,400.617 1134.5,401C 1130.5,401.667 1126.5,401.667 1122.5,401C 1121.94,400.617 1121.61,400.117 1121.5,399.5 Z"/></g>
<g><path style="opacity:0.506" fill="#868686" d="M 506.5,398.5 C 511.538,401.463 516.872,402.13 522.5,400.5C 522.389,401.117 522.056,401.617 521.5,402C 516.673,402.884 512.006,402.384 507.5,400.5C 506.702,400.043 506.369,399.376 506.5,398.5 Z"/></g>
<g><path style="opacity:1" fill="#545454" d="M 724.5,395.5 C 726.972,397.087 728.472,399.421 729,402.5C 729.333,402.167 729.667,401.833 730,401.5C 731.009,403.025 731.509,404.692 731.5,406.5C 733.262,406.643 734.929,406.309 736.5,405.5C 737.308,405.808 737.975,406.308 738.5,407C 736.945,408.646 735.279,408.979 733.5,408C 734.252,408.671 734.586,409.504 734.5,410.5C 729.606,406.594 726.272,401.594 724.5,395.5 Z"/></g>
<g><path style="opacity:0.125" fill="#aaaaaa" d="M 755.5,400.5 C 760.438,401.392 765.438,401.726 770.5,401.5C 766.019,402.648 761.352,402.815 756.5,402C 755.944,401.617 755.611,401.117 755.5,400.5 Z"/></g>
<g><path style="opacity:0.367" fill="#868686" d="M 603.5,397.5 C 608.438,398.392 613.438,398.726 618.5,398.5C 618.5,405.5 618.5,412.5 618.5,419.5C 610.316,419.826 602.316,419.492 594.5,418.5C 602.167,418.5 609.833,418.5 617.5,418.5C 617.5,412.167 617.5,405.833 617.5,399.5C 613.154,399.666 608.821,399.499 604.5,399C 603.944,398.617 603.611,398.117 603.5,397.5 Z"/></g>
<g><path style="opacity:1" fill="#eba362" d="M 9.5,406.5 C 13.8961,405.944 16.8961,407.61 18.5,411.5C 17.8333,411.5 17.1667,411.5 16.5,411.5C 13.883,410.214 11.5496,408.547 9.5,406.5 Z"/></g>
<g><path style="opacity:0.478" fill="#828282" d="M 734.5,410.5 C 736.027,410.427 737.027,411.094 737.5,412.5C 735.973,412.573 734.973,411.906 734.5,410.5 Z"/></g>
<g><path style="opacity:0.282" fill="#f4cda1" d="M 16.5,411.5 C 17.1667,411.5 17.8333,411.5 18.5,411.5C 19.1667,412.5 19.8333,413.5 20.5,414.5C 18.5956,414.262 17.2623,413.262 16.5,411.5 Z"/></g>
<g><path style="opacity:0.275" fill="#8d8d8d" d="M 412.5,407.5 C 412.065,410.157 411.065,412.491 409.5,414.5C 409.552,411.654 410.552,409.32 412.5,407.5 Z"/></g>
<g><path style="opacity:0.404" fill="#8f8f8f" d="M 1004.5,412.5 C 1006.03,412.427 1007.03,413.094 1007.5,414.5C 1005.97,414.573 1004.97,413.906 1004.5,412.5 Z"/></g>
<g><path style="opacity:0.008" fill="#a4a4a4" d="M 954.5,413.5 C 953.486,414.674 952.153,415.34 950.5,415.5C 951.287,413.896 952.62,413.229 954.5,413.5 Z"/></g>
<g><path style="opacity:1" fill="#646464" d="M 1103.5,413.5 C 1106.1,414.265 1108.76,414.599 1111.5,414.5C 1111.5,415.5 1111.5,416.5 1111.5,417.5C 1113.79,417.595 1115.79,418.262 1117.5,419.5C 1112.06,419.11 1107.4,417.11 1103.5,413.5 Z"/></g>
<g><path style="opacity:0.224" fill="#f1ca95" d="M 20.5,414.5 C 22.1788,414.285 23.1788,414.952 23.5,416.5C 21.9731,416.573 20.9731,415.906 20.5,414.5 Z"/></g>
<g><path style="opacity:0.337" fill="#838383" d="M 1007.5,414.5 C 1009.03,414.427 1010.03,415.094 1010.5,416.5C 1008.97,416.573 1007.97,415.906 1007.5,414.5 Z"/></g>
<g><path style="opacity:0.275" fill="#f2cca1" d="M 23.5,416.5 C 25.0269,416.427 26.0269,417.094 26.5,418.5C 24.9731,418.573 23.9731,417.906 23.5,416.5 Z"/></g>
<g><path style="opacity:0.216" fill="#929292" d="M 587.5,415.5 C 589.027,415.427 590.027,416.094 590.5,417.5C 588.973,417.573 587.973,416.906 587.5,415.5 Z"/></g>
<g><path style="opacity:0.141" fill="#a0a0a0" d="M 946.5,416.5 C 944.401,417.612 942.067,418.279 939.5,418.5C 941.438,416.837 943.772,416.171 946.5,416.5 Z"/></g>
<g><path style="opacity:0.173" fill="#f8cc9c" d="M 140.5,404.5 C 139.569,413.764 137.903,422.764 135.5,431.5C 136.427,422.259 138.094,413.259 140.5,404.5 Z"/></g>
<g><path style="opacity:0.529" fill="#707070" d="M 498.5,417.5 C 501.152,417.41 503.485,418.076 505.5,419.5C 502.848,419.59 500.515,418.924 498.5,417.5 Z"/></g>
<g><path style="opacity:0.455" fill="#828282" d="M 745.5,417.5 C 748.152,417.41 750.485,418.076 752.5,419.5C 749.848,419.59 747.515,418.924 745.5,417.5 Z"/></g>
<g><path style="opacity:0.043" fill="#9b9b9b" d="M 1147.5,416.5 C 1145.9,418.074 1143.9,418.741 1141.5,418.5C 1143.21,417.262 1145.21,416.595 1147.5,416.5 Z"/></g>
<g><path style="opacity:0.231" fill="#969696" d="M 534.5,417.5 C 532.786,418.738 530.786,419.405 528.5,419.5C 530.102,417.926 532.102,417.259 534.5,417.5 Z"/></g>
<g><path style="opacity:1" fill="#727272" d="M 1012.5,417.5 C 1021.17,418.833 1029.83,418.833 1038.5,417.5C 1029.83,421.5 1021.17,421.5 1012.5,417.5 Z"/></g>
<g><path style="opacity:0.234" fill="#949494" d="M 1258.5,415.5 C 1260.1,416.287 1260.77,417.62 1260.5,419.5C 1250.99,419.827 1241.65,419.494 1232.5,418.5C 1241.51,418.666 1250.51,418.5 1259.5,418C 1258.75,417.329 1258.41,416.496 1258.5,415.5 Z"/></g>
<g><path style="opacity:0.231" fill="#f1cba2" d="M 26.5,418.5 C 28.4044,418.738 29.7377,419.738 30.5,421.5C 28.5956,421.262 27.2623,420.262 26.5,418.5 Z"/></g>
<g><path style="opacity:0.522" fill="#6c6c6c" d="M 783.5,417.5 C 773.352,421.562 763.018,422.229 752.5,419.5C 761.213,419.752 769.88,419.252 778.5,418C 777.167,417.667 775.833,417.333 774.5,417C 777.507,416.699 780.507,416.865 783.5,417.5 Z"/></g>
<g><path style="opacity:0.255" fill="#f3d3a7" d="M 30.5,421.5 C 32.4044,421.738 33.7377,422.738 34.5,424.5C 32.5956,424.262 31.2623,423.262 30.5,421.5 Z"/></g>
<g><path style="opacity:1" fill="#e6b583" d="M 34.5,424.5 C 40.39,425.276 44.7234,428.276 47.5,433.5C 42.9841,430.744 38.6507,427.744 34.5,424.5 Z"/></g>
<g><path style="opacity:1" fill="#f0b985" d="M 47.5,433.5 C 51.2019,433.226 53.5352,434.892 54.5,438.5C 51.6298,437.567 49.2964,435.9 47.5,433.5 Z"/></g>
<g><path style="opacity:0.133" fill="#f3cb98" d="M 135.5,431.5 C 135.706,434.495 135.04,437.162 133.5,439.5C 133.111,436.447 133.777,433.78 135.5,431.5 Z"/></g>
<g><path style="opacity:1" fill="#eeb076" d="M 54.5,438.5 C 56.8568,438.337 59.1902,438.503 61.5,439C 63.4147,442.581 65.748,445.748 68.5,448.5C 63.1304,446.149 58.4637,442.815 54.5,438.5 Z"/></g>
<g><path style="opacity:1" fill="#edb27a" d="M 68.5,448.5 C 69.8734,448.343 71.2068,448.51 72.5,449C 75.0681,450.731 77.0681,452.898 78.5,455.5C 75.0854,453.161 71.7521,450.827 68.5,448.5 Z"/></g>
<g><path style="opacity:1" fill="#ecaf70" d="M 78.5,455.5 C 80.1667,455.5 81.8333,455.5 83.5,455.5C 83.5,456.5 83.5,457.5 83.5,458.5C 88.2938,459.628 91.9604,462.295 94.5,466.5C 88.8106,463.324 83.4773,459.658 78.5,455.5 Z"/></g>
<g><path style="opacity:0.224" fill="#f1c599" d="M 131.5,451.5 C 131.373,456.232 129.707,460.232 126.5,463.5C 127.655,459.203 129.321,455.203 131.5,451.5 Z"/></g>
<g><path style="opacity:1" fill="#edbe8f" d="M 126.5,463.5 C 125.811,466.189 124.144,467.856 121.5,468.5C 122.301,466.958 122.634,465.292 122.5,463.5C 123.833,463.5 125.167,463.5 126.5,463.5 Z"/></g>
<g><path style="opacity:0.224" fill="#f4c291" d="M 94.5,466.5 C 96.1667,466.5 97.8333,466.5 99.5,466.5C 99.3601,468.124 100.027,469.29 101.5,470C 108.323,470.934 114.99,470.434 121.5,468.5C 120.4,469.558 119.066,470.392 117.5,471C 111.576,472.408 105.576,472.408 99.5,471C 97.7605,469.483 96.0938,467.983 94.5,466.5 Z"/></g>
</svg>
