<?xml version="1.0" standalone="no"?>
<!DOCTYPE svg PUBLIC "-//W3C//DTD SVG 20010904//EN"
 "http://www.w3.org/TR/2001/REC-SVG-20010904/DTD/svg10.dtd">
<svg version="1.0" xmlns="http://www.w3.org/2000/svg"
 width="1008.000000pt" height="1008.000000pt" viewBox="0 0 1008.000000 1008.000000"
 preserveAspectRatio="xMidYMid meet">

<g transform="translate(0.000000,1008.000000) scale(0.100000,-0.100000)"
fill="#000000" stroke="none">
<path d="M4530 9061 l-495 -248 -3 -482 c-2 -403 -4 -483 -16 -487 -8 -3 -89
13 -180 35 -91 23 -239 59 -328 81 -428 103 -659 160 -724 175 l-71 17 -204
-102 c-112 -56 -210 -107 -216 -112 -10 -8 -13 -412 -13 -1958 l0 -1948 221
-111 c161 -81 225 -108 237 -102 10 5 49 16 87 25 39 8 174 41 300 71 127 31
304 74 395 96 91 22 239 58 329 80 93 23 167 37 172 32 5 -5 10 -227 11 -493
l3 -485 498 -250 498 -249 505 252 504 252 0 486 0 487 43 -7 c23 -4 134 -29
247 -57 113 -27 336 -81 495 -119 160 -39 342 -84 405 -100 l115 -30 223 112
222 112 -2 1949 -3 1950 -214 109 c-118 59 -223 108 -232 108 -10 0 -64 -12
-121 -26 -57 -14 -159 -39 -228 -55 -69 -16 -233 -56 -365 -89 -444 -109 -535
-130 -560 -130 l-25 0 0 478 0 479 -503 251 c-277 139 -505 252 -508 252 -2
-1 -227 -113 -499 -249z m740 -4342 c118 -22 240 -45 270 -49 30 -5 152 -27
270 -49 200 -39 254 -54 219 -64 -8 -3 -229 -58 -492 -122 l-478 -118 -272 67
c-150 37 -373 92 -497 123 -124 31 -231 61 -238 68 -10 9 12 16 105 33 102 18
362 66 638 118 44 8 107 19 140 25 33 6 62 12 65 15 2 3 16 3 30 0 14 -3 122
-24 240 -47z"/>
<path d="M7940 2645 c-143 -32 -241 -103 -301 -215 -34 -64 -34 -195 -1 -258
61 -115 172 -179 407 -237 327 -80 385 -118 385 -253 0 -69 -14 -104 -57 -143
-68 -62 -133 -81 -269 -81 -181 0 -295 54 -354 168 -11 23 -24 59 -27 80 -7
43 -18 55 -48 49 -11 -2 -42 -7 -69 -10 l-48 -7 6 -51 c21 -155 152 -302 313
-348 34 -9 67 -20 72 -24 6 -3 70 -6 143 -6 115 0 143 3 203 24 133 46 214
114 272 229 23 45 27 65 26 133 -1 69 -5 88 -33 143 -69 133 -168 186 -495
262 -218 52 -279 90 -290 185 -9 70 7 115 55 159 47 43 89 56 202 63 92 6 184
-7 236 -33 46 -22 100 -88 112 -136 22 -86 18 -81 67 -74 25 3 59 6 74 6 26 0
29 3 29 35 0 89 -89 223 -186 280 -105 62 -297 89 -424 60z"/>
<path d="M1003 2628 c-5 -7 -42 -98 -82 -203 -40 -104 -76 -199 -81 -210 -5
-11 -38 -96 -74 -190 -90 -235 -257 -667 -263 -683 -4 -10 14 -12 83 -10 l88
3 17 45 c23 61 52 140 84 230 14 41 30 82 34 90 7 13 51 15 289 18 l280 2 26
-67 c14 -38 47 -124 74 -193 l48 -125 92 -3 c51 -1 92 0 92 3 0 5 -402 994
-437 1075 -8 19 -19 44 -24 55 -5 11 -18 45 -29 75 -38 99 -40 100 -129 100
-51 0 -82 -4 -88 -12z m125 -246 c31 -93 90 -250 153 -412 46 -120 63 -110
-186 -110 -194 0 -215 2 -215 17 0 9 32 102 71 207 65 176 86 236 118 354 7
23 15 42 19 42 4 0 22 -44 40 -98z"/>
<path d="M9015 2622 c-72 -25 -117 -56 -168 -112 -50 -56 -86 -124 -89 -172
-3 -31 -2 -32 57 -44 33 -7 65 -13 71 -14 6 0 19 27 28 61 34 119 117 176 247
167 81 -6 138 -38 173 -98 24 -41 28 -160 7 -200 -36 -68 -127 -120 -210 -120
-27 0 -53 -6 -58 -12 -11 -14 -25 -113 -17 -121 3 -2 26 0 52 5 63 12 156 -6
207 -41 22 -14 53 -48 69 -74 26 -43 29 -56 29 -135 0 -70 -4 -96 -22 -135
-47 -97 -151 -154 -265 -145 -126 10 -189 69 -232 213 -8 25 -15 30 -44 33
-19 2 -53 -1 -75 -6 -38 -8 -40 -10 -37 -42 1 -18 16 -61 32 -94 48 -101 116
-164 223 -206 79 -31 225 -31 307 -1 130 49 228 150 269 277 21 65 11 198 -19
257 -29 59 -95 121 -150 143 -27 11 -40 22 -40 35 0 10 4 19 8 19 21 0 95 77
119 124 36 69 37 168 2 241 -33 72 -122 155 -195 184 -80 32 -209 38 -279 13z"/>
<path d="M2105 2269 c-27 -11 -75 -41 -105 -66 l-55 -45 -5 53 -5 54 -70 0
-70 0 0 -465 0 -465 78 -3 77 -3 1 253 c1 407 14 477 106 538 74 48 190 52
245 7 55 -46 58 -67 58 -448 l0 -349 79 0 80 0 3 333 c3 324 4 333 26 379 37
73 114 118 203 118 90 0 145 -38 167 -116 8 -28 12 -151 12 -378 l0 -336 75 0
75 0 0 364 c0 408 -3 431 -68 507 -53 61 -119 89 -214 89 -99 0 -169 -29 -238
-100 -45 -46 -80 -64 -80 -40 0 22 -78 95 -125 116 -66 31 -177 32 -250 3z"/>
<path d="M3526 2274 c-127 -34 -205 -103 -246 -214 l-18 -49 54 -11 c74 -16
95 -11 108 25 38 106 93 138 235 138 114 0 179 -22 210 -73 21 -35 37 -148 23
-162 -11 -11 -100 -31 -207 -47 -260 -39 -326 -64 -392 -148 -43 -55 -57 -98
-56 -169 1 -75 29 -132 94 -188 58 -49 119 -67 226 -67 107 0 176 21 267 81
67 43 96 47 96 11 0 -11 5 -32 12 -46 11 -24 15 -25 89 -25 l77 0 -19 50 c-17
45 -19 79 -19 323 0 149 -5 303 -10 342 -18 123 -81 194 -206 230 -64 19 -248
18 -318 -1z m368 -483 c4 -5 2 -50 -3 -100 -14 -129 -52 -186 -158 -236 -70
-34 -197 -36 -252 -4 -50 28 -73 64 -79 118 -3 36 1 53 20 80 32 48 70 68 168
86 178 33 246 48 260 56 20 11 37 11 44 0z"/>
<path d="M5373 2266 c-202 -75 -313 -289 -282 -543 32 -263 190 -412 436 -413
74 0 106 5 158 25 119 44 210 134 255 251 43 112 39 340 -8 444 -77 172 -217
261 -406 259 -70 0 -106 -5 -153 -23z m263 -121 c51 -21 111 -82 141 -143 27
-54 28 -64 28 -202 -1 -134 -3 -149 -26 -200 -102 -219 -386 -227 -491 -13
-33 68 -33 69 -32 213 0 126 3 151 21 192 25 55 85 123 126 144 64 34 163 37
233 9z"/>
<path d="M6455 2270 c-27 -11 -73 -40 -102 -65 -28 -25 -56 -45 -62 -45 -7 0
-11 22 -11 55 l0 55 -70 0 -70 0 0 -470 0 -471 78 3 77 3 5 325 c4 284 7 330
23 365 41 91 106 129 222 130 93 0 124 -12 169 -68 l31 -39 5 -356 5 -357 78
-3 77 -3 0 348 c0 359 -3 392 -44 470 -23 46 -88 99 -150 122 -74 28 -190 28
-261 1z"/>
<path d="M4234 2256 c-3 -7 -4 -33 -2 -57 l3 -44 278 -3 c189 -1 277 -6 277
-13 0 -6 -15 -28 -32 -48 -18 -21 -151 -173 -295 -339 l-263 -302 0 -60 0 -60
415 0 415 0 0 66 0 66 -312 -3 c-239 -2 -312 0 -310 9 1 7 69 90 150 185 489
571 453 525 450 571 l-3 41 -383 3 c-320 2 -383 0 -388 -12z"/>
</g>
</svg>
