<?xml version="1.0" standalone="no"?>
<!DOCTYPE svg PUBLIC "-//W3C//DTD SVG 20010904//EN"
 "http://www.w3.org/TR/2001/REC-SVG-20010904/DTD/svg10.dtd">
<svg version="1.0" xmlns="http://www.w3.org/2000/svg"
 width="1280.000000pt" height="313.000000pt" viewBox="0 0 1280.000000 313.000000"
 preserveAspectRatio="xMidYMid meet">

<g transform="translate(0.000000,313.000000) scale(0.100000,-0.100000)"
fill="#000000" stroke="none">
<path d="M12 3118 c-9 -9 -12 -366 -12 -1547 0 -845 4 -1542 8 -1549 7 -10
311 -12 1488 -10 l1479 3 0 1334 c0 881 -3 1335 -10 1337 -5 1 -217 -231 -470
-517 -522 -588 -522 -589 -537 -589 -10 0 -375 369 -487 492 l-43 48 18 27
c26 41 162 211 174 218 16 10 31 -4 180 -168 78 -87 149 -157 156 -155 21 5
786 1058 780 1074 -5 12 -214 14 -1359 14 -1039 0 -1356 -3 -1365 -12z m1013
-1453 c114 -31 285 -127 285 -161 0 -21 -129 -194 -145 -194 -7 0 -36 15 -64
34 -123 83 -327 120 -415 74 -65 -33 -92 -97 -61 -144 23 -35 79 -58 239 -99
74 -19 156 -42 183 -51 135 -46 227 -116 273 -209 22 -44 25 -64 25 -155 0
-95 -3 -111 -29 -167 -32 -70 -107 -148 -175 -183 -117 -59 -363 -81 -516 -46
-89 21 -237 93 -295 144 l-45 40 59 85 c32 48 67 94 78 104 22 19 13 23 119
-48 83 -55 161 -81 266 -87 112 -6 171 8 219 53 28 26 34 40 34 72 0 82 -32
100 -292 169 -92 24 -191 54 -220 68 -118 53 -186 128 -214 237 -54 209 94
421 326 468 30 6 64 13 75 15 39 9 231 -4 290 -19z m1041 -316 c228 -42 384
-245 384 -501 l0 -78 -356 0 -355 0 6 -22 c28 -90 95 -159 180 -184 77 -22
173 -8 269 40 38 19 75 32 81 30 18 -7 105 -143 99 -157 -2 -7 -24 -24 -47
-39 -152 -96 -384 -120 -550 -58 -67 26 -100 48 -164 111 -93 92 -143 218
-143 359 0 326 277 557 596 499z"/>
<path d="M1886 1135 c-65 -23 -145 -118 -146 -172 0 -10 53 -13 231 -13 l231
0 -7 28 c-34 136 -171 206 -309 157z"/>
<path d="M6310 1610 l0 -870 65 0 65 0 0 870 0 870 -65 0 -65 0 0 -870z"/>
<path d="M4120 2342 c-131 -34 -230 -114 -288 -230 -35 -73 -37 -80 -36 -176
1 -240 101 -336 478 -460 180 -60 240 -90 298 -149 54 -56 71 -108 67 -210 -4
-72 -8 -90 -34 -133 -53 -85 -168 -141 -310 -151 -97 -7 -272 10 -424 41
l-111 22 0 -58 0 -57 38 -10 c180 -49 489 -72 617 -47 95 19 208 70 262 120
88 79 132 216 114 351 -29 202 -138 295 -476 400 -234 74 -305 117 -352 213
-35 72 -38 173 -6 242 43 94 157 170 285 190 79 12 258 -1 391 -29 l88 -18 -3
60 c-3 61 -3 61 -38 69 -179 40 -447 49 -560 20z"/>
<path d="M9382 2325 c-36 -30 -48 -74 -31 -107 19 -36 40 -47 87 -48 32 0 49
6 67 25 41 40 27 113 -26 141 -40 20 -63 17 -97 -11z"/>
<path d="M8572 1909 c-59 -10 -207 -63 -320 -115 -41 -19 -78 -34 -83 -34 -5
0 -9 24 -9 54 0 81 -4 86 -66 86 l-54 0 0 -580 0 -580 70 0 70 0 0 460 0 461
68 30 c37 17 114 47 172 67 90 30 118 36 200 36 119 1 159 -19 196 -98 l24
-51 0 -457 0 -458 70 0 70 0 0 473 c0 390 -3 482 -15 524 -36 120 -126 184
-264 189 -42 2 -100 -1 -129 -7z"/>
<path d="M11695 1910 c-57 -12 -136 -44 -244 -101 -52 -27 -96 -47 -99 -45 -2
3 -7 34 -9 70 l-6 66 -58 0 -59 0 0 -580 0 -580 70 0 70 0 0 464 0 464 103 51
c159 79 281 101 364 66 50 -21 72 -42 94 -90 17 -37 19 -75 19 -497 l0 -458
70 0 70 0 0 464 0 463 103 51 c171 86 281 103 373 57 39 -19 55 -35 74 -72
l25 -48 3 -457 3 -458 65 0 65 0 -3 493 -3 492 -27 51 c-55 104 -152 151 -288
141 -90 -7 -176 -37 -308 -107 -51 -28 -96 -50 -100 -50 -4 0 -18 18 -32 41
-62 100 -182 139 -335 109z"/>
<path d="M5415 1896 c-131 -32 -238 -121 -300 -250 -54 -113 -69 -189 -69
-356 1 -129 4 -154 27 -226 59 -178 161 -280 332 -329 49 -15 84 -17 200 -12
77 3 158 11 180 17 22 6 64 18 93 26 l52 15 0 48 c0 26 -2 50 -5 53 -3 3 -47
-6 -98 -20 -76 -21 -116 -25 -232 -26 -131 -1 -144 1 -195 25 -31 14 -72 40
-91 57 -65 57 -129 208 -129 304 l0 38 396 0 396 0 -4 158 c-4 141 -7 164 -32
227 -35 91 -70 141 -131 188 -93 70 -254 96 -390 63z m236 -101 c23 -9 58 -27
76 -41 63 -48 113 -182 116 -311 l2 -78 -328 -3 c-288 -2 -328 0 -333 13 -10
25 22 180 49 238 45 98 127 168 218 186 70 14 153 12 200 -4z"/>
<path d="M7155 1896 c-76 -18 -171 -74 -219 -127 -24 -26 -59 -81 -79 -121
-56 -113 -71 -190 -70 -358 0 -129 3 -154 26 -226 59 -178 161 -280 332 -329
49 -15 84 -17 200 -12 77 3 158 11 180 17 22 6 64 18 93 26 l52 15 0 48 c0 26
-2 50 -5 53 -3 3 -47 -6 -98 -20 -76 -21 -116 -25 -232 -26 -139 -1 -141 -1
-207 32 -74 36 -124 87 -159 161 -29 62 -49 137 -49 189 l0 42 389 0 c345 0
390 2 395 16 3 9 6 64 6 122 -1 334 -150 514 -423 511 -45 0 -104 -6 -132 -13z
m236 -101 c23 -9 58 -27 76 -41 63 -48 113 -182 116 -311 l2 -78 -330 0 -330
0 3 55 c8 157 74 285 177 346 74 43 207 57 286 29z"/>
<path d="M9370 1320 l0 -580 65 0 65 0 0 580 0 580 -65 0 -65 0 0 -580z"/>
<path d="M9892 1413 c3 -430 6 -493 21 -531 25 -64 53 -99 105 -129 45 -27 53
-28 177 -28 148 0 170 6 379 101 65 30 122 54 126 54 4 0 11 -31 14 -70 l7
-70 55 0 54 0 0 580 0 580 -70 0 -70 0 0 -460 0 -460 -67 -31 c-144 -66 -242
-98 -331 -110 -104 -14 -151 -6 -201 36 -59 50 -61 72 -61 572 l0 453 -71 0
-70 0 3 -487z"/>
</g>
</svg>
