<?xml version="1.0" standalone="no"?>
<!DOCTYPE svg PUBLIC "-//W3C//DTD SVG 20010904//EN"
 "http://www.w3.org/TR/2001/REC-SVG-20010904/DTD/svg10.dtd">
<svg version="1.0" xmlns="http://www.w3.org/2000/svg"
 width="1008.000000pt" height="1008.000000pt" viewBox="0 0 1008.000000 1008.000000"
 preserveAspectRatio="xMidYMid meet">

<g transform="translate(0.000000,1008.000000) scale(0.100000,-0.100000)"
fill="#000000" stroke="none">
<path d="M827 10064 c-208 -37 -383 -129 -532 -279 -129 -129 -214 -275 -264
-454 l-26 -96 0 -4195 0 -4195 26 -96 c50 -179 135 -325 264 -454 152 -153
325 -242 540 -280 78 -13 564 -15 4205 -15 3641 0 4127 2 4205 15 215 38 388
127 540 280 129 129 214 275 264 454 l26 96 0 4195 0 4195 -26 96 c-50 179
-135 325 -264 454 -152 153 -325 242 -540 280 -78 13 -562 15 -4214 14 -3494
-1 -4138 -3 -4204 -15z m6413 -1671 c0 -3 97 -583 215 -1288 118 -706 215
-1291 215 -1302 0 -17 -28 -23 -277 -65 -153 -25 -281 -43 -284 -39 -7 7 -442
2602 -437 2606 4 3 526 92 551 94 9 1 17 -2 17 -6z m-1020 -1659 c572 -797
765 -1072 756 -1080 -19 -20 -445 -324 -453 -324 -8 0 -1531 2123 -1539 2144
-4 12 445 337 460 333 5 -2 355 -484 776 -1073z m-926 -828 c616 -372 1122
-678 1124 -681 3 -2 -62 -115 -143 -250 l-148 -245 -47 28 c-195 113 -2219
1338 -2220 1343 -1 18 294 490 304 486 6 -3 515 -309 1130 -681z m-481 -962
c694 -196 1265 -358 1268 -360 3 -2 -29 -126 -71 -276 -66 -233 -80 -273 -96
-271 -26 2 -2518 705 -2526 712 -9 8 143 551 154 551 5 0 577 -160 1271 -356z
m-1901 -804 c-1 -184 -5 -689 -9 -1122 l-6 -788 1681 0 1682 0 0 1120 0 1120
270 0 270 0 0 -1395 0 -1395 -2202 0 -2201 0 6 248 c4 136 7 766 7 1400 l0
1152 252 -2 252 -3 -2 -335z m1711 -106 c716 -69 1304 -127 1306 -130 3 -3
-48 -567 -52 -570 -6 -4 -2628 254 -2633 258 -3 3 7 132 22 287 22 222 30 281
42 281 7 0 599 -57 1315 -126z m1247 -1164 l0 -280 -1320 0 -1320 0 0 280 0
280 1320 0 1320 0 0 -280z"/>
</g>
</svg>
