<?xml version="1.0" standalone="no"?>
<!DOCTYPE svg PUBLIC "-//W3C//DTD SVG 20010904//EN"
 "http://www.w3.org/TR/2001/REC-SVG-20010904/DTD/svg10.dtd">
<svg version="1.0" xmlns="http://www.w3.org/2000/svg"
 width="1008.000000pt" height="1008.000000pt" viewBox="0 0 1008.000000 1008.000000"
 preserveAspectRatio="xMidYMid meet">

<g transform="translate(0.000000,1008.000000) scale(0.100000,-0.100000)"
fill="#000000" stroke="none">
<path d="M827 10064 c-208 -37 -383 -129 -532 -279 -129 -129 -214 -275 -264
-454 l-26 -96 0 -4195 0 -4195 26 -96 c50 -179 135 -325 264 -454 152 -153
325 -242 540 -280 78 -13 564 -15 4205 -15 3641 0 4127 2 4205 15 215 38 388
127 540 280 129 129 214 275 264 454 l26 96 0 4195 0 4195 -26 96 c-50 179
-135 325 -264 454 -152 153 -325 242 -540 280 -78 13 -562 15 -4214 14 -3494
-1 -4138 -3 -4204 -15z m6987 -821 c18 -84 545 -3257 542 -3260 -4 -5 -709
-123 -712 -120 -1 2 -544 3249 -547 3277 -2 12 62 26 328 71 182 32 342 57
357 58 21 1 28 -4 32 -26z m-1289 -2066 c531 -741 965 -1351 965 -1355 -1 -13
-583 -423 -591 -415 -17 19 -1929 2693 -1931 2702 -4 12 563 420 579 418 7 -1
447 -608 978 -1350z m-1155 -1052 c773 -466 1407 -850 1409 -852 9 -7 -368
-618 -379 -615 -10 2 -2839 1708 -2848 1717 -2 1 82 143 185 313 178 294 189
310 208 298 11 -7 652 -395 1425 -861z m-616 -1206 c881 -249 1602 -453 1603
-453 6 -5 -193 -696 -201 -696 -11 0 -3199 900 -3204 905 -5 4 190 695 197
695 2 0 725 -203 1605 -451z m-2514 -586 l123 -6 -7 -916 c-3 -504 -9 -1140
-12 -1413 l-7 -498 2122 0 2121 0 0 1410 0 1410 335 0 335 0 0 -1755 0 -1755
-2765 0 -2765 0 0 1765 0 1765 198 0 c110 0 254 -3 322 -7z m2260 -558 c894
-86 1634 -158 1645 -160 20 -4 20 -6 -14 -362 -18 -197 -35 -359 -36 -361 -2
-3 -3318 317 -3321 321 -2 2 12 163 31 358 19 195 35 355 35 357 0 5 107 -5
1660 -153z m1588 -1467 l-3 -353 -1660 0 -1660 0 -3 353 -2 352 1665 0 1665 0
-2 -352z"/>
</g>
</svg>
